<?xml version="1.0" standalone="no"?>
<!DOCTYPE svg PUBLIC "-//W3C//DTD SVG 1.1//EN" "http://www.w3.org/Graphics/SVG/1.1/DTD/svg11.dtd">
<!--Generator: Xara Designer (www.xara.com), SVG filter version: 6.2.0.0-->
<svg stroke-width="0.501" stroke-linejoin="bevel" fill-rule="evenodd" xmlns:xlink="http://www.w3.org/1999/xlink" xmlns="http://www.w3.org/2000/svg" version="1.1" overflow="visible" width="766.808pt" height="766.808pt" viewBox="0 0 766.808 766.808" enable-background="new">
 <defs>
  <filter id="StainedFilter">
   <feBlend mode="multiply" in2="BackgroundImage" in="SourceGraphic" result="blend"/>
   <feComposite in="blend" in2="SourceAlpha" operator="in" result="comp"/>
  </filter>
  <linearGradient id="LinearGradient" gradientUnits="userSpaceOnUse" x1="0" y1="0" x2="7.584" y2="-4.627" gradientTransform="translate(130.69 233.719)">
   <stop offset="0" stop-color="#ffffff"/>
   <stop offset="1" stop-color="#000000"/>
  </linearGradient>
 </defs>
 <g id="Document" fill="none" stroke="black" font-family="Times New Roman" font-size="16" transform="scale(1 -1)">
  <g id="Spread" transform="translate(0 -766.808)">
   <g id="Layer 1">
    <g id="ClipView">
     <path d="M 151.49,688.758 C 320.044,816.773 560.743,783.873 688.758,615.318 C 816.773,446.764 783.873,206.065 615.318,78.05 C 446.764,-49.965 206.065,-17.065 78.05,151.49 C -49.965,320.044 -17.065,560.743 151.49,688.758 Z" fill="#69c15c" stroke-width="0" stroke="none" stroke-linejoin="miter" marker-start="none" marker-end="none" stroke-miterlimit="79.8403193612775"/>
     <clipPath id="ClipPath">
      <path d="M 151.49,688.758 C 320.044,816.773 560.743,783.873 688.758,615.318 C 816.773,446.764 783.873,206.065 615.318,78.05 C 446.764,-49.965 206.065,-17.065 78.05,151.49 C -49.965,320.044 -17.065,560.743 151.49,688.758 Z"/>
     </clipPath>
     <g clip-path="url(#ClipPath)">
      <g id="Group">
       <g id="Group_1">
        <path d="M 532.599,363.313 L 592.094,244.214 L 545.795,244.214 L 532.599,363.313 Z" stroke="#012e42" fill="#69c15c" stroke-width="12.347" stroke-linejoin="round" stroke-linecap="round" marker-start="none" marker-end="none" stroke-miterlimit="79.8403193612775"/>
        <path d="M 348.759,305.024 L 348.759,320.702 L 339.727,320.702 L 336.48,422.862 L 348.759,427.754 L 348.759,463.813 L 427.251,463.813 L 427.251,427.754 L 439.489,422.546 L 436.212,320.702 L 427.251,320.702 L 427.251,305.024 L 348.759,305.024 Z" stroke-linejoin="miter" stroke="none" stroke-width="0" fill="#f7cdb9" marker-start="none" marker-end="none" stroke-miterlimit="79.8403193612775"/>
        <mask id="TranspMask">
         <rect x="-10%" y="-10%" width="120%" height="120%" fill="#ffffff" stroke="none"/>
        </mask>
        <g id="Group_2" stroke-linejoin="miter" stroke="none" stroke-width="0" fill="#f7cdb9" stroke-miterlimit="79.8403193612775" mask="url(#TranspMask)" filter="url(#StainedFilter)">
         <path d="M 427.236,430.838 L 348.731,446.121 L 348.731,460.141 L 427.236,460.141 L 427.236,430.838 Z" marker-start="none" marker-end="none"/>
        </g>
        <path d="M 262.156,91.422 L 261.785,96.055 C 257.165,161.485 254.546,292.373 254.546,292.373 C 254.546,292.373 202.769,330.871 220.792,367.89 C 235.195,396.973 275.572,404.169 333.479,422.603 C 335.547,423.287 337.632,423.946 339.727,424.63 C 339.743,424.547 339.743,424.439 339.794,424.355 C 343.607,404.361 354.435,378.497 387.985,375.483 C 421.537,378.497 432.348,404.361 436.159,424.355 C 436.212,424.439 436.212,424.547 436.227,424.63 C 438.325,423.946 440.434,423.287 442.477,422.603 C 500.385,404.169 540.76,396.973 555.162,367.89 C 573.187,330.871 521.422,292.373 521.422,292.373 C 521.422,292.373 518.778,161.485 514.157,96.055 L 513.691,90.3 L 499.15,83.805 C 465.353,70.577 428.196,63.245 389.191,63.245 C 350.186,63.245 313.028,70.577 279.232,83.805 L 262.156,91.422 Z" stroke-linejoin="miter" stroke="none" stroke-width="0" fill="#ffffff" marker-start="none" marker-end="none" stroke-miterlimit="79.8403193612775"/>
        <g id="Group_3" stroke-linejoin="miter" stroke="none" stroke-width="0" stroke-miterlimit="79.8403193612775">
         <path d="M 376.404,368.507 L 369.086,381.856 L 387.985,396.163 L 406.858,381.856 L 399.347,368.507 L 376.404,368.507 Z" fill="#f05d44" marker-start="none" marker-end="none"/>
         <path d="M 363.835,372.619 L 316.867,417.312 C 316.951,417.339 348.306,430.14 348.306,430.14 L 357.997,421.822 L 387.985,396.163 L 363.835,372.619 Z" fill="#e6e7e8" marker-start="none" marker-end="none"/>
         <path d="M 412.106,372.619 L 387.985,396.163 L 417.944,421.822 L 427.635,430.14 C 427.635,430.14 459.021,417.339 459.06,417.312 L 412.106,372.619 Z" fill="#e6e7e8" marker-start="none" marker-end="none"/>
         <path d="M 387.985,65.657 L 367.276,86.845 L 376.404,365.285 L 399.347,365.285 L 408.665,86.845 L 387.985,65.657 Z" fill="#f05d44" marker-start="none" marker-end="none"/>
        </g>
        <g id="Group_4" stroke-linejoin="miter" stroke="none" stroke-width="0" fill="#f7cdb9" stroke-miterlimit="79.8403193612775">
         <path d="M 242.624,190.732 L 243.762,236.166 C 243.762,236.166 246.653,236.153 250.998,236.153 C 253.205,236.221 255.769,236.261 258.523,236.372 C 261.32,236.523 264.293,236.687 267.252,236.852 C 279.232,237.673 294.623,239.251 294.623,239.251 C 304.121,240.402 313.687,231.643 315.949,219.227 C 318.183,206.892 311.686,195.487 301.118,194.186 C 301.118,194.186 284.672,192.473 270.938,191.515 C 267.472,191.323 264.005,191.13 260.756,190.952 C 257.439,190.843 254.342,190.759 251.684,190.679 C 246.243,190.692 242.624,190.732 242.624,190.732 Z" marker-start="none" marker-end="none"/>
         <path d="M 252.464,218.05 C 249.751,220.544 249.298,225.353 251.203,228.669 C 251.438,229.096 254.48,234.317 259.154,239.524 C 263.883,244.828 270.185,250.16 278.299,250.997 C 281.357,251.339 284.302,248.228 284.851,244.075 C 285.413,239.908 283.262,236.261 280.055,235.934 C 274.514,235.359 269.924,231.398 266.513,227.49 C 264.812,225.571 263.416,223.668 262.442,222.202 C 261.469,220.747 260.92,219.761 260.881,219.707 C 259.029,216.267 255.166,215.595 252.464,218.05 Z" marker-start="none" marker-end="none"/>
        </g>
        <path d="M 156.049,190.583 C 144.121,199.572 123.305,228.876 149.522,278.352 C 171.328,319.426 202.769,356.664 236.017,385.763 L 275.463,309.464 C 244.585,282.463 237.129,284.204 208.113,254.271 C 199.316,245.252 202.824,242.141 203.028,241.992 C 207.688,238.482 235.703,240.413 254.111,241.812 L 258.824,181.359 C 252.752,180.904 256.276,180.576 249.929,180.576 C 229.811,180.576 173.029,177.766 156.049,190.583 Z" stroke-linejoin="miter" stroke="none" stroke-width="0" fill="#ffffff" marker-start="none" marker-end="none" stroke-miterlimit="79.8403193612775"/>
        <g id="Group_5" stroke-linejoin="miter" stroke="none" stroke-width="0" fill="#f7cdb9" stroke-miterlimit="79.8403193612775">
         <path d="M 517.638,190.952 C 514.389,191.13 510.923,191.323 507.441,191.515 C 493.723,192.473 477.247,194.186 477.247,194.186 C 466.709,195.487 460.186,206.892 462.433,219.227 C 464.707,231.643 474.274,240.402 483.772,239.251 C 483.772,239.251 499.164,237.673 511.128,236.852 C 514.089,236.687 517.076,236.523 519.86,236.372 C 522.613,236.261 525.191,236.221 527.382,236.153 C 531.712,236.153 534.633,236.166 534.633,236.166 L 535.769,190.732 C 535.769,190.732 532.151,190.692 526.711,190.679 C 524.051,190.759 520.953,190.843 517.638,190.952 Z" marker-start="none" marker-end="none"/>
         <path d="M 517.499,219.707 C 517.46,219.761 516.898,220.747 515.937,222.202 C 514.965,223.668 513.581,225.571 511.88,227.49 C 508.468,231.398 503.877,235.359 498.341,235.934 C 495.135,236.261 492.981,239.908 493.545,244.075 C 494.093,248.228 497.025,251.339 500.081,250.997 C 508.21,250.16 514.514,244.828 519.241,239.524 C 523.899,234.317 526.956,229.096 527.191,228.669 C 529.095,225.353 528.645,220.544 525.932,218.05 C 523.217,215.595 519.351,216.267 517.499,219.707 Z" marker-start="none" marker-end="none"/>
        </g>
        <path d="M 528.465,180.576 C 522.106,180.576 525.629,180.904 519.57,181.359 L 524.285,241.812 C 542.664,240.413 570.704,238.482 575.352,241.992 C 575.571,242.141 579.064,245.252 570.281,254.271 C 541.266,284.204 534.906,281.613 504.043,308.612 L 542.789,383.569 C 576.05,354.499 607.066,319.426 628.857,278.352 C 655.089,228.876 634.27,199.572 622.334,190.583 C 605.367,177.766 548.586,180.576 528.465,180.576 Z" stroke-linejoin="miter" stroke="none" stroke-width="0" fill="#ffffff" marker-start="none" marker-end="none" stroke-miterlimit="79.8403193612775"/>
        <path d="M 306.847,487.663 C 305.765,484.538 302.86,482.728 299.187,481.605 C 301.901,488.21 302.6,496.913 299.187,503.794 L 299.584,503.107 C 297.721,508.235 296.35,513.579 295.499,519.048 C 295.13,520.966 294.87,522.898 294.745,524.858 C 294.404,527.736 294.294,530.615 294.294,533.52 C 294.294,540.278 295.034,546.882 296.473,553.215 C 296.966,555.545 297.584,557.848 298.28,560.094 C 300.148,566.194 302.652,572.019 305.738,577.5 C 309.342,583.971 313.726,589.974 318.786,595.359 C 323.034,599.95 327.776,604.101 332.916,607.734 C 333.313,608.037 333.713,608.338 334.121,608.585 C 338.205,611.435 342.524,613.93 347.046,616.069 C 359.272,621.852 373.003,625.112 387.504,625.112 C 402.005,625.112 415.739,621.852 427.964,616.04 C 438.695,610.985 448.289,603.913 456.237,595.359 C 461.295,589.974 465.68,583.971 469.287,577.5 C 472.355,572.019 474.876,566.194 476.741,560.094 C 477.455,557.791 478.044,555.531 478.538,553.215 C 479.975,546.882 480.73,540.278 480.73,533.52 C 480.73,530.615 480.607,527.736 480.318,524.885 C 480.152,522.898 479.879,520.966 479.523,519.048 C 478.659,513.579 477.301,508.235 475.467,503.107 L 475.809,503.794 C 472.423,496.913 473.122,488.21 475.809,481.605 C 472.162,482.728 469.243,484.538 468.189,487.663 C 463.295,479.329 400.21,447.998 387.504,447.998 C 374.786,447.998 311.727,479.383 306.847,487.663 Z" stroke="none" fill="#3c2417" stroke-width="0" stroke-linejoin="miter" marker-start="none" marker-end="none" stroke-miterlimit="79.8403193612775"/>
        <g id="Group_6" stroke-linejoin="miter" stroke="none" stroke-width="0" stroke-miterlimit="79.8403193612775">
         <path d="M 306.094,520.788 C 297.09,520.843 289.867,527.614 289.867,535.933 L 289.867,551.691 C 289.867,556.34 292.074,560.45 295.597,563.248 C 297.514,564.755 299.775,565.851 302.311,566.384 L 299.652,598.372 C 299.652,640.231 342.813,674.139 387.985,674.139 C 433.116,674.139 476.288,640.231 476.288,598.372 L 473.644,566.357 C 480.77,564.727 486.103,558.807 486.103,551.691 L 486.103,535.933 C 486.103,527.599 478.837,520.857 469.847,520.788 C 469.847,481.275 418.602,443.817 387.985,443.817 C 357.353,443.817 306.094,481.275 306.094,520.788 Z" fill="#f7cdb9" marker-start="none" marker-end="none"/>
         <mask id="TranspMask_1">
          <rect x="-10%" y="-10%" width="120%" height="120%" fill="#cccccc" stroke="none"/>
         </mask>
         <g id="Group_7" fill="#f7cdb9" mask="url(#TranspMask_1)" filter="url(#StainedFilter)">
          <path d="M 387.97,443.817 L 387.97,502.915 L 368.356,502.915 C 368.356,502.915 376.049,536.973 387.97,560.493 C 387.97,560.493 387.97,674.139 387.985,674.139 C 433.116,674.139 476.288,640.231 476.288,598.372 L 473.644,566.357 C 480.77,564.727 486.103,558.807 486.103,551.691 L 486.103,535.933 C 486.103,527.599 478.837,520.857 469.847,520.788 C 469.847,481.275 418.602,443.817 387.97,443.817 Z" marker-start="none" marker-end="none"/>
         </g>
         <g id="Group_8">
          <g id="Group_9">
           <mask id="TranspMask_2">
            <rect x="-10%" y="-10%" width="120%" height="120%" fill="#ffffff" stroke="none"/>
           </mask>
           <g id="Group_10" fill="#f7cdb9" mask="url(#TranspMask_2)" filter="url(#StainedFilter)">
            <path d="M 337.451,550.912 C 337.205,557.532 342.77,563.069 349.898,563.315 C 357.022,563.536 363.014,558.367 363.261,551.761 C 363.506,545.142 357.916,539.62 350.788,539.371 C 343.661,539.14 337.7,544.32 337.451,550.912 Z" marker-start="none" marker-end="none"/>
           </g>
           <path d="M 337.451,553.942 C 337.205,560.562 342.77,566.098 349.898,566.331 C 357.022,566.536 363.014,561.383 363.261,554.778 C 363.506,548.172 357.916,542.634 350.788,542.401 C 343.661,542.18 337.7,547.35 337.451,553.942 Z" fill="#3c2417" marker-start="none" marker-end="none"/>
           <path d="M 351.5,551.925 C 351.46,553.599 352.842,554.97 354.611,555.038 C 356.421,555.092 357.901,553.791 357.97,552.133 C 358.024,550.487 356.627,549.089 354.858,549.049 C 353.061,548.98 351.567,550.283 351.5,551.925 Z" fill="#ffffff" marker-start="none" marker-end="none"/>
          </g>
          <g id="Group_11">
           <mask id="TranspMask_3">
            <rect x="-10%" y="-10%" width="120%" height="120%" fill="#ffffff" stroke="none"/>
           </mask>
           <g id="Group_12" fill="#f7cdb9" mask="url(#TranspMask_3)" filter="url(#StainedFilter)">
            <path d="M 412.669,550.912 C 412.42,557.532 417.986,563.069 425.14,563.315 C 432.267,563.536 438.227,558.367 438.489,551.761 C 438.75,545.142 433.158,539.62 426.044,539.371 C 418.903,539.14 412.915,544.32 412.669,550.912 Z" marker-start="none" marker-end="none"/>
           </g>
           <path d="M 412.669,553.942 C 412.42,560.562 417.986,566.098 425.14,566.331 C 432.267,566.536 438.227,561.383 438.489,554.778 C 438.75,548.172 433.158,542.634 426.044,542.401 C 418.903,542.18 412.915,547.35 412.669,553.942 Z" fill="#3c2417" marker-start="none" marker-end="none"/>
           <path d="M 426.743,551.925 C 426.69,553.599 428.072,554.97 429.868,555.038 C 431.636,555.092 433.143,553.791 433.184,552.133 C 433.253,550.487 431.869,549.089 430.074,549.049 C 428.292,548.98 426.798,550.283 426.743,551.925 Z" fill="#ffffff" marker-start="none" marker-end="none"/>
          </g>
         </g>
        </g>
        <path d="M 294.745,530.901 C 294.705,530.901 294.705,530.941 294.705,530.941 C 292.827,534.246 291.02,538.427 289.362,543.305 C 280.383,569.978 277.106,617.068 297.35,652.197 C 297.35,652.223 297.391,652.223 297.391,652.266 C 312.329,678.099 340.015,703.563 387.504,703.563 C 435.009,703.563 462.678,678.099 477.632,652.266 C 477.632,652.223 477.646,652.223 477.646,652.197 C 497.902,617.068 494.627,569.978 485.635,543.305 C 484.005,538.427 482.195,534.246 480.318,530.941 C 480.318,530.941 480.318,530.901 480.262,530.901 C 476.671,524.668 472.754,521.516 469.287,522.816 C 469.243,522.816 469.201,522.843 469.191,522.843 L 469.191,536.165 L 469.201,553.379 C 466.764,556.766 464.377,561.548 462.336,566.357 L 462.336,566.384 C 458.389,575.65 455.676,585.038 455.676,585.038 C 454.429,577.736 455.197,571.594 457.02,566.851 C 445.083,569.989 440.092,574.199 431.979,583.162 C 431.979,577.2 434.143,574.54 434.926,572.676 C 425.62,571.882 404.02,575.939 387.504,583.64 C 378.843,587.672 371.538,592.727 368.166,598.635 C 367.795,594.043 369.359,586.957 371.976,583.011 C 353.391,585.71 341.22,598.223 334.121,614.658 C 333.957,615 333.807,615.369 333.627,615.753 C 333.395,615.108 333.15,614.477 332.916,613.794 C 328.173,601.103 321.855,581.01 313.098,566.194 C 310.81,562.384 308.411,558.943 305.805,556.037 L 305.835,536.165 L 305.835,522.843 C 305.805,522.843 305.765,522.816 305.738,522.816 C 302.257,521.516 298.352,524.668 294.745,530.901 Z M 469.287,629.582 L 469.287,630.104 L 469.053,630.104 C 469.149,629.924 469.201,629.774 469.287,629.582 Z" stroke="none" fill="#4f3c30" stroke-width="0" stroke-linejoin="miter" marker-start="none" marker-end="none" stroke-miterlimit="79.8403193612775"/>
        <path d="M 429.764,485.692 C 402.384,483.858 375.222,483.408 348.631,486.56 C 374.183,462.886 399.847,465.791 429.764,485.692 Z" fill="#ffffff" stroke="none" stroke-width="0" stroke-linejoin="miter" marker-start="none" marker-end="none" stroke-miterlimit="79.8403193612775"/>
        <path d="M 131.867,250.387 L -132.446,159.716 L 961.412,159.716 L 714.49,250.387 L 131.867,250.387 Z" stroke="#012e42" fill="#69c15c" stroke-width="12.347" stroke-linejoin="round" stroke-linecap="round" marker-start="none" marker-end="none" stroke-miterlimit="79.8403193612775"/>
        <path d="M 140.693,246.182 C 148.698,239.062 158.056,234.911 170.721,238.041 L 170.721,238.041 L 171.911,253.843 L 140.693,246.182 Z" fill="#e5e5e5" stroke="none" stroke-width="0.694" stroke-linejoin="round" stroke-linecap="round" marker-start="none" marker-end="none" stroke-miterlimit="79.8403193612775"/>
        <g id="Group_13">
         <path d="M 76.335,203.962 C 75.821,200.183 75.442,196.384 77.028,192.341 C 81.467,182.075 91.529,177.666 107.515,179.431 C 124.936,178.726 138.239,183.138 140.384,201.404 L 141.813,210.072 L 76.335,203.962 Z" stroke-width="0.203" stroke="none" stroke-linejoin="miter" fill="#ffffff" marker-start="none" marker-end="none" stroke-miterlimit="79.8403193612775"/>
         <g id="ClipView_1" stroke-linejoin="miter" stroke-width="0.203">
          <path d="M 139.785,201.948 C 138.289,187.15 125.919,184.283 104.19,183.929 C 92.653,183.741 75.536,188.021 76.357,204.584 C 76.62,208.276 77.514,211.657 79.01,214.733 C 99.771,225.991 120.081,224.91 140.214,219.157 C 141.014,213.231 140.578,207.553 139.785,201.948 Z" fill="#e5e5e5" stroke="none" marker-start="none" marker-end="none"/>
          <clipPath id="ClipPath_1">
           <path d="M 139.785,201.948 C 138.289,187.15 125.919,184.283 104.19,183.929 C 92.653,183.741 75.536,188.021 76.357,204.584 C 76.62,208.276 77.514,211.657 79.01,214.733 C 99.771,225.991 120.081,224.91 140.214,219.157 C 141.014,213.231 140.578,207.553 139.785,201.948 Z"/>
          </clipPath>
          <g clip-path="url(#ClipPath_1)" stroke-miterlimit="79.8403193612775">
           <path d="M 43.013,204.933 C 78.112,209.586 110.654,212.865 140.639,212.624 L 154.709,229.104 L 84.531,229.052 L 43.013,204.933 Z" stroke-opacity="0.345098" fill="#939393" stroke="#9d9595" marker-start="none" marker-end="none" fill-opacity="0.345098"/>
          </g>
         </g>
         <path d="M 79.01,214.733 C 90.228,219.853 102.064,223.123 114.302,223.358 L 116.157,240.858 C 106.504,240.165 96.777,238.268 86.84,232.806 L 79.01,214.733 Z" fill="#eeb69b" stroke-width="0.203" stroke="none" stroke-linejoin="miter" marker-start="none" marker-end="none" stroke-miterlimit="79.8403193612775"/>
         <path d="M 104.394,210.238 C 103.588,208.142 102.955,206.023 103.698,203.72 C 105.631,202.275 107.637,202.471 109.668,203.207 C 110.45,205.833 110.718,208.46 110.246,211.087 C 108.068,211.416 105.911,212.437 104.394,210.238 Z" fill="#7f7f7f" stroke-width="0.769" stroke="#7f7f7f" stroke-linecap="round" stroke-linejoin="round" marker-start="none" marker-end="none" stroke-miterlimit="79.8403193612775"/>
         <path d="M 105.801,247.211 L 140.227,224.946 L 159.269,251.752 L 180.509,277.242 C 180.002,289.614 167.188,294.297 155.02,294.235 L 134.074,267.427 L 105.801,247.211 Z" stroke-width="0.203" stroke="none" stroke-linejoin="miter" fill="#eeb69b" marker-start="none" marker-end="none" stroke-miterlimit="79.8403193612775"/>
         <path d="M 111.728,235.646 C 110.39,228.363 107.991,221.234 108.145,214.105 C 106.691,206.58 110.802,205.158 114.884,203.706 C 123.144,204.277 127.301,209.641 127.335,219.818 L 130.69,233.719 L 133.151,242.329 C 132.226,251.447 129.917,259.159 113.925,252.95 L 111.728,235.646 Z" fill="#f7cdb9" stroke-width="0.203" stroke="none" stroke-linejoin="miter" marker-start="none" marker-end="none" stroke-miterlimit="79.8403193612775"/>
         <path d="M 104.541,203.94 L 104.541,203.94 C 105.521,203.466 106.591,203.399 107.764,203.792 C 108.366,205.966 108.318,208.139 107.947,210.312 C 106.711,211.968 105.534,211.245 104.394,209.213 C 104.414,207.401 104.292,205.648 104.541,203.94 Z" fill="#ffffff" stroke="none" stroke-width="0.203" stroke-linejoin="miter" marker-start="none" marker-end="none" stroke-miterlimit="79.8403193612775"/>
         <path d="M 104.845,186.181 L 105.719,201.834" fill="none" stroke="#7f7f7f" stroke-linecap="round" stroke-linejoin="round" stroke-width="0.769" stroke-miterlimit="79.8403193612775"/>
         <path d="M 111.391,216.572 C 110.655,213.998 109.495,210.957 110.471,207.928 C 113.053,204.59 116.422,205.536 119.922,207.199 C 121.572,211.095 121.611,215.26 118.329,217.743 C 115.517,218.213 113.431,217.93 111.391,216.572 Z" fill="#fce9e1" stroke-width="0.203" stroke="none" stroke-linejoin="miter" marker-start="none" marker-end="none" stroke-miterlimit="79.8403193612775"/>
         <path d="M 64.784,205.462 C 62.963,216.913 59.972,228.363 60.025,239.814 C 62.272,242.629 64.467,245.535 71.23,244.574 L 73.267,205.944 L 64.784,205.462 Z" stroke-width="0.203" stroke="none" stroke-linejoin="miter" fill="#eeb69b" marker-start="none" marker-end="none" stroke-miterlimit="79.8403193612775"/>
         <g id="ClipView_2" stroke-linejoin="miter" stroke="none" stroke-width="0.203">
          <path d="M 85.978,231.438 C 85.105,225.289 82.972,219.644 79.01,214.733 C 80.027,206.99 79.744,199.462 77.028,192.341 C 73.683,189.157 70.338,186.431 66.995,187.374 C 64.762,192.762 64.294,198.907 64.784,205.462 C 64.33,218.5 65.84,231.538 71.23,244.574 C 78.643,247.835 85.748,252.653 94.229,250.582 C 94.985,254.11 97.076,255.734 100.527,255.414 L 110.489,252.192 L 113.925,252.95 L 112.07,238.337 C 108.173,237.246 104.278,236.462 100.382,237.836 C 96.123,235.503 91.918,232.855 85.978,231.438 Z" fill="#f7cdb9" marker-start="none" marker-end="none"/>
          <clipPath id="ClipPath_2">
           <path d="M 85.978,231.438 C 85.105,225.289 82.972,219.644 79.01,214.733 C 80.027,206.99 79.744,199.462 77.028,192.341 C 73.683,189.157 70.338,186.431 66.995,187.374 C 64.762,192.762 64.294,198.907 64.784,205.462 C 64.33,218.5 65.84,231.538 71.23,244.574 C 78.643,247.835 85.748,252.653 94.229,250.582 C 94.985,254.11 97.076,255.734 100.527,255.414 L 110.489,252.192 L 113.925,252.95 L 112.07,238.337 C 108.173,237.246 104.278,236.462 100.382,237.836 C 96.123,235.503 91.918,232.855 85.978,231.438 Z"/>
          </clipPath>
          <g clip-path="url(#ClipPath_2)" stroke-miterlimit="79.8403193612775">
           <path d="M 63.513,203.688 C 66.522,205.981 68.864,205.171 70.487,201 L 73.181,193.609 C 70.577,190.795 67.995,187.846 64.862,188.394 L 63.396,200.054 L 63.513,203.688 Z" fill="#fce9e1" marker-start="none" marker-end="none"/>
          </g>
         </g>
         <path d="M 146.104,234.596 C 151.958,230.99 156.927,224.727 161.331,216.768 C 160.205,211.599 157.528,207.363 153.977,203.652 C 151.599,198.641 148.603,195.17 144.273,195.045 C 141.501,198.292 139.097,201.897 139.145,207.862 C 138.231,213.653 138.379,218.768 140.687,219.307 L 128.047,222.772 L 132.952,244.075 L 146.104,234.596 Z" fill="#eeb69b" stroke-width="0.203" stroke="none" stroke-linejoin="miter" marker-start="none" marker-end="none" stroke-miterlimit="79.8403193612775"/>
         <path d="M 148.533,211.474 C 147.617,214.955 141.205,209.336 140.605,202.742 C 140.246,199.438 140.949,196.63 144.273,195.045 C 148.386,196.606 151.194,199.476 153.018,203.42 L 148.533,211.474 Z" fill="#e2cdc3" stroke-width="0.203" stroke="none" stroke-linejoin="miter" marker-start="none" marker-end="none" stroke-miterlimit="79.8403193612775"/>
         <mask id="TranspMask_4">
          <rect x="-10%" y="-10%" width="120%" height="120%" fill="url(#LinearGradient)" stroke="none"/>
         </mask>
         <path d="M 132.726,245.604 L 148.475,232.957 L 134.97,225.845 L 128.047,222.772 L 132.726,245.604 Z" fill="#f7cdb9" stroke="none" stroke-width="0.203" stroke-linejoin="miter" marker-start="none" marker-end="none" stroke-miterlimit="79.8403193612775" mask="url(#TranspMask_4)"/>
        </g>
        <path d="M 166.374,304.39 L 116.373,255.662 C 134.799,263.281 152.296,255.817 170.721,238.041 L 203.413,283.91 L 166.374,304.39 Z" stroke="none" fill="#ffffff" stroke-width="6.945" stroke-linejoin="round" marker-start="none" marker-end="none" stroke-miterlimit="79.8403193612775"/>
        <path d="M 284.281,364.035 L 212.845,272.675 L 221.866,251.691 L 295.888,327.292 L 284.281,364.035 Z" stroke="none" fill="#69c15c" stroke-width="12.347" stroke-linejoin="round" stroke-linecap="round" marker-start="none" marker-end="none" stroke-miterlimit="79.8403193612775"/>
        <path d="M -132.446,159.716 L -132.445,115.087 L 961.412,114.379 L 961.412,159.716 L -132.446,159.716 Z" stroke="#012e42" fill="#69c15c" stroke-width="12.347" stroke-linejoin="round" stroke-linecap="round" marker-start="none" marker-end="none" stroke-miterlimit="79.8403193612775"/>
        <path d="M 557.65,206.047 L 515.704,249.84 L 272.256,251.36 L 208.612,204.078 L 557.65,206.047 Z" stroke="#012e42" fill="#ffffff" stroke-width="10.399" stroke-linejoin="round" stroke-linecap="round" marker-start="none" marker-end="none" stroke-miterlimit="79.8403193612775"/>
        <path d="M 222.479,357.994 L 222.479,230.475 C 222.479,218.393 232.286,208.587 244.368,208.587 L 522.683,208.587 C 534.765,208.587 544.572,218.393 544.572,230.475 L 544.572,357.994 C 544.572,370.076 534.765,379.882 522.683,379.882 L 244.368,379.882 C 232.286,379.882 222.479,370.076 222.479,357.994 Z" stroke="#012e42" fill="#69c15c" stroke-width="12.347" stroke-linejoin="round" stroke-linecap="round" marker-start="none" marker-end="none" stroke-miterlimit="79.8403193612775"/>
        <g id="Group_14" fill-rule="nonzero" stroke-linejoin="miter" stroke="none" stroke-width="0.131" fill="#ffffff">
         <path d="M 343.154,285.447 C 342.948,287.022 341.606,288.202 340.017,288.202 C 338.403,288.202 337.049,286.988 336.872,285.384 L 335.314,271.198 C 335.314,271.198 335.058,268.306 340.159,268.306 C 345.262,268.306 345.006,271.198 345.006,271.198 L 343.154,285.447 Z" marker-start="none" marker-end="none"/>
         <path d="M 340.159,290.286 C 342.143,290.286 343.751,291.894 343.751,293.879 C 343.751,295.862 342.143,297.47 340.159,297.47 C 338.177,297.47 336.566,295.862 336.566,293.879 C 336.566,291.894 338.177,290.286 340.159,290.286 Z" marker-start="none" marker-end="none"/>
         <path d="M 354.667,285.063 C 354.501,286.348 353.403,287.31 352.107,287.31 C 350.788,287.31 349.684,286.321 349.542,285.012 L 348.265,273.428 C 348.265,273.428 348.058,271.069 352.222,271.069 C 356.385,271.069 356.177,273.428 356.177,273.428 L 354.667,285.063 Z" marker-start="none" marker-end="none"/>
         <path d="M 352.222,289.012 C 353.843,289.012 355.155,290.325 355.155,291.944 C 355.155,293.564 353.843,294.878 352.222,294.878 C 350.604,294.878 349.291,293.564 349.291,291.944 C 349.291,290.325 350.604,289.012 352.222,289.012 Z" marker-start="none" marker-end="none"/>
         <path d="M 321.231,285.022 L 328.799,292.009 L 329.032,292.283 C 329.187,292.461 329.35,292.733 329.517,293.097 C 329.684,293.456 329.77,293.81 329.77,294.142 C 329.77,294.818 329.517,295.405 329.014,295.911 C 328.507,296.413 327.92,296.666 327.247,296.666 C 326.471,296.666 325.758,296.342 325.111,295.695 L 312.886,284.246 L 312.886,293.949 C 312.886,294.726 312.625,295.374 312.111,295.889 C 311.592,296.407 310.945,296.666 310.168,296.666 C 309.391,296.666 308.745,296.407 308.227,295.889 C 307.712,295.374 307.452,294.726 307.452,293.949 L 307.452,271.827 C 307.452,271.023 307.693,270.372 308.169,269.867 C 308.649,269.362 309.315,269.107 310.168,269.107 C 311.023,269.107 311.69,269.362 312.168,269.867 C 312.648,270.372 312.886,271.023 312.886,271.827 L 312.886,277.455 L 317.348,281.529 L 326.471,270.079 L 326.703,269.845 C 326.859,269.691 327.111,269.529 327.458,269.362 C 327.809,269.192 328.191,269.107 328.608,269.107 C 329.356,269.107 329.963,269.354 330.429,269.845 C 330.896,270.339 331.128,270.934 331.128,271.63 C 331.128,272.279 330.869,272.926 330.352,273.575 L 321.231,285.022 Z" marker-start="none" marker-end="none"/>
         <path d="M 376.808,284.608 L 362.834,284.608 C 362.162,284.608 361.607,284.388 361.166,283.947 C 360.727,283.509 360.505,282.952 360.505,282.281 C 360.505,281.608 360.727,281.05 361.166,280.609 C 361.607,280.168 362.162,279.95 362.834,279.95 L 376.808,279.95 C 377.482,279.95 378.038,280.168 378.478,280.609 C 378.917,281.05 379.137,281.608 379.137,282.281 C 379.137,282.952 378.917,283.509 378.478,283.947 C 378.038,284.388 377.482,284.608 376.808,284.608 Z" marker-start="none" marker-end="none"/>
         <path d="M 417.367,296.445 C 416.721,296.445 416.151,296.246 415.661,295.844 C 415.166,295.442 414.832,294.931 414.652,294.31 L 409.139,275.681 L 408.906,275.681 L 404.172,293.146 C 403.549,295.346 402.282,296.445 400.366,296.445 C 398.479,296.445 397.223,295.346 396.601,293.146 L 391.867,275.681 L 391.633,275.681 L 386.122,294.31 C 385.94,294.931 385.605,295.442 385.112,295.844 C 384.62,296.246 384.053,296.445 383.405,296.445 C 382.629,296.445 381.982,296.188 381.464,295.67 C 380.947,295.154 380.686,294.505 380.686,293.729 C 380.686,293.211 380.816,292.564 381.078,291.788 L 387.093,271.8 C 387.817,269.47 389.24,268.306 391.362,268.306 C 392.476,268.306 393.4,268.629 394.137,269.275 C 394.875,269.923 395.386,270.765 395.671,271.8 L 400.289,288.102 L 400.484,288.102 L 405.142,271.8 C 405.425,270.765 405.929,269.923 406.655,269.275 C 407.38,268.629 408.298,268.306 409.411,268.306 C 411.532,268.306 412.956,269.47 413.68,271.8 L 419.697,291.788 L 419.813,292.097 C 419.863,292.306 419.924,292.571 419.988,292.893 C 420.053,293.218 420.084,293.495 420.084,293.729 C 420.084,294.505 419.824,295.154 419.307,295.67 C 418.79,296.188 418.144,296.445 417.367,296.445 Z" marker-start="none" marker-end="none"/>
         <path d="M 426.292,289.071 C 425.617,289.071 425.029,288.818 424.524,288.313 C 424.021,287.809 423.767,287.22 423.767,286.549 L 423.767,271.409 C 423.767,270.737 424.021,270.149 424.524,269.645 C 425.029,269.139 425.617,268.888 426.292,268.888 C 426.962,268.888 427.554,269.139 428.058,269.645 C 428.561,270.149 428.815,270.737 428.815,271.409 L 428.815,286.549 C 428.815,287.22 428.561,287.809 428.058,288.313 C 427.554,288.818 426.962,289.071 426.292,289.071 Z" marker-start="none" marker-end="none"/>
         <path d="M 426.292,297.029 C 425.437,297.029 424.739,296.769 424.194,296.251 C 423.65,295.732 423.379,295.086 423.379,294.309 C 423.379,293.536 423.65,292.887 424.194,292.372 C 424.739,291.853 425.437,291.594 426.292,291.594 C 427.145,291.594 427.844,291.853 428.388,292.372 C 428.929,292.887 429.202,293.536 429.202,294.309 C 429.202,295.086 428.929,295.732 428.388,296.251 C 427.844,296.769 427.145,297.029 426.292,297.029 Z" marker-start="none" marker-end="none"/>
         <path d="M 451.714,273.352 L 446.085,280.338 L 451.324,284.803 L 451.597,285.035 C 451.75,285.189 451.907,285.429 452.063,285.753 C 452.219,286.076 452.296,286.406 452.296,286.744 C 452.296,287.337 452.068,287.874 451.617,288.353 C 451.161,288.832 450.615,289.071 449.967,289.071 C 449.188,289.071 448.48,288.748 447.832,288.102 L 439.486,280.725 L 439.486,294.505 C 439.486,295.176 439.234,295.766 438.731,296.272 C 438.226,296.775 437.636,297.029 436.962,297.029 C 436.292,297.029 435.702,296.775 435.197,296.272 C 434.692,295.766 434.44,295.176 434.44,294.505 L 434.44,271.409 C 434.44,270.737 434.692,270.149 435.197,269.645 C 435.702,269.139 436.292,268.888 436.962,268.888 C 437.636,268.888 438.226,269.139 438.731,269.645 C 439.234,270.149 439.486,270.737 439.486,271.409 L 439.486,274.515 L 442.592,277.232 L 448.415,269.858 L 448.647,269.625 C 448.802,269.47 449.041,269.308 449.364,269.139 C 449.688,268.972 450.019,268.888 450.355,268.888 C 451.027,268.888 451.583,269.107 452.024,269.548 C 452.463,269.986 452.685,270.544 452.685,271.216 C 452.685,271.863 452.358,272.574 451.714,273.352 Z" marker-start="none" marker-end="none"/>
        </g>
        <path d="M 225.712,386.056 L 198.983,420.092 L 83.488,420.092 C 75.288,420.092 68.631,426.748 68.631,434.949 L 68.631,510.297 C 68.631,518.499 75.288,525.155 83.488,525.155 L 249.002,525.155 C 257.201,525.155 263.86,518.499 263.86,510.297 L 263.86,434.949 C 263.86,426.748 257.201,420.092 249.002,420.092 L 229.078,420.092 L 225.712,386.056 Z" stroke-width="5.563" stroke="#ffffff" fill="#69c15c" stroke-linejoin="miter" marker-start="none" marker-end="none" stroke-miterlimit="79.8403193612775"/>
        <path d="M 87.783,502.285 L 87.783,498.211 C 87.783,497.768 88.143,497.408 88.586,497.408 L 199.001,497.408 C 199.444,497.408 199.804,497.768 199.804,498.211 L 199.804,502.285 C 199.804,502.728 199.444,503.088 199.001,503.088 L 88.586,503.088 C 88.143,503.088 87.783,502.728 87.783,502.285 Z" stroke="none" fill="#ffffff" stroke-width="0.939" stroke-linejoin="miter" marker-start="none" marker-end="none" stroke-miterlimit="79.8403193612775"/>
        <path d="M 87.784,487.104 L 87.784,483.03 C 87.784,482.586 88.144,482.227 88.587,482.227 L 251.052,482.227 C 251.495,482.227 251.855,482.586 251.855,483.03 L 251.855,487.104 C 251.855,487.547 251.495,487.907 251.052,487.907 L 88.587,487.907 C 88.144,487.907 87.784,487.547 87.784,487.104 Z" stroke="none" fill="#ffffff" stroke-width="0.939" stroke-linejoin="miter" marker-start="none" marker-end="none" stroke-miterlimit="79.8403193612775"/>
        <path d="M 87.784,471.821 L 87.784,467.745 C 87.784,467.302 88.144,466.942 88.587,466.942 L 251.052,466.942 C 251.495,466.942 251.855,467.302 251.855,467.745 L 251.855,471.821 C 251.855,472.264 251.495,472.624 251.052,472.624 L 88.587,472.624 C 88.144,472.624 87.784,472.264 87.784,471.821 Z" stroke="none" fill="#ffffff" stroke-width="0.939" stroke-linejoin="miter" marker-start="none" marker-end="none" stroke-miterlimit="79.8403193612775"/>
        <path d="M 87.784,457.489 L 87.784,453.415 C 87.784,452.972 88.144,452.613 88.587,452.613 L 251.052,452.613 C 251.495,452.613 251.855,452.972 251.855,453.415 L 251.855,457.489 C 251.855,457.933 251.495,458.292 251.052,458.292 L 88.587,458.292 C 88.144,458.292 87.784,457.933 87.784,457.489 Z" stroke="none" fill="#ffffff" stroke-width="0.939" stroke-linejoin="miter" marker-start="none" marker-end="none" stroke-miterlimit="79.8403193612775"/>
        <path d="M 520.26,505.509 L 545.446,534.53 L 525.677,534.53 C 520.449,534.53 516.206,541.187 516.206,549.388 L 516.206,624.738 C 516.206,632.937 520.449,639.594 525.677,639.594 L 670.859,639.594 C 676.085,639.594 680.329,632.937 680.329,624.738 L 680.329,549.388 C 680.329,541.187 676.085,534.53 670.859,534.53 L 570.744,534.53 L 520.26,505.509 Z" stroke="#012e42" fill="#fffefe" stroke-width="6.173" stroke-linejoin="round" stroke-linecap="round" marker-start="none" marker-end="none" stroke-miterlimit="79.8403193612775"/>
        <path d="M 620.471,616.725 L 620.471,612.65 C 620.471,612.207 620.111,611.848 619.668,611.848 L 527.101,611.848 C 526.658,611.848 526.299,612.207 526.299,612.65 L 526.299,616.725 C 526.299,617.168 526.658,617.527 527.101,617.527 L 619.668,617.527 C 620.111,617.527 620.471,617.168 620.471,616.725 Z" stroke="none" fill="#012e42" stroke-width="0.939" stroke-linejoin="miter" marker-start="none" marker-end="none" stroke-miterlimit="79.8403193612775"/>
        <path d="M 664.227,601.542 L 664.227,597.468 C 664.227,597.025 663.868,596.665 663.425,596.665 L 527.101,596.665 C 526.658,596.665 526.299,597.025 526.299,597.468 L 526.299,601.542 C 526.299,601.985 526.658,602.345 527.101,602.345 L 663.425,602.345 C 663.868,602.345 664.227,601.985 664.227,601.542 Z" stroke="none" fill="#012e42" stroke-width="0.939" stroke-linejoin="miter" marker-start="none" marker-end="none" stroke-miterlimit="79.8403193612775"/>
        <path d="M 664.227,586.259 L 664.227,582.185 C 664.227,581.742 663.868,581.382 663.425,581.382 L 527.101,581.382 C 526.658,581.382 526.299,581.742 526.299,582.185 L 526.299,586.259 C 526.299,586.702 526.658,587.062 527.101,587.062 L 663.425,587.062 C 663.868,587.062 664.227,586.702 664.227,586.259 Z" stroke="none" fill="#012e42" stroke-width="0.939" stroke-linejoin="miter" marker-start="none" marker-end="none" stroke-miterlimit="79.8403193612775"/>
        <path d="M 664.227,571.929 L 664.227,567.855 C 664.227,567.411 663.868,567.052 663.425,567.052 L 527.101,567.052 C 526.658,567.052 526.299,567.411 526.299,567.855 L 526.299,571.929 C 526.299,572.372 526.658,572.731 527.101,572.731 L 663.425,572.731 C 663.868,572.731 664.227,572.372 664.227,571.929 Z" stroke="none" fill="#012e42" stroke-width="0.939" stroke-linejoin="miter" marker-start="none" marker-end="none" stroke-miterlimit="79.8403193612775"/>
       </g>
      </g>
     </g>
    </g>
   </g>
  </g>
 </g>
</svg>
