<?xml version="1.0" standalone="no"?>
<!DOCTYPE svg PUBLIC "-//W3C//DTD SVG 1.1//EN" "http://www.w3.org/Graphics/SVG/1.1/DTD/svg11.dtd">
<!--Generator: Xara Designer (www.xara.com), SVG filter version: 6.2.0.0-->
<svg stroke-width="0.501" stroke-linejoin="bevel" fill-rule="evenodd" xmlns:xlink="http://www.w3.org/1999/xlink" xmlns="http://www.w3.org/2000/svg" version="1.1" overflow="visible" width="85.575pt" height="85.575pt" viewBox="0 0 85.575 85.575">
 <defs>
  <linearGradient id="LinearGradient" gradientUnits="userSpaceOnUse" x1="0" y1="0" x2="-9.879" y2="-2.034" gradientTransform="translate(41.997 20.888)">
   <stop offset="0" stop-color="#eccfc1"/>
   <stop offset="9.22197997570038E-02" stop-color="#eccfc1"/>
   <stop offset="1" stop-color="#f8c7aa"/>
  </linearGradient>
  <linearGradient id="LinearGradient_1" gradientUnits="userSpaceOnUse" x1="0" y1="0" x2="-0.867" y2="-15.911" gradientTransform="translate(30.926 36.468)">
   <stop offset="0" stop-color="#eccfc1"/>
   <stop offset="9.22197997570038E-02" stop-color="#eccfc1"/>
   <stop offset="1" stop-color="#f8c7aa"/>
  </linearGradient>
  <linearGradient id="LinearGradient_2" gradientUnits="userSpaceOnUse" x1="0" y1="0" x2="-41.374" y2="-37.366" gradientTransform="translate(106.364 57.257)">
   <stop offset="0" stop-color="#007f01"/>
   <stop offset="1" stop-color="#00bf02"/>
  </linearGradient>
  <linearGradient id="LinearGradient_3" gradientUnits="userSpaceOnUse" x1="0" y1="0" x2="-41.374" y2="-37.366" gradientTransform="translate(106.364 57.257)">
   <stop offset="0" stop-color="#000000"/>
   <stop offset="1" stop-color="#000000"/>
  </linearGradient>
  <linearGradient id="LinearGradient_4" gradientUnits="userSpaceOnUse" x1="0" y1="0" x2="-41.374" y2="-37.366" gradientTransform="translate(106.364 57.257)">
   <stop offset="0" stop-color="#007f01"/>
   <stop offset="1" stop-color="#00bf02"/>
  </linearGradient>
 </defs>
 <g id="Document" fill="none" stroke="black" font-family="Times New Roman" font-size="16" transform="scale(1 -1)">
  <g id="Spread" transform="translate(0 -85.575)">
   <g id="Layer 1">
    <g id="Group">
     <path d="M 16.906,76.864 C 35.715,91.152 62.579,87.479 76.864,68.668 C 91.152,49.859 87.479,22.996 68.668,8.71 C 49.859,-5.576 22.996,-1.904 8.71,16.906 C -5.576,35.715 -1.904,62.578 16.906,76.864 Z" stroke="none" fill="#69c15c" stroke-width="0.25" stroke-linejoin="miter" marker-start="none" marker-end="none"/>
     <path d="M 60.325,42.29 L 76.959,60.549 L 71.01,65.285 L 47.554,64.191 L 42.07,58.924 L 60.325,42.29 Z" fill="none" stroke="#ffffff" stroke-width="1.854" stroke-linejoin="round" stroke-linecap="round" marker-start="none" marker-end="none"/>
     <path d="M 54.38,50.008 L 53.82,61.768 L 56.982,61.92 L 57.179,57.77 L 58.649,57.84 L 61.692,62.142 L 66.355,62.234 L 61.059,56.4 L 66.895,50.925 L 62.243,50.569 L 58.808,54.565 L 57.337,54.497 L 57.544,50.159 L 54.38,50.008 Z" stroke="none" fill="#ffffff" stroke-width="0.25" stroke-linejoin="miter" marker-start="none" marker-end="none"/>
     <path d="M 38.043,27.788 L 38.043,29.702 L 36.939,29.702 L 36.544,42.171 L 38.043,42.768 L 38.043,47.169 L 47.621,47.169 L 47.621,42.768 L 49.114,42.132 L 48.715,29.702 L 47.621,29.702 L 47.621,27.788 L 38.043,27.788 Z" stroke="none" fill="#f7cdb9" stroke-width="0.25" stroke-linejoin="miter" marker-start="none" marker-end="none"/>
     <path d="M 44.169,0.017 L 46.227,0.131 L 48.281,0.344 L 50.327,0.657 L 52.362,1.07 L 54.382,1.584 L 56.383,2.199 L 58.263,2.881 L 58.427,5.608 L 58.603,9.398 L 58.755,13.376 L 58.882,17.26 L 58.982,20.769 L 59.054,23.624 L 59.099,25.543 L 59.114,26.245 L 60.066,27.049 L 61.998,29.159 L 63.516,32.114 L 63.232,35.46 L 61.335,37.685 L 58.347,39.287 L 54.363,40.645 L 52.027,41.351 L 49.48,42.139 L 48.718,42.386 L 48.71,42.353 L 47.13,38.593 L 45.409,37.131 L 42.829,36.387 L 40.248,37.131 L 38.527,38.593 L 36.948,42.353 L 36.939,42.386 L 36.177,42.139 L 33.629,41.351 L 31.294,40.645 L 27.31,39.287 L 24.321,37.685 L 22.425,35.46 L 22.14,32.114 L 23.66,29.159 L 25.591,27.049 L 26.545,26.245 L 26.559,25.543 L 26.603,23.624 L 26.675,20.769 L 26.774,17.26 L 26.9,13.376 L 27.051,9.398 L 27.227,5.608 L 27.392,2.869 L 28.026,2.619 L 29.978,1.957 L 31.956,1.39 L 33.957,0.919 L 35.977,0.544 L 38.011,0.266 L 40.058,0.085 L 42.111,0.002 Z" stroke="none" fill="#ffffff" stroke-width="0.25" stroke-linejoin="miter" marker-start="none" marker-end="none"/>
     <path d="M 41.416,35.537 L 40.523,37.166 L 42.829,38.913 L 45.132,37.166 L 44.216,35.537 L 41.416,35.537 Z" stroke="none" fill="#f05d44" stroke-width="0.25" stroke-linejoin="miter" marker-start="none" marker-end="none"/>
     <path d="M 39.883,36.038 L 34.151,41.493 C 34.159,41.497 37.987,43.058 37.987,43.058 L 39.169,42.043 L 42.829,38.913 L 39.883,36.038 Z" stroke="none" fill="#e6e7e8" stroke-width="0.25" stroke-linejoin="miter" marker-start="none" marker-end="none"/>
     <path d="M 45.773,36.038 L 42.829,38.913 L 46.485,42.043 L 47.668,43.058 C 47.668,43.058 51.499,41.497 51.503,41.493 L 45.773,36.038 Z" stroke="none" fill="#e6e7e8" stroke-width="0.25" stroke-linejoin="miter" marker-start="none" marker-end="none"/>
     <path d="M 44.169,0.017 L 44.239,0.021 L 45.353,1.163 L 44.216,35.145 L 41.416,35.145 L 40.302,1.163 L 41.408,0.03 L 42.111,0.002 Z" stroke="none" fill="#f05d44" stroke-width="0.25" stroke-linejoin="miter" marker-start="none" marker-end="none"/>
     <path d="M 34.578,15.579 L 34.882,15.647 L 35.42,15.91 L 36.016,16.38 L 36.153,16.534 L 36.28,16.764 L 36.387,17.358 L 36.393,17.443 L 36.446,17.472 L 36.738,17.731 L 36.951,18.028 L 37.04,18.225 L 37.107,18.43 L 37.122,18.804 L 37.02,19.218 L 36.986,19.281 L 37.01,19.334 L 37.064,19.42 L 37.108,19.524 L 37.265,20.198 L 37.293,20.555 L 37.278,20.708 L 37.129,20.915 L 36.828,21.061 L 36.761,21.071 L 36.808,21.108 L 36.965,21.287 L 37.036,21.374 L 37.073,21.578 L 37.054,21.85 L 37.04,21.934 L 36.923,22.112 L 36.562,22.386 L 35.682,22.711 L 34.355,22.927 L 33.5,22.961 L 33.861,15.579 L 33.848,15.563 L 34.077,15.513 Z" stroke="none" stroke-width="0.25" fill-rule="nonzero" stroke-linejoin="miter" marker-start="none" marker-end="none" fill="url(#LinearGradient)"/>
     <path d="M 34.283,15.553 L 34.531,15.579 L 34.63,15.637 L 35.128,16.345 L 35.449,17.281 L 35.555,17.952 L 35.628,18.671 L 35.635,20.07 L 35.504,21.3 L 35.271,22.223 L 35.125,22.507 L 35.056,22.592 L 34.806,22.724 L 34.267,22.856 L 33.061,22.943 L 32.808,22.938 L 32.787,23.057 L 32.769,23.911 L 32.863,24.754 L 32.972,25.253 L 33.072,25.749 L 33.07,26.595 L 32.808,27.623 L 32.602,28.174 L 32.551,28.304 L 32.394,28.518 L 32.084,28.736 L 31.755,28.781 L 31.566,28.722 L 31.43,28.578 L 31.371,28.344 L 31.382,28.187 L 31.409,27.83 L 31.327,26.913 L 31.097,25.852 L 30.739,24.759 L 30.513,24.241 L 30.248,23.719 L 29.532,22.634 L 28.484,21.291 L 28.283,21.063 L 24.306,20.883 L 24.387,16.256 L 28.442,16.738 L 28.507,16.632 L 29.218,16.095 L 30.12,15.747 L 30.753,15.631 L 31.431,15.547 L 32.746,15.496 Z" stroke="none" stroke-width="0.25" fill-rule="nonzero" stroke-linejoin="miter" marker-start="none" marker-end="none" fill="url(#LinearGradient_1)"/>
     <path d="M 33.068,26.775 C 33.007,27.088 32.934,27.397 32.863,27.706 C 32.827,27.864 32.775,28.022 32.703,28.173 C 32.631,28.323 32.537,28.466 32.42,28.588 C 32.237,28.778 31.981,28.928 31.721,28.915 C 31.509,28.906 31.333,28.78 31.291,28.559 C 31.274,28.478 31.283,28.41 31.29,28.298 C 31.301,28.143 31.302,27.989 31.294,27.834 C 31.277,27.525 31.226,27.215 31.172,26.904 C 31.117,26.595 31.056,26.284 30.994,25.975 C 30.918,25.597 30.893,25.421 30.761,25.071 C 30.653,24.779 30.517,24.497 30.37,24.219 C 30.223,23.942 30.063,23.671 29.896,23.405 C 29.728,23.139 29.551,22.877 29.369,22.619 C 29.19,22.36 29.002,22.105 28.812,21.856 C 28.627,21.613 28.438,21.374 28.244,21.14 C 26.839,21.067 27.015,21.076 26.291,21.037 C 24.837,20.956 25.026,20.966 24.303,20.923 C 24.282,20.921 24.265,20.904 24.266,20.881 C 24.266,20.859 24.285,20.842 24.307,20.842 C 25.039,20.865 24.859,20.859 26.297,20.909 C 27.028,20.935 26.848,20.928 28.286,20.984 C 28.307,20.985 28.327,20.994 28.343,21.011 C 28.55,21.254 28.75,21.501 28.946,21.751 C 29.142,22.002 29.333,22.255 29.52,22.513 C 29.704,22.772 29.884,23.035 30.055,23.303 C 30.227,23.572 30.391,23.846 30.543,24.128 C 30.695,24.409 30.833,24.698 30.947,25.001 C 31.084,25.366 31.113,25.553 31.191,25.934 C 31.252,26.246 31.315,26.556 31.369,26.87 C 31.423,27.176 31.478,27.509 31.492,27.825 C 31.501,27.986 31.499,28.15 31.488,28.31 C 31.48,28.411 31.473,28.468 31.484,28.522 C 31.507,28.65 31.605,28.715 31.731,28.721 C 31.931,28.731 32.139,28.606 32.284,28.457 C 32.386,28.352 32.47,28.227 32.537,28.092 C 32.603,27.957 32.651,27.813 32.688,27.664 C 32.763,27.357 32.841,27.05 32.903,26.742 C 32.965,26.435 33.016,26.126 32.998,25.82 C 32.979,25.448 32.894,25.301 32.816,24.9 C 32.755,24.585 32.722,24.266 32.712,23.947 C 32.704,23.626 32.715,23.309 32.761,22.989 C 32.764,22.967 32.784,22.952 32.806,22.955 C 32.828,22.958 32.844,22.977 32.842,23 L 32.842,23.002 C 32.823,23.155 32.816,23.314 32.814,23.471 C 32.811,23.627 32.814,23.785 32.822,23.942 C 32.839,24.255 32.88,24.567 32.946,24.873 C 33.029,25.249 33.123,25.425 33.151,25.81 C 33.175,26.134 33.129,26.455 33.068,26.775 Z" stroke="none" fill="#e59d74" stroke-width="0.25" stroke-linejoin="miter" marker-start="none" marker-end="none"/>
     <path d="M 31.555,23.26 C 31.555,23.26 31.562,23.256 31.575,23.249 C 31.587,23.24 31.603,23.23 31.628,23.217 C 31.676,23.192 31.75,23.158 31.85,23.127 C 32.253,23.002 32.863,22.982 33.29,22.974 C 33.499,22.97 33.72,22.966 33.947,22.962 C 34.649,22.949 35.467,22.924 36.109,22.713 C 36.344,22.636 36.57,22.528 36.761,22.374 C 36.944,22.225 37.088,22.032 37.169,21.801 C 37.209,21.686 37.224,21.571 37.205,21.454 C 37.169,21.237 37.028,21.08 36.838,20.972 C 36.651,20.866 36.427,20.818 36.214,20.801 C 36.104,20.793 35.991,20.792 35.873,20.801 C 35.85,20.803 35.833,20.823 35.835,20.844 C 35.836,20.865 35.852,20.881 35.873,20.882 C 35.943,20.886 36.09,20.902 36.198,20.922 C 36.387,20.956 36.592,21.015 36.752,21.117 C 36.884,21.203 36.994,21.325 37.014,21.483 C 37.024,21.563 37.014,21.649 36.982,21.735 C 36.911,21.931 36.792,22.087 36.634,22.217 C 36.47,22.352 36.264,22.451 36.046,22.524 C 35.431,22.73 34.591,22.767 33.943,22.792 C 33.714,22.801 33.494,22.809 33.285,22.82 C 32.839,22.842 32.236,22.88 31.817,23.034 C 31.715,23.071 31.637,23.112 31.586,23.143 C 31.561,23.157 31.54,23.172 31.529,23.18 C 31.517,23.188 31.511,23.193 31.511,23.193 C 31.492,23.206 31.488,23.23 31.501,23.249 C 31.514,23.267 31.538,23.272 31.555,23.26 Z" stroke="none" fill="#e59d74" stroke-width="0.25" stroke-linejoin="miter" marker-start="none" marker-end="none"/>
     <path d="M 36.831,21.078 C 36.881,21.07 36.927,21.059 36.977,21.037 C 37.107,20.979 37.206,20.876 37.268,20.753 C 37.354,20.591 37.388,20.387 37.386,20.205 C 37.383,19.972 37.339,19.763 37.267,19.582 C 37.248,19.53 37.223,19.479 37.192,19.429 C 37.136,19.337 37.077,19.276 36.925,19.2 C 36.729,19.104 36.477,19.036 36.265,18.992 C 36.189,18.976 36.119,18.963 36.057,18.952 C 35.971,18.938 35.861,18.922 35.752,18.912 C 35.73,18.91 35.71,18.926 35.708,18.948 C 35.706,18.968 35.719,18.986 35.737,18.992 C 35.794,19.007 36.008,19.071 36.028,19.077 C 36.087,19.095 36.154,19.116 36.227,19.138 C 36.408,19.196 36.67,19.282 36.837,19.372 C 36.963,19.442 37.008,19.481 37.082,19.657 C 37.151,19.827 37.191,20.045 37.199,20.21 C 37.206,20.371 37.195,20.542 37.134,20.69 C 37.09,20.794 37.025,20.884 36.928,20.944 C 36.874,20.978 36.836,20.99 36.81,21 C 36.789,21.008 36.778,21.031 36.786,21.052 C 36.794,21.071 36.813,21.081 36.831,21.078 Z" stroke="none" fill="#e59d74" stroke-width="0.25" stroke-linejoin="miter" marker-start="none" marker-end="none"/>
     <path d="M 37.02,19.301 C 37.045,19.267 37.073,19.226 37.093,19.188 C 37.152,19.078 37.189,18.962 37.206,18.846 C 37.243,18.575 37.189,18.31 37.079,18.064 C 36.999,17.888 36.884,17.71 36.743,17.575 C 36.635,17.472 36.572,17.422 36.246,17.316 C 36.168,17.29 36.095,17.267 36.027,17.246 C 35.891,17.206 35.776,17.177 35.695,17.158 C 35.655,17.148 35.608,17.137 35.568,17.129 C 35.546,17.124 35.524,17.139 35.519,17.161 C 35.515,17.18 35.525,17.199 35.543,17.206 C 35.544,17.206 35.586,17.225 35.662,17.258 C 35.737,17.29 35.846,17.334 35.977,17.388 C 36.041,17.416 36.111,17.445 36.185,17.476 C 36.441,17.587 36.485,17.597 36.603,17.717 C 36.71,17.825 36.819,17.976 36.9,18.148 C 37.001,18.355 37.068,18.598 37.058,18.831 C 37.053,18.929 37.038,19.036 36.999,19.145 C 36.984,19.189 36.965,19.226 36.95,19.26 C 36.941,19.28 36.95,19.305 36.969,19.314 C 36.987,19.322 37.008,19.316 37.02,19.301 Z" stroke="none" fill="#e59d74" stroke-width="0.25" stroke-linejoin="miter" marker-start="none" marker-end="none"/>
     <path d="M 36.433,17.443 L 36.433,17.444 C 36.432,17.465 36.415,17.484 36.394,17.484 C 36.371,17.484 36.352,17.465 36.352,17.443 C 36.351,17.052 36.24,16.698 35.976,16.398 C 35.722,16.113 35.379,15.927 35.021,15.799 C 34.34,15.563 33.452,15.496 32.734,15.501 C 32.159,15.507 31.563,15.555 30.989,15.624 C 30.588,15.675 30.306,15.702 29.867,15.861 C 29.539,15.979 29.184,16.163 28.856,16.397 C 28.709,16.502 28.533,16.644 28.421,16.76 L 28.419,16.763 C 28.4,16.782 28.372,16.793 28.343,16.789 L 27.847,16.731 C 26.737,16.598 26.944,16.623 26.362,16.551 C 25.75,16.474 26.094,16.518 24.877,16.362 L 24.384,16.296 C 24.362,16.293 24.346,16.274 24.347,16.252 C 24.349,16.229 24.369,16.213 24.392,16.216 L 24.888,16.259 C 26.101,16.374 25.755,16.34 26.378,16.401 C 26.969,16.46 26.753,16.438 27.867,16.552 L 28.318,16.599 C 28.324,16.592 28.332,16.585 28.34,16.577 C 28.461,16.459 28.609,16.34 28.744,16.24 C 29.079,15.996 29.439,15.805 29.799,15.674 C 30.245,15.51 30.54,15.476 30.966,15.426 C 31.57,15.354 32.147,15.31 32.733,15.311 C 33.479,15.312 34.376,15.394 35.074,15.654 C 35.458,15.8 35.807,16.004 36.068,16.318 C 36.337,16.642 36.451,17.017 36.433,17.443 Z" stroke="none" fill="#e59d74" stroke-width="0.25" stroke-linejoin="miter" marker-start="none" marker-end="none"/>
     <path d="M 35.378,22.108 C 35.438,21.986 35.486,21.849 35.514,21.7 C 35.547,21.494 35.545,21.412 35.518,21.248 C 35.458,20.996 35.314,20.869 35.208,20.839 L 35.182,20.899 C 35.279,21.009 35.316,21.049 35.364,21.278 C 35.379,21.41 35.386,21.485 35.368,21.68 C 35.353,21.879 35.327,21.977 35.315,22.09 L 35.378,22.108 Z" stroke="none" fill="#e59d74" stroke-width="0.25" stroke-linejoin="miter" marker-start="none" marker-end="none"/>
     <path d="M 35.671,19.913 C 35.759,19.72 35.775,19.539 35.746,19.348 C 35.695,19.089 35.555,18.927 35.426,18.864 L 35.387,18.916 C 35.467,19.036 35.557,19.189 35.588,19.377 C 35.635,19.751 35.606,19.762 35.607,19.9 L 35.671,19.913 Z" stroke="none" fill="#e59d74" stroke-width="0.25" stroke-linejoin="miter" marker-start="none" marker-end="none"/>
     <path d="M 35.587,17.946 C 35.594,17.748 35.505,17.546 35.387,17.387 C 35.277,17.237 35.1,17.085 34.928,17.016 L 34.892,17.07 C 34.961,17.146 35.131,17.321 35.258,17.485 C 35.433,17.715 35.467,17.82 35.524,17.958 L 35.587,17.946 Z" stroke="none" fill="#e59d74" stroke-width="0.25" stroke-linejoin="miter" marker-start="none" marker-end="none"/>
     <path d="M 35.227,16.509 C 35.226,16.43 35.217,16.337 35.2,16.251 C 35.17,16.111 35.116,15.967 35.021,15.857 C 34.914,15.71 34.685,15.56 34.422,15.522 L 34.401,15.585 C 34.444,15.612 34.758,15.774 34.896,15.958 C 34.984,16.057 35.033,16.174 35.08,16.284 C 35.105,16.354 35.145,16.476 35.162,16.522 L 35.227,16.509 Z" stroke="none" fill="#e59d74" stroke-width="0.25" stroke-linejoin="miter" marker-start="none" marker-end="none"/>
     <path d="M 14.523,15.858 C 13.067,16.861 10.528,20.131 13.726,25.654 C 16.387,30.238 20.225,34.393 24.282,37.643 L 29.097,29.126 C 25.328,26.112 24.42,26.307 20.877,22.966 C 19.804,21.96 20.232,21.612 20.257,21.596 C 20.826,21.204 24.245,21.42 26.492,21.576 L 27.066,14.827 C 26.327,14.776 26.756,14.74 25.979,14.74 C 23.524,14.74 16.596,14.427 14.523,15.858 Z" stroke="none" fill="#ffffff" stroke-width="0.25" stroke-linejoin="miter" marker-start="none" marker-end="none"/>
     <path d="M 58.636,17.377 C 58.63,17.384 58.562,17.503 58.445,17.682 C 58.327,17.861 58.159,18.093 57.95,18.327 C 57.533,18.802 56.972,19.288 56.297,19.357 C 55.907,19.397 55.642,19.842 55.712,20.352 C 55.779,20.859 56.136,21.237 56.508,21.195 C 57.501,21.094 58.272,20.443 58.849,19.796 C 59.418,19.159 59.789,18.523 59.818,18.472 C 60.051,18.066 59.996,17.479 59.663,17.175 C 59.334,16.874 58.861,16.958 58.636,17.377 Z" stroke="none" fill="#f7cdb9" stroke-width="0.25" stroke-linejoin="miter" marker-start="none" marker-end="none"/>
     <path d="M 32.926,50.079 C 32.793,49.697 32.44,49.477 31.992,49.34 C 32.323,50.145 32.408,51.209 31.992,52.048 L 32.041,51.964 C 31.814,52.59 31.646,53.241 31.542,53.908 C 31.497,54.143 31.465,54.379 31.449,54.618 C 31.407,54.97 31.396,55.32 31.396,55.675 C 31.396,56.501 31.485,57.306 31.662,58.079 C 31.722,58.363 31.796,58.645 31.882,58.919 C 32.109,59.664 32.415,60.374 32.793,61.043 C 33.232,61.833 33.765,62.565 34.384,63.222 C 34.904,63.782 35.482,64.289 36.108,64.734 C 36.156,64.77 36.207,64.806 36.255,64.837 C 36.755,65.184 37.279,65.488 37.833,65.75 C 39.324,66.456 41.001,66.853 42.771,66.853 C 44.54,66.853 46.216,66.456 47.709,65.746 C 49.018,65.13 50.188,64.267 51.158,63.222 C 51.776,62.565 52.312,61.833 52.752,61.043 C 53.125,60.374 53.434,59.664 53.662,58.919 C 53.749,58.639 53.82,58.362 53.88,58.079 C 54.055,57.306 54.148,56.501 54.148,55.675 C 54.148,55.32 54.133,54.97 54.097,54.622 C 54.077,54.379 54.045,54.143 54.001,53.908 C 53.896,53.241 53.73,52.59 53.505,51.964 L 53.548,52.048 C 53.134,51.209 53.22,50.145 53.548,49.34 C 53.103,49.477 52.746,49.697 52.617,50.079 C 52.021,49.063 44.322,45.24 42.771,45.24 C 41.218,45.24 33.523,49.069 32.926,50.079 Z" stroke="none" fill="#3c2417" stroke-width="0.25" stroke-linejoin="miter" marker-start="none" marker-end="none"/>
     <path d="M 32.836,54.122 C 31.736,54.129 30.856,54.955 30.856,55.97 L 30.856,57.894 C 30.856,58.46 31.123,58.963 31.554,59.304 C 31.787,59.488 32.064,59.621 32.372,59.685 L 32.048,63.59 C 32.048,68.699 37.315,72.837 42.829,72.837 C 48.337,72.837 53.607,68.699 53.607,63.59 L 53.284,59.683 C 54.152,59.484 54.804,58.761 54.804,57.894 L 54.804,55.97 C 54.804,54.953 53.917,54.129 52.82,54.122 C 52.82,49.3 46.565,44.729 42.829,44.729 C 39.091,44.729 32.836,49.3 32.836,54.122 Z" stroke="none" fill="#f7cdb9" stroke-width="0.25" stroke-linejoin="miter" marker-start="none" marker-end="none"/>
     <path d="M 36.662,58.169 C 36.632,58.975 37.31,59.651 38.18,59.679 C 39.051,59.704 39.782,59.077 39.812,58.27 C 39.842,57.463 39.16,56.786 38.29,56.759 C 37.419,56.733 36.693,57.364 36.662,58.169 Z" stroke="none" fill="#3c2417" stroke-width="0.25" stroke-linejoin="miter" marker-start="none" marker-end="none"/>
     <path d="M 38.376,57.923 C 38.371,58.125 38.541,58.294 38.755,58.302 C 38.977,58.307 39.158,58.15 39.166,57.948 C 39.172,57.746 39.003,57.575 38.786,57.571 C 38.566,57.561 38.383,57.721 38.376,57.923 Z" stroke="none" fill="#ffffff" stroke-width="0.25" stroke-linejoin="miter" marker-start="none" marker-end="none"/>
     <path d="M 45.841,58.169 C 45.812,58.975 46.49,59.651 47.364,59.679 C 48.234,59.704 48.961,59.077 48.993,58.27 C 49.025,57.463 48.343,56.786 47.473,56.759 C 46.602,56.733 45.872,57.364 45.841,58.169 Z" stroke="none" fill="#3c2417" stroke-width="0.25" stroke-linejoin="miter" marker-start="none" marker-end="none"/>
     <path d="M 47.559,57.923 C 47.552,58.125 47.721,58.294 47.941,58.302 C 48.157,58.307 48.34,58.15 48.344,57.948 C 48.355,57.746 48.185,57.575 47.966,57.571 C 47.748,57.561 47.566,57.721 47.559,57.923 Z" stroke="none" fill="#ffffff" stroke-width="0.25" stroke-linejoin="miter" marker-start="none" marker-end="none"/>
     <path d="M 54.09,55.357 C 54.095,55.357 54.095,55.361 54.095,55.361 C 54.324,55.764 54.544,56.275 54.747,56.87 C 55.843,60.125 56.245,65.872 53.772,70.159 C 53.772,70.163 53.767,70.163 53.767,70.167 C 51.943,73.319 48.566,76.427 42.769,76.427 C 36.972,76.427 33.595,73.319 31.77,70.167 C 31.77,70.163 31.768,70.163 31.768,70.159 C 29.297,65.872 29.696,60.125 30.794,56.87 C 30.993,56.275 31.214,55.764 31.443,55.361 C 31.443,55.361 31.443,55.357 31.449,55.357 C 31.888,54.594 32.365,54.211 32.789,54.37 C 32.794,54.37 32.8,54.372 32.8,54.372 L 32.8,55.998 L 32.8,58.101 C 33.098,58.512 33.387,59.095 33.637,59.683 L 33.637,59.685 C 34.119,60.817 34.449,61.962 34.449,61.962 C 34.602,61.071 34.509,60.322 34.285,59.744 C 35.742,60.125 36.353,60.64 37.342,61.733 C 37.342,61.008 37.077,60.682 36.982,60.453 C 38.118,60.358 40.755,60.852 42.769,61.791 C 43.825,62.285 44.717,62.901 45.13,63.623 C 45.174,63.062 44.985,62.198 44.665,61.717 C 46.932,62.046 48.419,63.572 49.285,65.578 C 49.304,65.619 49.324,65.666 49.344,65.712 C 49.374,65.633 49.403,65.556 49.432,65.473 C 50.012,63.924 50.781,61.47 51.851,59.664 C 52.129,59.197 52.422,58.779 52.74,58.424 L 52.738,55.998 L 52.738,54.372 C 52.74,54.372 52.746,54.37 52.748,54.37 C 53.174,54.211 53.65,54.594 54.09,55.357 Z M 32.789,67.399 L 32.789,67.462 L 32.818,67.462 C 32.807,67.441 32.8,67.423 32.789,67.399 Z" stroke="none" fill="#4f3c30" stroke-width="0.25" stroke-linejoin="miter" marker-start="none" marker-end="none"/>
     <path d="M 47.929,49.838 C 44.588,49.615 41.271,49.56 38.025,49.946 C 41.144,47.055 44.276,47.41 47.929,49.838 Z" stroke="none" fill="#ffffff" stroke-width="0.25" stroke-linejoin="miter" marker-start="none" marker-end="none"/>
     <path d="M 54.602,28.22 L 55.264,14.35 C 55.341,12.733 56.717,11.482 58.334,11.56 L 69.357,12.085 C 70.974,12.163 72.225,13.539 72.148,15.156 L 71.486,29.026 C 71.409,30.643 70.033,31.893 68.415,31.816 L 57.393,31.29 C 55.776,31.213 54.525,29.837 54.602,28.22 Z" stroke="none" fill="#ffffff" stroke-width="0.25" stroke-linejoin="miter" marker-start="none" marker-end="none"/>
     <path d="M 56.845,9.506 L 70.455,10.155 L 71.217,10.797 L 72.802,12.276 L 74.297,13.819 L 75.087,14.721 L 74.415,28.84 L 74.381,29.273 L 74.185,30.079 L 73.838,30.816 L 73.337,31.482 L 73.023,31.786 L 72.69,32.069 L 71.978,32.505 L 71.211,32.781 L 70.387,32.898 L 69.951,32.89 L 55.762,32.214 L 55.328,32.18 L 54.52,31.984 L 53.783,31.636 L 53.116,31.135 L 52.811,30.821 L 52.527,30.489 L 52.092,29.779 L 51.816,29.012 L 51.699,28.188 L 51.707,27.753 L 52.384,13.561 L 52.417,13.127 L 52.612,12.318 L 52.96,11.581 L 53.462,10.914 L 53.776,10.609 L 54.109,10.325 L 54.821,9.891 L 55.588,9.615 L 56.411,9.498 Z M 61.619,14.871 L 61.278,14.996 L 61.126,15.117 L 55.58,20.157 L 55.445,20.297 L 55.289,20.622 L 55.268,20.81 L 55.271,20.998 L 55.395,21.338 L 55.516,21.49 L 56.952,23.069 L 57.092,23.205 L 57.418,23.362 L 57.606,23.382 L 57.794,23.38 L 58.134,23.255 L 58.287,23.133 L 61.555,20.16 L 68.125,27.395 L 68.266,27.53 L 68.592,27.687 L 68.78,27.711 L 68.968,27.705 L 69.308,27.58 L 69.46,27.459 L 71.038,26.025 L 71.173,25.885 L 71.33,25.559 L 71.35,25.373 L 71.348,25.183 L 71.224,24.843 L 71.103,24.693 L 62.455,15.18 L 62.317,15.045 L 61.994,14.889 L 61.809,14.868 Z" stroke="none" stroke-width="0.25" fill-rule="nonzero" stroke-linejoin="miter" marker-start="none" marker-end="none" fill="url(#LinearGradient_2)"/>
     <path d="M 56.845,9.506 L 70.455,10.155 L 71.217,10.797 L 72.802,12.276 L 74.297,13.819 L 75.087,14.721 L 74.415,28.84 L 74.381,29.273 L 74.185,30.079 L 73.838,30.816 L 73.337,31.482 L 73.023,31.786 L 72.69,32.069 L 71.978,32.505 L 71.211,32.781 L 70.387,32.898 L 69.951,32.89 L 55.762,32.214 L 55.328,32.18 L 54.52,31.984 L 53.783,31.636 L 53.116,31.135 L 52.811,30.821 L 52.527,30.489 L 52.092,29.779 L 51.816,29.012 L 51.699,28.188 L 51.707,27.753 L 52.384,13.561 L 52.417,13.127 L 52.612,12.318 L 52.96,11.581 L 53.462,10.914 L 53.776,10.609 L 54.109,10.325 L 54.821,9.891 L 55.588,9.615 L 56.411,9.498 Z M 61.619,14.871 L 61.278,14.996 L 61.126,15.117 L 55.58,20.157 L 55.445,20.297 L 55.289,20.622 L 55.268,20.81 L 55.271,20.998 L 55.395,21.338 L 55.516,21.49 L 56.952,23.069 L 57.092,23.205 L 57.418,23.362 L 57.606,23.382 L 57.794,23.38 L 58.134,23.255 L 58.287,23.133 L 61.555,20.16 L 68.125,27.395 L 68.266,27.53 L 68.592,27.687 L 68.78,27.711 L 68.968,27.705 L 69.308,27.58 L 69.46,27.459 L 71.038,26.025 L 71.173,25.885 L 71.33,25.559 L 71.35,25.373 L 71.348,25.183 L 71.224,24.843 L 71.103,24.693 L 62.455,15.18 L 62.317,15.045 L 61.994,14.889 L 61.809,14.868 Z" stroke="none" stroke-width="0.25" fill-rule="nonzero" stroke-linejoin="round" stroke-linecap="round" marker-start="none" marker-end="none" fill="url(#LinearGradient_3)"/>
     <g id="ClipView">
      <path d="M 44.169,0.017 L 46.227,0.131 L 48.281,0.344 L 50.327,0.657 L 52.362,1.07 L 54.382,1.584 L 56.383,2.199 L 58.362,2.917 L 60.314,3.736 L 62.236,4.659 L 64.124,5.685 L 65.974,6.815 L 67.782,8.049 L 68.668,8.71 L 69.542,9.386 L 71.217,10.797 L 72.802,12.276 L 74.297,13.819 L 75.702,15.423 L 77.015,17.084 L 78.237,18.797 L 79.367,20.56 L 80.405,22.368 L 81.349,24.217 L 82.2,26.105 L 82.956,28.026 L 83.618,29.978 L 84.185,31.956 L 84.656,33.957 L 85.031,35.977 L 85.309,38.011 L 85.49,40.058 L 85.573,42.111 L 85.558,44.169 L 85.444,46.227 L 85.231,48.281 L 84.918,50.327 L 84.505,52.362 L 83.991,54.382 L 83.375,56.383 L 82.658,58.362 L 81.838,60.314 L 80.916,62.236 L 79.89,64.124 L 78.759,65.974 L 77.525,67.782 L 76.864,68.668 L 76.188,69.542 L 74.777,71.217 L 73.298,72.802 L 71.755,74.297 L 70.151,75.702 L 68.49,77.015 L 66.777,78.237 L 65.014,79.367 L 63.206,80.405 L 61.357,81.349 L 59.47,82.2 L 57.548,82.956 L 55.597,83.618 L 53.618,84.185 L 51.618,84.656 L 49.598,85.031 L 47.563,85.309 L 45.517,85.49 L 43.463,85.573 L 41.405,85.558 L 39.348,85.444 L 37.294,85.231 L 35.247,84.918 L 33.212,84.505 L 31.192,83.991 L 29.191,83.375 L 27.212,82.658 L 25.26,81.838 L 23.338,80.916 L 21.45,79.89 L 19.6,78.759 L 17.792,77.525 L 16.906,76.864 L 16.032,76.188 L 14.357,74.777 L 12.772,73.298 L 11.277,71.755 L 9.873,70.151 L 8.559,68.49 L 7.337,66.777 L 6.207,65.014 L 5.17,63.206 L 4.226,61.357 L 3.375,59.469 L 2.619,57.548 L 1.957,55.596 L 1.39,53.618 L 0.919,51.617 L 0.544,49.597 L 0.266,47.563 L 0.085,45.516 L 0.002,43.463 L 0.017,41.405 L 0.131,39.347 L 0.344,37.293 L 0.657,35.247 L 1.07,33.212 L 1.584,31.192 L 2.199,29.191 L 2.917,27.212 L 3.736,25.26 L 4.659,23.338 L 5.685,21.45 L 6.815,19.6 L 8.049,17.792 L 8.71,16.906 L 9.386,16.032 L 10.797,14.357 L 12.276,12.772 L 13.819,11.277 L 15.423,9.873 L 17.084,8.559 L 18.797,7.337 L 20.56,6.207 L 22.368,5.17 L 24.217,4.226 L 26.105,3.375 L 28.026,2.619 L 29.978,1.957 L 31.956,1.39 L 33.957,0.919 L 35.977,0.544 L 38.011,0.266 L 40.058,0.085 L 42.111,0.002 Z" stroke="none" stroke-width="0" fill-rule="nonzero" marker-start="none" marker-end="none" stroke-miterlimit="79.8403193612775"/>
      <clipPath id="ClipPath">
       <path d="M 42.111,0.002 L 40.058,0.085 L 38.011,0.266 L 35.977,0.544 L 33.957,0.919 L 31.956,1.39 L 29.978,1.957 L 28.026,2.619 L 26.105,3.375 L 24.217,4.226 L 22.368,5.17 L 20.56,6.207 L 18.797,7.337 L 17.084,8.559 L 15.423,9.873 L 13.819,11.277 L 12.276,12.772 L 10.797,14.357 L 9.386,16.032 L 8.71,16.906 L 8.049,17.792 L 6.815,19.6 L 5.685,21.45 L 4.659,23.338 L 3.736,25.26 L 2.917,27.212 L 2.199,29.191 L 1.584,31.192 L 1.07,33.212 L 0.657,35.247 L 0.344,37.293 L 0.131,39.347 L 0.017,41.405 L 0.002,43.463 L 0.085,45.516 L 0.266,47.563 L 0.544,49.597 L 0.919,51.617 L 1.39,53.618 L 1.957,55.596 L 2.619,57.548 L 3.375,59.469 L 4.226,61.357 L 5.17,63.206 L 6.207,65.014 L 7.337,66.777 L 8.559,68.49 L 9.873,70.151 L 11.277,71.755 L 12.772,73.298 L 14.357,74.777 L 16.032,76.188 L 16.906,76.864 L 17.792,77.525 L 19.6,78.759 L 21.45,79.89 L 23.338,80.916 L 25.26,81.838 L 27.212,82.658 L 29.191,83.375 L 31.192,83.991 L 33.212,84.505 L 35.247,84.918 L 37.294,85.231 L 39.348,85.444 L 41.405,85.558 L 43.463,85.573 L 45.517,85.49 L 47.563,85.309 L 49.598,85.031 L 51.618,84.656 L 53.618,84.185 L 55.597,83.618 L 57.548,82.956 L 59.47,82.2 L 61.357,81.349 L 63.206,80.405 L 65.014,79.367 L 66.777,78.237 L 68.49,77.015 L 70.151,75.702 L 71.755,74.297 L 73.298,72.802 L 74.777,71.217 L 76.188,69.542 L 76.864,68.668 L 77.525,67.782 L 78.759,65.974 L 79.89,64.124 L 80.916,62.236 L 81.838,60.314 L 82.658,58.362 L 83.375,56.383 L 83.991,54.382 L 84.505,52.362 L 84.918,50.327 L 85.231,48.281 L 85.444,46.227 L 85.558,44.169 L 85.573,42.111 L 85.49,40.058 L 85.309,38.011 L 85.031,35.977 L 84.656,33.957 L 84.185,31.956 L 83.618,29.978 L 82.956,28.026 L 82.2,26.105 L 81.349,24.217 L 80.405,22.368 L 79.367,20.56 L 78.237,18.797 L 77.015,17.084 L 75.702,15.423 L 74.297,13.819 L 72.802,12.276 L 71.217,10.797 L 69.542,9.386 L 68.668,8.71 L 67.782,8.049 L 65.974,6.815 L 64.124,5.685 L 62.236,4.659 L 60.314,3.736 L 58.362,2.917 L 56.383,2.199 L 54.382,1.584 L 52.362,1.07 L 50.327,0.657 L 48.281,0.344 L 46.227,0.131 L 44.169,0.017 L 42.111,0.002 Z"/>
      </clipPath>
      <g clip-path="url(#ClipPath)">
       <path d="M 62.455,15.18 L 71.103,24.693 C 71.28,24.888 71.363,25.114 71.35,25.373 C 71.339,25.627 71.233,25.845 71.038,26.025 L 69.46,27.459 C 69.262,27.636 69.036,27.718 68.78,27.711 C 68.522,27.693 68.308,27.591 68.125,27.395 L 61.555,20.16 L 58.287,23.133 C 58.087,23.312 57.862,23.395 57.606,23.382 C 57.349,23.37 57.132,23.266 56.952,23.069 L 55.516,21.49 C 55.339,21.293 55.256,21.065 55.268,20.81 C 55.281,20.553 55.385,20.337 55.58,20.157 L 61.126,15.117 C 61.323,14.939 61.55,14.857 61.809,14.868 C 62.062,14.88 62.278,14.984 62.455,15.18 Z M 74.415,28.84 L 75.091,14.645 C 75.147,13.47 74.779,12.45 73.988,11.574 C 73.192,10.702 72.209,10.239 71.036,10.183 L 56.845,9.506 C 55.675,9.45 54.652,9.817 53.776,10.609 C 52.904,11.407 52.439,12.386 52.384,13.561 L 51.707,27.753 C 51.651,28.926 52.019,29.949 52.811,30.821 C 53.608,31.693 54.589,32.157 55.762,32.214 L 69.951,32.89 C 71.125,32.947 72.148,32.577 73.023,31.786 C 73.895,30.991 74.357,30.009 74.415,28.84 Z" fill="none" stroke="#ffffff" stroke-width="0.461" stroke-linejoin="round" stroke-linecap="round" marker-start="none" marker-end="none"/>
      </g>
     </g>
     <path d="M 70.164,9.91 L 70.745,10.4 L 56.833,9.736 L 53.931,10.779 L 52.614,13.571 L 51.937,27.763 L 52.981,30.665 L 55.773,31.983 L 69.962,32.659 L 72.868,31.615 L 74.184,28.828 L 74.86,14.634 L 74.755,14.342 L 75.306,14.971 L 74.645,28.851 L 73.177,31.956 L 69.939,33.12 L 55.75,32.444 L 52.64,30.976 L 51.476,27.742 L 52.153,13.55 L 53.62,10.438 L 56.856,9.275 Z M 62.625,15.025 L 71.273,24.538 L 71.58,25.383 L 71.193,26.194 L 69.614,27.63 L 68.768,27.941 L 67.955,27.551 L 61.539,20.485 L 58.441,23.304 L 57.594,23.612 L 56.781,23.224 L 55.345,21.644 L 55.037,20.798 L 55.424,19.987 L 60.971,14.946 L 61.819,14.637 Z M 61.28,15.287 L 55.735,20.326 L 55.498,20.821 L 55.686,21.335 L 57.122,22.913 L 57.617,23.151 L 58.132,22.961 L 61.399,19.989 L 61.725,20.005 L 68.294,27.238 L 68.791,27.48 L 69.305,27.287 L 70.882,25.855 L 71.119,25.362 L 70.932,24.847 L 62.284,15.334 L 61.798,15.098 Z" stroke="none" fill="#ffffff" stroke-width="0.25" fill-rule="nonzero" stroke-linejoin="miter" marker-start="none" marker-end="none"/>
     <path d="M 56.845,9.506 L 70.455,10.155 L 71.217,10.797 L 72.802,12.276 L 74.297,13.819 L 75.087,14.721 L 74.415,28.84 L 74.381,29.273 L 74.185,30.079 L 73.838,30.816 L 73.337,31.482 L 73.023,31.786 L 72.69,32.069 L 71.978,32.505 L 71.211,32.781 L 70.387,32.898 L 69.951,32.89 L 55.762,32.214 L 55.328,32.18 L 54.52,31.984 L 53.783,31.636 L 53.116,31.135 L 52.811,30.821 L 52.527,30.489 L 52.092,29.779 L 51.816,29.012 L 51.699,28.188 L 51.707,27.753 L 52.384,13.561 L 52.417,13.127 L 52.612,12.318 L 52.96,11.581 L 53.462,10.914 L 53.776,10.609 L 54.109,10.325 L 54.821,9.891 L 55.588,9.615 L 56.411,9.498 Z M 61.619,14.871 L 61.278,14.996 L 61.126,15.117 L 55.58,20.157 L 55.445,20.297 L 55.289,20.622 L 55.268,20.81 L 55.271,20.998 L 55.395,21.338 L 55.516,21.49 L 56.952,23.069 L 57.092,23.205 L 57.418,23.362 L 57.606,23.382 L 57.794,23.38 L 58.134,23.255 L 58.287,23.133 L 61.555,20.16 L 68.125,27.395 L 68.266,27.53 L 68.592,27.687 L 68.78,27.711 L 68.968,27.705 L 69.308,27.58 L 69.46,27.459 L 71.038,26.025 L 71.173,25.885 L 71.33,25.559 L 71.35,25.373 L 71.348,25.183 L 71.224,24.843 L 71.103,24.693 L 62.455,15.18 L 62.317,15.045 L 61.994,14.889 L 61.809,14.868 Z" stroke="none" stroke-width="0.25" fill-rule="nonzero" stroke-linejoin="round" stroke-linecap="round" marker-start="none" marker-end="none" fill="url(#LinearGradient_4)"/>
     <g id="ClipView_1">
      <path d="M 44.169,0.017 L 46.227,0.131 L 48.281,0.344 L 50.327,0.657 L 52.362,1.07 L 54.382,1.584 L 56.383,2.199 L 58.362,2.917 L 60.314,3.736 L 62.236,4.659 L 64.124,5.685 L 65.974,6.815 L 67.782,8.049 L 68.668,8.71 L 69.542,9.386 L 71.217,10.797 L 72.802,12.276 L 74.297,13.819 L 75.702,15.423 L 77.015,17.084 L 78.237,18.797 L 79.367,20.56 L 80.405,22.368 L 81.349,24.217 L 82.2,26.105 L 82.956,28.026 L 83.618,29.978 L 84.185,31.956 L 84.656,33.957 L 85.031,35.977 L 85.309,38.011 L 85.49,40.058 L 85.573,42.111 L 85.558,44.169 L 85.444,46.227 L 85.231,48.281 L 84.918,50.327 L 84.505,52.362 L 83.991,54.382 L 83.375,56.383 L 82.658,58.362 L 81.838,60.314 L 80.916,62.236 L 79.89,64.124 L 78.759,65.974 L 77.525,67.782 L 76.864,68.668 L 76.188,69.542 L 74.777,71.217 L 73.298,72.802 L 71.755,74.297 L 70.151,75.702 L 68.49,77.015 L 66.777,78.237 L 65.014,79.367 L 63.206,80.405 L 61.357,81.349 L 59.47,82.2 L 57.548,82.956 L 55.597,83.618 L 53.618,84.185 L 51.618,84.656 L 49.598,85.031 L 47.563,85.309 L 45.517,85.49 L 43.463,85.573 L 41.405,85.558 L 39.348,85.444 L 37.294,85.231 L 35.247,84.918 L 33.212,84.505 L 31.192,83.991 L 29.191,83.375 L 27.212,82.658 L 25.26,81.838 L 23.338,80.916 L 21.45,79.89 L 19.6,78.759 L 17.792,77.525 L 16.906,76.864 L 16.032,76.188 L 14.357,74.777 L 12.772,73.298 L 11.277,71.755 L 9.873,70.151 L 8.559,68.49 L 7.337,66.777 L 6.207,65.014 L 5.17,63.206 L 4.226,61.357 L 3.375,59.469 L 2.619,57.548 L 1.957,55.596 L 1.39,53.618 L 0.919,51.617 L 0.544,49.597 L 0.266,47.563 L 0.085,45.516 L 0.002,43.463 L 0.017,41.405 L 0.131,39.347 L 0.344,37.293 L 0.657,35.247 L 1.07,33.212 L 1.584,31.192 L 2.199,29.191 L 2.917,27.212 L 3.736,25.26 L 4.659,23.338 L 5.685,21.45 L 6.815,19.6 L 8.049,17.792 L 8.71,16.906 L 9.386,16.032 L 10.797,14.357 L 12.276,12.772 L 13.819,11.277 L 15.423,9.873 L 17.084,8.559 L 18.797,7.337 L 20.56,6.207 L 22.368,5.17 L 24.217,4.226 L 26.105,3.375 L 28.026,2.619 L 29.978,1.957 L 31.956,1.39 L 33.957,0.919 L 35.977,0.544 L 38.011,0.266 L 40.058,0.085 L 42.111,0.002 Z" stroke="none" stroke-width="0" fill-rule="nonzero" marker-start="none" marker-end="none" stroke-miterlimit="79.8403193612775"/>
      <clipPath id="ClipPath_1">
       <path d="M 42.111,0.002 L 40.058,0.085 L 38.011,0.266 L 35.977,0.544 L 33.957,0.919 L 31.956,1.39 L 29.978,1.957 L 28.026,2.619 L 26.105,3.375 L 24.217,4.226 L 22.368,5.17 L 20.56,6.207 L 18.797,7.337 L 17.084,8.559 L 15.423,9.873 L 13.819,11.277 L 12.276,12.772 L 10.797,14.357 L 9.386,16.032 L 8.71,16.906 L 8.049,17.792 L 6.815,19.6 L 5.685,21.45 L 4.659,23.338 L 3.736,25.26 L 2.917,27.212 L 2.199,29.191 L 1.584,31.192 L 1.07,33.212 L 0.657,35.247 L 0.344,37.293 L 0.131,39.347 L 0.017,41.405 L 0.002,43.463 L 0.085,45.516 L 0.266,47.563 L 0.544,49.597 L 0.919,51.617 L 1.39,53.618 L 1.957,55.596 L 2.619,57.548 L 3.375,59.469 L 4.226,61.357 L 5.17,63.206 L 6.207,65.014 L 7.337,66.777 L 8.559,68.49 L 9.873,70.151 L 11.277,71.755 L 12.772,73.298 L 14.357,74.777 L 16.032,76.188 L 16.906,76.864 L 17.792,77.525 L 19.6,78.759 L 21.45,79.89 L 23.338,80.916 L 25.26,81.838 L 27.212,82.658 L 29.191,83.375 L 31.192,83.991 L 33.212,84.505 L 35.247,84.918 L 37.294,85.231 L 39.348,85.444 L 41.405,85.558 L 43.463,85.573 L 45.517,85.49 L 47.563,85.309 L 49.598,85.031 L 51.618,84.656 L 53.618,84.185 L 55.597,83.618 L 57.548,82.956 L 59.47,82.2 L 61.357,81.349 L 63.206,80.405 L 65.014,79.367 L 66.777,78.237 L 68.49,77.015 L 70.151,75.702 L 71.755,74.297 L 73.298,72.802 L 74.777,71.217 L 76.188,69.542 L 76.864,68.668 L 77.525,67.782 L 78.759,65.974 L 79.89,64.124 L 80.916,62.236 L 81.838,60.314 L 82.658,58.362 L 83.375,56.383 L 83.991,54.382 L 84.505,52.362 L 84.918,50.327 L 85.231,48.281 L 85.444,46.227 L 85.558,44.169 L 85.573,42.111 L 85.49,40.058 L 85.309,38.011 L 85.031,35.977 L 84.656,33.957 L 84.185,31.956 L 83.618,29.978 L 82.956,28.026 L 82.2,26.105 L 81.349,24.217 L 80.405,22.368 L 79.367,20.56 L 78.237,18.797 L 77.015,17.084 L 75.702,15.423 L 74.297,13.819 L 72.802,12.276 L 71.217,10.797 L 69.542,9.386 L 68.668,8.71 L 67.782,8.049 L 65.974,6.815 L 64.124,5.685 L 62.236,4.659 L 60.314,3.736 L 58.362,2.917 L 56.383,2.199 L 54.382,1.584 L 52.362,1.07 L 50.327,0.657 L 48.281,0.344 L 46.227,0.131 L 44.169,0.017 L 42.111,0.002 Z"/>
      </clipPath>
      <g clip-path="url(#ClipPath_1)">
       <path d="M 62.455,15.18 L 71.103,24.693 C 71.28,24.888 71.363,25.114 71.35,25.373 C 71.339,25.627 71.233,25.845 71.038,26.025 L 69.46,27.459 C 69.262,27.636 69.036,27.718 68.78,27.711 C 68.522,27.693 68.308,27.591 68.125,27.395 L 61.555,20.16 L 58.287,23.133 C 58.087,23.312 57.862,23.395 57.606,23.382 C 57.349,23.37 57.132,23.266 56.952,23.069 L 55.516,21.49 C 55.339,21.293 55.256,21.065 55.268,20.81 C 55.281,20.553 55.385,20.337 55.58,20.157 L 61.126,15.117 C 61.323,14.939 61.55,14.857 61.809,14.868 C 62.062,14.88 62.278,14.984 62.455,15.18 Z M 74.415,28.84 L 75.091,14.645 C 75.147,13.47 74.779,12.45 73.988,11.574 C 73.192,10.702 72.209,10.239 71.036,10.183 L 56.845,9.506 C 55.675,9.45 54.652,9.817 53.776,10.609 C 52.904,11.407 52.439,12.386 52.384,13.561 L 51.707,27.753 C 51.651,28.926 52.019,29.949 52.811,30.821 C 53.608,31.693 54.589,32.157 55.762,32.214 L 69.951,32.89 C 71.125,32.947 72.148,32.577 73.023,31.786 C 73.895,30.991 74.357,30.009 74.415,28.84 Z" fill="none" stroke="#ffffff" stroke-width="0.461" stroke-linejoin="round" stroke-linecap="round" marker-start="none" marker-end="none"/>
      </g>
     </g>
    </g>
   </g>
  </g>
 </g>
</svg>
