<?xml version="1.0" standalone="no"?>
<!DOCTYPE svg PUBLIC "-//W3C//DTD SVG 1.1//EN" "http://www.w3.org/Graphics/SVG/1.1/DTD/svg11.dtd">
<!--Generator: Xara Designer (www.xara.com), SVG filter version: 6.2.0.0-->
<svg stroke-width="0.501" stroke-linejoin="bevel" fill-rule="evenodd" xmlns:xlink="http://www.w3.org/1999/xlink" xmlns="http://www.w3.org/2000/svg" version="1.1" overflow="visible" width="802.983pt" height="743.97pt" viewBox="0 0 802.983 743.97" enable-background="new">
 <defs>
  <filter id="StainedFilter">
   <feBlend mode="multiply" in2="BackgroundImage" in="SourceGraphic" result="blend"/>
   <feComposite in="blend" in2="SourceAlpha" operator="in" result="comp"/>
  </filter>
 </defs>
 <g id="Document" fill="none" stroke="black" font-family="Times New Roman" font-size="16" transform="scale(1 -1)">
  <g id="Spread" transform="translate(0 -743.97)">
   <g id="Layer 1">
    <g id="ClipView">
     <g id="Group" fill="#69c15c" stroke-linejoin="miter" stroke="none" stroke-width="0" stroke-miterlimit="79.8403193612775">
      <path d="M 400.39,0.02 L 361.9,1.832 L 343.902,4.227 L 323.058,7.189 L 303.015,11.728 L 284.938,16.032 L 265.791,22.225 L 247.85,28.323 L 230.457,35.803 L 212.222,43.925 L 196.074,52.788 L 178.546,62.624 L 161.247,74.409 L 147.008,84.304 L 117.595,108.945 L 90.965,136.237 L 80.605,149.074 L 67.572,165.476 L 57.169,181.35 L 47.393,196.679 L 38.763,213.257 L 30.544,229.676 L 24.074,246.038 L 17.297,264.056 L 12.7,280.574 L 7.752,299.334 L 4.597,318.503 L 1.969,335.31 L 0.039,370.977 L 0,371.99 L 1.696,405.221 L 2.007,408.901 L 6.994,440.889 L 7.792,444.842 L 12.777,463.717 L 18.623,483.488 L 24.777,499.811 L 32.801,518.804 L 40.477,534.151 L 50.762,552.579 L 59.996,567.051 L 72.149,584.234 L 83.369,598.414 L 96.694,613.626 L 110.427,627.672 L 124.82,641.093 L 148.079,660.551 C 295.264,771.776 507.699,771.776 654.884,660.551 L 678.143,641.093 L 692.556,627.672 L 706.249,613.647 L 719.612,598.394 L 730.813,584.251 L 743.005,566.995 L 752.181,552.619 L 762.524,534.056 L 770.122,518.86 L 778.245,499.656 L 784.301,483.566 L 790.242,463.464 L 795.112,444.979 L 796.007,440.713 L 800.918,409.059 L 801.288,404.908 L 802.983,372.341 L 802.983,371.99 L 800.994,335.213 L 798.54,319.688 L 795.189,299.236 L 790.458,281.276 L 785.647,263.941 L 779.08,246.585 L 772.381,229.579 L 764.412,213.722 L 755.53,196.602 L 746.083,181.798 L 735.331,165.395 L 722.806,149.638 L 711.956,136.198 L 685.856,109.413 L 685.388,108.945 L 684.804,108.459 L 655.973,84.325 L 641.481,74.272 L 624.417,62.663 L 606.829,52.729 L 590.719,43.925 L 572.487,35.803 L 555.131,28.323 L 537.172,22.225 L 518.025,16.032 L 499.947,11.728 L 479.903,7.189 L 459.061,4.227 L 441.08,1.832 L 402.514,0.02 L 439.972,1.695 C 427.154,0.567 414.338,0 401.482,0 L 400.39,0.02 Z" marker-start="none" marker-end="none"/>
     </g>
     <clipPath id="ClipPath">
      <path d="M 400.39,0.02 L 361.9,1.832 L 343.902,4.227 L 323.058,7.189 L 303.015,11.728 L 284.938,16.032 L 265.791,22.225 L 247.85,28.323 L 230.457,35.803 L 212.222,43.925 L 196.074,52.788 L 178.546,62.624 L 161.247,74.409 L 147.008,84.304 L 117.595,108.945 L 90.965,136.237 L 80.605,149.074 L 67.572,165.476 L 57.169,181.35 L 47.393,196.679 L 38.763,213.257 L 30.544,229.676 L 24.074,246.038 L 17.297,264.056 L 12.7,280.574 L 7.752,299.334 L 4.597,318.503 L 1.969,335.31 L 0.039,370.977 L 0,371.99 L 1.696,405.221 L 2.007,408.901 L 6.994,440.889 L 7.792,444.842 L 12.777,463.717 L 18.623,483.488 L 24.777,499.811 L 32.801,518.804 L 40.477,534.151 L 50.762,552.579 L 59.996,567.051 L 72.149,584.234 L 83.369,598.414 L 96.694,613.626 L 110.427,627.672 L 124.82,641.093 L 148.079,660.551 C 295.264,771.776 507.699,771.776 654.884,660.551 L 678.143,641.093 L 692.556,627.672 L 706.249,613.647 L 719.612,598.394 L 730.813,584.251 L 743.005,566.995 L 752.181,552.619 L 762.524,534.056 L 770.122,518.86 L 778.245,499.656 L 784.301,483.566 L 790.242,463.464 L 795.112,444.979 L 796.007,440.713 L 800.918,409.059 L 801.288,404.908 L 802.983,372.341 L 802.983,371.99 L 800.994,335.213 L 798.54,319.688 L 795.189,299.236 L 790.458,281.276 L 785.647,263.941 L 779.08,246.585 L 772.381,229.579 L 764.412,213.722 L 755.53,196.602 L 746.083,181.798 L 735.331,165.395 L 722.806,149.638 L 711.956,136.198 L 685.856,109.413 L 685.388,108.945 L 684.804,108.459 L 655.973,84.325 L 641.481,74.272 L 624.417,62.663 L 606.829,52.729 L 590.719,43.925 L 572.487,35.803 L 555.131,28.323 L 537.172,22.225 L 518.025,16.032 L 499.947,11.728 L 479.903,7.189 L 459.061,4.227 L 441.08,1.832 L 402.514,0.02 L 439.972,1.695 C 427.154,0.567 414.338,0 401.482,0 L 400.39,0.02 Z"/>
     </clipPath>
     <g clip-path="url(#ClipPath)">
      <g id="Group_1">
       <g id="Group_2">
        <g id="Group_3" stroke-linejoin="miter" stroke="none" stroke-width="0" stroke-miterlimit="79.8403193612775">
         <g id="Group_4">
          <path d="M 436.072,254.603 L 357.859,256.91 L 341.76,375.352 L 361.488,379.985 L 362.905,428.083 L 441.12,425.777 L 439.701,377.679 L 459.071,371.892 L 436.072,254.603 Z" fill="#ffbfa0" marker-start="none" marker-end="none"/>
          <mask id="TranspMask">
           <rect x="-10%" y="-10%" width="120%" height="120%" fill="#ffffff" stroke="none"/>
          </mask>
          <g id="Group_5" fill="#deb4a0" mask="url(#TranspMask)" filter="url(#StainedFilter)">
           <path d="M 439.701,377.679 L 362.382,410.304 L 362.897,427.783 L 441.111,425.475 L 439.701,377.679 Z" marker-start="none" marker-end="none"/>
          </g>
         </g>
         <g id="Group_6">
          <path d="M 447.811,377.424 C 452.102,442.226 428.395,515.353 450.186,521.135 C 524.098,540.728 524.027,453.576 513.99,403.35 C 501.721,342.119 503.995,315.217 521.081,252.972 C 484.504,283.94 442.71,300.554 447.811,377.424 Z" fill="#3c2417" marker-start="none" marker-end="none"/>
          <g id="Group_7">
           <path d="M 307.543,498.219 C 296.543,497.821 287.271,505.928 286.841,516.34 L 285.992,535.923 C 285.544,546.334 294.09,555.141 305.088,555.539 L 303.394,594.755 C 301.619,636.404 349.337,690.918 388.9,692.419 C 428.462,693.919 480.688,643.184 482.482,601.551 L 484.158,562.317 C 495.142,562.748 504.43,554.643 504.878,544.23 L 505.708,524.614 C 506.155,514.2 497.612,505.429 486.611,504.999 C 488.404,463.365 440.759,407.338 401.18,405.854 C 361.619,404.354 309.334,456.585 307.543,498.219 Z" fill="#ffbfa0" marker-start="none" marker-end="none"/>
           <mask id="TranspMask_1">
            <rect x="-10%" y="-10%" width="120%" height="120%" fill="#cccccc" stroke="none"/>
           </mask>
           <g id="Group_8" fill="#f6ccb8" mask="url(#TranspMask_1)" filter="url(#StainedFilter)">
            <path d="M 401.18,405.854 L 398.19,475.601 L 378.132,478.609 C 378.132,478.609 382.174,509.905 395.449,539.689 L 388.9,692.419 C 428.462,693.919 480.688,643.184 482.482,601.551 L 484.158,562.317 C 495.142,562.748 504.43,554.643 504.878,544.23 L 505.708,524.614 C 506.155,514.2 497.612,505.429 486.611,504.999 C 488.404,463.365 440.759,407.338 401.18,405.854 Z" marker-start="none" marker-end="none"/>
           </g>
           <g id="Group_9">
            <g id="Group_10">
             <mask id="TranspMask_2">
              <rect x="-10%" y="-10%" width="120%" height="120%" fill="#ffffff" stroke="none"/>
             </mask>
             <g id="Group_11" fill="#f6ccb8" mask="url(#TranspMask_2)" filter="url(#StainedFilter)">
              <path d="M 332.508,534.836 C 331.841,543.041 338.226,550.199 346.714,550.789 C 355.238,551.408 362.654,545.235 363.316,537.032 C 363.964,528.827 357.597,521.668 349.077,521.08 C 340.552,520.458 333.137,526.633 332.508,534.836 Z" marker-start="none" marker-end="none"/>
             </g>
             <path d="M 332.334,538.616 C 331.685,546.804 338.051,553.963 346.555,554.568 C 355.063,555.187 362.495,549.015 363.143,540.794 C 363.791,532.606 357.424,525.463 348.9,524.843 C 340.413,524.22 332.98,530.396 332.334,538.616 Z" fill="#3c2417" marker-start="none" marker-end="none"/>
             <path d="M 348.938,544.267 C 348.763,546.317 350.359,548.114 352.493,548.253 C 354.61,548.409 356.462,546.878 356.636,544.808 C 356.792,542.758 355.215,540.992 353.082,540.838 C 350.945,540.666 349.096,542.231 348.938,544.267 Z" fill="#ffffff" marker-start="none" marker-end="none"/>
             <path d="M 324.833,548.264 C 324.419,548.376 323.903,548.558 323.325,548.812 C 322.166,549.313 320.78,550.177 319.587,551.186 C 318.394,552.193 317.439,553.38 316.81,554.286 C 316.183,555.213 315.866,555.822 315.866,555.822 C 315.722,556.064 315.814,556.345 316.07,556.471 C 316.223,556.568 316.472,556.527 316.62,556.39 C 316.62,556.39 318.745,554.515 321.204,553.653 C 322.433,553.215 323.649,552.978 324.538,552.919 C 324.97,552.906 325.324,552.928 325.712,552.968 C 333.217,562.946 342.391,563.999 347.313,563.686 C 355.382,563.146 362.879,558.598 365.997,552.316 C 366.457,551.381 366.072,550.234 365.087,549.811 C 364.116,549.353 362.953,549.739 362.477,550.676 C 359.975,555.682 353.646,559.472 347.083,559.903 C 339.635,560.39 332.85,556.684 327.957,549.497 C 327.53,548.618 326.588,548.029 325.516,548.092 C 325.586,548.089 325.184,548.153 324.833,548.264 Z" fill="#3c2417" marker-start="none" marker-end="none"/>
            </g>
            <g id="Group_12">
             <mask id="TranspMask_3">
              <rect x="-10%" y="-10%" width="120%" height="120%" fill="#ffffff" stroke="none"/>
             </mask>
             <g id="Group_13" fill="#f6ccb8" mask="url(#TranspMask_3)" filter="url(#StainedFilter)">
              <path d="M 430.187,538.532 C 429.573,546.735 435.923,553.894 444.427,554.516 C 452.951,555.103 460.35,548.965 461.013,540.744 C 461.661,532.537 455.277,525.379 446.787,524.775 C 438.267,524.154 430.866,530.326 430.187,538.532 Z" marker-start="none" marker-end="none"/>
             </g>
             <path d="M 430.045,542.309 C 429.397,550.498 435.748,557.656 444.271,558.278 C 452.774,558.881 460.193,552.727 460.839,544.52 C 461.519,536.3 455.135,529.158 446.612,528.537 C 438.129,527.948 430.691,534.089 430.045,542.309 Z" fill="#3c2417" marker-start="none" marker-end="none"/>
             <path d="M 446.634,547.978 C 446.475,550.011 448.073,551.81 450.206,551.963 C 452.308,552.103 454.192,550.571 454.331,548.537 C 454.49,546.469 452.911,544.705 450.794,544.55 C 448.658,544.393 446.808,545.925 446.634,547.978 Z" fill="#ffffff" marker-start="none" marker-end="none"/>
             <path d="M 426.182,554.585 C 428.739,561.084 435.833,566.175 443.815,567.314 C 448.684,568.028 457.948,567.67 466.278,558.302 C 466.662,558.29 466.999,558.296 467.454,558.349 C 468.311,558.457 469.546,558.79 470.719,559.292 C 473.114,560.345 475.037,562.403 475.037,562.403 C 475.175,562.55 475.396,562.592 475.578,562.52 C 475.827,562.412 475.934,562.142 475.827,561.893 C 475.827,561.893 475.575,561.246 475.009,560.29 C 474.476,559.332 473.636,558.099 472.528,556.973 C 471.44,555.884 470.12,554.933 468.995,554.327 C 468.45,554.045 467.924,553.822 467.55,553.666 C 467.21,553.526 466.823,553.435 466.871,553.434 C 465.828,553.315 464.82,553.83 464.326,554.666 C 458.839,561.454 451.756,564.632 444.377,563.591 C 437.841,562.677 431.881,558.425 429.817,553.234 C 429.433,552.258 428.296,551.77 427.285,552.153 C 426.27,552.518 425.782,553.607 426.182,554.585 Z" fill="#3c2417" marker-start="none" marker-end="none"/>
            </g>
           </g>
          </g>
          <path d="M 387.303,719.658 C 485.806,723.393 524.305,614.91 499.492,553.295 C 477.26,557.003 451.804,583.954 445.296,592.532 C 448.349,583.417 454.07,571.493 463.428,564.573 C 436.552,570.113 413.272,584.418 396.139,601.766 C 398.132,592.547 404.667,582.677 414.46,574.085 C 407.18,576.882 400.042,580.565 393.207,584.844 C 377.971,594.315 364.235,606.813 353.912,619.648 C 339.717,588.783 312.573,549.933 293.162,548.644 C 260.642,601.146 288.819,715.935 387.303,719.658 Z" fill="#3c2417" marker-start="none" marker-end="none"/>
          <path d="M 363.626,454.342 C 389.496,450.264 415.841,451.949 442.394,456.777 C 413.231,434.248 388.367,430.226 363.626,454.342 Z" fill="#ffffff" marker-start="none" marker-end="none"/>
         </g>
        </g>
        <path d="M 402.033,241.622 L 349.928,374.387 C 387.621,323.473 419.974,321.638 445.445,372.489 L 445.2,362.078 L 402.033,241.622 Z" stroke-linecap="round" fill="#e5e5e5" stroke="none" stroke-width="0.75" stroke-linejoin="round" marker-start="none" marker-end="none" stroke-miterlimit="79.8403193612775"/>
        <g id="Group_14" stroke-linejoin="miter" stroke="#191919" stroke-width="0.75" stroke-miterlimit="79.8403193612775">
         <path d="M 387.879,331.679 L 379.778,341.857 L 400.702,352.765 L 421.594,341.857 L 413.279,331.679 L 387.879,331.679 Z" fill="#32303a" marker-start="none" marker-end="none"/>
         <path d="M 373.966,334.815 L 321.967,368.889 C 322.06,368.91 356.773,378.669 356.773,378.669 L 367.502,372.327 L 400.702,352.765 L 373.966,334.815 Z" fill="#e6e7e8" marker-start="none" marker-end="none"/>
         <path d="M 427.404,334.815 L 400.702,352.765 L 433.867,372.327 L 444.597,378.669 C 444.597,378.669 479.343,368.91 479.387,368.889 L 427.404,334.815 Z" fill="#e6e7e8" marker-start="none" marker-end="none"/>
         <path d="M 400.702,100.784 L 377.774,116.939 L 387.879,329.223 L 413.279,329.223 L 423.596,116.939 L 400.702,100.784 Z" fill="#32303a" marker-start="none" marker-end="none"/>
        </g>
        <g id="Group_15" stroke-linejoin="miter" stroke="none" stroke-miterlimit="79.8403193612775">
         <path d="M 302.654,164.637 C 301.716,196.981 274.529,210.575 283.235,266.442 C 310.988,306.218 228.046,371.141 350.376,377.551 L 401.055,238.912 L 451.727,377.551 C 574.059,371.141 491.121,306.218 518.869,266.442 C 535.486,217.984 506.09,203.309 503.746,162.294 C 503.746,162.294 507.958,137.676 508.518,131.854 L 508.531,131.728 L 508.527,131.759 C 508.833,128.58 509.249,124.602 509.843,119.543 L 509.85,119.484 L 509.85,119.482 L 509.849,119.484 C 513.909,85.028 525.213,12.086 554.496,-74.728 L 415.547,-74.728 L 401.055,-22.575 L 386.562,-74.728 L 247.607,-74.728 C 288.527,46.573 302.654,164.637 302.654,164.637 Z" fill="#32303a" stroke-width="5.174" marker-start="none" marker-end="none" stroke-miterlimit="19.9600798403194"/>
         <g id="Group_16" stroke-width="1.293" fill="#ffffff" stroke-miterlimit="19.9600798403194">
          <path d="M 401.049,238.912 L 451.806,378.669 L 501.484,343.31 L 453.843,325.295 L 472.542,299.218 L 401.049,238.912 Z" marker-start="none" marker-end="none"/>
          <path d="M 401.049,238.912 L 329.561,299.218 L 348.26,325.295 L 300.619,343.31 L 350.371,378.079 L 401.049,238.912 Z" marker-start="none" marker-end="none"/>
         </g>
         <g id="Group_17" stroke-width="5.174" fill="#32303a" stroke-miterlimit="19.9600798403194">
          <path d="M 638.517,218.469 C 636.363,223.003 633.957,227.592 631.344,232.218 C 605.506,277.938 544.96,352.577 505.101,366.23 L 504.522,327.52 L 485.864,285.916 C 530.21,260.093 546.423,240.316 565.855,211.609"/>
         </g>
         <g id="Group_18" stroke-width="5.174" stroke-miterlimit="19.9600798403194">
          <mask id="TranspMask_4">
           <rect x="-10%" y="-10%" width="120%" height="120%" fill="#ffffff" stroke="none"/>
          </mask>
          <g id="Group_19" fill="#f7cdb9" mask="url(#TranspMask_4)">
           <path d="M 205.932,-117.589 C 213.154,-95.253 242.336,-117.651 242.336,-117.651 L 242.305,-196.221 C 242.305,-211.764 233.24,-224.352 222.054,-224.352 C 210.868,-224.352 187.016,-176.105 205.932,-117.589 Z" marker-start="none" marker-end="none"/>
           <path d="M 241.663,-186.458 C 241.663,-176.913 239.681,-168.356 237.664,-162.152 C 236.655,-159.052 235.64,-156.538 234.86,-154.784 C 234.083,-153.03 233.54,-152.031 233.478,-151.965 C 230.368,-148.606 229.799,-142.392 232.21,-138.062 C 234.622,-133.727 239.112,-132.925 242.232,-136.277 C 243.024,-137.131 255.948,-157.443 255.953,-186.458 C 255.953,-191.932 252.755,-196.377 248.808,-196.377 C 244.861,-196.377 241.663,-191.938 241.663,-186.458 Z" marker-start="none" marker-end="none"/>
          </g>
          <path d="M 256.444,-144.535 L 198.208,-144.4 C 198.208,-144.4 197.468,176.722 202.507,221.212 C 209.388,322.247 273.493,375.652 329.561,375.652 C 329.561,375.652 282.185,348.323 297.411,323.66 C 290.043,299.995 298.777,275.911 292.517,269.904 C 272.686,250.869 268.288,246.797 264.588,214.166 C 259.86,172.475 256.444,-144.535 256.444,-144.535 Z" fill="#32303a" marker-start="none" marker-end="none"/>
         </g>
        </g>
        <path d="M 606.354,207.102 L 686.596,400.272 C 685.812,376.524 696.532,360.441 710.971,346.836 C 697.063,294.771 699.503,247.479 661.552,181.521 C 635.748,169.909 621.478,175.218 606.354,207.102 Z" fill="#32303a" stroke-linejoin="miter" stroke="none" stroke-width="0" marker-start="none" marker-end="none" stroke-miterlimit="79.8403193612775"/>
        <path d="M 563.605,214.913 C 582.951,187.367 607.939,170.203 642.172,175.889 L 649.103,213.356 L 591.172,252.389 L 563.605,214.913 Z" stroke="none" stroke-width="0" stroke-linejoin="miter" fill="#32303a" marker-start="none" marker-end="none" stroke-miterlimit="79.8403193612775"/>
       </g>
       <g id="Group_20" stroke-width="6.554" stroke="#012e42" fill-rule="evenodd" stroke-linejoin="miter">
        <path d="M 758.185,320.145 L 700.526,323.853 L 649.776,296.231 C 649.515,295.189 649.568,294.214 649.808,293.116 L 656.951,260.741 L 766.609,284.93 L 759.468,317.306 C 759.227,318.402 758.863,319.309 758.185,320.145 Z" fill="#646d73" marker-start="none" marker-end="none"/>
        <path d="M 766.609,284.93 L 759.468,317.306 C 759.227,318.402 758.863,319.309 758.185,320.145 L 700.526,323.853 L 711.779,272.836 Z" fill="#474f54" marker-start="none" marker-end="none"/>
        <path d="M 783.835,544.458 L 743.813,535.631 C 743.297,538.29 743.016,540.842 742.422,543.538 C 741.454,547.924 737.246,550.61 732.861,549.643 L 576.204,515.087 C 571.815,514.119 569.13,509.913 570.098,505.526 C 570.692,502.831 571.51,500.399 572.162,497.768 L 532.139,488.941 C 527.81,487.984 525.079,483.708 526.035,479.38 L 530.412,459.537 C 540.058,415.801 582.93,388.001 626.61,395.236 C 638.337,384.837 651.039,378 664.326,375.503 C 670.846,337.019 654.908,305.742 650.949,299.118 C 650.305,298.319 649.885,297.241 649.777,296.231 L 758.185,320.145 C 757.664,321.016 756.83,321.816 755.906,322.27 C 749.371,326.58 721.949,348.129 711.639,385.938 C 722.644,393.797 731.354,405.359 737.624,419.732 C 780.249,431.573 807.416,474.799 797.774,518.511 L 793.397,538.353 C 792.441,542.683 788.165,545.413 783.835,544.458 Z M 546.077,462.992 L 543.429,475.001 L 576.289,482.248 C 584.034,456.808 595.695,430.629 612.637,409.929 C 581.588,410.065 553.038,431.428 546.077,462.992 Z M 782.108,515.055 C 789.066,483.508 772.17,452.137 744.087,438.941 C 750.655,464.823 750.31,493.222 746.598,519.817 L 779.456,527.065 Z" fill="#fcc900" marker-start="none" marker-end="none"/>
        <path d="M 776.17,278.827 L 650.844,251.182 C 646.514,250.227 642.239,252.958 641.284,257.284 C 640.328,261.615 643.06,265.892 647.388,266.845 L 772.714,294.49 C 777.044,295.445 781.32,292.714 782.275,288.387 C 783.231,284.056 780.5,279.781 776.17,278.827 Z" fill="#474f54" marker-start="none" marker-end="none"/>
        <path d="M 772.714,294.49 L 710.051,280.667 L 713.506,265.004 L 776.17,278.827 C 780.5,279.781 783.231,284.056 782.275,288.387 C 781.32,292.714 777.044,295.445 772.714,294.49 Z" fill="#32393f" marker-start="none" marker-end="none"/>
       </g>
       <g id="Group_21">
        <g id="Group_22" stroke-linejoin="round" stroke-linecap="round">
         <path d="M 236.814,85.767 C 236.814,87.47 236.189,88.95 234.941,90.192 C 233.699,91.441 232.219,92.065 230.517,92.065 C 228.743,92.065 227.255,91.441 226.039,90.192 C 224.824,88.95 224.215,87.47 224.215,85.767 C 224.215,83.994 224.824,82.505 226.039,81.29 C 227.255,80.075 228.743,79.469 230.517,79.469 C 232.219,79.469 233.699,80.075 234.941,81.29 C 236.189,82.505 236.814,83.994 236.814,85.767 Z M 252.561,136.156 L 252.561,73.17 C 252.561,71.464 251.936,69.987 250.687,68.738 C 249.445,67.495 247.965,66.869 246.261,66.869 L 217.918,66.869 C 216.213,66.869 214.735,67.495 213.486,68.738 C 212.243,69.987 211.619,71.464 211.619,73.17 L 211.619,136.156 C 211.619,137.86 212.243,139.338 213.486,140.582 C 214.735,141.83 216.213,142.454 217.918,142.454 L 246.261,142.454 C 247.965,142.454 249.445,141.83 250.687,140.582 C 251.936,139.338 252.561,137.86 252.561,136.156 Z M 369.086,136.156 C 369.086,130.515 367.281,125.623 363.669,121.488 C 364.654,118.604 365.149,116.113 365.149,114.015 C 365.341,109.027 363.933,104.533 360.915,100.53 C 362.029,96.858 362.029,93.015 360.915,89.012 C 359.93,85.273 358.159,82.191 355.6,79.761 C 356.19,72.417 354.586,66.478 350.779,61.948 C 346.579,56.96 340.118,54.409 331.388,54.274 L 327.847,54.274 L 320.365,54.274 L 318.69,54.274 C 314.361,54.274 309.641,54.778 304.524,55.797 C 299.406,56.815 295.418,57.772 292.57,58.655 C 289.71,59.537 285.758,60.837 280.709,62.54 C 272.639,65.362 267.453,66.804 265.157,66.869 C 263.454,66.938 261.973,67.573 260.725,68.788 C 259.483,70.003 258.86,71.464 258.86,73.17 L 258.86,136.251 C 258.86,137.894 259.449,139.322 260.631,140.537 C 261.812,141.753 263.223,142.421 264.859,142.55 C 266.44,142.685 268.924,144.619 272.34,148.359 C 275.753,152.093 279.065,156.065 282.281,160.267 C 286.743,165.973 290.06,169.91 292.219,172.075 C 293.401,173.256 294.419,174.831 295.272,176.8 C 296.123,178.768 296.696,180.359 296.994,181.576 C 297.285,182.783 297.731,184.774 298.322,187.53 C 298.783,190.089 299.193,192.091 299.554,193.531 C 299.913,194.976 300.553,196.68 301.472,198.649 C 302.387,200.617 303.506,202.259 304.817,203.57 C 306.065,204.816 307.539,205.436 309.249,205.436 C 312.267,205.436 314.974,205.093 317.364,204.408 C 319.759,203.715 321.727,202.866 323.275,201.849 C 324.81,200.83 326.125,199.503 327.206,197.861 C 328.292,196.219 329.078,194.746 329.567,193.435 C 330.061,192.119 330.457,190.482 330.749,188.513 C 331.045,186.545 331.211,185.066 331.243,184.082 C 331.273,183.097 331.295,181.821 331.295,180.247 C 331.295,177.749 330.979,175.258 330.355,172.767 C 329.737,170.276 329.111,168.302 328.488,166.856 C 327.863,165.416 326.963,163.579 325.782,161.345 C 325.587,160.957 325.255,160.367 324.793,159.578 C 324.338,158.792 323.978,158.068 323.714,157.414 C 323.449,156.757 323.19,155.968 322.925,155.052 L 350.186,155.052 C 355.308,155.052 359.734,153.181 363.473,149.44 C 367.214,145.699 369.086,141.274 369.086,136.156 Z" stroke-width="6.444" stroke="#012e42" fill="#ffffff" fill-rule="nonzero" marker-start="none" marker-end="none" stroke-miterlimit="79.8403193612775"/>
         <path d="M 206.855,134.035 L 206.855,77.932 C 206.855,71.826 211.812,66.869 217.918,66.869 L 245.416,66.869 C 251.522,66.869 256.479,71.826 256.479,77.932 L 256.479,134.035 C 256.479,140.141 251.522,145.098 245.416,145.098 L 217.918,145.098 C 211.812,145.098 206.855,140.141 206.855,134.035 Z" stroke="#012e42" fill="#01a5ef" stroke-width="5.274" marker-start="none" marker-end="none" stroke-miterlimit="79.8403193612775"/>
         <path d="M 224.833,92.136 C 228.159,94.39 232.688,93.519 234.941,90.192 C 237.195,86.866 236.324,82.337 232.997,80.084 C 229.671,77.83 225.142,78.701 222.889,82.028 C 220.635,85.354 221.506,89.883 224.833,92.136 Z" fill="#012e42" stroke="none" stroke-width="2.863" marker-start="none" marker-end="none" stroke-miterlimit="79.8403193612775"/>
         <path d="M 207.962,140.299 L 207.962,127.46 C 207.962,125.382 209.65,123.694 211.728,123.694 L 252.711,123.694 C 254.79,123.694 256.478,125.382 256.478,127.46 L 256.478,140.299 C 256.478,142.377 254.79,144.065 252.711,144.065 L 211.728,144.065 C 209.65,144.065 207.962,142.377 207.962,140.299 Z" stroke-opacity="0.227451" stroke-width="2.863" stroke="none" fill="#012e42" marker-start="none" marker-end="none" stroke-miterlimit="79.8403193612775" fill-opacity="0.227451"/>
        </g>
        <g id="Group_23" fill-rule="evenodd" stroke-linejoin="miter" stroke-width="0.684" stroke-miterlimit="79.8403193612775">
         <path d="M 218.261,219.3 C 212.472,222.45 205.227,220.317 202.071,214.526 L 193.204,198.389 L 143.646,223.696 L 163.623,260.381 C 167.301,267.132 164.809,275.592 158.056,279.271 C 151.303,282.949 142.844,280.451 139.168,273.7 L 122.995,244.002 L 122.043,242.255 L 100.157,202.078 L 80.68,219.014 C 71.969,227.814 57.774,227.886 48.973,219.176 C 46.842,217.067 46.826,213.627 48.935,211.5 L 59.865,200.457 C 75.442,184.72 78.605,178.663 75.584,159.171 L 70.995,131.889 L 147.857,90.029 L 157.463,107.666 C 165.983,108.305 174.014,113.1 178.404,121.161 L 219.23,196.123 L 223.037,203.113 C 226.188,208.9 224.051,216.147 218.261,219.3" stroke="#e1e1e1" fill="#ededed"/>
         <path d="M 218.261,219.3 L 220.499,223.406 C 217.989,224.774 215.247,225.433 212.564,225.43 C 206.689,225.437 200.98,222.291 197.966,216.763 L 197.974,216.779 L 191.291,204.613 L 150.047,225.677 L 167.73,258.147 C 169.264,260.956 169.998,264.026 169.995,267.029 C 170.004,273.609 166.482,280 160.291,283.376 L 160.289,283.38 C 157.482,284.909 154.416,285.648 151.409,285.645 C 144.828,285.651 138.434,282.128 135.061,275.938 L 118.888,246.24 L 118.888,246.241 L 117.935,244.493 L 98.836,209.425 L 83.747,222.543 L 80.68,219.014 L 84.003,222.304 C 78.715,227.647 71.712,230.344 64.747,230.336 C 57.872,230.344 50.955,227.717 45.684,222.497 C 43.694,220.534 42.684,217.904 42.689,215.317 C 42.686,212.767 43.672,210.168 45.612,208.208 L 56.543,197.168 C 62.555,191.109 66.49,186.647 68.759,182.73 C 71.02,178.794 71.906,175.454 71.936,170.325 C 71.941,167.446 71.608,164.032 70.965,159.884 L 75.584,159.171 L 70.974,159.946 L 66.384,132.665 C 66.052,130.701 67.009,128.736 68.758,127.783 L 145.621,85.924 C 147.889,84.688 150.729,85.525 151.961,87.793 L 161.567,105.429 L 157.463,107.666 L 157.813,103.005 C 167.838,103.751 177.332,109.419 182.51,118.928 L 223.335,193.887 L 227.141,200.875 C 228.507,203.382 229.17,206.124 229.164,208.808 C 229.174,214.683 226.024,220.393 220.499,223.406 L 216.027,215.193 C 218.451,213.877 219.811,211.392 219.817,208.808 C 219.817,207.635 219.538,206.463 218.932,205.347 L 215.124,198.36 L 174.297,123.398 C 170.695,116.782 164.127,112.863 157.114,112.327 C 155.523,112.206 154.119,111.3 153.36,109.9 L 145.987,96.37 L 76.158,134.402 L 80.197,158.393 L 80.204,158.453 C 80.888,162.881 81.287,166.739 81.29,170.325 C 81.321,176.665 79.909,182.252 76.834,187.449 C 73.769,192.66 69.33,197.528 63.187,203.745 L 52.254,214.787 L 52.038,215.317 L 52.259,215.85 L 52.259,215.853 C 55.733,219.285 60.219,220.981 64.743,220.985 C 69.332,220.981 73.875,219.24 77.355,215.726 L 77.613,215.486 L 97.089,198.55 C 98.163,197.618 99.587,197.226 100.987,197.478 C 102.383,197.728 103.585,198.597 104.264,199.844 L 126.146,240.021 L 127.098,241.765 L 127.098,241.77 L 143.271,271.467 C 144.949,274.553 148.118,276.287 151.409,276.296 C 152.904,276.293 154.402,275.938 155.82,275.163 L 155.82,275.167 C 158.908,273.487 160.639,270.316 160.647,267.029 C 160.646,265.532 160.289,264.036 159.518,262.618 L 139.541,225.933 C 138.936,224.818 138.805,223.525 139.178,222.314 C 139.552,221.106 140.39,220.111 141.52,219.533 L 191.077,194.228 C 193.328,193.079 196.086,193.927 197.302,196.14 L 206.168,212.276 L 206.177,212.292 C 207.495,214.717 209.979,216.077 212.562,216.082 C 213.736,216.082 214.906,215.804 216.027,215.198 Z" stroke="none" fill="#012e42" marker-start="none" marker-end="none"/>
         <path d="M 165.87,206.273 L 204.877,277.899 C 208.557,284.651 206.065,293.107 199.308,296.783 C 192.554,300.463 184.099,297.97 180.421,291.214 L 141.415,219.592" stroke="#e1e1e1" fill="#ededed"/>
         <path d="M 172.208,208.14 L 211.215,279.766 L 211.212,279.766 C 212.748,282.577 213.484,285.641 213.484,288.649 C 213.489,295.23 209.966,301.624 203.777,304.997 C 200.965,306.527 197.899,307.265 194.894,307.262 C 188.313,307.27 181.919,303.745 178.548,297.554 L 139.541,225.933 C 138.306,223.666 139.143,220.825 141.41,219.589 C 143.678,218.355 146.516,219.195 147.752,221.462 L 186.76,293.085 C 188.441,296.172 191.607,297.905 194.894,297.914 C 196.389,297.911 197.888,297.554 199.308,296.783 C 202.395,295.105 204.129,291.936 204.134,288.649 C 204.134,287.156 203.778,285.656 203.005,284.241 L 203.003,284.238 L 163.997,212.612 C 162.762,210.347 163.6,207.505 165.869,206.27 C 168.133,205.036 170.975,205.871 172.208,208.14 Z M 172.208,208.14" stroke="none" fill="#012e42"/>
         <path d="M 152.838,88.262 L 130.002,46.334 L 42.656,93.903 L 65.491,135.831 Z" stroke="none" fill="#69c15c" marker-start="none" marker-end="none"/>
         <path d="M 152.838,88.262 L 148.732,90.499 L 128.135,52.677 L 49,95.776 L 67.358,129.49 L 150.601,84.155 L 152.838,88.262 L 148.732,90.499 L 152.838,88.262 L 155.074,92.368 L 67.727,139.936 C 65.462,141.173 62.62,140.334 61.385,138.067 L 38.553,96.14 C 37.96,95.058 37.826,93.765 38.173,92.582 C 38.521,91.402 39.341,90.389 40.423,89.8 L 127.767,42.229 C 128.849,41.642 130.144,41.502 131.325,41.852 C 132.507,42.2 133.521,43.018 134.108,44.098 L 156.943,86.025 C 157.532,87.107 157.671,88.403 157.324,89.583 C 156.974,90.765 156.155,91.78 155.074,92.368 Z" stroke="none" fill="#012e42" marker-start="none" marker-end="none"/>
         <path d="M 82.662,105.701 C 81.418,109.915 76.994,112.324 72.78,111.083 C 68.565,109.84 66.154,105.417 67.396,101.2 C 68.638,96.984 73.065,94.576 77.278,95.818 C 81.494,97.06 83.902,101.485 82.662,105.701 Z M 82.662,105.701" stroke="none" fill="#012e42"/>
         <path d="M 263.359,199.657 C 258.289,203.871 250.767,203.182 246.551,198.114 L 234.722,184.001 L 191.009,218.442 L 217.724,250.557 C 222.64,256.467 221.836,265.245 215.924,270.164 C 210.014,275.081 201.233,274.277 196.315,268.364 L 174.688,242.366 L 173.417,240.841 L 144.159,205.665 L 128.331,226.059 C 121.493,236.381 107.58,239.201 97.258,232.362 C 94.763,230.709 94.076,227.338 95.733,224.841 L 104.315,211.887 C 116.545,193.429 118.472,186.876 111.726,168.338 L 101.936,142.466 L 169.222,86.492 L 182.065,101.932 C 190.55,100.905 199.355,104.053 205.227,111.108 L 259.81,176.73 L 264.904,182.844 C 269.116,187.916 268.426,195.441 263.359,199.657" stroke="#ffffff" fill="#ffffff"/>
         <path d="M 263.359,199.657 L 266.346,203.253 C 263.256,205.825 259.467,207.097 255.731,207.092 C 250.985,207.097 246.231,205.044 242.957,201.104 L 242.965,201.118 L 234.05,190.48 L 197.675,219.139 L 221.317,247.563 C 224.199,251.028 225.62,255.269 225.617,259.45 C 225.622,264.769 223.326,270.09 218.914,273.756 L 218.914,273.759 C 215.453,276.641 211.208,278.063 207.028,278.059 C 201.708,278.063 196.387,275.765 192.718,271.353 L 192.721,271.355 L 171.091,245.359 L 169.82,243.828 L 169.822,243.828 L 144.283,213.13 L 132.026,228.926 L 128.331,226.059 L 132.228,228.643 C 127.02,236.504 118.388,240.78 109.622,240.77 C 104.486,240.773 99.267,239.305 94.673,236.259 C 91.747,234.318 90.146,231.09 90.155,227.834 C 90.153,225.922 90.705,223.964 91.834,222.259 L 100.416,209.305 C 104.19,203.617 106.875,199.184 108.536,195.449 C 110.196,191.694 110.882,188.735 110.895,185.417 C 110.904,181.444 109.798,176.69 107.335,169.937 L 111.726,168.338 L 107.352,169.993 L 97.563,144.117 C 96.856,142.255 97.415,140.142 98.943,138.868 L 166.232,82.894 C 167.179,82.11 168.422,81.724 169.651,81.835 C 170.876,81.947 172.03,82.553 172.814,83.5 L 185.656,98.94 L 182.062,101.932 L 181.503,97.289 C 182.738,97.141 183.973,97.067 185.209,97.067 C 193.989,97.06 202.754,100.826 208.818,108.122 L 263.407,173.74 L 268.495,179.856 C 271.066,182.948 272.341,186.739 272.336,190.475 C 272.341,195.222 270.287,199.977 266.346,203.253 L 263.359,199.657 L 260.367,196.064 C 262.103,194.618 262.982,192.573 262.987,190.475 C 262.984,188.825 262.443,187.207 261.308,185.838 L 261.311,185.838 L 256.218,179.723 L 201.634,114.103 C 197.401,109.021 191.359,106.424 185.212,106.42 C 184.346,106.42 183.485,106.472 182.627,106.575 C 181.043,106.765 179.493,106.149 178.473,104.925 L 168.62,93.079 L 107.489,143.929 L 116.101,166.687 L 116.123,166.743 C 118.724,173.914 120.237,179.706 120.249,185.423 C 120.259,190.167 119.134,194.676 117.078,199.261 C 115.02,203.865 112.077,208.633 108.211,214.474 L 99.629,227.427 L 99.507,227.837 L 99.842,228.467 C 102.872,230.474 106.251,231.42 109.625,231.425 C 115.392,231.418 121.018,228.643 124.436,223.478 L 124.643,223.196 L 140.467,202.804 C 141.337,201.683 142.661,201.021 144.083,200.996 C 145.5,200.97 146.847,201.587 147.756,202.68 L 177.013,237.852 L 177.014,237.854 L 178.285,239.385 L 178.283,239.381 L 199.913,265.379 C 201.749,267.585 204.357,268.706 207.03,268.711 C 209.126,268.707 211.196,268.018 212.938,266.574 L 212.935,266.574 C 215.143,264.737 216.263,262.125 216.269,259.456 C 216.266,257.358 215.576,255.289 214.132,253.548 L 187.415,221.436 C 186.608,220.461 186.231,219.215 186.362,217.954 C 186.492,216.695 187.122,215.556 188.118,214.772 L 231.831,180.33 C 233.813,178.768 236.683,179.065 238.305,181 L 250.134,195.115 L 250.147,195.128 C 251.589,196.864 253.632,197.739 255.733,197.744 C 257.383,197.742 259.001,197.206 260.37,196.064 L 260.37,196.068 Z" stroke="none" fill="#012e42" marker-start="none" marker-end="none"/>
         <path d="M 202.244,188.397 L 254.399,251.097 C 259.32,257.007 258.512,265.789 252.599,270.705 C 246.687,275.622 237.907,274.816 232.987,268.904 L 180.832,206.207" stroke="#ffffff" fill="#ffffff"/>
         <path d="M 205.837,185.406 L 257.992,248.104 C 260.877,251.568 262.299,255.813 262.294,259.995 C 262.299,265.311 260.004,270.631 255.589,274.3 L 255.589,274.298 C 252.13,277.18 247.887,278.603 243.701,278.602 C 238.386,278.605 233.067,276.308 229.397,271.898 L 229.397,271.895 L 177.241,209.197 C 175.589,207.211 175.86,204.263 177.843,202.613 C 179.831,200.963 182.775,201.232 184.428,203.218 L 236.584,265.919 L 236.581,265.917 C 238.422,268.127 241.031,269.248 243.701,269.252 C 245.799,269.248 247.869,268.559 249.61,267.112 C 251.818,265.274 252.939,262.665 252.944,259.995 C 252.942,257.9 252.252,255.827 250.807,254.086 L 198.65,191.389 C 196.997,189.403 197.27,186.455 199.252,184.803 C 201.238,183.152 204.185,183.423 205.837,185.406 Z M 205.837,185.406" stroke="none" fill="#012e42"/>
         <path d="M 224.545,171.767 L 268.074,224.093 C 272.135,228.979 270.637,236.922 264.724,241.84 C 258.813,246.757 250.723,246.784 246.665,241.905 L 203.134,189.578" stroke="#ffffff" fill="#ffffff"/>
         <path d="M 228.137,168.777 L 271.666,221.103 L 271.669,221.103 C 273.97,223.865 275.042,227.3 275.035,230.657 C 275.014,236.146 272.366,241.551 267.716,245.436 C 263.938,248.574 259.41,250.217 254.955,250.221 C 250.572,250.239 246.091,248.531 243.071,244.893 L 199.542,192.566 C 197.891,190.583 198.16,187.635 200.145,185.983 C 202.131,184.333 205.08,184.601 206.73,186.588 L 250.257,238.915 C 251.283,240.135 252.84,240.856 254.955,240.873 C 257.067,240.881 259.575,240.051 261.737,238.248 L 261.737,238.251 C 264.415,236.036 265.703,233.019 265.684,230.658 C 265.672,229.198 265.262,228.04 264.479,227.084 L 220.951,174.757 C 219.3,172.774 219.571,169.828 221.556,168.175 C 223.541,166.522 226.487,166.791 228.137,168.777 Z M 228.137,168.777" stroke="none" fill="#012e42"/>
         <path d="M 173.763,83.791 L 143.231,47.089 L 66.77,110.699 L 97.3,147.4 Z" stroke="none" fill="#69c15c" marker-start="none" marker-end="none"/>
         <path d="M 173.763,83.791 L 170.169,86.782 L 142.627,53.675 L 73.354,111.303 L 97.905,140.816 L 170.775,80.199 L 173.763,83.791 L 170.169,86.782 L 173.763,83.791 L 176.754,87.387 L 100.292,150.992 C 98.305,152.645 95.358,152.373 93.707,150.387 L 63.174,113.688 C 62.387,112.742 62,111.494 62.115,110.269 C 62.227,109.045 62.83,107.892 63.778,107.103 L 140.244,43.498 C 142.225,41.843 145.174,42.117 146.826,44.101 L 177.356,80.801 C 178.142,81.749 178.531,82.995 178.42,84.219 C 178.307,85.444 177.699,86.599 176.754,87.387 Z" stroke="none" fill="#012e42" marker-start="none" marker-end="none"/>
         <path d="M 148,98.222 L 123.904,69.249 L 142.627,53.675 L 166.723,82.641 Z" stroke="none" fill="#01a5ef" marker-start="none" marker-end="none"/>
         <path d="M 166.723,82.641 L 142.627,53.675 L 123.904,69.249 L 122.556,67.634 L 143.967,49.824 L 169.411,80.41 Z" stroke="none" fill="#012e42" marker-start="none" marker-end="none"/>
         <path d="M 108.315,114.519 C 107.914,118.893 104.042,122.117 99.664,121.717 C 95.29,121.311 92.069,117.439 92.469,113.062 C 92.869,108.684 96.744,105.466 101.121,105.866 C 105.498,106.267 108.719,110.142 108.315,114.519 Z M 108.315,114.519" stroke="none" fill="#012e42"/>
         <g id="Group_24" stroke="none" fill="#012e42">
          <path d="M 121.974,286.836 L 93.533,296.166 C 91.081,296.971 88.438,295.634 87.633,293.181 C 86.827,290.727 88.165,288.085 90.618,287.28 L 119.062,277.948 C 121.515,277.143 124.155,278.481 124.96,280.933 C 125.766,283.387 124.429,286.031 121.974,286.836"/>
          <path d="M 131.055,300.452 L 118.261,320.014 C 116.846,322.174 113.951,322.782 111.79,321.369 C 109.629,319.956 109.022,317.058 110.434,314.901 L 123.226,295.337 C 124.64,293.174 127.538,292.568 129.699,293.981 C 131.86,295.396 132.467,298.291 131.055,300.452"/>
          <path d="M 148.572,296.788 L 154.669,325.906 C 155.197,328.433 153.576,330.914 151.048,331.444 C 148.523,331.969 146.042,330.351 145.512,327.824 L 139.418,298.702 C 138.889,296.173 140.511,293.696 143.038,293.167 C 145.565,292.641 148.045,294.259 148.572,296.788"/>
         </g>
        </g>
       </g>
       <g id="Group_25" stroke-linejoin="miter" stroke-linecap="round" stroke="#d08866" stroke-width="1.866" fill="#f7cdb9" stroke-miterlimit="79.8403193612775">
        <path d="M 725.705,355.064 C 722.688,349.744 717.62,342.061 708.737,341.025 C 705.288,336.958 705.724,333.519 711.243,330.895 C 719.173,329.562 727.355,336.164 732.854,345.103 C 732.344,350.817 729.208,354.63 725.705,355.064 Z" marker-start="none" marker-end="none"/>
        <path d="M 719.112,365.269 C 714.247,357.852 707.921,350.155 694.028,348.459 C 688.524,342.759 689.1,338.035 697.629,334.596 C 709.963,332.999 719.901,341.087 728.754,353.557 C 728.13,361.406 724.565,364.775 719.112,365.269 Z" marker-start="none" marker-end="none"/>
        <path d="M 715.512,379.135 C 710.646,371.717 704.319,364.021 690.427,362.327 C 684.924,356.624 685.498,351.9 694.028,348.459 C 706.361,346.864 716.301,354.954 725.151,367.423 C 724.528,375.27 720.965,378.64 715.512,379.135 Z" marker-start="none" marker-end="none"/>
        <path d="M 712.774,386.963 C 707.8,381.325 701.411,375.428 687.95,373.655 C 682.424,369.255 682.799,365.803 690.896,363.598 C 702.729,362.893 712.618,369.215 721.626,378.717 C 721.324,384.465 718.016,386.806 712.774,386.963 Z" marker-start="none" marker-end="none"/>
       </g>
       <g id="Group_26">
        <g id="Group_27" stroke-linejoin="round" stroke-linecap="round">
         <path d="M 590.064,85.767 C 590.064,87.47 590.689,88.95 591.937,90.192 C 593.179,91.441 594.659,92.065 596.361,92.065 C 598.135,92.065 599.623,91.441 600.839,90.192 C 602.054,88.95 602.663,87.47 602.663,85.767 C 602.663,83.994 602.054,82.505 600.839,81.29 C 599.623,80.075 598.135,79.469 596.361,79.469 C 594.659,79.469 593.179,80.075 591.937,81.29 C 590.689,82.505 590.064,83.994 590.064,85.767 Z M 574.317,136.156 L 574.317,73.17 C 574.317,71.464 574.942,69.987 576.191,68.738 C 577.433,67.495 578.913,66.869 580.617,66.869 L 608.96,66.869 C 610.665,66.869 612.143,67.495 613.392,68.738 C 614.635,69.987 615.259,71.464 615.259,73.17 L 615.259,136.156 C 615.259,137.86 614.635,139.338 613.392,140.582 C 612.143,141.83 610.665,142.454 608.96,142.454 L 580.617,142.454 C 578.913,142.454 577.433,141.83 576.191,140.582 C 574.942,139.338 574.317,137.86 574.317,136.156 Z M 457.792,136.156 C 457.792,130.515 459.597,125.623 463.209,121.488 C 462.224,118.604 461.729,116.113 461.729,114.015 C 461.537,109.027 462.945,104.533 465.963,100.53 C 464.849,96.858 464.849,93.015 465.963,89.012 C 466.948,85.273 468.719,82.191 471.278,79.761 C 470.688,72.417 472.292,66.478 476.099,61.948 C 480.299,56.96 486.76,54.409 495.49,54.274 L 499.031,54.274 L 506.513,54.274 L 508.188,54.274 C 512.517,54.274 517.237,54.778 522.354,55.797 C 527.472,56.815 531.46,57.772 534.308,58.655 C 537.168,59.537 541.12,60.837 546.169,62.54 C 554.239,65.362 559.425,66.804 561.721,66.869 C 563.424,66.938 564.905,67.573 566.153,68.788 C 567.395,70.003 568.018,71.464 568.018,73.17 L 568.018,136.251 C 568.018,137.894 567.429,139.322 566.247,140.537 C 565.066,141.753 563.655,142.421 562.019,142.55 C 560.438,142.685 557.954,144.619 554.538,148.359 C 551.125,152.093 547.813,156.065 544.597,160.267 C 540.135,165.973 536.818,169.91 534.659,172.075 C 533.477,173.256 532.459,174.831 531.606,176.8 C 530.755,178.768 530.182,180.359 529.884,181.576 C 529.593,182.783 529.147,184.774 528.556,187.53 C 528.095,190.089 527.685,192.091 527.324,193.531 C 526.965,194.976 526.325,196.68 525.406,198.649 C 524.491,200.617 523.372,202.259 522.061,203.57 C 520.813,204.816 519.339,205.436 517.629,205.436 C 514.611,205.436 511.904,205.093 509.514,204.408 C 507.119,203.715 505.151,202.866 503.603,201.849 C 502.068,200.83 500.753,199.503 499.672,197.861 C 498.586,196.219 497.8,194.746 497.311,193.435 C 496.817,192.119 496.421,190.482 496.129,188.513 C 495.833,186.545 495.667,185.066 495.635,184.082 C 495.605,183.097 495.583,181.821 495.583,180.247 C 495.583,177.749 495.899,175.258 496.523,172.767 C 497.141,170.276 497.767,168.302 498.39,166.856 C 499.015,165.416 499.915,163.579 501.096,161.345 C 501.291,160.957 501.623,160.367 502.085,159.578 C 502.54,158.792 502.9,158.068 503.164,157.414 C 503.429,156.757 503.688,155.968 503.953,155.052 L 476.692,155.052 C 471.57,155.052 467.144,153.181 463.405,149.44 C 459.664,145.699 457.792,141.274 457.792,136.156 Z" stroke-width="6.444" stroke="#012e42" fill="#ffffff" fill-rule="nonzero" marker-start="none" marker-end="none" stroke-miterlimit="79.8403193612775"/>
         <path d="M 620.023,134.035 L 620.023,77.932 C 620.023,71.826 615.066,66.869 608.96,66.869 L 581.462,66.869 C 575.356,66.869 570.399,71.826 570.399,77.932 L 570.399,134.035 C 570.399,140.141 575.356,145.098 581.462,145.098 L 608.96,145.098 C 615.066,145.098 620.023,140.141 620.023,134.035 Z" stroke="#012e42" fill="#01a5ef" stroke-width="5.274" marker-start="none" marker-end="none" stroke-miterlimit="79.8403193612775"/>
         <path d="M 602.045,92.136 C 598.719,94.39 594.19,93.519 591.937,90.192 C 589.683,86.866 590.554,82.337 593.881,80.084 C 597.207,77.83 601.736,78.701 603.989,82.028 C 606.243,85.354 605.372,89.883 602.045,92.136 Z" fill="#012e42" stroke="none" stroke-width="2.863" marker-start="none" marker-end="none" stroke-miterlimit="79.8403193612775"/>
         <path d="M 618.916,140.299 L 618.916,127.46 C 618.916,125.382 617.228,123.694 615.15,123.694 L 574.167,123.694 C 572.088,123.694 570.4,125.382 570.4,127.46 L 570.4,140.299 C 570.4,142.377 572.088,144.065 574.167,144.065 L 615.15,144.065 C 617.228,144.065 618.916,142.377 618.916,140.299 Z" stroke-opacity="0.227451" stroke-width="2.863" stroke="none" fill="#012e42" marker-start="none" marker-end="none" stroke-miterlimit="79.8403193612775" fill-opacity="0.227451"/>
        </g>
        <g id="Group_28" fill-rule="evenodd" stroke-linejoin="miter" stroke-width="0.684" stroke-miterlimit="79.8403193612775">
         <path d="M 608.617,219.3 C 614.406,222.45 621.651,220.317 624.807,214.526 L 633.674,198.389 L 683.232,223.696 L 663.255,260.381 C 659.577,267.132 662.069,275.592 668.822,279.271 C 675.575,282.949 684.034,280.451 687.71,273.7 L 703.883,244.002 L 704.835,242.255 L 726.721,202.078 L 746.198,219.014 C 754.909,227.814 769.104,227.886 777.905,219.176 C 780.036,217.067 780.052,213.627 777.943,211.5 L 767.013,200.457 C 751.436,184.72 748.273,178.663 751.294,159.171 L 755.883,131.889 L 679.021,90.029 L 669.415,107.666 C 660.895,108.305 652.864,113.1 648.474,121.161 L 607.648,196.123 L 603.841,203.113 C 600.69,208.9 602.827,216.147 608.617,219.3" stroke="#e1e1e1" fill="#ededed"/>
         <path d="M 608.617,219.3 L 606.379,223.406 C 608.889,224.774 611.631,225.433 614.314,225.43 C 620.189,225.437 625.898,222.291 628.912,216.763 L 628.904,216.779 L 635.587,204.613 L 676.831,225.677 L 659.148,258.147 C 657.614,260.956 656.88,264.026 656.883,267.029 C 656.874,273.609 660.396,280 666.587,283.376 L 666.589,283.38 C 669.396,284.909 672.462,285.648 675.469,285.645 C 682.05,285.651 688.444,282.128 691.817,275.938 L 707.99,246.24 L 707.99,246.241 L 708.943,244.493 L 728.042,209.425 L 743.131,222.543 L 746.198,219.014 L 742.875,222.304 C 748.163,227.647 755.166,230.344 762.131,230.336 C 769.006,230.344 775.923,227.717 781.194,222.497 C 783.184,220.534 784.194,217.904 784.189,215.317 C 784.192,212.767 783.206,210.168 781.266,208.208 L 770.335,197.168 C 764.323,191.109 760.388,186.647 758.119,182.73 C 755.858,178.794 754.972,175.454 754.942,170.325 C 754.937,167.446 755.27,164.032 755.913,159.884 L 751.294,159.171 L 755.904,159.946 L 760.494,132.665 C 760.826,130.701 759.869,128.736 758.12,127.783 L 681.257,85.924 C 678.989,84.688 676.149,85.525 674.917,87.793 L 665.311,105.429 L 669.415,107.666 L 669.065,103.005 C 659.04,103.751 649.546,109.419 644.368,118.928 L 603.543,193.887 L 599.737,200.875 C 598.371,203.382 597.708,206.124 597.714,208.808 C 597.704,214.683 600.854,220.393 606.379,223.406 L 610.851,215.193 C 608.427,213.877 607.067,211.392 607.061,208.808 C 607.061,207.635 607.34,206.463 607.946,205.347 L 611.754,198.36 L 652.581,123.398 C 656.183,116.782 662.751,112.863 669.764,112.327 C 671.355,112.206 672.759,111.3 673.518,109.9 L 680.891,96.37 L 750.72,134.402 L 746.681,158.393 L 746.674,158.453 C 745.99,162.881 745.591,166.739 745.588,170.325 C 745.557,176.665 746.969,182.252 750.044,187.449 C 753.109,192.66 757.548,197.528 763.691,203.745 L 774.624,214.787 L 774.84,215.317 L 774.619,215.85 L 774.619,215.853 C 771.145,219.285 766.659,220.981 762.135,220.985 C 757.546,220.981 753.003,219.24 749.523,215.726 L 749.265,215.486 L 729.789,198.55 C 728.715,197.618 727.291,197.226 725.891,197.478 C 724.495,197.728 723.293,198.597 722.614,199.844 L 700.732,240.021 L 699.78,241.765 L 699.78,241.77 L 683.607,271.467 C 681.929,274.553 678.76,276.287 675.469,276.296 C 673.974,276.293 672.476,275.938 671.058,275.163 L 671.058,275.167 C 667.97,273.487 666.239,270.316 666.231,267.029 C 666.232,265.532 666.589,264.036 667.36,262.618 L 687.337,225.933 C 687.942,224.818 688.073,223.525 687.7,222.314 C 687.326,221.106 686.488,220.111 685.358,219.533 L 635.801,194.228 C 633.55,193.079 630.792,193.927 629.576,196.14 L 620.71,212.276 L 620.701,212.292 C 619.383,214.717 616.899,216.077 614.316,216.082 C 613.142,216.082 611.972,215.804 610.851,215.198 Z" stroke="none" fill="#012e42" marker-start="none" marker-end="none"/>
         <path d="M 661.008,206.273 L 622.001,277.899 C 618.321,284.651 620.813,293.107 627.57,296.783 C 634.324,300.463 642.779,297.97 646.457,291.214 L 685.463,219.592" stroke="#e1e1e1" fill="#ededed"/>
         <path d="M 654.67,208.14 L 615.663,279.766 L 615.666,279.766 C 614.13,282.577 613.394,285.641 613.394,288.649 C 613.389,295.23 616.912,301.624 623.101,304.997 C 625.913,306.527 628.979,307.265 631.984,307.262 C 638.565,307.27 644.959,303.745 648.33,297.554 L 687.337,225.933 C 688.572,223.666 687.735,220.825 685.468,219.589 C 683.2,218.355 680.362,219.195 679.126,221.462 L 640.118,293.085 C 638.437,296.172 635.271,297.905 631.984,297.914 C 630.489,297.911 628.99,297.554 627.57,296.783 C 624.483,295.105 622.749,291.936 622.744,288.649 C 622.744,287.156 623.1,285.656 623.873,284.241 L 623.875,284.238 L 662.881,212.612 C 664.116,210.347 663.278,207.505 661.009,206.27 C 658.745,205.036 655.903,205.871 654.67,208.14 Z M 654.67,208.14" stroke="none" fill="#012e42"/>
         <path d="M 674.04,88.262 L 696.876,46.334 L 784.222,93.903 L 761.387,135.831 Z" stroke="none" fill="#69c15c" marker-start="none" marker-end="none"/>
         <path d="M 674.04,88.262 L 678.146,90.499 L 698.743,52.677 L 777.878,95.776 L 759.52,129.49 L 676.277,84.155 L 674.04,88.262 L 678.146,90.499 L 674.04,88.262 L 671.804,92.368 L 759.151,139.936 C 761.416,141.173 764.258,140.334 765.493,138.067 L 788.325,96.14 C 788.918,95.058 789.052,93.765 788.705,92.582 C 788.357,91.402 787.537,90.389 786.455,89.8 L 699.111,42.229 C 698.029,41.642 696.734,41.502 695.553,41.852 C 694.371,42.2 693.357,43.018 692.77,44.098 L 669.935,86.025 C 669.346,87.107 669.207,88.403 669.554,89.583 C 669.904,90.765 670.723,91.78 671.804,92.368 Z" stroke="none" fill="#012e42" marker-start="none" marker-end="none"/>
         <path d="M 744.216,105.701 C 745.46,109.915 749.884,112.324 754.098,111.083 C 758.313,109.84 760.724,105.417 759.482,101.2 C 758.24,96.984 753.813,94.576 749.6,95.818 C 745.384,97.06 742.976,101.485 744.216,105.701 Z M 744.216,105.701" stroke="none" fill="#012e42"/>
         <path d="M 563.519,199.657 C 568.589,203.871 576.111,203.182 580.327,198.114 L 592.156,184.001 L 635.869,218.442 L 609.154,250.557 C 604.238,256.467 605.042,265.245 610.954,270.164 C 616.864,275.081 625.645,274.277 630.563,268.364 L 652.19,242.366 L 653.461,240.841 L 682.719,205.665 L 698.547,226.059 C 705.385,236.381 719.298,239.201 729.62,232.362 C 732.115,230.709 732.802,227.338 731.145,224.841 L 722.563,211.887 C 710.333,193.429 708.406,186.876 715.152,168.338 L 724.942,142.466 L 657.656,86.492 L 644.813,101.932 C 636.328,100.905 627.523,104.053 621.651,111.108 L 567.068,176.73 L 561.974,182.844 C 557.762,187.916 558.452,195.441 563.519,199.657" stroke="#ffffff" fill="#ffffff"/>
         <path d="M 563.519,199.657 L 560.532,203.253 C 563.622,205.825 567.411,207.097 571.147,207.092 C 575.893,207.097 580.647,205.044 583.921,201.104 L 583.913,201.118 L 592.828,190.48 L 629.203,219.139 L 605.561,247.563 C 602.679,251.028 601.258,255.269 601.261,259.45 C 601.256,264.769 603.552,270.09 607.964,273.756 L 607.964,273.759 C 611.425,276.641 615.67,278.063 619.85,278.059 C 625.17,278.063 630.491,275.765 634.16,271.353 L 634.157,271.355 L 655.787,245.359 L 657.058,243.828 L 657.056,243.828 L 682.595,213.13 L 694.852,228.926 L 698.547,226.059 L 694.65,228.643 C 699.858,236.504 708.49,240.78 717.256,240.77 C 722.392,240.773 727.611,239.305 732.205,236.259 C 735.131,234.318 736.732,231.09 736.723,227.834 C 736.725,225.922 736.173,223.964 735.044,222.259 L 726.462,209.305 C 722.688,203.617 720.003,199.184 718.342,195.449 C 716.682,191.694 715.996,188.735 715.983,185.417 C 715.974,181.444 717.08,176.69 719.543,169.937 L 715.152,168.338 L 719.526,169.993 L 729.315,144.117 C 730.022,142.255 729.463,140.142 727.935,138.868 L 660.646,82.894 C 659.699,82.11 658.456,81.724 657.227,81.835 C 656.002,81.947 654.848,82.553 654.064,83.5 L 641.222,98.94 L 644.816,101.932 L 645.375,97.289 C 644.14,97.141 642.905,97.067 641.669,97.067 C 632.889,97.06 624.124,100.826 618.06,108.122 L 563.471,173.74 L 558.383,179.856 C 555.812,182.948 554.537,186.739 554.542,190.475 C 554.537,195.222 556.591,199.977 560.532,203.253 L 563.519,199.657 L 566.511,196.064 C 564.775,194.618 563.896,192.573 563.891,190.475 C 563.894,188.825 564.435,187.207 565.57,185.838 L 565.567,185.838 L 570.66,179.723 L 625.244,114.103 C 629.477,109.021 635.519,106.424 641.666,106.42 C 642.532,106.42 643.393,106.472 644.251,106.575 C 645.835,106.765 647.385,106.149 648.405,104.925 L 658.258,93.079 L 719.389,143.929 L 710.777,166.687 L 710.755,166.743 C 708.154,173.914 706.641,179.706 706.629,185.423 C 706.619,190.167 707.744,194.676 709.8,199.261 C 711.858,203.865 714.801,208.633 718.667,214.474 L 727.249,227.427 L 727.371,227.837 L 727.036,228.467 C 724.006,230.474 720.627,231.42 717.253,231.425 C 711.486,231.418 705.86,228.643 702.442,223.478 L 702.235,223.196 L 686.411,202.804 C 685.541,201.683 684.217,201.021 682.795,200.996 C 681.378,200.97 680.031,201.587 679.122,202.68 L 649.865,237.852 L 649.864,237.854 L 648.593,239.385 L 648.595,239.381 L 626.965,265.379 C 625.129,267.585 622.521,268.706 619.848,268.711 C 617.752,268.707 615.682,268.018 613.94,266.574 L 613.943,266.574 C 611.735,264.737 610.615,262.125 610.609,259.456 C 610.612,257.358 611.302,255.289 612.746,253.548 L 639.463,221.436 C 640.27,220.461 640.647,219.215 640.516,217.954 C 640.386,216.695 639.756,215.556 638.76,214.772 L 595.047,180.33 C 593.065,178.768 590.195,179.065 588.573,181 L 576.744,195.115 L 576.731,195.128 C 575.289,196.864 573.246,197.739 571.145,197.744 C 569.495,197.742 567.877,197.206 566.508,196.064 L 566.508,196.068 Z" stroke="none" fill="#012e42" marker-start="none" marker-end="none"/>
         <path d="M 624.634,188.397 L 572.479,251.097 C 567.558,257.007 568.366,265.789 574.279,270.705 C 580.191,275.622 588.971,274.816 593.891,268.904 L 646.046,206.207" stroke="#ffffff" fill="#ffffff"/>
         <path d="M 621.041,185.406 L 568.886,248.104 C 566.001,251.568 564.579,255.813 564.584,259.995 C 564.579,265.311 566.874,270.631 571.289,274.3 L 571.289,274.298 C 574.748,277.18 578.991,278.603 583.177,278.602 C 588.492,278.605 593.811,276.308 597.481,271.898 L 597.481,271.895 L 649.637,209.197 C 651.289,207.211 651.018,204.263 649.035,202.613 C 647.047,200.963 644.103,201.232 642.45,203.218 L 590.294,265.919 L 590.297,265.917 C 588.456,268.127 585.847,269.248 583.177,269.252 C 581.079,269.248 579.009,268.559 577.268,267.112 C 575.06,265.274 573.939,262.665 573.934,259.995 C 573.936,257.9 574.626,255.827 576.071,254.086 L 628.228,191.389 C 629.881,189.403 629.608,186.455 627.626,184.803 C 625.64,183.152 622.693,183.423 621.041,185.406 Z M 621.041,185.406" stroke="none" fill="#012e42"/>
         <path d="M 602.333,171.767 L 558.804,224.093 C 554.743,228.979 556.241,236.922 562.154,241.84 C 568.065,246.757 576.155,246.784 580.213,241.905 L 623.744,189.578" stroke="#ffffff" fill="#ffffff"/>
         <path d="M 598.741,168.777 L 555.212,221.103 L 555.209,221.103 C 552.908,223.865 551.836,227.3 551.843,230.657 C 551.864,236.146 554.512,241.551 559.162,245.436 C 562.94,248.574 567.468,250.217 571.923,250.221 C 576.306,250.239 580.787,248.531 583.807,244.893 L 627.336,192.566 C 628.987,190.583 628.718,187.635 626.733,185.983 C 624.747,184.333 621.798,184.601 620.148,186.588 L 576.621,238.915 C 575.595,240.135 574.038,240.856 571.923,240.873 C 569.811,240.881 567.303,240.051 565.141,238.248 L 565.141,238.251 C 562.463,236.036 561.175,233.019 561.194,230.658 C 561.206,229.198 561.616,228.04 562.399,227.084 L 605.927,174.757 C 607.578,172.774 607.307,169.828 605.322,168.175 C 603.337,166.522 600.391,166.791 598.741,168.777 Z M 598.741,168.777" stroke="none" fill="#012e42"/>
         <path d="M 653.115,83.791 L 683.647,47.089 L 760.108,110.699 L 729.578,147.4 Z" stroke="none" fill="#69c15c" marker-start="none" marker-end="none"/>
         <path d="M 653.115,83.791 L 656.709,86.782 L 684.251,53.675 L 753.524,111.303 L 728.973,140.816 L 656.103,80.199 L 653.115,83.791 L 656.709,86.782 L 653.115,83.791 L 650.124,87.387 L 726.586,150.992 C 728.573,152.645 731.52,152.373 733.171,150.387 L 763.704,113.688 C 764.491,112.742 764.878,111.494 764.763,110.269 C 764.651,109.045 764.048,107.892 763.1,107.103 L 686.634,43.498 C 684.653,41.843 681.704,42.117 680.052,44.101 L 649.522,80.801 C 648.736,81.749 648.347,82.995 648.458,84.219 C 648.571,85.444 649.179,86.599 650.124,87.387 Z" stroke="none" fill="#012e42" marker-start="none" marker-end="none"/>
         <path d="M 678.878,98.222 L 702.974,69.249 L 684.251,53.675 L 660.155,82.641 Z" stroke="none" fill="#01a5ef" marker-start="none" marker-end="none"/>
         <path d="M 660.155,82.641 L 684.251,53.675 L 702.974,69.249 L 704.322,67.634 L 682.911,49.824 L 657.467,80.41 Z" stroke="none" fill="#012e42" marker-start="none" marker-end="none"/>
         <path d="M 718.563,114.519 C 718.964,118.893 722.836,122.117 727.214,121.717 C 731.588,121.311 734.809,117.439 734.409,113.062 C 734.009,108.684 730.134,105.466 725.757,105.866 C 721.38,106.267 718.159,110.142 718.563,114.519 Z M 718.563,114.519" stroke="none" fill="#012e42"/>
         <g id="Group_29" stroke="none" fill="#012e42">
          <path d="M 704.904,286.836 L 733.345,296.166 C 735.797,296.971 738.44,295.634 739.245,293.181 C 740.051,290.727 738.713,288.085 736.26,287.28 L 707.816,277.948 C 705.363,277.143 702.723,278.481 701.918,280.933 C 701.112,283.387 702.449,286.031 704.904,286.836"/>
          <path d="M 695.823,300.452 L 708.617,320.014 C 710.032,322.174 712.927,322.782 715.088,321.369 C 717.249,319.956 717.856,317.058 716.444,314.901 L 703.652,295.337 C 702.238,293.174 699.34,292.568 697.179,293.981 C 695.018,295.396 694.411,298.291 695.823,300.452"/>
          <path d="M 678.306,296.788 L 672.209,325.906 C 671.681,328.433 673.302,330.914 675.83,331.444 C 678.355,331.969 680.836,330.351 681.366,327.824 L 687.46,298.702 C 687.989,296.173 686.367,293.696 683.84,293.167 C 681.313,292.641 678.833,294.259 678.306,296.788"/>
         </g>
        </g>
       </g>
      </g>
     </g>
    </g>
   </g>
  </g>
 </g>
</svg>
