<?xml version="1.0" standalone="no"?>
<!DOCTYPE svg PUBLIC "-//W3C//DTD SVG 1.1//EN" "http://www.w3.org/Graphics/SVG/1.1/DTD/svg11.dtd">
<!--Generator: Xara Designer (www.xara.com), SVG filter version: 6.2.0.0-->
<svg stroke-width="0.501" stroke-linejoin="bevel" fill-rule="evenodd" xmlns:xlink="http://www.w3.org/1999/xlink" xmlns="http://www.w3.org/2000/svg" version="1.1" overflow="visible" width="811.4pt" height="811.389pt" viewBox="0 0 811.4 811.389" enable-background="new">
 <defs>
  <filter id="StainedFilter">
   <feBlend mode="multiply" in2="BackgroundImage" in="SourceGraphic" result="blend"/>
   <feComposite in="blend" in2="SourceAlpha" operator="in" result="comp"/>
  </filter>
 </defs>
 <g id="Document" fill="none" stroke="black" font-family="Times New Roman" font-size="16" transform="scale(1 -1)">
  <g id="Spread" transform="translate(0 -811.389)">
   <g id="Layer 1">
    <g id="Group">
     <g id="ClipView">
      <g id="ClipView_1" stroke-linejoin="miter" stroke="none">
       <g id="Group_1" fill="#69c15c" stroke-width="5.592" stroke-miterlimit="19.9600798403194">
        <path d="M 692.572,118.826 C 534.135,-39.609 277.263,-39.609 118.828,118.826 C -39.609,277.263 -39.609,534.13 118.828,692.565 C 277.263,850.997 534.135,850.997 692.572,692.565 C 851.009,534.13 851.009,277.263 692.572,118.826 Z" marker-start="none" marker-end="none"/>
       </g>
       <clipPath id="ClipPath">
        <path d="M 692.572,118.826 C 534.135,-39.609 277.263,-39.609 118.828,118.826 C -39.609,277.263 -39.609,534.13 118.828,692.565 C 277.263,850.997 534.135,850.997 692.572,692.565 C 851.009,534.13 851.009,277.263 692.572,118.826 Z"/>
       </clipPath>
       <g clip-path="url(#ClipPath)" stroke-miterlimit="79.8403193612775">
        <g id="Group_2">
         <path d="M 521.834,442.329 C 521.684,441.473 521.498,440.732 521.313,439.954 C 519.424,431.871 517.309,424.345 515.009,417.484 C 511.04,405.653 506.815,395.862 501.438,388.521 C 498.953,385.074 496.171,382.181 493.055,379.846 C 487.086,375.356 479.78,372.986 470.51,372.986 L 332.12,372.986 C 322.443,372.986 314.916,375.581 308.797,380.438 C 305.977,382.663 303.492,385.368 301.195,388.521 C 295.82,395.862 291.59,405.653 287.621,417.484 C 285.322,424.345 283.211,431.871 281.318,439.954 C 281.132,440.732 280.947,441.473 280.8,442.254 C 259.108,537.74 265.557,706.98 314.73,757.968 C 334.9,778.884 359.856,797.275 401.318,797.275 C 434.17,797.275 456.68,785.709 474.625,770.465 C 479.335,766.537 483.71,762.307 487.904,757.968 C 489.572,756.228 491.201,754.335 492.759,752.335 C 537.479,695.524 542.785,534.478 521.834,442.329 Z" fill="#4f3c30" stroke-width="4.414" marker-start="none" marker-end="none" stroke-miterlimit="19.9600798403194"/>
         <g id="Group_3" stroke-width="4.414" stroke-miterlimit="19.9600798403194">
          <path d="M 439.057,450.712 L 439.057,498.009 L 364.893,498.009 L 364.893,450.712 L 346.352,445.565 L 364.893,329.714 L 439.057,329.714 L 457.598,445.565 L 439.057,450.712 Z" fill="#f7cdb9" marker-start="none" marker-end="none"/>
          <mask id="TranspMask">
           <rect x="-10%" y="-10%" width="120%" height="120%" fill="#ffffff" stroke="none"/>
          </mask>
          <g id="Group_4" fill="#deb4a0" mask="url(#TranspMask)" filter="url(#StainedFilter)">
           <path d="M 364.893,497.7 L 364.893,480.51 L 439.057,450.712 L 439.057,497.7 L 364.893,497.7 Z" marker-start="none" marker-end="none"/>
          </g>
         </g>
         <path d="M 533.457,-22.366 C 535.541,79.804 509.701,119.508 509.701,119.508 L 294.248,119.508 C 294.248,119.508 268.378,79.852 270.475,-22.366 L 533.457,-22.366 Z" fill="#1a1718" stroke-width="4.414" marker-start="none" marker-end="none" stroke-miterlimit="19.9600798403194"/>
         <g id="Group_5">
          <path d="M 310.925,247.261 C 293.328,265.233 264.604,301.661 301.448,354.471 C 325.126,388.411 254.357,443.804 358.735,449.274 L 401.975,330.982 L 445.211,449.274 C 549.587,443.804 478.823,388.411 502.498,354.471 C 539.341,301.661 510.616,265.233 493.024,247.261 C 493.024,247.261 497.986,166.872 532.896,63.374 L 414.34,63.374 L 401.975,107.871 L 389.61,63.374 L 271.049,63.374 C 305.964,166.872 310.925,247.261 310.925,247.261 Z" fill="#32303a" stroke-width="4.414" marker-start="none" marker-end="none" stroke-miterlimit="19.9600798403194"/>
          <g id="Group_6" stroke-width="1.104" fill="#ffffff" stroke-miterlimit="19.9600798403194">
           <path d="M 487.666,420.057 L 447.015,404.686 L 462.97,382.437 L 401.97,330.982 L 445.277,450.227 L 487.666,420.057 Z" marker-start="none" marker-end="none"/>
           <path d="M 316.28,420.057 L 358.729,449.724 L 401.97,330.982 L 340.976,382.437 L 356.929,404.686 L 316.28,420.057 Z" marker-start="none" marker-end="none"/>
          </g>
          <g id="Group_7" stroke-width="4.414" stroke-miterlimit="19.9600798403194">
           <path d="M 466.577,235.059 L 466.577,321.371 C 466.577,333.561 456.697,343.439 444.505,343.439 L 414.485,343.439 C 402.297,343.439 392.412,333.561 392.412,321.371 L 392.412,235.059 C 392.412,222.87 402.297,212.985 414.485,212.985 L 444.505,212.985 C 456.697,212.985 466.577,222.87 466.577,235.059 Z" fill="#e6e7e8" marker-start="none" marker-end="none"/>
           <mask id="TranspMask_1">
            <rect x="-10%" y="-10%" width="120%" height="120%" fill="#ffffff" stroke="none"/>
           </mask>
           <g id="Group_8" fill="#c8c8c8" mask="url(#TranspMask_1)" filter="url(#StainedFilter)">
            <path d="M 415.59,343.439 L 443.4,343.439 C 450.984,343.439 457.659,339.745 461.884,334.117 C 458.012,337.017 453.254,338.805 448.036,338.805 L 420.224,338.805 C 407.427,338.805 397.049,328.431 397.049,315.633 L 397.049,231.527 C 397.049,226.313 398.837,221.554 401.741,217.679 C 396.108,221.908 392.412,228.578 392.412,236.163 L 392.412,320.267 C 392.412,333.066 402.792,343.439 415.59,343.439 Z" marker-start="none" marker-end="none"/>
           </g>
           <path d="M 435.428,328.743 L 435.428,329.309 C 435.428,332.417 432.885,334.96 429.778,334.96 L 429.212,334.96 C 426.105,334.96 423.563,332.417 423.563,329.309 L 423.563,328.743 C 423.563,325.636 426.105,323.093 429.212,323.093 L 429.778,323.093 C 432.885,323.093 435.428,325.636 435.428,328.743 Z" fill="#686671" marker-start="none" marker-end="none"/>
          </g>
          <g id="Group_9" stroke-width="4.414" stroke-miterlimit="19.9600798403194">
           <g id="Group_10" fill="#f7cdb9">
            <path d="M 452.053,275.889 C 452.053,275.889 466.016,274.335 476.858,273.532 C 479.556,273.367 482.253,273.205 484.782,273.054 C 487.281,272.976 489.615,272.905 491.616,272.842 C 495.554,272.861 498.176,272.868 498.176,272.868 L 499.213,228.383 C 499.213,228.383 495.924,228.371 490.994,228.349 C 488.583,228.423 485.776,228.508 482.769,228.599 C 479.821,228.777 476.677,228.967 473.529,229.156 C 461.072,230.084 446.151,231.783 446.151,231.783 C 436.571,233.037 430.673,244.202 432.704,256.27 C 434.757,268.433 443.44,277.01 452.053,275.889 Z" marker-start="none" marker-end="none"/>
            <path d="M 466.859,287.393 C 474.214,286.564 479.927,281.35 484.226,276.153 C 488.455,271.054 491.22,265.934 491.436,265.51 C 493.153,262.283 492.755,257.577 490.292,255.14 C 487.842,252.73 484.323,253.383 482.651,256.738 C 482.614,256.805 482.112,257.771 481.228,259.193 C 480.346,260.614 479.087,262.491 477.551,264.376 C 474.457,268.198 470.29,272.07 465.257,272.644 C 462.348,272.976 460.406,276.534 460.909,280.598 C 461.416,284.665 464.079,287.707 466.859,287.393 Z" marker-start="none" marker-end="none"/>
           </g>
           <path d="M 514.833,218.455 C 626.423,228.349 627.35,274.157 598.465,325.269 C 576.42,364.28 524.761,427.964 490.751,439.614 L 490.256,406.585 L 474.338,371.088 C 516.951,346.275 529.118,328.003 549.053,298.019 C 555.653,288.095 553.852,286.135 553.653,285.976 C 549.442,282.546 505.473,277.036 488.791,278.374 L 484.513,219.214 C 490.023,218.774 509.076,218.455 514.833,218.455 Z" fill="#32303a" marker-start="none" marker-end="none"/>
          </g>
          <g id="Group_11" stroke-width="4.414" stroke-miterlimit="19.9600798403194">
           <mask id="TranspMask_2">
            <rect x="-10%" y="-10%" width="120%" height="120%" fill="#ffffff" stroke="none"/>
           </mask>
           <g id="Group_12" fill="#f7cdb9" mask="url(#TranspMask_2)">
            <path d="M 266.524,-40.289 L 266.551,26.75 C 266.551,26.75 241.653,45.861 235.491,26.804 C 219.351,-23.124 239.701,-64.29 249.246,-64.29 C 258.79,-64.29 266.524,-53.55 266.524,-40.289 Z" marker-start="none" marker-end="none"/>
            <path d="M 278.169,-31.959 C 278.165,-7.202 267.138,10.13 266.462,10.859 C 263.8,13.719 259.968,13.035 257.911,9.336 C 255.854,5.64 256.34,0.338 258.993,-2.526 C 259.047,-2.583 259.509,-3.436 260.171,-4.933 C 260.838,-6.429 261.704,-8.575 262.564,-11.219 C 264.285,-16.511 265.977,-23.812 265.977,-31.959 C 265.977,-36.633 268.705,-40.42 272.072,-40.42 C 275.441,-40.42 278.169,-36.629 278.169,-31.959 Z" marker-start="none" marker-end="none"/>
           </g>
           <path d="M 278.59,3.812 L 228.898,3.927 C 228.898,3.927 228.268,277.92 232.567,315.88 C 238.439,402.086 293.135,447.653 340.976,447.653 C 340.976,447.653 300.551,424.336 313.543,403.292 C 307.256,383.1 314.709,362.55 309.367,357.425 C 292.447,341.184 288.694,337.71 285.537,309.867 C 281.503,274.295 278.59,3.812 278.59,3.812 Z" fill="#32303a" marker-start="none" marker-end="none"/>
          </g>
         </g>
         <g id="Group_13">
          <g id="Group_14">
           <path d="M 486.748,625.634 L 486.748,664.199 C 486.748,705.156 439.33,756.905 401.798,756.905 C 364.262,756.905 316.844,705.156 316.844,664.199 L 316.844,625.634 C 306.419,625.634 297.968,617.329 297.968,607.093 L 297.968,587.81 C 297.968,577.568 306.419,569.269 316.844,569.269 C 316.844,528.307 364.262,475.081 401.798,475.081 C 439.33,475.081 486.748,528.307 486.748,569.269 C 497.173,569.269 505.627,577.568 505.627,587.81 L 505.627,607.093 C 505.627,617.329 497.173,625.634 486.748,625.634 Z" fill="#f7cdb9" stroke-width="4.414" marker-start="none" marker-end="none" stroke-miterlimit="19.9600798403194"/>
           <mask id="TranspMask_3">
            <rect x="-10%" y="-10%" width="120%" height="120%" fill="#cccccc" stroke="none"/>
           </mask>
           <g id="Group_15" stroke-width="1.104" fill="#f6ccb8" stroke-miterlimit="19.9600798403194" mask="url(#TranspMask_3)" filter="url(#StainedFilter)">
            <path d="M 401.798,543.683 L 401.798,475.081 C 439.33,475.081 486.748,528.307 486.748,569.269 C 497.173,569.269 505.627,577.568 505.627,587.81 L 505.627,607.093 C 505.627,617.329 497.173,625.634 486.748,625.634 L 486.748,664.199 C 486.748,705.156 439.33,756.905 401.798,756.905 L 401.798,606.722 C 388.025,577.952 382.918,547.391 382.918,547.391 L 401.798,543.683 Z" marker-start="none" marker-end="none"/>
           </g>
           <g id="Group_16">
            <g id="Group_17">
             <mask id="TranspMask_4">
              <rect x="-10%" y="-10%" width="120%" height="120%" fill="#ffffff" stroke="none"/>
             </mask>
             <g id="Group_18" stroke-width="4.414" fill="#f7cdb9" stroke-miterlimit="19.9600798403194" mask="url(#TranspMask_4)" filter="url(#StainedFilter)">
              <path d="M 370.256,598.348 C 370.539,590.264 364.218,583.48 356.134,583.201 C 348.047,582.919 341.266,589.24 340.984,597.323 C 340.7,605.407 347.027,612.187 355.11,612.469 C 363.193,612.752 369.973,606.431 370.256,598.348 Z" marker-start="none" marker-end="none"/>
             </g>
             <path d="M 370.256,602.056 C 370.539,593.972 364.218,587.188 356.134,586.91 C 348.047,586.627 341.266,592.949 340.984,601.032 C 340.7,609.114 347.027,615.895 355.11,616.178 C 363.193,616.461 369.973,610.139 370.256,602.056 Z" fill="#3c2417" stroke-width="1.104" marker-start="none" marker-end="none" stroke-miterlimit="19.9600798403194"/>
             <path d="M 364.253,598.824 C 364.324,596.803 362.742,595.107 360.722,595.036 C 358.699,594.966 357.004,596.547 356.934,598.568 C 356.863,600.59 358.443,602.284 360.465,602.356 C 362.487,602.427 364.182,600.847 364.253,598.824 Z" fill="#ffffff" stroke-width="1.104" marker-start="none" marker-end="none" stroke-miterlimit="19.9600798403194"/>
             <path d="M 373.436,613.242 C 370.733,619.514 363.811,624.275 356.209,625.082 C 351.548,625.59 342.802,624.901 335.29,615.388 C 334.927,615.356 334.596,615.348 334.177,615.392 C 333.342,615.467 332.181,615.736 331.047,616.222 C 328.742,617.149 326.822,619.091 326.822,619.091 C 326.69,619.22 326.472,619.267 326.296,619.184 C 326.067,619.074 325.975,618.799 326.084,618.57 C 326.084,618.57 326.371,617.935 326.928,617.021 C 327.47,616.098 328.327,614.907 329.418,613.869 C 330.499,612.823 331.789,611.932 332.875,611.392 C 333.413,611.114 333.904,610.924 334.265,610.796 C 334.613,610.673 334.98,610.607 334.919,610.611 C 335.928,610.509 336.848,611.052 337.289,611.899 C 342.211,618.774 348.793,622.155 355.816,621.396 C 362.027,620.734 367.872,616.778 370.027,611.771 C 370.437,610.832 371.528,610.399 372.464,610.806 C 373.405,611.211 373.837,612.303 373.436,613.242 Z" fill="#3c2417" stroke-width="1.104" marker-start="none" marker-end="none" stroke-miterlimit="19.9600798403194"/>
            </g>
            <g id="Group_19">
             <mask id="TranspMask_5">
              <rect x="-10%" y="-10%" width="120%" height="120%" fill="#ffffff" stroke="none"/>
             </mask>
             <g id="Group_20" stroke-width="4.414" fill="#f7cdb9" stroke-miterlimit="19.9600798403194" mask="url(#TranspMask_5)" filter="url(#StainedFilter)">
              <path d="M 462.962,598.348 C 463.244,590.264 456.923,583.48 448.84,583.201 C 440.752,582.919 433.971,589.24 433.69,597.323 C 433.406,605.407 439.733,612.187 447.815,612.469 C 455.898,612.752 462.679,606.431 462.962,598.348 Z" marker-start="none" marker-end="none"/>
             </g>
             <path d="M 462.962,602.056 C 463.244,593.972 456.923,587.188 448.84,586.91 C 440.752,586.627 433.971,592.949 433.69,601.032 C 433.406,609.114 439.733,615.895 447.815,616.178 C 455.898,616.461 462.679,610.139 462.962,602.056 Z" fill="#3c2417" stroke-width="1.104" marker-start="none" marker-end="none" stroke-miterlimit="19.9600798403194"/>
             <path d="M 456.957,598.824 C 457.028,596.803 455.448,595.107 453.426,595.036 C 451.405,594.966 449.709,596.547 449.638,598.568 C 449.567,600.59 451.149,602.284 453.17,602.356 C 455.193,602.427 456.887,600.847 456.957,598.824 Z" fill="#ffffff" stroke-width="1.104" marker-start="none" marker-end="none" stroke-miterlimit="19.9600798403194"/>
             <path d="M 430.514,613.242 C 433.216,619.514 440.138,624.275 447.74,625.082 C 452.397,625.59 461.142,624.901 468.656,615.388 C 469.019,615.356 469.349,615.348 469.769,615.392 C 470.604,615.467 471.764,615.736 472.899,616.222 C 475.208,617.149 477.123,619.091 477.123,619.091 C 477.261,619.22 477.477,619.267 477.653,619.184 C 477.878,619.074 477.97,618.799 477.861,618.57 C 477.861,618.57 477.573,617.935 477.018,617.021 C 476.475,616.098 475.619,614.907 474.527,613.869 C 473.45,612.823 472.162,611.932 471.076,611.392 C 470.537,611.114 470.047,610.924 469.684,610.796 C 469.336,610.673 468.969,610.607 469.032,610.611 C 468.021,610.509 467.101,611.052 466.656,611.899 C 461.734,618.774 455.156,622.155 448.128,621.396 C 441.922,620.734 436.078,616.778 433.922,611.771 C 433.508,610.832 432.418,610.399 431.482,610.806 C 430.546,611.211 430.109,612.303 430.514,613.242 Z" fill="#3c2417" stroke-width="1.104" marker-start="none" marker-end="none" stroke-miterlimit="19.9600798403194"/>
            </g>
           </g>
          </g>
          <path d="M 451.082,658.658 C 453.602,649.609 458.534,637.671 467.097,630.552 C 441.882,637 420.414,651.909 404.876,669.563 C 406.398,660.438 412.181,650.5 421.115,641.711 C 414.331,644.718 407.732,648.611 401.427,653.061 C 387.371,662.923 374.879,675.717 365.608,688.695 C 350.921,658.919 327.153,617.312 308.722,616.756 C 283.524,667.505 280.985,778.235 401.312,778.235 C 521.643,778.235 503.588,652.465 494.133,616.756 C 472.996,632.996 456.9,650.02 451.082,658.658 Z" fill="#4f3c30" stroke-width="4.414" marker-start="none" marker-end="none" stroke-miterlimit="19.9600798403194"/>
          <g id="Group_21" stroke-width="1.104" stroke-miterlimit="19.9600798403194">
           <path d="M 432.961,532.09 C 432.961,517.526 419.681,505.722 403.295,505.722 C 386.912,505.722 373.629,517.526 373.629,532.09 L 432.961,532.09 Z" fill="#f05d44" marker-start="none" marker-end="none"/>
           <path d="M 423.279,522.201 L 382.666,522.201 C 380.228,522.201 378.252,524.179 378.252,526.617 L 378.252,532.09 L 427.694,532.09 L 427.694,526.617 C 427.694,524.179 425.715,522.201 423.279,522.201 Z" fill="#ffffff" marker-start="none" marker-end="none"/>
          </g>
         </g>
        </g>
       </g>
      </g>
      <clipPath id="ClipPath_1">
       <path d="M 397.182,0.088 L 396.501,0.109 L 395.966,0.115 L 393.648,0.198 L 388.668,0.354 L 387.312,0.425 L 386.237,0.463 L 383.877,0.604 L 380.161,0.798 L 378.099,0.949 L 376.518,1.044 L 374.489,1.213 L 371.663,1.42 L 368.841,1.686 L 366.812,1.856 L 365.238,2.026 L 363.176,2.22 L 359.473,2.647 L 357.124,2.9 L 356.06,3.041 L 354.705,3.197 L 349.749,3.874 L 347.458,4.177 L 346.932,4.259 L 346.252,4.352 C 340.623,5.181 335.008,6.129 329.412,7.195 L 328.736,7.331 L 328.213,7.426 L 325.963,7.89 L 321.031,8.883 L 319.692,9.182 L 318.642,9.399 L 316.349,9.929 L 312.681,10.749 L 310.653,11.247 L 309.112,11.603 L 307.146,12.108 L 304.363,12.792 L 301.596,13.534 L 299.627,14.04 L 298.109,14.47 L 296.082,15.013 L 292.456,16.069 L 290.191,16.709 L 289.171,17.025 L 287.84,17.412 L 282.99,18.936 L 280.81,19.61 L 280.312,19.778 L 279.641,19.988 C 276.915,20.877 274.197,21.795 271.487,22.743 C 268.389,23.826 265.302,24.948 262.226,26.108 L 260.182,26.908 L 253.034,29.705 L 252.72,29.837 L 252.462,29.938 L 249.854,31.04 L 243.914,33.535 L 243.305,33.808 L 242.779,34.03 L 236.916,36.678 L 234.871,37.597 L 234.672,37.692 L 234.377,37.825 C 192.545,57.302 153.349,84.302 118.828,118.826 C -39.609,277.263 -39.609,534.13 118.828,692.565 C 277.263,850.997 534.135,850.997 692.572,692.565 C 851.009,534.13 851.009,277.263 692.572,118.826 C 648.011,74.266 595.664,42.238 539.911,22.743 C 537.2,21.795 534.482,20.877 531.756,19.988 L 531.097,19.781 L 530.588,19.61 L 528.362,18.922 L 523.557,17.412 L 522.238,17.028 L 521.206,16.709 L 518.917,16.062 L 515.315,15.013 L 513.302,14.473 L 511.771,14.04 L 509.786,13.53 L 507.034,12.792 L 504.266,12.112 L 502.286,11.603 L 500.734,11.244 L 498.716,10.749 L 495.066,9.933 L 492.755,9.399 L 491.698,9.181 L 490.366,8.883 L 485.46,7.895 L 483.185,7.426 L 482.656,7.33 L 481.985,7.195 C 476.389,6.129 470.774,5.181 465.145,4.352 L 464.469,4.26 L 463.939,4.177 L 461.632,3.872 L 456.692,3.197 L 455.341,3.041 L 454.274,2.9 L 451.917,2.646 L 448.221,2.22 L 446.163,2.026 L 444.586,1.856 L 442.552,1.686 L 439.734,1.42 L 436.913,1.214 L 434.88,1.044 L 433.295,0.949 L 431.236,0.798 L 427.524,0.605 L 425.16,0.463 L 424.084,0.425 L 422.729,0.354 L 417.753,0.198 L 415.432,0.115 L 414.896,0.109 L 422.729,0.354 C 414.218,-0.001 405.697,-0.09 397.182,0.088 Z"/>
      </clipPath>
      <g clip-path="url(#ClipPath_1)">
       <g id="Group_22">
        <g id="Group_23" stroke-linejoin="miter" stroke="none" stroke-miterlimit="79.8403193612775">
         <g id="Group_24">
          <g id="Group_25">
           <g id="Group_26">
            <g id="ClipView_2" stroke-width="1.406">
             <path d="M 527.419,63.555 L 527.295,52.247 C 546.431,16.957 698.797,19.505 729.852,48.728 L 731.572,68.147 L 527.419,63.555 Z" fill="#fcc55f" marker-start="none" marker-end="none"/>
             <clipPath id="ClipPath_2">
              <path d="M 527.419,63.555 L 527.295,52.247 C 546.431,16.957 698.797,19.505 729.852,48.728 L 731.572,68.147 L 527.419,63.555 Z"/>
             </clipPath>
             <g clip-path="url(#ClipPath_2)" stroke-miterlimit="3.50099800399202">
              <path d="M 567.782,60.717 L 571.806,10.903 L 693.951,10.471 L 723.682,29.861 L 743.07,65.407 L 742.424,86.089 L 567.782,60.717 Z" fill="#d59929" marker-start="none" marker-end="none"/>
             </g>
            </g>
            <g id="Group_27">
             <g id="Group_28">
              <path d="M 572.227,91.106 C 619.068,99.555 682.428,96.126 713.655,83.453 C 744.881,70.779 732.209,53.636 685.368,45.187 C 638.527,36.739 575.167,40.167 543.94,52.841 C 512.714,65.514 525.386,82.657 572.227,91.106 Z" fill="#fcc55f" stroke-width="1.406" marker-start="none" marker-end="none" stroke-miterlimit="3.50099800399202"/>
              <path d="M 555.692,50.931 C 633.527,48.424 659.827,90.545 664.755,90.978 C 762.473,82.652 747.693,42.402 632.17,40.585 C 597.838,40.046 582.779,46.601 555.692,50.931 Z" fill="#d59929" stroke-width="0.932" marker-start="none" marker-end="none" stroke-miterlimit="3.50099800399202"/>
             </g>
             <g id="Group_29" fill-rule="evenodd" stroke-width="0.932" fill="#012e42" stroke-miterlimit="3.50099800399202">
              <path d="M 629.385,57.679 C 628.586,57.723 627.769,57.732 626.957,57.7 C 618.84,57.956 612.72,59.812 612.703,62.025 C 612.703,63.083 609.531,63.939 605.614,63.939 C 601.704,63.939 598.533,63.083 598.533,62.025 C 598.55,58.333 607.673,55.101 620.82,54.125 L 620.82,52.207 C 620.82,51.15 623.992,50.288 627.913,50.288 C 631.824,50.288 634.996,51.15 634.996,52.207 L 634.996,54.009 C 650.177,54.867 660.491,58.694 658.893,62.866 C 657.301,67.038 644.305,70.211 628.797,70.212 C 619.906,70.212 612.703,72.162 612.703,74.566 C 612.703,76.971 619.906,78.919 628.797,78.919 C 637.689,78.919 644.893,76.971 644.893,74.566 C 644.893,73.505 648.059,72.648 651.974,72.648 C 655.897,72.648 659.068,73.505 659.068,74.566 C 659.044,78.44 649.009,81.782 634.996,82.582 L 634.996,84.326 C 634.996,85.387 631.824,86.245 627.913,86.245 C 623.992,86.245 620.82,85.387 620.82,84.326 L 620.82,82.465 C 606.202,81.385 596.783,77.544 598.798,73.476 C 600.809,69.413 613.634,66.378 628.797,66.379 C 637.562,66.379 644.716,64.48 644.881,62.106 C 645.044,59.733 638.149,57.763 629.385,57.679 Z M 629.385,57.679"/>
              <path d="M 526.024,68.147 C 526.024,52.79 572.027,40.338 628.797,40.338 C 685.556,40.338 731.572,52.79 731.572,68.147 C 731.572,83.505 685.556,95.956 628.797,95.956 C 572.057,95.938 526.09,83.497 526.024,68.147 Z M 628.797,92.12 C 677.736,92.12 717.395,81.386 717.395,68.147 C 717.395,54.907 677.736,44.174 628.797,44.174 C 579.866,44.174 540.194,54.907 540.194,68.147 C 540.248,81.381 579.889,92.105 628.797,92.12 Z M 628.797,92.12"/>
             </g>
            </g>
           </g>
           <g id="Group_30">
            <g id="ClipView_3" stroke-width="1.406">
             <path d="M 527.419,82.178 L 527.295,70.87 C 546.431,35.58 698.797,38.128 729.852,67.351 L 731.572,86.77 L 527.419,82.178 Z" fill="#fcc55f" marker-start="none" marker-end="none"/>
             <clipPath id="ClipPath_3">
              <path d="M 527.419,82.178 L 527.295,70.87 C 546.431,35.58 698.797,38.128 729.852,67.351 L 731.572,86.77 L 527.419,82.178 Z"/>
             </clipPath>
             <g clip-path="url(#ClipPath_3)" stroke-miterlimit="3.50099800399202">
              <path d="M 567.782,79.34 L 566.425,29.545 L 693.951,29.094 L 723.682,48.484 L 743.07,84.031 L 742.424,104.712 L 567.782,79.34 Z" fill="#d59929" marker-start="none" marker-end="none"/>
             </g>
            </g>
            <g id="Group_31">
             <g id="Group_32">
              <path d="M 572.227,109.729 C 619.068,118.178 682.428,114.75 713.655,102.076 C 744.881,89.403 732.209,72.259 685.368,63.811 C 638.527,55.362 575.167,58.79 543.94,71.464 C 512.714,84.137 525.386,101.281 572.227,109.729 Z" fill="#fcc55f" stroke-width="1.406" marker-start="none" marker-end="none" stroke-miterlimit="3.50099800399202"/>
              <path d="M 555.692,69.554 C 633.527,67.047 659.827,109.169 664.755,109.601 C 762.473,101.275 747.693,61.025 632.17,59.208 C 597.838,58.669 582.779,65.224 555.692,69.554 Z" fill="#d59929" stroke-width="0.932" marker-start="none" marker-end="none" stroke-miterlimit="3.50099800399202"/>
             </g>
             <g id="Group_33" fill-rule="evenodd" stroke-width="0.932" fill="#012e42" stroke-miterlimit="3.50099800399202">
              <path d="M 629.385,76.302 C 628.586,76.346 627.769,76.355 626.957,76.323 C 618.84,76.58 612.72,78.436 612.703,80.648 C 612.703,81.706 609.531,82.562 605.614,82.562 C 601.704,82.562 598.533,81.706 598.533,80.648 C 598.55,76.956 607.673,73.725 620.82,72.748 L 620.82,70.83 C 620.82,69.773 623.992,68.911 627.913,68.911 C 631.824,68.911 634.996,69.773 634.996,70.83 L 634.996,72.632 C 650.177,73.49 660.491,77.317 658.893,81.489 C 657.301,85.661 644.305,88.835 628.797,88.836 C 619.906,88.836 612.703,90.785 612.703,93.189 C 612.703,95.594 619.906,97.542 628.797,97.542 C 637.689,97.542 644.893,95.594 644.893,93.189 C 644.893,92.128 648.059,91.272 651.974,91.272 C 655.897,91.272 659.068,92.128 659.068,93.189 C 659.044,97.063 649.009,100.405 634.996,101.205 L 634.996,102.95 C 634.996,104.01 631.824,104.868 627.913,104.868 C 623.992,104.868 620.82,104.01 620.82,102.95 L 620.82,101.089 C 606.202,100.008 596.783,96.167 598.798,92.099 C 600.809,88.036 613.634,85.001 628.797,85.002 C 637.562,85.002 644.716,83.103 644.881,80.729 C 645.044,78.357 638.149,76.386 629.385,76.302 Z M 629.385,76.302"/>
              <path d="M 526.024,86.77 C 526.024,71.413 572.027,58.961 628.797,58.961 C 685.556,58.961 731.572,71.413 731.572,86.77 C 731.572,102.129 685.556,114.579 628.797,114.579 C 572.057,114.561 526.09,102.12 526.024,86.77 Z M 628.797,110.743 C 677.736,110.743 717.395,100.01 717.395,86.77 C 717.395,73.529 677.736,62.797 628.797,62.797 C 579.866,62.797 540.194,73.529 540.194,86.77 C 540.248,100.004 579.889,110.728 628.797,110.743 Z M 628.797,110.743"/>
             </g>
            </g>
           </g>
           <g id="Group_34">
            <g id="ClipView_4" stroke-width="1.406">
             <path d="M 527.419,101.7 L 527.295,90.391 C 546.431,55.101 698.797,57.649 729.852,86.872 L 731.572,106.291 L 527.419,101.7 Z" fill="#fcc55f" marker-start="none" marker-end="none"/>
             <clipPath id="ClipPath_4">
              <path d="M 527.419,101.7 L 527.295,90.391 C 546.431,55.101 698.797,57.649 729.852,86.872 L 731.572,106.291 L 527.419,101.7 Z"/>
             </clipPath>
             <g clip-path="url(#ClipPath_4)" stroke-miterlimit="3.50099800399202">
              <path d="M 563.117,101.115 L 563.117,49.077 L 693.951,48.615 L 723.682,68.005 L 743.07,103.551 L 742.424,124.233 L 563.117,101.115 Z" fill="#d59929" marker-start="none" marker-end="none"/>
             </g>
            </g>
            <g id="Group_35">
             <g id="Group_36">
              <path d="M 572.227,129.25 C 619.068,137.699 682.428,134.27 713.655,121.597 C 744.881,108.923 732.209,91.78 685.368,83.331 C 638.527,74.883 575.167,78.311 543.94,90.985 C 512.714,103.658 525.386,120.801 572.227,129.25 Z" fill="#fcc55f" stroke-width="1.406" marker-start="none" marker-end="none" stroke-miterlimit="3.50099800399202"/>
              <path d="M 555.692,89.076 C 633.527,86.567 659.827,128.689 664.755,129.123 C 762.473,120.796 747.693,80.547 632.17,78.729 C 597.838,78.19 582.779,84.744 555.692,89.076 Z" fill="#d59929" stroke-width="0.932" marker-start="none" marker-end="none" stroke-miterlimit="3.50099800399202"/>
             </g>
             <g id="Group_37" fill-rule="evenodd" stroke-width="0.932" fill="#012e42" stroke-miterlimit="3.50099800399202">
              <path d="M 629.385,95.823 C 628.586,95.868 627.769,95.876 626.957,95.844 C 618.84,96.1 612.72,97.956 612.703,100.169 C 612.703,101.226 609.531,102.083 605.614,102.083 C 601.704,102.083 598.533,101.226 598.533,100.169 C 598.55,96.477 607.673,93.245 620.82,92.269 L 620.82,90.351 C 620.82,89.294 623.992,88.431 627.913,88.431 C 631.824,88.431 634.996,89.294 634.996,90.351 L 634.996,92.152 C 650.177,93.011 660.491,96.838 658.893,101.011 C 657.301,105.183 644.305,108.355 628.797,108.356 C 619.906,108.356 612.703,110.306 612.703,112.711 C 612.703,115.115 619.906,117.064 628.797,117.064 C 637.689,117.064 644.893,115.115 644.893,112.711 C 644.893,111.649 648.059,110.792 651.974,110.792 C 655.897,110.792 659.068,111.649 659.068,112.711 C 659.044,116.583 649.009,119.926 634.996,120.725 L 634.996,122.471 C 634.996,123.532 631.824,124.389 627.913,124.389 C 623.992,124.389 620.82,123.532 620.82,122.471 L 620.82,120.609 C 606.202,119.528 596.783,115.689 598.798,111.62 C 600.809,107.556 613.634,104.522 628.797,104.524 C 637.562,104.524 644.716,102.624 644.881,100.251 C 645.044,97.877 638.149,95.908 629.385,95.823 Z M 629.385,95.823"/>
              <path d="M 526.024,106.291 C 526.024,90.934 572.027,78.483 628.797,78.483 C 685.556,78.483 731.572,90.934 731.572,106.291 C 731.572,121.649 685.556,134.099 628.797,134.099 C 572.057,134.082 526.09,121.641 526.024,106.291 Z M 628.797,130.264 C 677.736,130.264 717.395,119.53 717.395,106.291 C 717.395,93.051 677.736,82.318 628.797,82.318 C 579.866,82.318 540.194,93.051 540.194,106.291 C 540.248,119.524 579.889,130.248 628.797,130.264 Z M 628.797,130.264"/>
             </g>
            </g>
           </g>
           <g id="Group_38">
            <g id="ClipView_5" stroke-width="1.406">
             <path d="M 527.419,119.909 L 527.295,108.6 C 546.431,73.311 698.797,75.858 729.852,105.082 L 731.572,124.5 L 527.419,119.909 Z" fill="#fcc55f" marker-start="none" marker-end="none"/>
             <clipPath id="ClipPath_5">
              <path d="M 527.419,119.909 L 527.295,108.6 C 546.431,73.311 698.797,75.858 729.852,105.082 L 731.572,124.5 L 527.419,119.909 Z"/>
             </clipPath>
             <g clip-path="url(#ClipPath_5)" stroke-miterlimit="3.50099800399202">
              <path d="M 567.782,117.071 L 557.765,67.305 L 693.951,66.825 L 723.682,86.215 L 743.07,121.761 L 742.424,142.443 L 567.782,117.071 Z" fill="#d59929" marker-start="none" marker-end="none"/>
             </g>
            </g>
            <g id="Group_39">
             <g id="Group_40">
              <path d="M 572.227,147.46 C 619.068,155.909 682.428,152.48 713.655,139.806 C 744.881,127.133 732.209,109.99 685.368,101.541 C 638.527,93.092 575.167,96.521 543.94,109.194 C 512.714,121.868 525.386,139.011 572.227,147.46 Z" fill="#fcc55f" stroke-width="1.406" marker-start="none" marker-end="none" stroke-miterlimit="3.50099800399202"/>
              <path d="M 555.692,107.285 C 633.527,104.777 659.827,146.899 664.755,147.332 C 762.473,139.005 747.693,98.756 632.17,96.939 C 597.838,96.4 582.779,102.955 555.692,107.285 Z" fill="#d59929" stroke-width="0.932" marker-start="none" marker-end="none" stroke-miterlimit="3.50099800399202"/>
             </g>
             <g id="Group_41" fill-rule="evenodd" stroke-width="0.932" fill="#012e42" stroke-miterlimit="3.50099800399202">
              <path d="M 629.385,114.033 C 628.586,114.077 627.769,114.085 626.957,114.054 C 618.84,114.31 612.72,116.166 612.703,118.379 C 612.703,119.437 609.531,120.293 605.614,120.293 C 601.704,120.293 598.533,119.437 598.533,118.379 C 598.55,114.686 607.673,111.454 620.82,110.478 L 620.82,108.56 C 620.82,107.503 623.992,106.642 627.913,106.642 C 631.824,106.642 634.996,107.503 634.996,108.56 L 634.996,110.363 C 650.177,111.22 660.491,115.048 658.893,119.22 C 657.301,123.392 644.305,126.564 628.797,126.566 C 619.906,126.566 612.703,128.515 612.703,130.92 C 612.703,133.325 619.906,135.273 628.797,135.273 C 637.689,135.273 644.893,133.325 644.893,130.92 C 644.893,129.859 648.059,129.003 651.974,129.003 C 655.897,129.003 659.068,129.859 659.068,130.92 C 659.044,134.793 649.009,138.135 634.996,138.935 L 634.996,140.68 C 634.996,141.741 631.824,142.598 627.913,142.598 C 623.992,142.598 620.82,141.741 620.82,140.68 L 620.82,138.819 C 606.202,137.739 596.783,133.898 598.798,129.83 C 600.809,125.767 613.634,122.732 628.797,122.733 C 637.562,122.733 644.716,120.833 644.881,118.46 C 645.044,116.087 638.149,114.117 629.385,114.033 Z M 629.385,114.033"/>
              <path d="M 526.024,124.5 C 526.024,109.144 572.027,96.692 628.797,96.692 C 685.556,96.692 731.572,109.144 731.572,124.5 C 731.572,139.858 685.556,152.31 628.797,152.31 C 572.057,152.291 526.09,139.851 526.024,124.5 Z M 628.797,148.473 C 677.736,148.473 717.395,137.739 717.395,124.5 C 717.395,111.26 677.736,100.527 628.797,100.527 C 579.866,100.527 540.194,111.26 540.194,124.5 C 540.248,137.734 579.889,148.459 628.797,148.473 Z M 628.797,148.473"/>
             </g>
            </g>
           </g>
          </g>
          <g id="Group_42">
           <g id="Group_43">
            <g id="ClipView_6" stroke-width="1.406">
             <path d="M 527.419,141.105 L 527.295,129.796 C 546.431,94.507 698.797,97.054 729.852,126.277 L 731.572,145.696 L 527.419,141.105 Z" fill="#fcc55f" marker-start="none" marker-end="none"/>
             <clipPath id="ClipPath_6">
              <path d="M 527.419,141.105 L 527.295,129.796 C 546.431,94.507 698.797,97.054 729.852,126.277 L 731.572,145.696 L 527.419,141.105 Z"/>
             </clipPath>
             <g clip-path="url(#ClipPath_6)" stroke-miterlimit="3.50099800399202">
              <path d="M 567.782,138.267 L 571.806,88.452 L 693.951,88.02 L 723.682,107.411 L 743.07,142.957 L 742.424,163.639 L 567.782,138.267 Z" fill="#d59929" marker-start="none" marker-end="none"/>
             </g>
            </g>
            <g id="Group_44">
             <g id="Group_45">
              <path d="M 572.227,168.656 C 619.068,177.105 682.428,173.676 713.655,161.002 C 744.881,148.329 732.209,131.186 685.368,122.737 C 638.527,114.288 575.167,117.717 543.94,130.39 C 512.714,143.064 525.386,160.207 572.227,168.656 Z" fill="#fcc55f" stroke-width="1.406" marker-start="none" marker-end="none" stroke-miterlimit="3.50099800399202"/>
              <path d="M 555.692,128.481 C 633.527,125.973 659.827,168.094 664.755,168.528 C 762.473,160.201 747.693,119.952 632.17,118.135 C 597.838,117.596 582.779,124.151 555.692,128.481 Z" fill="#d59929" stroke-width="0.932" marker-start="none" marker-end="none" stroke-miterlimit="3.50099800399202"/>
             </g>
             <g id="Group_46" fill-rule="evenodd" stroke-width="0.932" fill="#012e42" stroke-miterlimit="3.50099800399202">
              <path d="M 629.385,135.229 C 628.586,135.273 627.769,135.281 626.957,135.25 C 618.84,135.506 612.72,137.362 612.703,139.575 C 612.703,140.633 609.531,141.489 605.614,141.489 C 601.704,141.489 598.533,140.633 598.533,139.575 C 598.55,135.882 607.673,132.65 620.82,131.674 L 620.82,129.756 C 620.82,128.699 623.992,127.838 627.913,127.838 C 631.824,127.838 634.996,128.699 634.996,129.756 L 634.996,131.559 C 650.177,132.416 660.491,136.244 658.893,140.416 C 657.301,144.588 644.305,147.76 628.797,147.762 C 619.906,147.762 612.703,149.711 612.703,152.116 C 612.703,154.521 619.906,156.469 628.797,156.469 C 637.689,156.469 644.893,154.521 644.893,152.116 C 644.893,151.055 648.059,150.199 651.974,150.199 C 655.897,150.199 659.068,151.055 659.068,152.116 C 659.044,155.989 649.009,159.331 634.996,160.131 L 634.996,161.877 C 634.996,162.937 631.824,163.794 627.913,163.794 C 623.992,163.794 620.82,162.937 620.82,161.877 L 620.82,160.016 C 606.202,158.935 596.783,155.094 598.798,151.026 C 600.809,146.963 613.634,143.928 628.797,143.929 C 637.562,143.929 644.716,142.029 644.881,139.656 C 645.044,137.284 638.149,135.313 629.385,135.229 Z M 629.385,135.229"/>
              <path d="M 526.024,145.696 C 526.024,130.339 572.027,117.888 628.797,117.888 C 685.556,117.888 731.572,130.339 731.572,145.696 C 731.572,161.054 685.556,173.506 628.797,173.506 C 572.057,173.487 526.09,161.047 526.024,145.696 Z M 628.797,169.669 C 677.736,169.669 717.395,158.936 717.395,145.696 C 717.395,132.456 677.736,121.723 628.797,121.723 C 579.866,121.723 540.194,132.456 540.194,145.696 C 540.248,158.93 579.889,169.655 628.797,169.669 Z M 628.797,169.669"/>
             </g>
            </g>
           </g>
           <g id="Group_47">
            <g id="ClipView_7" stroke-width="1.406">
             <path d="M 527.419,159.728 L 527.295,148.42 C 546.431,113.13 698.797,115.677 729.852,144.901 L 731.572,164.32 L 527.419,159.728 Z" fill="#fcc55f" marker-start="none" marker-end="none"/>
             <clipPath id="ClipPath_7">
              <path d="M 527.419,159.728 L 527.295,148.42 C 546.431,113.13 698.797,115.677 729.852,144.901 L 731.572,164.32 L 527.419,159.728 Z"/>
             </clipPath>
             <g clip-path="url(#ClipPath_7)" stroke-miterlimit="3.50099800399202">
              <path d="M 567.782,156.89 L 566.425,107.095 L 693.951,106.643 L 723.682,126.034 L 743.07,161.58 L 742.424,182.262 L 567.782,156.89 Z" fill="#d59929" marker-start="none" marker-end="none"/>
             </g>
            </g>
            <g id="Group_48">
             <g id="Group_49">
              <path d="M 572.227,187.279 C 619.068,195.728 682.428,192.299 713.655,179.626 C 744.881,166.952 732.209,149.809 685.368,141.36 C 638.527,132.911 575.167,136.34 543.94,149.014 C 512.714,161.687 525.386,178.83 572.227,187.279 Z" fill="#fcc55f" stroke-width="1.406" marker-start="none" marker-end="none" stroke-miterlimit="3.50099800399202"/>
              <path d="M 555.692,147.104 C 633.527,144.596 659.827,186.718 664.755,187.151 C 762.473,178.824 747.693,138.575 632.17,136.758 C 597.838,136.219 582.779,142.774 555.692,147.104 Z" fill="#d59929" stroke-width="0.932" marker-start="none" marker-end="none" stroke-miterlimit="3.50099800399202"/>
             </g>
             <g id="Group_50" fill-rule="evenodd" stroke-width="0.932" fill="#012e42" stroke-miterlimit="3.50099800399202">
              <path d="M 629.385,153.852 C 628.586,153.896 627.769,153.904 626.957,153.873 C 618.84,154.13 612.72,155.985 612.703,158.198 C 612.703,159.256 609.531,160.112 605.614,160.112 C 601.704,160.112 598.533,159.256 598.533,158.198 C 598.55,154.506 607.673,151.274 620.82,150.297 L 620.82,148.38 C 620.82,147.322 623.992,146.461 627.913,146.461 C 631.824,146.461 634.996,147.322 634.996,148.38 L 634.996,150.182 C 650.177,151.039 660.491,154.867 658.893,159.039 C 657.301,163.211 644.305,166.384 628.797,166.386 C 619.906,166.386 612.703,168.335 612.703,170.74 C 612.703,173.144 619.906,175.092 628.797,175.092 C 637.689,175.092 644.893,173.144 644.893,170.74 C 644.893,169.678 648.059,168.822 651.974,168.822 C 655.897,168.822 659.068,169.678 659.068,170.74 C 659.044,174.612 649.009,177.954 634.996,178.754 L 634.996,180.5 C 634.996,181.56 631.824,182.417 627.913,182.417 C 623.992,182.417 620.82,181.56 620.82,180.5 L 620.82,178.639 C 606.202,177.558 596.783,173.718 598.798,169.649 C 600.809,165.586 613.634,162.551 628.797,162.552 C 637.562,162.552 644.716,160.652 644.881,158.279 C 645.044,155.907 638.149,153.936 629.385,153.852 Z M 629.385,153.852"/>
              <path d="M 526.024,164.32 C 526.024,148.962 572.027,136.511 628.797,136.511 C 685.556,136.511 731.572,148.962 731.572,164.32 C 731.572,179.678 685.556,192.128 628.797,192.128 C 572.057,192.11 526.09,179.67 526.024,164.32 Z M 628.797,188.293 C 677.736,188.293 717.395,177.559 717.395,164.32 C 717.395,151.079 677.736,140.347 628.797,140.347 C 579.866,140.347 540.194,151.079 540.194,164.32 C 540.248,177.553 579.889,188.278 628.797,188.293 Z M 628.797,188.293"/>
             </g>
            </g>
           </g>
           <g id="Group_51">
            <g id="ClipView_8" stroke-width="1.406">
             <path d="M 527.419,179.249 L 527.295,167.94 C 546.431,132.65 698.797,135.199 729.852,164.422 L 731.572,183.84 L 527.419,179.249 Z" fill="#fcc55f" marker-start="none" marker-end="none"/>
             <clipPath id="ClipPath_8">
              <path d="M 527.419,179.249 L 527.295,167.94 C 546.431,132.65 698.797,135.199 729.852,164.422 L 731.572,183.84 L 527.419,179.249 Z"/>
             </clipPath>
             <g clip-path="url(#ClipPath_8)" stroke-miterlimit="3.50099800399202">
              <path d="M 563.117,178.665 L 563.117,126.627 L 693.951,126.165 L 723.682,145.555 L 743.07,181.101 L 742.424,201.783 L 563.117,178.665 Z" fill="#d59929" marker-start="none" marker-end="none"/>
             </g>
            </g>
            <g id="Group_52">
             <g id="Group_53">
              <path d="M 572.227,206.8 C 619.068,215.249 682.428,211.82 713.655,199.147 C 744.881,186.473 732.209,169.33 685.368,160.881 C 638.527,152.432 575.167,155.861 543.94,168.534 C 512.714,181.208 525.386,198.351 572.227,206.8 Z" fill="#fcc55f" stroke-width="1.406" marker-start="none" marker-end="none" stroke-miterlimit="3.50099800399202"/>
              <path d="M 555.692,166.625 C 633.527,164.117 659.827,206.239 664.755,206.672 C 762.473,198.346 747.693,158.096 632.17,156.279 C 597.838,155.74 582.779,162.294 555.692,166.625 Z" fill="#d59929" stroke-width="0.932" marker-start="none" marker-end="none" stroke-miterlimit="3.50099800399202"/>
             </g>
             <g id="Group_54" fill-rule="evenodd" stroke-width="0.932" fill="#012e42" stroke-miterlimit="3.50099800399202">
              <path d="M 629.385,173.373 C 628.586,173.417 627.769,173.426 626.957,173.393 C 618.84,173.65 612.72,175.505 612.703,177.719 C 612.703,178.776 609.531,179.633 605.614,179.633 C 601.704,179.633 598.533,178.776 598.533,177.719 C 598.55,174.026 607.673,170.794 620.82,169.819 L 620.82,167.9 C 620.82,166.843 623.992,165.981 627.913,165.981 C 631.824,165.981 634.996,166.843 634.996,167.9 L 634.996,169.703 C 650.177,170.56 660.491,174.387 658.893,178.56 C 657.301,182.732 644.305,185.904 628.797,185.906 C 619.906,185.906 612.703,187.855 612.703,190.26 C 612.703,192.665 619.906,194.613 628.797,194.613 C 637.689,194.613 644.893,192.665 644.893,190.26 C 644.893,189.199 648.059,188.342 651.974,188.342 C 655.897,188.342 659.068,189.199 659.068,190.26 C 659.044,194.134 649.009,197.476 634.996,198.276 L 634.996,200.02 C 634.996,201.081 631.824,201.938 627.913,201.938 C 623.992,201.938 620.82,201.081 620.82,200.02 L 620.82,198.159 C 606.202,197.078 596.783,193.238 598.798,189.169 C 600.809,185.107 613.634,182.072 628.797,182.073 C 637.562,182.073 644.716,180.173 644.881,177.8 C 645.044,175.427 638.149,173.457 629.385,173.373 Z M 629.385,173.373"/>
              <path d="M 526.024,183.84 C 526.024,168.484 572.027,156.032 628.797,156.032 C 685.556,156.032 731.572,168.484 731.572,183.84 C 731.572,199.199 685.556,211.65 628.797,211.65 C 572.057,211.631 526.09,199.19 526.024,183.84 Z M 628.797,207.813 C 677.736,207.813 717.395,197.079 717.395,183.84 C 717.395,170.6 677.736,159.868 628.797,159.868 C 579.866,159.868 540.194,170.6 540.194,183.84 C 540.248,197.075 579.889,207.799 628.797,207.813 Z M 628.797,207.813"/>
             </g>
            </g>
           </g>
           <g id="Group_55">
            <g id="ClipView_9" stroke-width="1.406">
             <path d="M 527.419,197.459 L 527.295,186.15 C 546.431,150.86 698.797,153.408 729.852,182.631 L 731.572,202.05 L 527.419,197.459 Z" fill="#fcc55f" marker-start="none" marker-end="none"/>
             <clipPath id="ClipPath_9">
              <path d="M 527.419,197.459 L 527.295,186.15 C 546.431,150.86 698.797,153.408 729.852,182.631 L 731.572,202.05 L 527.419,197.459 Z"/>
             </clipPath>
             <g clip-path="url(#ClipPath_9)" stroke-miterlimit="3.50099800399202">
              <path d="M 567.782,194.62 L 557.765,144.854 L 693.951,144.374 L 723.682,163.764 L 743.07,199.311 L 742.424,219.992 L 567.782,194.62 Z" fill="#d59929" marker-start="none" marker-end="none"/>
             </g>
            </g>
            <g id="Group_56">
             <g id="Group_57">
              <path d="M 572.227,225.009 C 619.068,233.458 682.428,230.03 713.655,217.356 C 744.881,204.683 732.209,187.539 685.368,179.091 C 638.527,170.642 575.167,174.07 543.94,186.744 C 512.714,199.417 525.386,216.561 572.227,225.009 Z" fill="#fcc55f" stroke-width="1.406" marker-start="none" marker-end="none" stroke-miterlimit="3.50099800399202"/>
              <path d="M 555.692,184.835 C 633.527,182.327 659.827,224.448 664.755,224.881 C 762.473,216.555 747.693,176.305 632.17,174.488 C 597.838,173.949 582.779,180.504 555.692,184.835 Z" fill="#d59929" stroke-width="0.932" marker-start="none" marker-end="none" stroke-miterlimit="3.50099800399202"/>
             </g>
             <g id="Group_58" fill-rule="evenodd" stroke-width="0.932" fill="#012e42" stroke-miterlimit="3.50099800399202">
              <path d="M 629.385,191.582 C 628.586,191.626 627.769,191.635 626.957,191.603 C 618.84,191.859 612.72,193.716 612.703,195.928 C 612.703,196.986 609.531,197.842 605.614,197.842 C 601.704,197.842 598.533,196.986 598.533,195.928 C 598.55,192.236 607.673,189.004 620.82,188.028 L 620.82,186.11 C 620.82,185.053 623.992,184.191 627.913,184.191 C 631.824,184.191 634.996,185.053 634.996,186.11 L 634.996,187.912 C 650.177,188.77 660.491,192.598 658.893,196.77 C 657.301,200.942 644.305,204.114 628.797,204.115 C 619.906,204.115 612.703,206.065 612.703,208.469 C 612.703,210.874 619.906,212.822 628.797,212.822 C 637.689,212.822 644.893,210.874 644.893,208.469 C 644.893,207.408 648.059,206.552 651.974,206.552 C 655.897,206.552 659.068,207.408 659.068,208.469 C 659.044,212.343 649.009,215.685 634.996,216.485 L 634.996,218.231 C 634.996,219.29 631.824,220.148 627.913,220.148 C 623.992,220.148 620.82,219.29 620.82,218.231 L 620.82,216.369 C 606.202,215.288 596.783,211.448 598.798,207.38 C 600.809,203.316 613.634,200.281 628.797,200.283 C 637.562,200.283 644.716,198.383 644.881,196.009 C 645.044,193.637 638.149,191.666 629.385,191.582 Z M 629.385,191.582"/>
              <path d="M 526.024,202.05 C 526.024,186.693 572.027,174.242 628.797,174.242 C 685.556,174.242 731.572,186.693 731.572,202.05 C 731.572,217.408 685.556,229.859 628.797,229.859 C 572.057,229.841 526.09,217.401 526.024,202.05 Z M 628.797,226.023 C 677.736,226.023 717.395,215.29 717.395,202.05 C 717.395,188.81 677.736,178.077 628.797,178.077 C 579.866,178.077 540.194,188.81 540.194,202.05 C 540.248,215.284 579.889,226.008 628.797,226.023 Z M 628.797,226.023"/>
             </g>
            </g>
           </g>
          </g>
         </g>
         <g id="Group_59">
          <g id="Group_60">
           <path d="M 626.7,355.433 C 663.971,380.279 714.385,370.196 739.232,332.926 C 764.078,295.656 753.995,245.241 716.725,220.395 C 679.454,195.548 629.04,205.631 604.193,242.901 C 579.347,280.172 589.43,330.586 626.7,355.433 Z" fill="#fcc55f" stroke-width="1.119" marker-start="none" marker-end="none" stroke-miterlimit="3.50099800399202"/>
           <path d="M 613.543,237.29 C 675.475,229.911 696.401,353.785 700.322,355.057 C 778.076,330.57 766.315,212.203 674.397,206.86 C 647.079,205.276 635.097,224.551 613.543,237.29 Z" fill="#d59929" stroke-width="0.742" marker-start="none" marker-end="none" stroke-miterlimit="3.50099800399202"/>
          </g>
          <g id="Group_61" fill-rule="evenodd" stroke-width="0.742" fill="#012e42" stroke-miterlimit="3.50099800399202">
           <path d="M 672.179,257.128 C 671.544,257.259 670.893,257.287 670.249,257.19 C 663.79,257.948 658.921,263.404 658.906,269.911 C 658.906,273.022 656.383,275.541 653.266,275.541 C 650.155,275.541 647.631,273.022 647.631,269.911 C 647.646,259.054 654.904,249.547 665.364,246.677 L 665.364,241.037 C 665.364,237.926 667.888,235.394 671.009,235.394 C 674.12,235.394 676.645,237.926 676.645,241.037 L 676.645,246.336 C 688.723,248.86 696.931,260.114 695.659,272.386 C 694.391,284.653 684.052,293.982 671.711,293.987 C 664.637,293.987 658.906,299.723 658.906,306.793 C 658.906,313.864 664.637,319.596 671.711,319.596 C 678.787,319.596 684.519,313.864 684.519,306.793 C 684.519,303.672 687.038,301.154 690.154,301.154 C 693.275,301.154 695.798,303.672 695.798,306.793 C 695.78,318.185 687.794,328.014 676.645,330.364 L 676.645,335.498 C 676.645,338.615 674.12,341.139 671.009,341.139 C 667.888,341.139 665.364,338.615 665.364,335.498 L 665.364,330.021 C 653.733,326.843 646.239,315.55 647.843,303.586 C 649.443,291.636 659.648,282.713 671.711,282.717 C 678.686,282.717 684.379,277.125 684.509,270.152 C 684.639,263.172 679.154,257.379 672.179,257.128 Z M 672.179,257.128"/>
           <path d="M 589.937,287.914 C 589.937,242.752 626.541,206.134 671.711,206.134 C 716.874,206.134 753.487,242.752 753.487,287.914 C 753.487,333.081 716.874,369.694 671.711,369.694 C 626.565,369.641 589.99,333.056 589.937,287.914 Z M 671.711,358.414 C 710.651,358.414 742.208,326.848 742.208,287.914 C 742.208,248.979 710.651,217.414 671.711,217.414 C 632.778,217.414 601.212,248.979 601.212,287.914 C 601.256,326.834 632.797,358.371 671.711,358.414 Z M 671.711,358.414"/>
          </g>
         </g>
        </g>
        <g id="Group_62" stroke="#ffefd1" stroke-width="2.21" stroke-linejoin="round" stroke-linecap="round" fill="#000000" stroke-miterlimit="79.8403193612775">
         <g id="Group_63">
          <path d="M 595.316,386.207 L 653.326,312.176" fill="none"/>
          <path d="M 653.324,386.207 L 595.315,312.176" fill="none"/>
         </g>
         <g id="Group_64">
          <path d="M 577.637,354.856 L 671.005,343.527" fill="none"/>
          <path d="M 618.656,395.875 L 629.985,302.507" fill="none"/>
         </g>
         <g id="Group_65">
          <path d="M 581.058,330.755 L 667.583,367.628" fill="none"/>
          <path d="M 596.072,386.788 L 652.567,311.594" fill="none"/>
         </g>
        </g>
       </g>
      </g>
     </g>
     <g id="Group_66">
      <path d="M 71.185,405.177 L 71.396,465.146 C 92.747,473.866 114.097,474.599 135.448,460.923 C 160.622,460.272 181.04,458.262 193.164,453.884 L 204.479,439.93 L 240.11,454.253 L 252.429,461.486 C 264.722,461.378 266.656,456.953 264.747,450.928 C 237.476,430.642 206.941,411.443 165.327,395.939 L 90.541,414.855 L 71.185,405.177 Z" fill="#ffffff" stroke="none" stroke-linejoin="miter" stroke-width="6.56" marker-start="none" marker-end="none" stroke-miterlimit="79.8403193612775"/>
      <path d="M 33.865,466.187 L 33.865,406.277 C 33.865,400.571 38.498,395.939 44.204,395.939 L 57.766,395.939 C 63.472,395.939 68.105,400.571 68.105,406.277 L 68.105,466.187 C 68.105,471.893 63.472,476.525 57.766,476.525 L 44.204,476.525 C 38.498,476.525 33.865,471.893 33.865,466.187 Z" fill="#01a5ef" stroke="none" stroke-linejoin="miter" stroke-width="6.56" marker-start="none" marker-end="none" stroke-miterlimit="79.8403193612775"/>
      <path d="M 33.865,476.525 L 33.865,446.79 L 68.105,446.79 L 68.105,476.525 L 33.865,476.525 Z" fill="#0572a4" stroke="none" stroke-linejoin="miter" stroke-width="6.56" marker-start="none" marker-end="none" stroke-miterlimit="79.8403193612775"/>
      <g id="Group_67">
       <path d="M 106.053,499.437 C 155.936,493.494 172.79,593.268 175.948,594.291 C 238.574,574.568 229.101,479.23 155.065,474.929 C 133.064,473.653 123.413,489.177 106.053,499.437 Z" stroke-linejoin="miter" stroke="none" stroke-width="0.597" fill="#fcc55f" marker-start="none" marker-end="none" stroke-miterlimit="79.8403193612775"/>
       <path d="M 240.655,464.557 L 205.072,447.743 C 200.162,456.879 190.736,462.698 180.37,462.987 L 147.518,463.897 C 142.32,464.04 137.213,465.36 132.59,467.748 L 129.245,469.479 C 112.136,478.4 91.739,478.377 74.643,469.425 L 74.853,476.996 C 74.919,479.498 72.941,481.591 70.434,481.659 L 34.42,482.651 C 31.906,482.723 29.819,480.748 29.75,478.234 L 27.577,399.192 C 27.507,396.686 29.482,394.596 31.992,394.53 L 68.011,393.535 L 68.134,393.535 C 70.594,393.535 72.612,395.495 72.681,397.954 L 72.777,401.741 L 82.138,406.744 C 85.813,408.723 90.106,409.193 94.122,408.06 L 149.995,392.377 C 150.089,392.349 150.191,392.321 150.287,392.303 C 154.329,391.454 158.446,391.035 162.57,391.035 C 171.308,391.035 179.943,392.916 187.889,396.558 C 188.082,396.646 188.272,396.752 188.45,396.873 L 269.466,449.276 C 271.488,450.581 272.14,453.228 270.953,455.324 C 264.939,465.995 251.6,470.06 240.655,464.557 Z M 36.787,403.488 L 38.703,473.447 L 65.64,472.707 L 63.719,402.737 Z M 183.795,404.67 C 173.927,400.221 162.91,398.99 152.3,401.156 L 96.572,416.799 C 90.304,418.573 83.588,417.836 77.852,414.754 L 73.073,412.192 L 74.349,458.706 C 89.505,468.785 108.939,469.823 125.074,461.41 L 128.413,459.681 C 134.256,456.666 140.702,455.002 147.269,454.812 L 180.123,453.908 C 189.347,453.64 197.186,447.072 199.053,438.03 L 150.123,439.38 C 147.619,439.45 145.528,437.471 145.462,434.967 C 145.392,432.459 147.37,430.368 149.876,430.3 L 203.87,428.819 L 203.998,428.819 C 206.461,428.819 208.471,430.775 208.537,433.235 C 208.587,435.206 208.447,437.185 208.099,439.128 L 244.593,456.371 C 244.628,456.388 244.664,456.402 244.699,456.422 C 249.877,459.04 256.133,458.167 260.392,454.226 Z M 183.795,404.67" stroke-linejoin="miter" stroke="none" stroke-width="0.597" fill="#4c4c4c" fill-rule="evenodd" stroke-miterlimit="79.8403193612775"/>
       <path d="M 156.94,620.258 L 156.94,663.405 C 156.94,665.919 154.907,667.952 152.398,667.952 C 149.887,667.952 147.854,665.919 147.854,663.405 L 147.854,620.258 C 147.854,617.751 149.887,615.711 152.398,615.711 C 154.907,615.711 156.94,617.751 156.94,620.258 Z M 156.94,620.258" stroke-linejoin="miter" stroke="none" stroke-width="0.597" fill="#4c4c4c" fill-rule="evenodd" stroke-miterlimit="79.8403193612775"/>
       <path d="M 191.006,620.258 L 191.006,640.701 C 191.006,643.207 188.975,645.24 186.465,645.24 C 183.954,645.24 181.921,643.207 181.921,640.701 L 181.921,620.258 C 181.921,617.751 183.954,615.711 186.465,615.711 C 188.975,615.711 191.006,617.751 191.006,620.258 Z M 191.006,620.258" stroke-linejoin="miter" stroke="none" stroke-width="0.597" fill="#4c4c4c" fill-rule="evenodd" stroke-miterlimit="79.8403193612775"/>
       <path d="M 122.87,620.258 L 122.87,640.701 C 122.87,643.207 120.84,645.24 118.331,645.24 C 115.82,645.24 113.784,643.207 113.784,640.701 L 113.784,620.258 C 113.784,617.751 115.82,615.711 118.331,615.711 C 120.84,615.711 122.87,617.751 122.87,620.258 Z M 122.87,620.258" stroke-linejoin="miter" stroke="none" stroke-width="0.597" fill="#4c4c4c" fill-rule="evenodd" stroke-miterlimit="79.8403193612775"/>
       <path d="M 110.469,579.225 C 133.737,604.495 173.129,606.119 198.399,582.851 C 223.668,559.584 225.292,520.191 202.024,494.922 C 178.757,469.653 139.364,468.028 114.095,491.296 C 88.826,514.564 87.201,553.956 110.469,579.225 Z" stroke-width="7.039" stroke="#333333" fill="#ffffff" stroke-linejoin="miter" marker-start="none" marker-end="none"/>
       <g id="Group_68" stroke-linejoin="round" stroke-linecap="round" stroke-width="7.039" fill="#ffffff" stroke-miterlimit="79.8403193612775">
        <g id="Group_69">
         <path d="M 156.244,537.067 L 156.519,586.282" fill="none"/>
         <path d="M 156.244,537.067 L 180.18,551.692" fill="none"/>
        </g>
       </g>
      </g>
     </g>
    </g>
   </g>
  </g>
 </g>
</svg>
