<?xml version="1.0" standalone="no"?>
<!DOCTYPE svg PUBLIC "-//W3C//DTD SVG 1.1//EN" "http://www.w3.org/Graphics/SVG/1.1/DTD/svg11.dtd">
<!--Generator: Xara Designer (www.xara.com), SVG filter version: 6.2.0.0-->
<svg stroke-width="0.501" stroke-linejoin="bevel" fill-rule="evenodd" xmlns:xlink="http://www.w3.org/1999/xlink" xmlns="http://www.w3.org/2000/svg" version="1.1" overflow="visible" width="723.298pt" height="723.298pt" viewBox="0 0 723.298 723.298">
 <defs>
	</defs>
 <g id="Document" fill="none" stroke="black" font-family="Times New Roman" font-size="16" transform="scale(1 -1)">
  <g id="Spread" transform="translate(0 -723.298)">
   <g id="Layer 1">
    <path d="M 142.894,649.676 C 301.885,770.427 528.925,739.394 649.676,580.404 C 770.427,421.413 739.394,194.373 580.404,73.622 C 421.413,-47.129 194.373,-16.096 73.622,142.894 C -47.129,301.885 -16.096,528.925 142.894,649.676 Z" stroke="none" stroke-width="0.188" fill="#69c15c" stroke-linejoin="round" stroke-linecap="round" marker-start="none" marker-end="none" stroke-miterlimit="79.8403193612775"/>
    <g id="Group" stroke="none">
     <g id="Group_1" stroke-linejoin="miter" stroke-width="18">
      <path d="M 471.023,296.914 L 471.023,157.797 L 483.531,155.128 L 483.531,294.245 L 471.023,296.914 Z" fill="#ffffff" marker-start="none" marker-end="none"/>
      <path d="M 361.648,226.292 L 361.648,154.307 L 388.41,152.924 L 388.41,224.908 L 361.648,226.292 Z" fill="#ffffff" marker-start="none" marker-end="none"/>
      <path d="M 268.945,277.476 L 268.945,155.268 L 295.707,152.924 L 295.707,275.131 L 268.945,277.476 Z" fill="#ffffff" marker-start="none" marker-end="none"/>
      <path d="M 561.745,395.29 L 561.745,159.66 L 581.034,159.66 L 581.034,395.29 L 561.745,395.29 Z" fill="#ffffff" stroke-opacity="0.952941" marker-start="none" marker-end="none" fill-opacity="0.952941"/>
      <path d="M 171.577,246.076 L 171.577,154.679 L 198.339,152.928 L 198.339,244.325 L 171.577,246.076 Z" fill="#ffffff" marker-start="none" marker-end="none"/>
      <path d="M 597.289,403.424 C 597.289,407.907 593.652,411.548 589.16,411.548 L 524.162,411.548 C 519.675,411.548 516.037,407.907 516.037,403.424 L 516.037,159.667 L 499.783,159.667 L 499.783,297.797 C 499.783,302.278 496.138,305.919 491.657,305.919 L 426.655,305.919 C 422.163,305.919 418.528,302.278 418.528,297.797 L 418.528,159.667 L 402.279,159.667 L 402.279,232.79 C 402.279,237.278 398.639,240.912 394.148,240.912 L 329.142,240.912 C 324.663,240.912 321.017,237.278 321.017,232.79 L 321.017,159.667 L 304.769,159.667 L 304.769,281.531 C 304.769,286.025 301.135,289.66 296.647,289.66 L 231.645,289.66 C 227.153,289.66 223.52,286.025 223.52,281.531 L 223.52,159.667 L 207.263,159.667 L 207.263,240.912 C 207.263,245.404 203.628,249.038 199.145,249.038 L 134.136,249.038 C 129.653,249.038 126.015,245.404 126.015,240.912 L 126.015,159.667 L 117.888,159.667 L 117.888,143.411 L 605.41,143.411 L 605.41,159.667 L 597.289,159.667 Z M 532.28,395.292 L 581.036,395.292 L 581.036,159.667 L 532.28,159.667 Z M 434.776,289.66 L 483.535,289.66 L 483.535,159.667 L 434.776,159.667 Z M 337.274,224.658 L 386.026,224.658 L 386.026,159.668 L 337.274,159.667 Z M 239.76,273.422 L 288.522,273.422 L 288.522,159.667 L 239.76,159.667 Z M 142.259,232.79 L 191.015,232.79 L 191.015,159.667 L 142.259,159.667 Z" fill="#012e42" fill-rule="evenodd" marker-start="none" marker-end="none"/>
      <path d="M 597.289,525.303 L 548.532,525.303 L 548.532,509.051 L 577.667,509.051 L 469.654,401.031 C 460.333,405.491 449.217,403.582 441.913,396.283 C 434.618,388.984 432.711,377.87 437.163,368.544 L 372.156,303.534 C 362.431,308.189 350.791,305.881 343.579,297.868 L 288.486,320.836 C 288.504,321.271 288.522,321.719 288.522,322.165 C 288.535,331.253 283.512,339.589 275.462,343.8 C 267.42,348.022 257.702,347.424 250.245,342.239 C 242.79,337.059 238.822,328.165 239.962,319.158 L 163.013,280.685 L 170.279,266.149 L 247.242,304.63 C 251.986,300.035 258.395,297.581 264.99,297.798 C 271.59,298.03 277.806,300.937 282.221,305.836 L 337.316,282.876 C 337.287,282.428 337.274,281.99 337.274,281.531 C 337.267,271.523 343.388,262.521 352.709,258.849 C 362.035,255.186 372.657,257.588 379.48,264.918 C 386.311,272.243 387.963,283 383.644,292.041 L 448.648,357.051 C 457.972,352.599 469.082,354.501 476.39,361.806 C 483.694,369.113 485.601,380.221 481.15,389.544 L 589.16,497.56 L 589.16,468.422 L 605.41,468.422 L 605.41,517.176 C 605.41,521.669 601.773,525.303 597.289,525.303 Z M 264.147,314.036 C 259.655,314.036 256.018,317.684 256.018,322.165 C 256.018,326.656 259.655,330.29 264.147,330.29 C 268.63,330.29 272.269,326.656 272.269,322.165 C 272.267,317.684 268.625,314.045 264.147,314.036 Z M 361.65,273.422 C 357.159,273.422 353.525,277.051 353.525,281.531 C 353.525,286.025 357.159,289.66 361.65,289.66 C 366.137,289.66 369.774,286.025 369.774,281.531 C 369.772,277.051 366.137,273.425 361.65,273.422 Z M 459.15,370.926 C 454.667,370.926 451.028,374.555 451.028,379.048 C 451.028,383.536 454.667,387.174 459.15,387.174 C 463.639,387.174 467.276,383.536 467.276,379.048 C 467.276,374.555 463.639,370.926 459.15,370.926 Z" fill="#012e42" fill-rule="evenodd" marker-start="none" marker-end="none"/>
      <path d="M 221.397,519.574 C 235.245,538.204 262.289,542.572 281.762,529.324 C 301.235,516.076 305.801,490.204 291.953,471.574 C 278.105,452.944 251.061,448.576 231.588,461.824 C 212.115,475.072 207.549,500.944 221.397,519.574 Z" fill="#ffffff" marker-start="none" marker-end="none"/>
      <path d="M 256.018,448.388 C 270.472,448.363 284.643,452.392 296.917,460.027 C 315.018,471.343 334.788,479.741 355.501,484.916 C 359.109,485.83 361.65,489.078 361.65,492.807 C 361.65,496.533 359.109,499.775 355.501,500.681 C 334.788,505.854 315.018,514.267 296.917,525.573 C 271.863,541.112 240.18,541.112 215.12,525.573 C 197.017,514.267 177.253,505.854 156.547,500.681 C 152.925,499.775 150.391,496.533 150.391,492.807 C 150.391,489.078 152.925,485.83 156.547,484.916 C 177.253,479.741 197.017,471.343 215.12,460.027 C 227.396,452.392 241.566,448.363 256.018,448.388 Z M 312.594,498.651 C 317.15,496.537 321.78,494.587 326.476,492.807 C 321.785,491 317.162,489.055 312.594,486.945 C 312.996,490.841 312.996,494.767 312.594,498.651 Z M 218.613,508.695 C 220.331,509.702 222.032,510.735 223.735,511.791 C 243.505,524.057 268.526,524.057 288.306,511.791 C 289.995,510.735 291.712,509.702 293.426,508.695 C 297.721,498.534 297.721,487.063 293.426,476.906 C 291.712,475.894 289.995,474.858 288.306,473.811 C 268.526,461.549 243.505,461.549 223.735,473.811 C 222.032,474.858 220.331,475.893 218.613,476.906 C 214.319,487.063 214.319,498.534 218.613,508.695 Z M 199.447,486.945 C 194.888,489.073 190.256,491.016 185.567,492.807 C 190.25,494.603 194.881,496.552 199.447,498.651 C 199.046,494.767 199.046,490.841 199.447,486.945 Z" fill="#012e42" fill-rule="evenodd" marker-start="none" marker-end="none"/>
      <path d="M 256.018,468.422 C 269.487,468.422 280.388,479.337 280.388,492.807 C 280.388,506.265 269.487,517.176 256.018,517.176 C 242.559,517.176 231.645,506.265 231.645,492.807 C 231.658,479.346 242.563,468.443 256.018,468.422 Z M 256.018,500.921 C 260.509,500.921 264.147,497.29 264.147,492.807 C 264.147,488.32 260.509,484.673 256.018,484.681 C 251.532,484.673 247.89,488.32 247.89,492.807 C 247.901,497.29 251.532,500.921 256.018,500.921 Z" fill="#012e42" fill-rule="evenodd" marker-start="none" marker-end="none"/>
      <path d="M 256.018,354.668 C 280.666,354.65 304.87,361.229 326.109,373.748 L 391.575,346.621 C 394.619,345.364 398.107,346.058 400.441,348.384 C 402.763,350.702 403.459,354.202 402.196,357.24 L 375.074,422.718 C 387.597,443.949 394.176,468.16 394.148,492.807 C 394.148,568.966 332.183,630.935 256.018,630.935 C 179.855,630.935 117.888,568.966 117.888,492.807 C 117.888,416.628 179.855,354.668 256.018,354.668 Z M 256.018,614.675 C 300.414,614.673 341.304,590.534 362.738,551.655 C 384.179,512.787 382.802,465.335 359.125,427.777 L 359.125,427.763 C 359.095,427.738 359.093,427.722 359.075,427.691 C 354.829,421.008 349.97,414.758 344.524,409.004 L 356.319,397.839 C 359.041,400.704 361.627,403.675 364.088,406.776 L 379.676,369.145 L 328.501,390.334 C 327.516,390.755 326.46,390.959 325.392,390.959 C 323.854,390.957 322.344,390.521 321.046,389.697 C 277.206,362.061 220.69,365.15 180.136,397.423 C 139.577,429.683 123.865,484.062 140.952,532.992 C 158.041,581.913 204.193,614.675 256.018,614.675 Z" fill="#012e42" fill-rule="evenodd" marker-start="none" marker-end="none"/>
     </g>
     <path d="M 249.618,497.916 C 252.532,501.616 257.901,502.255 261.601,499.342 C 265.301,496.428 265.94,491.059 263.027,487.359 C 260.113,483.659 254.744,483.02 251.044,485.933 C 247.344,488.847 246.705,494.216 249.618,497.916 Z" fill="#69c15c" stroke-linecap="round" stroke-width="0.913" stroke-linejoin="round" marker-start="none" marker-end="none" stroke-miterlimit="79.8403193612775"/>
    </g>
   </g>
  </g>
 </g>
</svg>
