<?xml version="1.0" standalone="no"?>
<!DOCTYPE svg PUBLIC "-//W3C//DTD SVG 1.1//EN" "http://www.w3.org/Graphics/SVG/1.1/DTD/svg11.dtd">
<!--Generator: Xara Designer (www.xara.com), SVG filter version: 6.2.0.0-->
<svg stroke-width="0.501" stroke-linejoin="bevel" fill-rule="evenodd" xmlns:xlink="http://www.w3.org/1999/xlink" xmlns="http://www.w3.org/2000/svg" version="1.1" overflow="visible" width="66.551pt" height="116.808pt" viewBox="0 0 66.551 116.808">
 <defs>
	</defs>
 <g id="Document" fill="none" stroke="black" font-family="Times New Roman" font-size="16" transform="scale(1 -1)">
  <g id="Spread" transform="translate(0 -116.808)">
   <g id="Layer 1">
    <g id="Group" fill-rule="nonzero" stroke-linejoin="round" stroke-linecap="round" stroke="none" stroke-width="6.597" fill="#ffffff" stroke-miterlimit="79.8403193612775">
     <g id="Group_1">
      <path d="M 26.071,45.283 C 26.071,49.285 26.615,52.687 27.701,55.488 C 28.787,58.29 30.188,60.748 31.903,62.864 C 33.618,64.979 35.419,66.923 37.306,68.695 C 39.193,70.468 40.994,72.24 42.709,74.013 C 44.424,75.785 45.825,77.815 46.911,80.102 C 47.998,82.389 48.541,85.019 48.541,87.992 C 48.541,90.393 48.141,92.423 47.34,94.081 C 46.54,95.739 45.425,97.111 43.995,98.197 C 42.566,99.284 40.908,100.084 39.021,100.599 C 37.135,101.113 35.162,101.371 33.104,101.371 C 30.016,101.371 27.129,100.856 24.442,99.827 C 21.755,98.798 19.268,97.254 16.981,95.196 C 15.837,93.709 15.065,92.594 14.665,91.851 C 14.265,91.108 14.122,90.279 14.236,89.364 L 13.207,87.992 L 12.006,89.021 L 0,97.94 C 2.63,101.828 5.574,105.173 8.833,107.974 C 12.092,110.776 15.809,112.948 19.982,114.492 C 24.156,116.036 28.873,116.808 34.133,116.808 C 40.651,116.808 46.34,115.55 51.199,113.034 C 56.059,110.518 59.833,107.117 62.52,102.828 C 65.207,98.54 66.551,93.766 66.551,88.506 C 66.551,84.275 65.979,80.645 64.836,77.615 C 63.692,74.584 62.206,72.012 60.376,69.896 C 58.546,67.781 56.631,65.865 54.63,64.15 C 52.629,62.435 50.742,60.691 48.97,58.919 C 47.197,57.146 45.739,55.202 44.596,53.087 C 43.452,50.971 42.881,48.37 42.881,45.283 L 42.881,36.878 L 26.071,36.878 L 26.071,45.283 Z M 34.819,0 C 31.16,0 28.072,1.258 25.557,3.774 C 23.041,6.29 21.783,9.32 21.783,12.865 C 21.783,16.41 23.041,19.44 25.557,21.955 C 28.072,24.471 31.16,25.729 34.819,25.729 C 38.364,25.729 41.394,24.471 43.91,21.955 C 46.425,19.44 47.683,16.41 47.683,12.865 C 47.683,9.32 46.425,6.29 43.91,3.774 C 41.394,1.258 38.364,0 34.819,0 Z" marker-start="none" marker-end="none"/>
     </g>
    </g>
   </g>
  </g>
 </g>
</svg>
