<?xml version="1.0" standalone="no"?>
<!DOCTYPE svg PUBLIC "-//W3C//DTD SVG 1.1//EN" "http://www.w3.org/Graphics/SVG/1.1/DTD/svg11.dtd">
<!--Generator: Xara Designer (www.xara.com), SVG filter version: 6.2.0.0-->
<svg stroke-width="0.501" stroke-linejoin="bevel" fill-rule="evenodd" xmlns:xlink="http://www.w3.org/1999/xlink" xmlns="http://www.w3.org/2000/svg" version="1.1" overflow="visible" width="802.983pt" height="743.97pt" viewBox="0 0 802.983 743.97" enable-background="new">
 <defs>
  <filter id="StainedFilter">
   <feBlend mode="multiply" in2="BackgroundImage" in="SourceGraphic" result="blend"/>
   <feComposite in="blend" in2="SourceAlpha" operator="in" result="comp"/>
  </filter>
 </defs>
 <g id="Document" fill="none" stroke="black" font-family="Times New Roman" font-size="16" transform="scale(1 -1)">
  <g id="Spread" transform="translate(0 -743.97)">
   <g id="Layer 1">
    <g id="Group">
     <g id="ClipView" stroke-linejoin="miter" stroke="none" stroke-width="0">
      <g id="Group_1" fill="#28b6f6">
       <path d="M 400.39,0.02 L 361.9,1.832 L 343.902,4.227 L 323.058,7.189 L 303.015,11.728 L 284.938,16.032 L 265.791,22.225 L 247.85,28.323 L 230.457,35.803 L 212.222,43.925 L 196.074,52.788 L 178.546,62.624 L 161.247,74.409 L 147.008,84.304 L 117.595,108.945 L 90.965,136.237 L 80.605,149.074 L 67.572,165.476 L 57.169,181.35 L 47.393,196.679 L 38.763,213.257 L 30.544,229.676 L 24.074,246.038 L 17.297,264.056 L 12.7,280.574 L 7.752,299.334 L 4.597,318.503 L 1.969,335.31 L 0.039,370.977 L 0,371.99 L 1.696,405.221 L 2.007,408.901 L 6.994,440.889 L 7.792,444.842 L 12.777,463.717 L 18.623,483.488 L 24.777,499.811 L 32.801,518.804 L 40.477,534.151 L 50.762,552.579 L 59.996,567.051 L 72.149,584.234 L 83.369,598.414 L 96.694,613.626 L 110.427,627.672 L 124.82,641.093 L 148.079,660.551 C 295.264,771.776 507.699,771.776 654.884,660.551 L 678.143,641.093 L 692.556,627.672 L 706.249,613.647 L 719.612,598.394 L 730.813,584.251 L 743.005,566.995 L 752.181,552.619 L 762.524,534.056 L 770.122,518.86 L 778.245,499.656 L 784.301,483.566 L 790.242,463.464 L 795.112,444.979 L 796.007,440.713 L 800.918,409.059 L 801.288,404.908 L 802.983,372.341 L 802.983,371.99 L 800.994,335.213 L 798.54,319.688 L 795.189,299.236 L 790.458,281.276 L 785.647,263.941 L 779.08,246.585 L 772.381,229.579 L 764.412,213.722 L 755.53,196.602 L 746.083,181.798 L 735.331,165.395 L 722.806,149.638 L 711.956,136.198 L 685.856,109.413 L 685.388,108.945 L 684.804,108.459 L 655.973,84.325 L 641.481,74.272 L 624.417,62.663 L 606.829,52.729 L 590.719,43.925 L 572.487,35.803 L 555.131,28.323 L 537.172,22.225 L 518.025,16.032 L 499.947,11.728 L 479.903,7.189 L 459.061,4.227 L 441.08,1.832 L 402.514,0.02 L 439.972,1.695 C 427.154,0.567 414.338,0 401.482,0 L 400.39,0.02 Z" marker-start="none" marker-end="none"/>
      </g>
      <clipPath id="ClipPath">
       <path d="M 400.39,0.02 L 361.9,1.832 L 343.902,4.227 L 323.058,7.189 L 303.015,11.728 L 284.938,16.032 L 265.791,22.225 L 247.85,28.323 L 230.457,35.803 L 212.222,43.925 L 196.074,52.788 L 178.546,62.624 L 161.247,74.409 L 147.008,84.304 L 117.595,108.945 L 90.965,136.237 L 80.605,149.074 L 67.572,165.476 L 57.169,181.35 L 47.393,196.679 L 38.763,213.257 L 30.544,229.676 L 24.074,246.038 L 17.297,264.056 L 12.7,280.574 L 7.752,299.334 L 4.597,318.503 L 1.969,335.31 L 0.039,370.977 L 0,371.99 L 1.696,405.221 L 2.007,408.901 L 6.994,440.889 L 7.792,444.842 L 12.777,463.717 L 18.623,483.488 L 24.777,499.811 L 32.801,518.804 L 40.477,534.151 L 50.762,552.579 L 59.996,567.051 L 72.149,584.234 L 83.369,598.414 L 96.694,613.626 L 110.427,627.672 L 124.82,641.093 L 148.079,660.551 C 295.264,771.776 507.699,771.776 654.884,660.551 L 678.143,641.093 L 692.556,627.672 L 706.249,613.647 L 719.612,598.394 L 730.813,584.251 L 743.005,566.995 L 752.181,552.619 L 762.524,534.056 L 770.122,518.86 L 778.245,499.656 L 784.301,483.566 L 790.242,463.464 L 795.112,444.979 L 796.007,440.713 L 800.918,409.059 L 801.288,404.908 L 802.983,372.341 L 802.983,371.99 L 800.994,335.213 L 798.54,319.688 L 795.189,299.236 L 790.458,281.276 L 785.647,263.941 L 779.08,246.585 L 772.381,229.579 L 764.412,213.722 L 755.53,196.602 L 746.083,181.798 L 735.331,165.395 L 722.806,149.638 L 711.956,136.198 L 685.856,109.413 L 685.388,108.945 L 684.804,108.459 L 655.973,84.325 L 641.481,74.272 L 624.417,62.663 L 606.829,52.729 L 590.719,43.925 L 572.487,35.803 L 555.131,28.323 L 537.172,22.225 L 518.025,16.032 L 499.947,11.728 L 479.903,7.189 L 459.061,4.227 L 441.08,1.832 L 402.514,0.02 L 439.972,1.695 C 427.154,0.567 414.338,0 401.482,0 L 400.39,0.02 Z"/>
      </clipPath>
      <g clip-path="url(#ClipPath)" stroke-miterlimit="79.8403193612775">
       <g id="Group_2">
        <g id="Group_3">
         <g id="Group_4">
          <path d="M 355.25,29.431 L 330.723,209.884 L 360.779,216.943 L 362.94,290.223 L 482.103,286.709 L 479.942,213.43 L 509.452,204.614 L 474.413,25.917 L 355.25,29.431 Z" fill="#ffbfa0" marker-start="none" marker-end="none"/>
          <mask id="TranspMask">
           <rect x="-10%" y="-10%" width="120%" height="120%" fill="#ffffff" stroke="none"/>
          </mask>
          <g id="Group_5" fill="#deb4a0" mask="url(#TranspMask)" filter="url(#StainedFilter)">
           <path d="M 479.942,213.43 L 362.141,263.136 L 362.926,289.764 L 482.089,286.25 L 479.942,213.43 Z" marker-start="none" marker-end="none"/>
          </g>
         </g>
         <g id="Group_6">
          <path d="M 492.297,213.04 C 498.836,311.771 462.716,423.183 495.916,431.992 C 608.524,461.843 608.418,329.062 593.126,252.541 C 574.432,159.252 577.898,118.264 603.928,23.43 C 548.202,70.611 484.526,95.924 492.297,213.04 Z" fill="#3c2417" marker-start="none" marker-end="none"/>
          <g id="Group_7">
           <path d="M 278.591,397.078 C 261.833,396.473 247.707,408.823 247.051,424.687 L 245.758,454.524 C 245.076,470.385 258.095,483.803 274.852,484.409 L 272.27,544.156 C 269.566,607.611 342.267,690.667 402.543,692.953 C 462.818,695.24 542.388,617.94 545.121,554.51 L 547.674,494.737 C 564.409,495.393 578.56,483.043 579.242,467.179 L 580.507,437.293 C 581.188,421.427 568.172,408.064 551.412,407.408 C 554.143,343.977 481.554,258.617 421.253,256.355 C 360.98,254.071 281.319,333.646 278.591,397.078 Z" fill="#ffbfa0" marker-start="none" marker-end="none"/>
           <mask id="TranspMask_1">
            <rect x="-10%" y="-10%" width="120%" height="120%" fill="#cccccc" stroke="none"/>
           </mask>
           <g id="Group_8" fill="#f6ccb8" mask="url(#TranspMask_1)" filter="url(#StainedFilter)">
            <path d="M 421.253,256.355 L 416.697,362.62 L 386.137,367.201 C 386.137,367.201 392.296,414.883 412.521,460.261 L 402.543,692.953 C 462.818,695.24 542.388,617.94 545.121,554.51 L 547.674,494.737 C 564.409,495.393 578.56,483.043 579.242,467.179 L 580.507,437.293 C 581.188,421.427 568.172,408.064 551.412,407.408 C 554.143,343.977 481.554,258.617 421.253,256.355 Z" marker-start="none" marker-end="none"/>
           </g>
           <g id="Group_9">
            <g id="Group_10">
             <mask id="TranspMask_2">
              <rect x="-10%" y="-10%" width="120%" height="120%" fill="#ffffff" stroke="none"/>
             </mask>
             <g id="Group_11" fill="#f6ccb8" mask="url(#TranspMask_2)" filter="url(#StainedFilter)">
              <path d="M 316.626,452.867 C 315.612,465.368 325.338,476.274 338.27,477.172 C 351.257,478.115 362.556,468.711 363.565,456.212 C 364.552,443.711 354.853,432.804 341.87,431.909 C 328.883,430.962 317.586,440.369 316.626,452.867 Z" marker-start="none" marker-end="none"/>
             </g>
             <path d="M 316.363,458.625 C 315.373,471.101 325.073,482.008 338.03,482.929 C 350.991,483.874 362.315,474.469 363.301,461.945 C 364.288,449.469 354.588,438.586 341.602,437.641 C 328.67,436.693 317.347,446.102 316.363,458.625 Z" fill="#3c2417" marker-start="none" marker-end="none"/>
             <path d="M 341.659,467.236 C 341.393,470.359 343.824,473.098 347.076,473.309 C 350.301,473.547 353.123,471.213 353.388,468.06 C 353.626,464.936 351.222,462.247 347.972,462.011 C 344.717,461.749 341.9,464.132 341.659,467.236 Z" fill="#ffffff" marker-start="none" marker-end="none"/>
             <path d="M 304.935,473.325 C 304.303,473.496 303.517,473.773 302.635,474.161 C 300.869,474.925 298.76,476.24 296.941,477.778 C 295.122,479.311 293.668,481.12 292.711,482.5 C 291.755,483.911 291.272,484.841 291.272,484.841 C 291.053,485.208 291.194,485.637 291.583,485.83 C 291.816,485.977 292.196,485.915 292.421,485.705 C 292.421,485.705 295.658,482.848 299.404,481.536 C 301.277,480.868 303.13,480.506 304.485,480.417 C 305.143,480.398 305.683,480.431 306.273,480.492 C 317.708,495.693 331.684,497.298 339.183,496.821 C 351.477,496 362.899,489.068 367.651,479.498 C 368.35,478.073 367.764,476.327 366.263,475.682 C 364.784,474.984 363.012,475.572 362.288,476.999 C 358.475,484.627 348.831,490.402 338.833,491.057 C 327.486,491.8 317.147,486.152 309.694,475.203 C 309.043,473.865 307.607,472.967 305.975,473.062 C 306.081,473.059 305.468,473.157 304.935,473.325 Z" fill="#3c2417" marker-start="none" marker-end="none"/>
            </g>
            <g id="Group_12">
             <mask id="TranspMask_3">
              <rect x="-10%" y="-10%" width="120%" height="120%" fill="#ffffff" stroke="none"/>
             </mask>
             <g id="Group_13" fill="#f6ccb8" mask="url(#TranspMask_3)" filter="url(#StainedFilter)">
              <path d="M 465.447,458.498 C 464.511,470.996 474.186,481.902 487.142,482.85 C 500.128,483.743 511.402,474.393 512.412,461.867 C 513.398,449.364 503.672,438.459 490.738,437.538 C 477.756,436.593 466.482,445.995 465.447,458.498 Z" marker-start="none" marker-end="none"/>
             </g>
             <path d="M 465.231,464.253 C 464.243,476.729 473.92,487.634 486.906,488.582 C 499.859,489.502 511.163,480.124 512.146,467.621 C 513.183,455.097 503.457,444.216 490.472,443.269 C 477.545,442.372 466.215,451.728 465.231,464.253 Z" fill="#3c2417" marker-start="none" marker-end="none"/>
             <path d="M 490.504,472.889 C 490.263,475.988 492.697,478.727 495.947,478.961 C 499.149,479.174 502.02,476.84 502.232,473.741 C 502.473,470.591 500.068,467.902 496.842,467.666 C 493.587,467.428 490.769,469.761 490.504,472.889 Z" fill="#ffffff" marker-start="none" marker-end="none"/>
             <path d="M 461.024,479.25 C 459.479,479.807 458.735,481.464 459.345,482.955 C 463.24,492.857 474.048,500.614 486.21,502.35 C 493.627,503.436 507.743,502.891 520.433,488.617 C 521.019,488.6 521.531,488.609 522.224,488.69 C 523.531,488.855 525.413,489.363 527.198,490.126 C 530.849,491.732 533.778,494.867 533.778,494.867 C 533.989,495.09 534.324,495.154 534.602,495.046 C 534.982,494.881 535.144,494.469 534.981,494.09 C 534.981,494.09 534.596,493.103 533.735,491.647 C 532.923,490.188 531.644,488.31 529.956,486.594 C 528.297,484.935 526.287,483.487 524.573,482.563 C 523.742,482.132 522.942,481.794 522.372,481.556 C 521.852,481.341 521.263,481.204 521.337,481.202 C 519.747,481.021 518.213,481.804 517.46,483.078 C 509.1,493.422 498.307,498.263 487.067,496.678 C 477.108,495.284 468.026,488.806 464.882,480.898 C 464.298,479.41 462.565,478.667 461.024,479.25 Z" fill="#3c2417" marker-start="none" marker-end="none"/>
            </g>
           </g>
          </g>
          <path d="M 400.11,734.453 C 550.186,740.145 608.841,574.864 571.037,480.989 C 537.164,486.638 498.381,527.7 488.466,540.771 C 493.117,526.884 501.834,508.714 516.092,498.173 C 475.145,506.612 439.675,528.409 413.573,554.838 C 416.609,540.793 426.565,525.755 441.486,512.665 C 430.394,516.927 419.519,522.537 409.106,529.056 C 385.893,543.487 364.964,562.528 349.237,582.083 C 327.61,535.058 286.254,475.868 256.681,473.903 C 207.136,553.895 250.065,728.78 400.11,734.453 Z" fill="#3c2417" marker-start="none" marker-end="none"/>
          <path d="M 364.038,330.231 C 403.452,324.017 443.591,326.584 484.044,333.941 C 439.612,299.616 401.731,293.488 364.038,330.231 Z" fill="#ffffff" marker-start="none" marker-end="none"/>
         </g>
        </g>
        <g id="Group_14">
         <path d="M 188.674,-386.224 L 188.019,-378.027 C 179.844,-262.233 175.21,-30.599 175.21,-30.599 C 175.21,-30.599 83.577,37.532 115.472,103.047 C 140.964,154.515 212.417,167.249 314.897,199.87 C 318.557,201.083 322.246,202.248 325.955,203.46 C 325.982,203.313 325.982,203.121 326.077,202.973 C 332.821,167.59 351.985,121.818 411.359,116.482 C 470.735,121.818 489.869,167.59 496.613,202.973 C 496.709,203.121 496.709,203.313 496.734,203.46 C 500.445,202.248 504.179,201.083 507.794,199.87 C 610.274,167.249 681.726,154.515 707.217,103.047 C 739.115,37.532 647.505,-30.599 647.505,-30.599 C 647.505,-30.599 642.824,-262.233 634.648,-378.027 L 633.824,-388.211 L 608.088,-399.709 C 548.277,-423.117 482.52,-436.092 413.493,-436.092 C 344.464,-436.092 278.705,-423.117 218.896,-399.709 L 188.674,-386.224 Z" fill="#ffffff" marker-start="none" marker-end="none"/>
         <g id="Group_15">
          <path d="M 390.862,104.137 L 377.912,127.762 L 411.359,153.081 L 444.757,127.762 L 431.464,104.137 L 390.862,104.137 Z" fill="#f05d44" marker-start="none" marker-end="none"/>
          <path d="M 368.62,111.414 L 285.498,190.508 C 285.647,190.557 341.137,213.21 341.137,213.21 L 358.288,198.489 L 411.359,153.081 L 368.62,111.414 Z" fill="#e6e7e8" marker-start="none" marker-end="none"/>
          <path d="M 454.044,111.414 L 411.359,153.081 L 464.376,198.489 L 481.527,213.21 C 481.527,213.21 537.071,190.557 537.142,190.508 L 454.044,111.414 Z" fill="#e6e7e8" marker-start="none" marker-end="none"/>
          <path d="M 411.359,-431.823 L 374.708,-394.325 L 390.862,98.435 L 431.464,98.435 L 447.957,-394.325 L 411.359,-431.823 Z" fill="#f05d44" marker-start="none" marker-end="none"/>
         </g>
        </g>
        <g id="Group_16">
         <g id="Group_17" fill="#f7cdb9">
          <path d="M 154.11,-210.474 L 156.125,-130.07 C 156.125,-130.07 161.24,-130.091 168.929,-130.091 C 172.835,-129.971 177.372,-129.901 182.245,-129.704 C 187.195,-129.438 192.458,-129.147 197.696,-128.855 C 218.896,-127.401 246.134,-124.61 246.134,-124.61 C 262.942,-122.573 279.873,-138.073 283.874,-160.046 C 287.829,-181.877 276.329,-202.059 257.628,-204.362 C 257.628,-204.362 228.522,-207.393 204.218,-209.089 C 198.084,-209.429 191.948,-209.77 186.199,-210.085 C 180.329,-210.278 174.847,-210.426 170.144,-210.57 C 160.514,-210.543 154.11,-210.474 154.11,-210.474 Z" marker-start="none" marker-end="none"/>
          <path d="M 171.525,-162.13 C 166.721,-157.716 165.921,-149.206 169.295,-143.336 C 169.706,-142.583 175.09,-133.342 183.363,-124.127 C 191.73,-114.739 202.886,-105.304 217.245,-103.824 C 222.655,-103.218 227.869,-108.723 228.84,-116.072 C 229.833,-123.448 226.027,-129.901 220.351,-130.48 C 210.549,-131.498 202.425,-138.508 196.386,-145.422 C 193.377,-148.819 190.904,-152.188 189.184,-154.782 C 187.461,-157.356 186.49,-159.102 186.419,-159.198 C 183.142,-165.285 176.304,-166.474 171.525,-162.13 Z" marker-start="none" marker-end="none"/>
         </g>
         <path d="M 0.893,-210.739 C -20.212,-194.829 -57.053,-142.97 -10.655,-55.412 C 27.936,17.28 83.577,83.178 142.419,134.675 L 212.225,-0.352 C 157.579,-48.136 144.383,-45.055 93.035,-98.029 C 77.465,-113.988 83.675,-119.493 84.037,-119.758 C 92.283,-125.969 141.862,-122.55 174.438,-120.078 L 182.78,-227.063 C 172.034,-227.866 178.27,-228.446 167.037,-228.446 C 131.434,-228.446 30.945,-233.419 0.893,-210.739 Z" fill="#ffffff" marker-start="none" marker-end="none"/>
        </g>
        <g id="Group_18">
         <g id="Group_19" fill="#f7cdb9">
          <path d="M 640.808,-210.085 C 635.058,-209.77 628.924,-209.429 622.763,-209.089 C 598.483,-207.393 569.328,-204.362 569.328,-204.362 C 550.675,-202.059 539.134,-181.877 543.109,-160.046 C 547.136,-138.073 564.065,-122.573 580.875,-124.61 C 580.875,-124.61 608.114,-127.401 629.287,-128.855 C 634.526,-129.147 639.815,-129.438 644.741,-129.704 C 649.613,-129.901 654.174,-129.971 658.052,-130.091 C 665.716,-130.091 670.884,-130.07 670.884,-130.07 L 672.896,-210.474 C 672.896,-210.474 666.494,-210.543 656.866,-210.57 C 652.158,-210.426 646.676,-210.278 640.808,-210.085 Z" marker-start="none" marker-end="none"/>
          <path d="M 640.562,-159.198 C 640.493,-159.102 639.498,-157.356 637.798,-154.782 C 636.079,-152.188 633.628,-148.819 630.62,-145.422 C 624.58,-138.508 616.456,-131.498 606.659,-130.48 C 600.983,-129.901 597.172,-123.448 598.169,-116.072 C 599.138,-108.723 604.33,-103.218 609.738,-103.824 C 624.122,-105.304 635.279,-114.739 643.646,-124.127 C 651.891,-133.342 657.3,-142.583 657.714,-143.336 C 661.083,-149.206 660.287,-157.716 655.484,-162.13 C 650.681,-166.474 643.841,-165.285 640.562,-159.198 Z" marker-start="none" marker-end="none"/>
         </g>
         <path d="M 659.969,-228.446 C 648.715,-228.446 654.95,-227.866 644.228,-227.063 L 652.572,-120.078 C 685.097,-122.55 734.723,-125.969 742.946,-119.758 C 743.333,-119.493 749.517,-113.988 733.973,-98.029 C 682.624,-45.055 671.368,-49.64 616.748,-1.859 L 685.319,130.793 C 744.182,79.347 799.071,17.28 837.636,-55.412 C 884.058,-142.97 847.215,-194.829 826.091,-210.739 C 796.064,-233.419 695.576,-228.446 659.969,-228.446 Z" fill="#ffffff" marker-start="none" marker-end="none"/>
        </g>
        <path d="M -155.963,341.224 C -204.418,337.978 -252.488,337.182 -299.547,342.762 C -254.327,300.866 -208.909,306.007 -155.963,341.224 Z" fill="#ffffff" marker-start="none" marker-end="none"/>
       </g>
      </g>
     </g>
     <g id="Group_20" fill="#4c4c4c" stroke="none" fill-rule="nonzero" stroke-linejoin="round" stroke-linecap="round" stroke-width="1.586" stroke-miterlimit="79.8403193612775">
      <g id="Group_21">
       <path d="M 472.262,102.583 L 488.751,102.583 C 491.442,102.583 493.418,101.972 494.681,100.75 C 495.946,99.527 496.58,97.666 496.58,95.163 C 496.58,93.516 496.22,92.175 495.506,91.146 C 494.792,90.119 493.911,89.397 492.87,88.982 C 495.096,88.378 496.605,86.895 497.405,84.537 C 497.679,83.68 497.814,82.692 497.814,81.565 C 497.814,78.871 497.183,76.896 495.921,75.633 C 494.654,74.366 492.676,73.734 489.984,73.734 L 472.262,73.734 L 472.262,102.583 Z M 490.399,82.801 C 490.399,84.449 489.574,85.274 487.925,85.274 L 479.684,85.274 L 479.684,79.505 L 487.925,79.505 C 489.574,79.505 490.399,80.33 490.399,81.974 L 490.399,82.801 Z M 489.159,94.341 C 489.159,95.994 488.335,96.812 486.688,96.812 L 479.684,96.812 L 479.684,91.045 L 486.688,91.045 C 488.335,91.045 489.159,91.87 489.159,93.516 L 489.159,94.341 Z" marker-start="none" marker-end="none"/>
       <path d="M 520.069,94.753 C 520.069,96.403 519.241,97.227 517.596,97.227 L 510.591,97.227 C 508.941,97.227 508.117,96.403 508.117,94.753 L 508.117,81.565 C 508.117,79.92 508.941,79.093 510.591,79.093 L 517.596,79.093 C 519.241,79.093 520.069,79.92 520.069,81.565 L 520.069,94.753 Z M 527.487,81.565 C 527.487,78.68 526.837,76.585 525.529,75.278 C 524.227,73.975 522.128,73.325 519.241,73.325 L 508.941,73.325 C 506.055,73.325 503.964,73.975 502.656,75.278 C 501.35,76.585 500.695,78.68 500.695,81.565 L 500.695,94.753 C 500.695,97.639 501.35,99.733 502.656,101.036 C 503.964,102.344 506.055,102.998 508.941,102.998 L 519.241,102.998 C 522.128,102.998 524.227,102.344 525.529,101.036 C 526.837,99.733 527.487,97.639 527.487,94.753 L 527.487,81.565 Z" marker-start="none" marker-end="none"/>
       <path d="M 530.739,79.709 C 538.269,79.3 543.369,79.093 546.03,79.093 C 546.664,79.093 547.166,79.28 547.533,79.647 C 547.907,80.022 548.092,80.525 548.092,81.15 L 548.092,84.861 L 538.614,84.861 C 535.731,84.861 533.629,85.513 532.33,86.818 C 531.022,88.123 530.374,90.22 530.374,93.103 L 530.374,94.341 C 530.374,97.227 531.022,99.318 532.33,100.628 C 533.629,101.927 535.731,102.583 538.614,102.583 L 553.08,102.583 L 553.08,96.812 L 540.261,96.812 C 538.614,96.812 537.791,95.994 537.791,94.341 L 537.791,93.516 C 537.791,91.87 538.614,91.045 540.261,91.045 L 547.681,91.045 C 550.375,91.045 552.347,90.416 553.613,89.147 C 554.876,87.882 555.511,85.905 555.511,83.216 L 555.511,81.15 C 555.511,78.462 554.876,76.48 553.613,75.216 C 552.347,73.951 550.375,73.325 547.681,73.325 C 546.279,73.325 544.796,73.349 543.23,73.404 L 539.437,73.569 C 536.634,73.709 533.737,73.896 530.739,74.15 L 530.739,79.709 Z" marker-start="none" marker-end="none"/>
       <path d="M 558.349,79.709 C 565.875,79.3 570.977,79.093 573.638,79.093 C 574.273,79.093 574.775,79.28 575.142,79.647 C 575.516,80.022 575.701,80.525 575.701,81.15 L 575.701,84.861 L 566.223,84.861 C 563.338,84.861 561.238,85.513 559.939,86.818 C 558.63,88.123 557.979,90.22 557.979,93.103 L 557.979,94.341 C 557.979,97.227 558.63,99.318 559.939,100.628 C 561.238,101.927 563.338,102.583 566.223,102.583 L 580.688,102.583 L 580.688,96.812 L 567.871,96.812 C 566.223,96.812 565.399,95.994 565.399,94.341 L 565.399,93.516 C 565.399,91.87 566.223,91.045 567.871,91.045 L 575.29,91.045 C 577.984,91.045 579.957,90.416 581.223,89.147 C 582.487,87.882 583.117,85.905 583.117,83.216 L 583.117,81.15 C 583.117,78.462 582.487,76.48 581.223,75.216 C 579.957,73.951 577.984,73.325 575.29,73.325 C 573.889,73.325 572.405,73.349 570.839,73.404 L 567.046,73.569 C 564.243,73.709 561.346,73.896 558.349,74.15 L 558.349,79.709 Z" marker-start="none" marker-end="none"/>
      </g>
     </g>
     <path d="M 468.59,68.995 L 468.59,64.219 L 584.317,64.219 L 584.317,68.995 L 468.59,68.995 Z" fill="#4c4c4c" stroke="none" stroke-width="1.237" stroke-linejoin="miter" marker-start="none" marker-end="none" stroke-miterlimit="79.8403193612775"/>
     <path d="M 459.064,100.971 L 459.064,66.096 C 459.064,59.472 464.44,54.096 471.064,54.096 L 584.313,54.096 C 590.937,54.096 596.313,59.472 596.313,66.096 L 596.313,100.971 C 596.313,107.595 590.937,112.971 584.313,112.971 L 471.064,112.971 C 464.44,112.971 459.064,107.595 459.064,100.971 Z" stroke-dasharray="12 6" stroke-dashoffset="0" stroke-width="3" stroke="#9497a4" stroke-linejoin="miter" marker-start="none" marker-end="none" stroke-miterlimit="79.8403193612775"/>
    </g>
   </g>
  </g>
 </g>
</svg>
