<?xml version="1.0" standalone="no"?>
<!DOCTYPE svg PUBLIC "-//W3C//DTD SVG 1.1//EN" "http://www.w3.org/Graphics/SVG/1.1/DTD/svg11.dtd">
<!--Generator: Xara Designer (www.xara.com), SVG filter version: 6.2.0.0-->
<svg stroke-width="0.501" stroke-linejoin="bevel" fill-rule="evenodd" xmlns:xlink="http://www.w3.org/1999/xlink" xmlns="http://www.w3.org/2000/svg" version="1.1" overflow="visible" width="192.84pt" height="384.739pt" viewBox="0 0 192.84 384.739">
 <defs>
  <linearGradient id="LinearGradient" gradientUnits="userSpaceOnUse" x1="0" y1="0" x2="-11.914" y2="-9.565" gradientTransform="translate(205.792 51.091)">
   <stop offset="0" stop-color="#0b83c6"/>
   <stop offset="1" stop-color="#00639b"/>
  </linearGradient>
 </defs>
 <g id="Document" fill="none" stroke="black" font-family="Times New Roman" font-size="16" transform="scale(1 -1)">
  <g id="Spread" transform="translate(0 -384.739)">
   <g id="Layer 1">
    <g id="Group">
     <g id="Group_1">
      <g id="Group_2">
       <g id="Group_3" stroke-linejoin="miter" stroke="none">
        <path d="M 187.58,38.645 L 5.954,38.645 L 5.954,353.263 L 187.58,353.263 L 187.58,38.645 Z" fill="#f2f2f2" stroke-width="0.938" marker-start="none" marker-end="none" stroke-miterlimit="79.8403193612775"/>
        <path d="M 123.236,364.939 L 69.594,364.939 C 68.864,364.939 68.269,365.603 68.269,366.416 L 68.269,370.552 C 68.269,371.365 68.864,372.029 69.594,372.029 L 123.236,372.029 C 123.965,372.029 124.561,371.365 124.561,370.552 L 124.561,366.416 C 124.561,365.603 123.965,364.939 123.236,364.939 Z" fill="#808080" stroke-width="0.938" marker-start="none" marker-end="none" stroke-miterlimit="79.8403193612775"/>
        <path d="M 133.735,365.016 L 132.519,365.016 C 131.044,365.016 129.844,366.354 129.844,367.998 L 129.844,369.268 C 129.844,370.912 131.044,372.25 132.519,372.25 L 133.735,372.25 C 135.21,372.25 136.41,370.912 136.41,369.268 L 136.41,367.998 C 136.41,366.354 135.21,365.016 133.735,365.016 Z" fill="#808080" stroke-width="0.938" marker-start="none" marker-end="none" stroke-miterlimit="79.8403193612775"/>
        <path d="M 188.085,344.294 L 4.91,344.294 L 4.91,355.308 L 188.085,355.308 L 188.085,344.294 Z" fill="#333333" stroke-width="0.938" marker-start="none" marker-end="none" stroke-miterlimit="79.8403193612775"/>
        <path d="M 181.264,345.776 L 179.365,345.776 L 179.365,351.393 L 181.264,351.393 L 181.264,345.776 Z" fill="#ffffff" stroke-width="0.938" fill-rule="evenodd" marker-start="none" marker-end="none" stroke-miterlimit="79.8403193612775"/>
        <path d="M 178.662,345.774 L 176.764,345.774 L 176.764,350.123 L 178.662,350.123 L 178.662,345.774 Z" fill="#ffffff" stroke-width="0.938" fill-rule="evenodd" marker-start="none" marker-end="none" stroke-miterlimit="79.8403193612775"/>
        <path d="M 176.052,345.774 L 174.154,345.774 L 174.154,349.014 L 176.052,349.014 L 176.052,345.774 Z" fill="#ffffff" stroke-width="0.938" fill-rule="evenodd" marker-start="none" marker-end="none" stroke-miterlimit="79.8403193612775"/>
        <path d="M 173.511,345.776 L 171.612,345.776 L 171.612,347.842 L 173.511,347.842 L 173.511,345.776 Z" fill="#ffffff" stroke-width="0.938" fill-rule="evenodd" marker-start="none" marker-end="none" stroke-miterlimit="79.8403193612775"/>
        <path d="M 0,21.17 L 0,363.568 C 0,375.255 8.509,384.739 18.994,384.739 L 173.848,384.739 C 184.329,384.739 192.84,375.255 192.84,363.568 L 192.84,21.17 C 192.84,9.483 184.329,0 173.848,0 L 18.994,0 C 8.509,0 0,9.483 0,21.17 Z M 186.887,44.423 L 186.887,354.962 C 186.887,355.152 186.745,355.308 186.574,355.308 L 6.265,355.308 C 6.093,355.308 5.952,355.152 5.952,354.962 L 5.952,44.423 C 5.952,44.233 6.093,44.077 6.265,44.077 L 186.574,44.077 C 186.745,44.077 186.887,44.233 186.887,44.423 Z" fill="#000000" stroke-width="0.938" marker-start="none" marker-end="none" stroke-miterlimit="79.8403193612775"/>
        <path d="M 75.269,31.914 C 73.471,31.914 72.016,29.934 72.016,27.48 L 72.016,13.444 C 72.016,10.986 73.471,9.006 75.269,9.006 L 117.564,9.006 C 119.365,9.006 120.816,10.986 120.816,13.444 L 120.816,27.48 C 120.816,29.934 119.365,31.914 117.564,31.914 Z M 76.708,28.145 L 116.123,28.05 C 117.422,28.047 118.469,27.288 118.469,25.519 L 118.469,15.403 C 118.469,13.631 117.422,12.872 116.123,12.87 L 76.708,12.775 C 75.411,12.774 74.364,13.631 74.364,15.403 L 74.364,25.519 C 74.364,27.288 75.411,28.15 76.708,28.145 Z" fill="#808080" stroke-width="0.938" marker-start="none" marker-end="none" stroke-miterlimit="79.8403193612775"/>
        <path d="M 169.657,63.606 C 169.657,63.788 169.494,63.937 169.297,63.937 C 169.092,63.937 168.931,63.788 168.931,63.606 C 168.931,62.253 167.74,61.155 166.257,61.155 C 164.788,61.155 163.576,62.253 163.576,63.606 C 163.576,63.788 163.419,63.937 163.215,63.937 C 163.009,63.937 162.853,63.788 162.853,63.606 C 162.853,61.997 164.174,60.678 165.891,60.512 L 165.891,59.943 L 164.926,59.943 C 164.719,59.943 164.557,59.787 164.557,59.602 C 164.557,59.411 164.719,59.267 164.926,59.267 L 167.59,59.267 C 167.789,59.267 167.963,59.411 167.963,59.602 C 167.963,59.787 167.789,59.943 167.59,59.943 L 166.615,59.943 L 166.615,60.512 C 168.326,60.678 169.657,61.997 169.657,63.606 Z" fill-rule="evenodd" stroke-width="0.117" fill="#26c6da" marker-start="none" marker-end="none" stroke-miterlimit="79.8403193612775"/>
       </g>
       <g id="Group_4">
        <g id="Group_5">
         <path d="M 33.254,164.865 L 33.254,134.459 C 33.254,131.94 35.298,129.893 37.822,129.893 L 147.305,129.893 C 149.827,129.893 151.873,131.94 151.873,134.459 L 151.873,164.865 C 151.873,167.385 149.827,169.432 147.305,169.432 L 37.822,169.432 C 35.298,169.432 33.254,167.385 33.254,164.865 Z" fill="#32ce0c" stroke="#ffffff" stroke-linejoin="miter" marker-start="none" marker-end="none"/>
         <g id="Group_6" fill-rule="nonzero" stroke-linejoin="round" stroke-linecap="round" stroke="none" stroke-width="0.804" fill="#ffffff" stroke-miterlimit="79.8403193612775">
          <g id="Group_7">
           <path d="M 41.182,155.961 L 45.616,155.961 L 45.616,154.483 L 42.807,154.483 L 42.807,151.75 L 45.04,151.75 L 45.04,150.271 L 42.807,150.271 L 42.807,147.093 L 45.616,147.093 L 45.616,145.617 L 41.182,145.617 L 41.182,155.961 Z" marker-start="none" marker-end="none"/>
           <path d="M 47.799,155.961 L 50.002,155.961 L 51.685,145.617 L 50.061,145.617 L 49.764,147.67 L 49.764,147.643 L 47.918,147.643 L 47.623,145.617 L 46.114,145.617 L 47.799,155.961 Z M 49.573,149.046 L 48.847,154.158 L 48.82,154.158 L 48.11,149.046 L 49.573,149.046 Z" marker-start="none" marker-end="none"/>
           <path d="M 52.467,155.961 L 54.875,155.961 C 55.714,155.961 56.325,155.766 56.709,155.378 C 57.094,154.989 57.287,154.39 57.287,153.581 L 57.287,152.946 C 57.287,151.873 56.931,151.193 56.221,150.907 L 56.221,150.878 C 56.615,150.76 56.894,150.52 57.056,150.154 C 57.219,149.789 57.3,149.301 57.3,148.691 L 57.3,146.874 C 57.3,146.578 57.31,146.34 57.33,146.156 C 57.349,145.974 57.399,145.793 57.478,145.617 L 55.822,145.617 C 55.764,145.784 55.722,145.942 55.705,146.09 C 55.686,146.237 55.674,146.503 55.674,146.888 L 55.674,148.78 C 55.674,149.253 55.597,149.581 55.445,149.769 C 55.292,149.956 55.029,150.05 54.656,150.05 L 54.092,150.05 L 54.092,145.617 L 52.467,145.617 L 52.467,155.961 Z M 54.684,151.527 C 55.009,151.527 55.254,151.611 55.415,151.779 C 55.579,151.948 55.66,152.228 55.66,152.622 L 55.66,153.42 C 55.66,153.795 55.593,154.065 55.459,154.233 C 55.327,154.4 55.117,154.483 54.831,154.483 L 54.092,154.483 L 54.092,151.527 L 54.684,151.527 Z" marker-start="none" marker-end="none"/>
           <path d="M 58.422,155.961 L 60.461,155.961 L 62.04,149.769 L 62.07,149.769 L 62.07,155.961 L 63.52,155.961 L 63.52,145.617 L 61.85,145.617 L 59.897,153.169 L 59.867,153.169 L 59.867,145.617 L 58.422,145.617 L 58.422,155.961 Z" marker-start="none" marker-end="none"/>
           <path d="M 67.1,155.961 L 69.422,155.961 L 70.454,148.557 L 70.485,148.557 L 71.52,155.961 L 73.838,155.961 L 73.838,145.617 L 72.302,145.617 L 72.302,153.449 L 72.272,153.449 L 71.09,145.617 L 69.73,145.617 L 68.549,153.449 L 68.52,153.449 L 68.52,145.617 L 67.1,145.617 L 67.1,155.961 Z" marker-start="none" marker-end="none"/>
           <path d="M 77.4,145.47 C 76.602,145.47 75.993,145.696 75.569,146.149 C 75.145,146.602 74.934,147.241 74.934,148.07 L 74.934,153.508 C 74.934,154.337 75.145,154.978 75.569,155.429 C 75.993,155.882 76.602,156.109 77.4,156.109 C 78.199,156.109 78.81,155.882 79.234,155.429 C 79.658,154.978 79.87,154.337 79.87,153.508 L 79.87,148.07 C 79.87,147.241 79.658,146.602 79.234,146.149 C 78.81,145.696 78.199,145.47 77.4,145.47 Z M 77.4,146.947 C 77.963,146.947 78.244,147.287 78.244,147.967 L 78.244,153.612 C 78.244,154.294 77.963,154.632 77.4,154.632 C 76.84,154.632 76.559,154.294 76.559,153.612 L 76.559,147.967 C 76.559,147.287 76.84,146.947 77.4,146.947 Z" marker-start="none" marker-end="none"/>
           <path d="M 80.962,155.961 L 83,155.961 L 84.582,149.769 L 84.61,149.769 L 84.61,155.961 L 86.061,155.961 L 86.061,145.617 L 84.391,145.617 L 82.439,153.169 L 82.409,153.169 L 82.409,145.617 L 80.962,145.617 L 80.962,155.961 Z" marker-start="none" marker-end="none"/>
           <path d="M 87.275,155.961 L 91.709,155.961 L 91.709,154.483 L 88.902,154.483 L 88.902,151.75 L 91.134,151.75 L 91.134,150.271 L 88.902,150.271 L 88.902,147.093 L 91.709,147.093 L 91.709,145.617 L 87.275,145.617 L 87.275,155.961 Z" marker-start="none" marker-end="none"/>
           <path d="M 94.13,150.021 L 92.165,155.961 L 93.893,155.961 L 95.001,152.164 L 95.03,152.164 L 96.14,155.961 L 97.721,155.961 L 95.756,150.021 L 95.756,145.617 L 94.13,145.617 L 94.13,150.021 Z" marker-start="none" marker-end="none"/>
          </g>
         </g>
        </g>
        <g id="Group_8" stroke-linejoin="round" stroke-linecap="round">
         <g id="Group_9" fill-rule="nonzero" stroke="none" stroke-width="1.013" fill="#ffffff" stroke-miterlimit="79.8403193612775">
          <g id="Group_10">
           <path d="M 135.78,148.713 C 135.78,148.375 135.705,148.067 135.553,147.791 C 135.403,147.512 135.186,147.272 134.905,147.07 C 134.623,146.866 134.281,146.697 133.881,146.563 C 133.477,146.428 133.022,146.334 132.514,146.277 L 132.514,144.603 L 131.261,144.603 L 131.261,146.211 C 130.96,146.211 130.653,146.223 130.344,146.244 C 130.036,146.266 129.737,146.298 129.445,146.342 C 129.156,146.385 128.884,146.44 128.631,146.502 C 128.375,146.565 128.153,146.637 127.958,146.719 L 127.958,147.972 C 128.158,147.894 128.39,147.814 128.651,147.732 C 128.915,147.655 129.193,147.583 129.484,147.521 C 129.773,147.458 130.072,147.403 130.376,147.364 C 130.683,147.322 130.977,147.302 131.261,147.302 L 131.261,150.458 C 130.723,150.602 130.257,150.756 129.86,150.916 C 129.463,151.077 129.135,151.26 128.876,151.466 C 128.615,151.672 128.42,151.91 128.293,152.175 C 128.167,152.443 128.104,152.754 128.104,153.113 C 128.104,153.438 128.178,153.735 128.325,154.006 C 128.475,154.273 128.686,154.51 128.961,154.709 C 129.236,154.912 129.569,155.076 129.96,155.204 C 130.348,155.333 130.781,155.418 131.261,155.464 L 131.261,156.772 L 132.514,156.772 L 132.514,155.491 C 133.118,155.469 133.678,155.408 134.187,155.303 C 134.698,155.201 135.157,155.076 135.562,154.923 L 134.965,153.87 C 134.625,153.99 134.245,154.102 133.82,154.202 C 133.396,154.299 132.96,154.364 132.514,154.393 L 132.514,151.324 C 133.046,151.175 133.517,151.018 133.926,150.859 C 134.332,150.7 134.676,150.518 134.952,150.316 C 135.225,150.117 135.434,149.886 135.573,149.625 C 135.712,149.366 135.78,149.062 135.78,148.713 Z M 134.181,148.713 C 134.181,148.873 134.153,149.019 134.094,149.152 C 134.033,149.286 133.938,149.407 133.806,149.517 C 133.678,149.625 133.506,149.727 133.294,149.818 C 133.083,149.911 132.823,150 132.514,150.088 L 132.514,147.375 C 133.077,147.442 133.495,147.595 133.772,147.832 C 134.045,148.07 134.181,148.364 134.181,148.713 Z M 129.7,153.1 C 129.7,152.926 129.727,152.768 129.778,152.629 C 129.829,152.492 129.917,152.367 130.036,152.25 C 130.157,152.137 130.317,152.035 130.517,151.942 C 130.718,151.85 130.964,151.762 131.261,151.681 L 131.261,154.364 C 130.723,154.287 130.329,154.141 130.077,153.925 C 129.825,153.708 129.7,153.434 129.7,153.1 Z" marker-start="none" marker-end="none"/>
          </g>
         </g>
         <path d="M 125.152,156.971 C 128.621,160.676 134.445,160.872 138.151,157.403 C 141.858,153.936 142.054,148.113 138.585,144.406 C 135.119,140.697 129.293,140.504 125.586,143.971 C 121.882,147.439 121.684,153.263 125.152,156.971 Z" stroke="#ffffff" stroke-width="1.489" marker-start="none" marker-end="none" stroke-miterlimit="79.8403193612775"/>
        </g>
       </g>
       <g id="Group_11" fill-rule="nonzero" stroke-linejoin="miter" stroke="none" stroke-width="0.128">
        <path d="M 56.632,264.598 C 56.432,266.133 55.123,267.283 53.576,267.283 C 52.003,267.283 50.685,266.101 50.513,264.539 L 48.993,250.718 C 48.993,250.718 48.745,247.9 53.714,247.9 C 58.686,247.9 58.437,250.718 58.437,250.718 L 56.632,264.598 Z" fill="#29b6f6" marker-start="none" marker-end="none"/>
        <path d="M 53.714,269.313 C 55.647,269.313 57.213,270.88 57.213,272.813 C 57.213,274.745 55.647,276.312 53.714,276.312 C 51.783,276.312 50.214,274.745 50.214,272.813 C 50.214,270.88 51.783,269.313 53.714,269.313 Z" fill="#29b6f6" marker-start="none" marker-end="none"/>
        <path d="M 67.847,264.225 C 67.686,265.477 66.617,266.414 65.355,266.414 C 64.07,266.414 62.993,265.451 62.854,264.175 L 61.612,252.891 C 61.612,252.891 61.409,250.591 65.465,250.591 C 69.522,250.591 69.319,252.891 69.319,252.891 L 67.847,264.225 Z" fill="#0288d1" marker-start="none" marker-end="none"/>
        <path d="M 65.465,268.073 C 67.045,268.073 68.324,269.351 68.324,270.928 C 68.324,272.506 67.045,273.786 65.465,273.786 C 63.888,273.786 62.61,272.506 62.61,270.928 C 62.61,269.351 63.888,268.073 65.465,268.073 Z" fill="#0288d1" marker-start="none" marker-end="none"/>
        <path d="M 35.275,264.185 L 42.647,270.992 L 42.875,271.258 C 43.025,271.433 43.183,271.698 43.347,272.051 C 43.51,272.401 43.594,272.745 43.594,273.071 C 43.594,273.729 43.347,274.301 42.856,274.793 C 42.362,275.282 41.791,275.529 41.135,275.529 C 40.379,275.529 39.685,275.213 39.054,274.583 L 27.145,263.43 L 27.145,272.881 C 27.145,273.639 26.891,274.269 26.389,274.772 C 25.885,275.276 25.254,275.529 24.497,275.529 C 23.74,275.529 23.111,275.276 22.605,274.772 C 22.104,274.269 21.851,273.639 21.851,272.881 L 21.851,251.33 C 21.851,250.547 22.085,249.912 22.549,249.421 C 23.018,248.928 23.665,248.68 24.497,248.68 C 25.33,248.68 25.979,248.928 26.444,249.421 C 26.912,249.912 27.145,250.547 27.145,251.33 L 27.145,256.812 L 31.491,260.782 L 40.379,249.628 L 40.606,249.4 C 40.757,249.25 41.003,249.092 41.342,248.928 C 41.683,248.764 42.054,248.68 42.461,248.68 C 43.189,248.68 43.783,248.922 44.234,249.4 C 44.69,249.88 44.917,250.461 44.917,251.14 C 44.917,251.77 44.664,252.402 44.16,253.033 L 35.275,264.185 Z" fill="#29b6f6" marker-start="none" marker-end="none"/>
        <path d="M 89.418,263.781 L 75.806,263.781 C 75.15,263.781 74.609,263.567 74.179,263.138 C 73.752,262.71 73.536,262.167 73.536,261.515 C 73.536,260.859 73.752,260.316 74.179,259.885 C 74.609,259.457 75.15,259.244 75.806,259.244 L 89.418,259.244 C 90.075,259.244 90.616,259.457 91.045,259.885 C 91.472,260.316 91.688,260.859 91.688,261.515 C 91.688,262.167 91.472,262.71 91.045,263.138 C 90.616,263.567 90.075,263.781 89.418,263.781 Z" fill="#29b6f6" marker-start="none" marker-end="none"/>
        <path d="M 128.93,275.314 C 128.301,275.314 127.746,275.119 127.269,274.729 C 126.787,274.337 126.461,273.839 126.284,273.234 L 120.915,255.084 L 120.687,255.084 L 116.075,272.101 C 115.468,274.244 114.234,275.314 112.367,275.314 C 110.529,275.314 109.307,274.244 108.7,272.101 L 104.088,255.084 L 103.86,255.084 L 98.49,273.234 C 98.315,273.839 97.988,274.337 97.508,274.729 C 97.029,275.119 96.475,275.314 95.844,275.314 C 95.089,275.314 94.458,275.063 93.954,274.558 C 93.449,274.056 93.196,273.424 93.196,272.667 C 93.196,272.163 93.322,271.531 93.577,270.776 L 99.437,251.303 C 100.142,249.034 101.528,247.9 103.596,247.9 C 104.681,247.9 105.581,248.214 106.298,248.846 C 107.018,249.475 107.517,250.295 107.794,251.303 L 112.291,267.185 L 112.482,267.185 L 117.022,251.303 C 117.298,250.295 117.788,249.475 118.495,248.846 C 119.2,248.214 120.095,247.9 121.18,247.9 C 123.246,247.9 124.633,249.034 125.338,251.303 L 131.199,270.776 L 131.313,271.078 C 131.362,271.281 131.421,271.539 131.483,271.855 C 131.546,272.169 131.577,272.44 131.577,272.667 C 131.577,273.424 131.324,274.056 130.821,274.558 C 130.317,275.063 129.687,275.314 128.93,275.314 Z" fill="#29b6f6" marker-start="none" marker-end="none"/>
        <path d="M 137.624,268.129 C 136.968,268.129 136.395,267.883 135.903,267.391 C 135.412,266.902 135.165,266.327 135.165,265.673 L 135.165,250.924 C 135.165,250.269 135.412,249.696 135.903,249.205 C 136.395,248.713 136.968,248.468 137.624,248.468 C 138.279,248.468 138.853,248.713 139.345,249.205 C 139.836,249.696 140.082,250.269 140.082,250.924 L 140.082,265.673 C 140.082,266.327 139.836,266.902 139.345,267.391 C 138.853,267.883 138.279,268.129 137.624,268.129 Z" fill="#29b6f6" marker-start="none" marker-end="none"/>
        <path d="M 137.624,275.882 C 136.792,275.882 136.111,275.628 135.581,275.125 C 135.052,274.618 134.787,273.99 134.787,273.233 C 134.787,272.479 135.052,271.848 135.581,271.344 C 136.111,270.84 136.792,270.588 137.624,270.588 C 138.456,270.588 139.136,270.84 139.667,271.344 C 140.194,271.848 140.46,272.479 140.46,273.233 C 140.46,273.99 140.194,274.618 139.667,275.125 C 139.136,275.628 138.456,275.882 137.624,275.882 Z" fill="#29b6f6" marker-start="none" marker-end="none"/>
        <path d="M 162.391,252.816 L 156.907,259.621 L 162.011,263.971 L 162.275,264.198 C 162.427,264.348 162.579,264.581 162.73,264.898 C 162.882,265.212 162.957,265.533 162.957,265.862 C 162.957,266.44 162.736,266.963 162.296,267.43 C 161.854,267.897 161.32,268.129 160.689,268.129 C 159.93,268.129 159.24,267.816 158.61,267.185 L 150.478,259.999 L 150.478,273.424 C 150.478,274.078 150.233,274.65 149.742,275.145 C 149.251,275.636 148.676,275.882 148.021,275.882 C 147.367,275.882 146.792,275.636 146.3,275.145 C 145.809,274.65 145.562,274.078 145.562,273.424 L 145.562,250.924 C 145.562,250.269 145.809,249.696 146.3,249.205 C 146.792,248.713 147.367,248.468 148.021,248.468 C 148.676,248.468 149.251,248.713 149.742,249.205 C 150.233,249.696 150.478,250.269 150.478,250.924 L 150.478,253.95 L 153.503,256.596 L 159.177,249.412 L 159.402,249.185 C 159.554,249.034 159.787,248.876 160.102,248.713 C 160.418,248.549 160.74,248.468 161.067,248.468 C 161.722,248.468 162.263,248.68 162.693,249.111 C 163.122,249.538 163.337,250.081 163.337,250.735 C 163.337,251.365 163.019,252.059 162.391,252.816 Z" fill="#29b6f6" marker-start="none" marker-end="none"/>
       </g>
       <g id="Group_12">
        <path d="M 33.252,218.544 L 33.252,188.14 C 33.252,185.619 35.298,183.573 37.819,183.573 L 147.303,183.573 C 149.825,183.573 151.871,185.619 151.871,188.14 L 151.871,218.544 C 151.871,221.065 149.825,223.112 147.303,223.112 L 37.819,223.112 C 35.298,223.112 33.252,221.065 33.252,218.544 Z" stroke="#ffffff" fill="#0b83c6" stroke-linejoin="miter" marker-start="none" marker-end="none"/>
        <g id="Group_13" fill-rule="nonzero" stroke-linejoin="round" stroke-linecap="round" stroke="none" stroke-width="0.804" fill="#ffffff" stroke-miterlimit="79.8403193612775">
         <g id="Group_14">
          <path d="M 41.18,209.642 L 43.574,209.642 C 44.383,209.642 44.988,209.426 45.392,208.991 C 45.796,208.559 46,207.923 46,207.087 L 46,206.066 C 46,205.228 45.796,204.592 45.392,204.159 C 44.988,203.726 44.383,203.51 43.574,203.51 L 42.806,203.51 L 42.806,199.299 L 41.18,199.299 L 41.18,209.642 Z M 43.574,204.988 C 43.841,204.988 44.04,205.062 44.173,205.209 C 44.306,205.357 44.374,205.608 44.374,205.964 L 44.374,207.19 C 44.374,207.543 44.306,207.795 44.173,207.944 C 44.04,208.091 43.841,208.164 43.574,208.164 L 42.806,208.164 L 42.806,204.988 L 43.574,204.988 Z" marker-start="none" marker-end="none"/>
          <path d="M 49.238,199.15 C 48.44,199.15 47.829,199.376 47.406,199.829 C 46.982,200.285 46.771,200.924 46.771,201.75 L 46.771,207.19 C 46.771,208.018 46.982,208.658 47.406,209.11 C 47.829,209.563 48.44,209.79 49.238,209.79 C 50.037,209.79 50.646,209.563 51.07,209.11 C 51.493,208.658 51.707,208.018 51.707,207.19 L 51.707,201.75 C 51.707,200.924 51.493,200.285 51.07,199.829 C 50.646,199.376 50.037,199.15 49.238,199.15 Z M 49.238,200.628 C 49.799,200.628 50.081,200.969 50.081,201.648 L 50.081,207.292 C 50.081,207.975 49.799,208.313 49.238,208.313 C 48.677,208.313 48.394,207.975 48.394,207.292 L 48.394,201.648 C 48.394,200.969 48.677,200.628 49.238,200.628 Z" marker-start="none" marker-end="none"/>
          <path d="M 54.911,199.15 C 54.123,199.15 53.528,199.375 53.124,199.824 C 52.72,200.27 52.516,200.915 52.516,201.75 L 52.516,202.342 L 54.054,202.342 L 54.054,201.632 C 54.054,200.962 54.335,200.628 54.896,200.628 C 55.173,200.628 55.38,200.709 55.524,200.872 C 55.668,201.036 55.738,201.299 55.738,201.663 C 55.738,202.096 55.641,202.479 55.443,202.807 C 55.247,203.138 54.882,203.535 54.35,203.998 C 53.68,204.587 53.212,205.123 52.946,205.6 C 52.679,206.08 52.547,206.617 52.547,207.217 C 52.547,208.037 52.754,208.668 53.168,209.118 C 53.58,209.566 54.183,209.79 54.972,209.79 C 55.747,209.79 56.337,209.566 56.736,209.118 C 57.135,208.668 57.334,208.026 57.334,207.19 L 57.334,206.761 L 55.799,206.761 L 55.799,207.292 C 55.799,207.648 55.729,207.906 55.59,208.068 C 55.453,208.231 55.251,208.313 54.986,208.313 C 54.444,208.313 54.173,207.982 54.173,207.322 C 54.173,206.948 54.272,206.597 54.475,206.273 C 54.678,205.949 55.044,205.553 55.575,205.091 C 56.256,204.5 56.724,203.962 56.98,203.48 C 57.236,202.997 57.364,202.432 57.364,201.78 C 57.364,200.932 57.155,200.285 56.736,199.829 C 56.318,199.376 55.709,199.15 54.911,199.15 Z" marker-start="none" marker-end="none"/>
          <path d="M 59.567,208.164 L 57.867,208.164 L 57.867,209.642 L 62.891,209.642 L 62.891,208.164 L 61.193,208.164 L 61.193,199.299 L 59.567,199.299 L 59.567,208.164 Z" marker-start="none" marker-end="none"/>
          <path d="M 67.293,209.642 L 69.496,209.642 L 71.181,199.299 L 69.556,199.299 L 69.259,201.352 L 69.259,201.323 L 67.413,201.323 L 67.115,199.299 L 65.61,199.299 L 67.293,209.642 Z M 69.069,202.727 L 68.343,207.839 L 68.314,207.839 L 67.605,202.727 L 69.069,202.727 Z" marker-start="none" marker-end="none"/>
          <path d="M 74.329,209.642 L 76.723,209.642 C 77.531,209.642 78.137,209.426 78.541,208.991 C 78.944,208.559 79.146,207.923 79.146,207.087 L 79.146,206.066 C 79.146,205.228 78.944,204.592 78.541,204.159 C 78.137,203.726 77.531,203.51 76.723,203.51 L 75.955,203.51 L 75.955,199.299 L 74.329,199.299 L 74.329,209.642 Z M 76.723,204.988 C 76.988,204.988 77.188,205.062 77.32,205.209 C 77.453,205.357 77.52,205.608 77.52,205.964 L 77.52,207.19 C 77.52,207.543 77.453,207.795 77.32,207.944 C 77.188,208.091 76.988,208.164 76.723,208.164 L 75.955,208.164 L 75.955,204.988 L 76.723,204.988 Z" marker-start="none" marker-end="none"/>
          <path d="M 80.036,209.642 L 82.444,209.642 C 83.282,209.642 83.894,209.448 84.277,209.058 C 84.661,208.668 84.855,208.072 84.855,207.262 L 84.855,206.627 C 84.855,205.553 84.498,204.875 83.79,204.587 L 83.79,204.559 C 84.183,204.439 84.461,204.2 84.625,203.835 C 84.787,203.47 84.869,202.982 84.869,202.373 L 84.869,200.555 C 84.869,200.26 84.879,200.021 84.898,199.837 C 84.918,199.656 84.966,199.474 85.045,199.299 L 83.39,199.299 C 83.331,199.466 83.292,199.623 83.272,199.77 C 83.254,199.918 83.243,200.184 83.243,200.569 L 83.243,202.461 C 83.243,202.934 83.167,203.262 83.015,203.45 C 82.861,203.638 82.597,203.731 82.223,203.731 L 81.661,203.731 L 81.661,199.299 L 80.036,199.299 L 80.036,209.642 Z M 82.253,205.209 C 82.577,205.209 82.821,205.293 82.985,205.46 C 83.147,205.629 83.228,205.909 83.228,206.303 L 83.228,207.102 C 83.228,207.475 83.161,207.745 83.029,207.914 C 82.895,208.081 82.686,208.164 82.4,208.164 L 81.661,208.164 L 81.661,205.209 L 82.253,205.209 Z" marker-start="none" marker-end="none"/>
          <path d="M 88.338,199.15 C 87.541,199.15 86.929,199.376 86.507,199.829 C 86.082,200.285 85.871,200.924 85.871,201.75 L 85.871,207.19 C 85.871,208.018 86.082,208.658 86.507,209.11 C 86.929,209.563 87.541,209.79 88.338,209.79 C 89.135,209.79 89.748,209.563 90.171,209.11 C 90.594,208.658 90.805,208.018 90.805,207.19 L 90.805,201.75 C 90.805,200.924 90.594,200.285 90.171,199.829 C 89.748,199.376 89.135,199.15 88.338,199.15 Z M 88.338,200.628 C 88.9,200.628 89.18,200.969 89.18,201.648 L 89.18,207.292 C 89.18,207.975 88.9,208.313 88.338,208.313 C 87.776,208.313 87.496,207.975 87.496,207.292 L 87.496,201.648 C 87.496,200.969 87.776,200.628 88.338,200.628 Z" marker-start="none" marker-end="none"/>
          <path d="M 91.898,209.642 L 94.353,209.642 C 95.188,209.642 95.8,209.448 96.184,209.058 C 96.569,208.668 96.76,208.072 96.76,207.262 L 96.76,206.849 C 96.76,206.317 96.674,205.884 96.503,205.548 C 96.331,205.214 96.066,204.973 95.712,204.825 L 95.712,204.795 C 96.519,204.519 96.922,203.801 96.922,202.637 L 96.922,201.75 C 96.922,200.953 96.713,200.345 96.294,199.926 C 95.876,199.509 95.262,199.299 94.456,199.299 L 91.898,199.299 L 91.898,209.642 Z M 94.158,205.431 C 94.485,205.431 94.729,205.516 94.89,205.683 C 95.053,205.849 95.135,206.129 95.135,206.524 L 95.135,207.102 C 95.135,207.475 95.069,207.745 94.934,207.914 C 94.802,208.081 94.592,208.164 94.308,208.164 L 93.524,208.164 L 93.524,205.431 L 94.158,205.431 Z M 94.456,200.775 C 94.74,200.775 94.953,200.852 95.09,201.006 C 95.229,201.158 95.298,201.421 95.298,201.796 L 95.298,202.697 C 95.298,203.17 95.216,203.497 95.053,203.68 C 94.89,203.861 94.623,203.953 94.248,203.953 L 93.524,203.953 L 93.524,200.775 L 94.456,200.775 Z" marker-start="none" marker-end="none"/>
          <path d="M 97.867,209.642 L 99.491,209.642 L 99.491,200.775 L 102.166,200.775 L 102.166,199.299 L 97.867,199.299 L 97.867,209.642 Z" marker-start="none" marker-end="none"/>
          <path d="M 102.953,209.642 L 107.386,209.642 L 107.386,208.164 L 104.578,208.164 L 104.578,205.431 L 106.811,205.431 L 106.811,203.953 L 104.578,203.953 L 104.578,200.775 L 107.386,200.775 L 107.386,199.299 L 102.953,199.299 L 102.953,209.642 Z" marker-start="none" marker-end="none"/>
          <path d="M 108.314,209.642 L 110.635,209.642 L 111.668,202.24 L 111.698,202.24 L 112.733,209.642 L 115.052,209.642 L 115.052,199.299 L 113.516,199.299 L 113.516,207.131 L 113.486,207.131 L 112.305,199.299 L 110.946,199.299 L 109.761,207.131 L 109.733,207.131 L 109.733,199.299 L 108.314,199.299 L 108.314,209.642 Z" marker-start="none" marker-end="none"/>
         </g>
        </g>
        <path d="M 134.045,203.448 L 133.171,206.084 L 128.133,211.125 L 126.368,209.36 L 131.409,204.322 Z M 124.032,213.462 C 123.543,212.973 123.543,212.185 124.032,211.697 L 125.328,210.398 L 127.095,212.164 L 125.796,213.462 C 125.308,213.949 124.517,213.949 124.032,213.462 Z M 138.373,210.885 L 131.423,210.885 L 132.404,209.905 L 138.373,209.905 L 138.373,199.119 L 127.587,199.119 L 127.587,205.09 L 126.607,206.069 L 126.607,199.119 C 126.607,198.578 127.046,198.139 127.587,198.139 L 138.373,198.139 C 138.914,198.139 139.355,198.578 139.355,199.119 L 139.355,209.905 C 139.355,210.447 138.914,210.885 138.373,210.885 Z" fill="#ffffff" stroke="none" stroke-width="0.857" fill-rule="evenodd" stroke-linejoin="miter" marker-start="none" marker-end="none" stroke-miterlimit="79.8403193612775"/>
       </g>
      </g>
      <path d="M 177.488,136.657 C 175.494,146.744 172.943,158.61 163.992,157.783 C 161.296,157.533 159.985,156.33 159.447,154.772 C 157.947,159.157 155.183,163.252 150.109,162.113 C 147.008,161.42 145.575,159.774 145.063,157.834 C 143.311,161.086 140.347,163.573 135.281,162.408 C 132.896,161.86 131.421,160.97 130.554,159.906 C 125.235,178.198 116.049,201.106 109.101,200.044 C 101.478,198.878 104.922,190.123 113.195,169.148 C 120.001,151.889 123.357,136.352 123.357,136.352 C 119.152,140.892 108.831,130.928 110.421,111.895 C 110.876,102.53 140.629,93.024 149.86,68.986 C 154.732,56.299 180.396,73.683 180.396,73.683 C 172.764,86.101 184.146,102.983 177.488,136.657 Z" stroke-linejoin="miter" stroke-width="1.539" stroke="#744423" fill="#ffcb9c" marker-start="none" marker-end="none" stroke-miterlimit="79.8403193612775"/>
      <path d="M 160.921,151.966 C 161.77,153.617 163.129,154.541 165.5,154.728 C 161.766,152.182 163.79,146.095 163.79,146.095 C 163.79,146.095 161.762,148.368 160.921,151.966 Z" stroke-linejoin="miter" stroke-width="1.539" stroke="none" fill="#f4b07d" marker-start="none" marker-end="none" stroke-miterlimit="79.8403193612775"/>
      <path d="M 145.766,155.886 C 146.275,158.06 148.228,158.933 149.669,159.379 C 147.781,154.967 150.07,146.482 150.07,146.482 C 150.07,146.482 147.117,151.64 145.766,155.886 Z" stroke-linejoin="miter" stroke-width="1.539" stroke="none" fill="#f4b07d" marker-start="none" marker-end="none" stroke-miterlimit="79.8403193612775"/>
      <path d="M 149.86,68.986 C 140.629,93.024 110.876,102.53 110.421,111.895 C 109.476,123.194 112.731,131.299 116.413,135.067 L 116.635,135.28 L 116.946,135.245 C 117.596,135.127 118.277,134.971 118.735,135.619 C 119.239,135.936 119.826,136.067 120.537,135.97 C 120.445,136.312 120.326,136.752 120.176,137.278 L 120.157,137.353 L 120.465,137.411 C 121.565,137.545 122.568,137.204 123.357,136.352 C 123.357,136.352 120.001,151.889 113.195,169.148 C 108.283,181.602 105.073,189.749 104.871,194.555 L 104.868,194.989 L 104.925,195.025 C 113.887,189.528 131.663,96.928 143.033,84.991 C 151.022,76.598 154.107,71.413 156.43,64.891 L 156.602,64.376 L 155.555,64.48 C 152.987,64.874 150.926,66.212 149.86,68.986 Z" stroke-linejoin="miter" stroke-width="1.539" stroke="none" fill="#f4b07d" marker-start="none" marker-end="none" stroke-miterlimit="79.8403193612775"/>
      <path d="M 130.399,158.655 C 131.119,159.792 132.562,160.675 136.246,160.952 C 132.304,158.574 133.651,153.453 134.824,146.746 C 134.824,146.746 132.554,155.504 130.399,158.655 Z" stroke-linejoin="miter" stroke-width="1.539" stroke="none" fill="#f4b07d" marker-start="none" marker-end="none" stroke-miterlimit="79.8403193612775"/>
      <path d="M 156.235,72.727 C 146.636,86.9 122.947,101.726 125.357,107.3 C 127.765,112.876 134.384,114.322 137.379,117.059 C 145.757,124.714 156.235,72.727 156.235,72.727 Z" stroke-linejoin="miter" stroke="none" stroke-width="1.004" fill="#ffcb9c" marker-start="none" marker-end="none" stroke-miterlimit="79.8403193612775"/>
      <path d="M 177.488,136.657 C 175.494,146.744 172.943,158.61 163.992,157.783 C 161.296,157.533 159.985,156.33 159.447,154.772 C 157.947,159.157 155.183,163.252 150.109,162.113 C 147.008,161.42 145.575,159.774 145.063,157.834 C 143.311,161.086 140.347,163.573 135.281,162.408 C 132.896,161.86 131.421,160.97 130.554,159.906 C 125.235,178.198 116.049,201.106 109.101,200.044 C 101.478,198.878 104.922,190.123 113.195,169.148 C 120.001,151.889 123.357,136.352 123.357,136.352 C 119.152,140.892 108.831,130.928 110.421,111.895 C 110.876,102.53 140.629,93.024 149.86,68.986 C 154.732,56.299 180.396,73.683 180.396,73.683 C 172.764,86.101 184.146,102.983 177.488,136.657 Z" stroke-linejoin="miter" stroke-width="1.539" stroke="#744423" marker-start="none" marker-end="none" stroke-miterlimit="79.8403193612775"/>
      <path d="M 123.199,120.092 L 128.288,117.903 L 125.151,125.173 L 123.199,120.092 Z" stroke-linejoin="miter" stroke="none" stroke-width="1.004" fill="#ea9368" marker-start="none" marker-end="none" stroke-miterlimit="79.8403193612775"/>
      <path d="M 142.001,70.465 L 187.787,88.18 L 190.218,65.405 L 160.334,40.208 L 142.001,70.465 Z" stroke-linejoin="miter" stroke="none" stroke-width="1.004" fill="#ffedd2" marker-start="none" marker-end="none" stroke-miterlimit="79.8403193612775"/>
      <path d="M 107.635,188.506 L 115.912,190.252 L 108.057,186.854 L 107.635,188.506 Z" stroke-linejoin="miter" stroke="none" stroke-width="1.004" fill="#f4b07d" marker-start="none" marker-end="none" stroke-miterlimit="79.8403193612775"/>
      <path d="M 115.009,189.879 L 112.577,198.007 L 116.154,190.061 L 115.009,189.879 Z" stroke-linejoin="miter" stroke="none" stroke-width="1.004" fill="#f4b07d" marker-start="none" marker-end="none" stroke-miterlimit="79.8403193612775"/>
      <path d="M 158.973,75.929 C 158.958,76.303 158.986,76.664 158.982,77.035 L 142.001,70.465 L 160.334,40.208 L 172.397,50.38 C 164.608,56.146 159.377,65.354 158.973,75.929 Z" stroke-linejoin="miter" stroke="none" stroke-width="1.004" fill="#f4d8ba" marker-start="none" marker-end="none" stroke-miterlimit="79.8403193612775"/>
      <path d="M 115.674,165.252 L 120.267,169.876 L 114.973,166.974 L 115.674,165.252 Z" stroke-linejoin="miter" stroke="none" stroke-width="1.004" fill="#f4b07d" marker-start="none" marker-end="none" stroke-miterlimit="79.8403193612775"/>
      <g id="Group_15" stroke-width="0.168" stroke-linejoin="round" stroke-linecap="round" stroke="none" stroke-miterlimit="79.8403193612775">
       <path d="M 176.738,0.384 L 160.334,40.208 C 169.919,49.874 179.977,57.976 190.218,65.405 L 192.84,61.839 L 192.84,19.986 C 192.84,10.283 185.915,2.188 176.74,0.378 L 176.738,0.384 Z" marker-start="none" marker-end="none" fill="url(#LinearGradient)"/>
       <path d="M 176.738,0.384 L 160.334,40.208 C 163.929,43.832 167.589,47.237 171.301,50.469 L 171.621,50.744 L 173.162,48.005 C 179.109,37.557 185.662,27.412 192.687,17.505 C 191.624,8.929 185.121,2.031 176.74,0.378 L 176.738,0.384 Z" stroke-opacity="0.301961" fill="#191919" marker-start="none" marker-end="none" fill-opacity="0.301961"/>
      </g>
     </g>
     <path d="M 121.645,364.939 L 67.941,364.939 C 67.212,364.939 66.616,365.604 66.616,366.417 L 66.616,370.552 C 66.616,371.364 67.212,372.031 67.941,372.031 L 121.645,372.031 C 122.377,372.031 122.973,371.364 122.973,370.552 L 122.973,366.417 C 122.973,365.604 122.377,364.939 121.645,364.939 Z" stroke-linejoin="miter" stroke="none" stroke-width="1.795" fill="#808080" marker-start="none" marker-end="none"/>
     <path d="M 132.157,365.017 L 130.939,365.017 C 129.464,365.017 128.263,366.355 128.263,367.999 L 128.263,369.268 C 128.263,370.912 129.464,372.251 130.939,372.251 L 132.157,372.251 C 133.635,372.251 134.835,370.912 134.835,369.268 L 134.835,367.999 C 134.835,366.355 133.635,365.017 132.157,365.017 Z" stroke-linejoin="miter" stroke="none" stroke-width="1.795" fill="#808080" marker-start="none" marker-end="none"/>
    </g>
   </g>
  </g>
 </g>
</svg>
