<?xml version="1.0" standalone="no"?>
<!DOCTYPE svg PUBLIC "-//W3C//DTD SVG 1.1//EN" "http://www.w3.org/Graphics/SVG/1.1/DTD/svg11.dtd">
<!--Generator: Xara Designer (www.xara.com), SVG filter version: 6.2.0.0-->
<svg stroke-width="0.501" stroke-linejoin="bevel" fill-rule="evenodd" xmlns:xlink="http://www.w3.org/1999/xlink" xmlns="http://www.w3.org/2000/svg" version="1.1" overflow="visible" width="201.076pt" height="26.594pt" viewBox="0 0 201.076 26.594">
 <defs>
	</defs>
 <g id="Document" fill="none" stroke="black" font-family="Times New Roman" font-size="16" transform="scale(1 -1)">
  <g id="Spread" transform="translate(0 -26.594)">
   <g id="Layer 1">
    <g id="Group" font-size="26.548" font-weight="bold" font-family="Open Sans" stroke-linejoin="round" stroke-linecap="round" stroke="none" fill="#0288d1">
     <path d="M 26.594,24.378 L 26.594,16.621 C 26.594,16.321 26.485,16.061 26.265,15.841 C 26.046,15.622 25.786,15.513 25.486,15.513 L 17.73,15.513 C 17.244,15.513 16.904,15.744 16.708,16.205 C 16.512,16.655 16.593,17.054 16.95,17.4 L 19.34,19.79 C 17.631,21.371 15.617,22.161 13.297,22.161 C 12.096,22.161 10.951,21.928 9.861,21.46 C 8.769,20.993 7.826,20.362 7.029,19.565 C 6.233,18.768 5.601,17.825 5.134,16.733 C 4.666,15.643 4.433,14.498 4.433,13.297 C 4.433,12.096 4.666,10.951 5.134,9.86 C 5.601,8.769 6.233,7.825 7.029,7.029 C 7.826,6.232 8.769,5.601 9.861,5.134 C 10.951,4.666 12.096,4.432 13.297,4.432 C 14.67,4.432 15.969,4.733 17.192,5.332 C 18.416,5.932 19.45,6.781 20.292,7.878 C 20.372,7.992 20.505,8.062 20.69,8.086 C 20.863,8.085 21.007,8.033 21.123,7.93 L 23.495,5.54 C 23.598,5.448 23.653,5.329 23.659,5.185 C 23.665,5.041 23.622,4.911 23.53,4.795 C 22.272,3.272 20.748,2.091 18.959,1.255 C 17.169,0.418 15.283,0 13.297,0 C 11.496,0 9.777,0.351 8.138,1.056 C 6.498,1.76 5.084,2.706 3.895,3.895 C 2.707,5.084 1.76,6.497 1.056,8.137 C 0.352,9.776 0,11.496 0,13.297 C 0,15.097 0.352,16.817 1.056,18.456 C 1.76,20.096 2.707,21.51 3.895,22.698 C 5.084,23.887 6.498,24.833 8.138,25.538 C 9.777,26.242 11.496,26.594 13.297,26.594 C 14.994,26.594 16.635,26.273 18.223,25.633 C 19.81,24.993 21.221,24.089 22.456,22.923 L 24.707,25.157 C 25.042,25.514 25.446,25.595 25.919,25.399 C 26.369,25.203 26.594,24.863 26.594,24.378 Z" stroke-width="0.475" fill-rule="nonzero" marker-start="none" marker-end="none" stroke-miterlimit="79.8403193612775"/>
     <text xml:space="preserve" transform="translate(33.138 4.017) scale(1 -1)" stroke-width="0.664" stroke-miterlimit="79.8403193612775"><tspan x="0" y="0">BOOK A</tspan><tspan x="102.41" y="0">GAIN</tspan></text>
    </g>
   </g>
  </g>
 </g>
</svg>
