<?xml version="1.0" standalone="no"?>
<!DOCTYPE svg PUBLIC "-//W3C//DTD SVG 1.1//EN" "http://www.w3.org/Graphics/SVG/1.1/DTD/svg11.dtd">
<!--Generator: Xara Designer (www.xara.com), SVG filter version: 6.2.0.0-->
<svg stroke-width="0.501" stroke-linejoin="bevel" fill-rule="evenodd" xmlns:xlink="http://www.w3.org/1999/xlink" xmlns="http://www.w3.org/2000/svg" version="1.1" overflow="visible" width="124.738pt" height="124.743pt" viewBox="0 0 124.738 124.743">
 <defs>
	</defs>
 <g id="Document" fill="none" stroke="black" font-family="Times New Roman" font-size="16" transform="scale(1 -1)">
  <g id="Spread" transform="translate(0 -124.743)">
   <g id="Layer 1">
    <g id="Group" stroke-linejoin="round" stroke-linecap="round" stroke-width="6" stroke-miterlimit="79.8403193612775">
     <g id="Group_1" stroke="#0288d1" fill="#2eb2f6">
      <path d="M 20.927,104.903 C 44.404,127.774 82.032,127.289 104.903,103.811 C 127.774,80.334 127.289,42.706 103.811,19.835 C 80.334,-3.036 42.706,-2.551 19.835,20.927 C -3.036,44.404 -2.551,82.032 20.927,104.903 Z" marker-start="none" marker-end="none"/>
     </g>
     <path d="M 19.837,20.926 C -3.035,44.405 -2.549,82.033 20.926,104.903 C 42.7,126.114 76.646,127.236 99.702,108.561 L 99.689,108.548 L 105.827,114.492 L 114.312,86.268 L 83.835,93.193 L 89.45,98.632 C 71.926,111.747 46.955,110.531 30.788,94.782 C 12.897,77.355 12.528,48.68 29.957,30.787 C 45.376,14.958 69.598,12.845 87.367,24.636 L 95.153,12.851 L 95.159,12.845 C 95.242,12.899 95.326,12.957 95.233,12.899 L 99.984,16.412 C 98.504,15.195 96.976,14.063 95.233,12.899 L 95.159,12.845 C 71.84,-2.62 40.066,0.159 19.837,20.926 Z" stroke="#0288d1" fill="#ffffff" marker-start="none" marker-end="none"/>
     <g id="Group_2" stroke="none" fill="#ffffff">
      <path d="M 46.639,45.136 C 45.379,46.539 44.75,48.554 44.75,51.181 C 44.75,53.734 45.479,55.73 46.941,57.157 C 48.403,58.586 50.429,59.3 53.019,59.3 C 54.643,59.3 56.208,58.975 57.716,58.326 L 56.601,55.641 C 55.448,56.218 54.246,56.506 52.997,56.506 C 51.547,56.506 50.385,56.02 49.511,55.044 C 48.638,54.071 48.201,52.763 48.201,51.117 C 48.201,49.399 48.554,48.089 49.258,47.183 C 49.96,46.275 50.986,45.823 52.326,45.823 C 53.026,45.823 53.736,45.896 54.46,46.039 L 54.46,49.339 L 51.459,49.339 L 51.459,52.133 L 57.738,52.133 L 57.738,43.929 C 56.721,43.597 55.762,43.364 54.866,43.23 C 53.968,43.098 53.049,43.031 52.11,43.031 C 49.721,43.031 47.894,43.734 46.639,45.136 Z M 28.611,43.248 L 34.196,59.137 L 38.298,59.137 L 43.903,43.248 L 40.29,43.248 L 39.142,47.013 L 33.373,47.013 L 32.225,43.248 L 28.611,43.248 Z M 59.513,43.248 L 65.1,59.137 L 69.202,59.137 L 74.808,43.248 L 71.192,43.248 L 70.047,47.013 L 64.276,47.013 L 63.129,43.248 L 59.513,43.248 Z M 76.799,43.248 L 76.799,59.071 L 80.155,59.071 L 80.155,43.248 L 76.799,43.248 Z M 84.136,43.248 L 84.136,59.071 L 88.369,59.071 L 95.242,47.218 L 95.318,47.218 C 95.21,49.276 95.157,50.731 95.157,51.581 L 95.157,59.071 L 98.176,59.071 L 98.176,43.248 L 93.911,43.248 L 87.027,55.219 L 86.929,55.219 C 87.067,53.104 87.135,51.597 87.135,50.694 L 87.135,43.248 L 84.136,43.248 Z M 36.551,55.619 C 36.417,56.067 36.32,56.421 36.262,56.68 C 36.025,55.757 35.342,53.473 34.217,49.829 L 38.34,49.829 C 37.28,53.24 36.683,55.172 36.551,55.619 Z M 67.453,55.619 C 67.318,56.067 67.223,56.421 67.166,56.68 C 66.929,55.757 66.246,53.473 65.119,49.829 L 69.244,49.829 C 68.183,53.24 67.587,55.172 67.453,55.619 Z M 46.737,71.306 C 45.438,72.715 44.788,74.734 44.788,77.368 C 44.788,80.002 45.442,82.013 46.742,83.403 C 48.046,84.79 49.912,85.485 52.343,85.485 C 54.777,85.485 56.636,84.786 57.926,83.385 C 59.213,81.986 59.855,79.974 59.855,77.347 C 59.855,74.726 59.209,72.715 57.91,71.306 C 56.609,69.899 54.748,69.194 52.323,69.194 C 49.9,69.194 48.038,69.899 46.737,71.306 Z M 64.379,71.306 C 63.082,72.715 62.432,74.734 62.432,77.368 C 62.432,80.002 63.083,82.013 64.384,83.403 C 65.687,84.79 67.555,85.485 69.987,85.485 C 72.419,85.485 74.277,84.786 75.567,83.385 C 76.855,81.986 77.497,79.974 77.497,77.347 C 77.497,74.726 76.85,72.715 75.551,71.306 C 74.253,69.899 72.39,69.194 69.965,69.194 C 67.541,69.194 65.678,69.899 64.379,71.306 Z M 30.599,69.413 L 30.599,85.237 L 35.526,85.237 C 37.77,85.237 39.397,84.917 40.411,84.281 C 41.425,83.639 41.932,82.625 41.932,81.231 C 41.932,80.286 41.71,79.511 41.267,78.904 C 40.824,78.298 40.233,77.933 39.497,77.813 L 39.497,77.703 C 40.502,77.48 41.224,77.061 41.668,76.447 C 42.113,75.834 42.334,75.019 42.334,74.001 C 42.334,72.558 41.813,71.433 40.768,70.626 C 39.727,69.816 38.31,69.413 36.522,69.413 L 30.599,69.413 Z M 80.777,69.413 L 80.777,85.237 L 84.133,85.237 L 84.133,77.996 L 85.453,79.856 L 89.74,85.237 L 93.464,85.237 L 87.942,78.234 L 93.506,69.413 L 89.697,69.413 L 85.551,76.08 L 84.133,75.061 L 84.133,69.413 L 80.777,69.413 Z M 56.338,77.347 C 56.338,80.91 55.007,82.692 52.343,82.692 C 51.009,82.692 50.003,82.244 49.325,81.347 C 48.646,80.448 48.307,79.115 48.307,77.347 C 48.307,75.579 48.643,74.247 49.314,73.352 C 49.984,72.457 50.988,72.01 52.323,72.01 C 55,72.01 56.338,73.788 56.338,77.347 Z M 73.981,77.347 C 73.981,80.91 72.649,82.692 69.987,82.692 C 68.654,82.692 67.645,82.244 66.967,81.347 C 66.289,80.448 65.95,79.115 65.95,77.347 C 65.95,75.579 66.286,74.247 66.957,73.352 C 67.626,72.457 68.63,72.01 69.965,72.01 C 72.643,72.01 73.981,73.788 73.981,77.347 Z M 38.188,72.715 C 38.628,73.066 38.849,73.609 38.849,74.336 C 38.849,75.651 37.909,76.308 36.033,76.308 L 33.957,76.308 L 33.957,72.184 L 36.143,72.184 C 37.066,72.184 37.748,72.36 38.188,72.715 Z M 37.879,79.392 C 38.287,79.673 38.492,80.14 38.492,80.789 C 38.492,81.397 38.269,81.829 37.826,82.094 C 37.382,82.356 36.681,82.488 35.72,82.488 L 33.957,82.488 L 33.957,78.969 L 35.903,78.969 C 36.814,78.969 37.472,79.111 37.879,79.392 Z" marker-start="none" marker-end="none"/>
     </g>
    </g>
   </g>
  </g>
 </g>
</svg>
