<?xml version="1.0" standalone="no"?>
<!DOCTYPE svg PUBLIC "-//W3C//DTD SVG 1.1//EN" "http://www.w3.org/Graphics/SVG/1.1/DTD/svg11.dtd">
<!--Generator: Xara Designer (www.xara.com), SVG filter version: 6.2.0.0-->
<svg stroke-width="0.501" stroke-linejoin="bevel" fill-rule="evenodd" xmlns:xlink="http://www.w3.org/1999/xlink" xmlns="http://www.w3.org/2000/svg" version="1.1" overflow="visible" width="97.321pt" height="123.003pt" viewBox="0 0 97.321 123.003">
 <defs>
	</defs>
 <g id="Document" fill="none" stroke="black" font-family="Times New Roman" font-size="16" transform="scale(1 -1)">
  <g id="Spread" transform="translate(0 -123.003)">
   <g id="Layer 1">
    <g id="Group">
     <path d="M 0,123.003 L 0,0 L 50.386,0 L 50.386,123.003 L 0,123.003 Z" stroke="none" fill="#0288d1" stroke-width="2.681" stroke-linejoin="round" stroke-linecap="round" marker-start="none" marker-end="none" stroke-miterlimit="79.8403193612775"/>
     <path d="M 64.868,71.558 C 63.613,72.165 61.784,72.035 60.79,71.267 C 59.795,70.499 60.009,69.379 61.264,68.772 C 62.519,68.165 64.348,68.295 65.342,69.063 C 66.337,69.831 66.123,70.951 64.868,71.558 Z" stroke="none" fill="#ffffff" stroke-width="0" stroke-linejoin="miter" marker-start="none" marker-end="none" stroke-miterlimit="79.8403193612775"/>
     <path d="M 46.935,83.285 L 46.935,0 L 97.321,0 L 97.321,83.285 L 46.935,83.285 Z" stroke="none" fill="#0288d1" stroke-width="2.681" stroke-linejoin="round" stroke-linecap="round" marker-start="none" marker-end="none" stroke-miterlimit="79.8403193612775"/>
     <path d="M 68.871,23.425 L 68.871,0 L 85.357,0 L 85.357,23.425 L 68.871,23.425 Z" stroke="none" fill="#ffffff" stroke-width="2.681" stroke-linejoin="miter" stroke-linecap="round" marker-start="none" marker-end="none" stroke-miterlimit="79.8403193612775"/>
     <g id="Group_1" stroke-linejoin="miter" stroke-linecap="round" stroke="none" stroke-width="1.621" fill="#ffffff" stroke-miterlimit="79.8403193612775">
      <path d="M 4.001,11.714 L 4.001,3.577 L 13.962,3.577 L 13.962,11.714 L 4.001,11.714 Z" marker-start="none" marker-end="none"/>
      <path d="M 4,20.813 L 13.961,20.813 L 13.961,28.95 L 4,28.95 L 4,20.813 Z" marker-start="none" marker-end="none"/>
      <path d="M 4,38.049 L 13.961,38.049 L 13.961,46.186 L 4,46.186 L 4,38.049 Z" marker-start="none" marker-end="none"/>
      <path d="M 4,55.285 L 13.961,55.285 L 13.961,63.422 L 4,63.422 L 4,55.285 Z" marker-start="none" marker-end="none"/>
      <path d="M 4,72.521 L 13.961,72.521 L 13.961,80.658 L 4,80.658 L 4,72.521 Z" marker-start="none" marker-end="none"/>
      <path d="M 4,89.757 L 13.961,89.757 L 13.961,97.894 L 4,97.894 L 4,89.757 Z" marker-start="none" marker-end="none"/>
      <path d="M 4,115.131 L 4,106.994 L 13.961,106.994 L 13.961,115.131 L 4,115.131 Z" marker-start="none" marker-end="none"/>
     </g>
     <g id="Group_2" stroke-linejoin="miter" stroke-linecap="round" stroke="none" stroke-width="1.621" fill="#ffffff" stroke-miterlimit="79.8403193612775">
      <path d="M 20.606,11.714 L 20.606,3.577 L 30.567,3.577 L 30.567,11.714 L 20.606,11.714 Z" marker-start="none" marker-end="none"/>
      <path d="M 20.605,20.813 L 30.566,20.813 L 30.566,28.95 L 20.605,28.95 L 20.605,20.813 Z" marker-start="none" marker-end="none"/>
      <path d="M 20.605,38.049 L 30.566,38.049 L 30.566,46.186 L 20.605,46.186 L 20.605,38.049 Z" marker-start="none" marker-end="none"/>
      <path d="M 20.605,55.285 L 30.566,55.285 L 30.566,63.422 L 20.605,63.422 L 20.605,55.285 Z" marker-start="none" marker-end="none"/>
      <path d="M 20.604,72.521 L 30.565,72.521 L 30.565,80.658 L 20.604,80.658 L 20.604,72.521 Z" marker-start="none" marker-end="none"/>
      <path d="M 20.604,89.757 L 30.565,89.757 L 30.565,97.894 L 20.604,97.894 L 20.604,89.757 Z" marker-start="none" marker-end="none"/>
      <path d="M 20.604,115.131 L 20.604,106.994 L 30.565,106.994 L 30.565,115.131 L 20.604,115.131 Z" marker-start="none" marker-end="none"/>
     </g>
     <g id="Group_3" stroke-linejoin="miter" stroke-linecap="round" stroke="none" stroke-width="1.621" fill="#ffffff" stroke-miterlimit="79.8403193612775">
      <path d="M 36.975,11.714 L 36.975,3.577 L 46.936,3.577 L 46.936,11.714 L 36.975,11.714 Z" marker-start="none" marker-end="none"/>
      <path d="M 36.974,20.813 L 46.935,20.813 L 46.935,28.95 L 36.974,28.95 L 36.974,20.813 Z" marker-start="none" marker-end="none"/>
      <path d="M 36.974,38.049 L 46.935,38.049 L 46.935,46.186 L 36.974,46.186 L 36.974,38.049 Z" marker-start="none" marker-end="none"/>
      <path d="M 36.974,55.285 L 46.935,55.285 L 46.935,63.422 L 36.974,63.422 L 36.974,55.285 Z" marker-start="none" marker-end="none"/>
      <path d="M 36.973,72.521 L 46.934,72.521 L 46.934,80.658 L 36.973,80.658 L 36.973,72.521 Z" marker-start="none" marker-end="none"/>
      <path d="M 36.973,89.757 L 46.934,89.757 L 46.934,97.894 L 36.973,97.894 L 36.973,89.757 Z" marker-start="none" marker-end="none"/>
      <path d="M 36.973,115.131 L 36.973,106.994 L 46.934,106.994 L 46.934,115.131 L 36.973,115.131 Z" marker-start="none" marker-end="none"/>
     </g>
     <path d="M 85.361,46.397 L 85.361,38.26 L 95.322,38.26 L 95.322,46.397 L 85.361,46.397 Z" stroke="none" fill="#ffffff" stroke-width="1.621" stroke-linejoin="miter" stroke-linecap="round" marker-start="none" marker-end="none" stroke-miterlimit="79.8403193612775"/>
     <g id="Group_4" stroke-miterlimit="79.8403193612775">
      <g id="Group_5">
       <g id="Group_6">
        <g id="Group_7">
         <path d="M 75.371,38.975 L 90.665,54.233 L 85.666,58.618 L 65.124,58.642 L 60.115,54.27 L 75.371,38.975 Z" fill="none" stroke="#ffffff" stroke-width="2.428" fill-rule="nonzero" stroke-linejoin="round" stroke-linecap="round" marker-start="none" marker-end="none" stroke-miterlimit="212.754491017964"/>
         <path d="M 70.498,45.966 L 70.498,56.263 L 73.269,56.263 L 73.269,52.629 L 74.557,52.629 L 77.392,56.263 L 81.471,56.146 L 76.598,51.273 L 81.471,46.245 L 77.392,46.127 L 74.557,49.763 L 73.269,49.763 L 73.269,45.966 L 70.498,45.966 Z" stroke="none" fill="#ffffff" stroke-width="0.022" stroke-linejoin="miter" marker-start="none" marker-end="none" stroke-miterlimit="212.754491017964"/>
        </g>
       </g>
      </g>
     </g>
     <path d="M 53.16,28.789 L 53.16,20.652 L 63.121,20.652 L 63.121,28.789 L 53.16,28.789 Z" stroke="none" fill="#ffffff" stroke-width="1.621" stroke-linejoin="miter" stroke-linecap="round" marker-start="none" marker-end="none" stroke-miterlimit="79.8403193612775"/>
     <path d="M 53.163,46.399 L 53.163,38.262 L 63.124,38.262 L 63.124,46.399 L 53.163,46.399 Z" stroke="none" fill="#ffffff" stroke-width="1.621" stroke-linejoin="miter" stroke-linecap="round" marker-start="none" marker-end="none" stroke-miterlimit="79.8403193612775"/>
     <path d="M 53.16,46.397 L 53.16,38.26 L 63.121,38.26 L 63.121,46.397 L 53.16,46.397 Z" stroke="none" fill="#ffffff" stroke-width="1.621" stroke-linejoin="miter" stroke-linecap="round" marker-start="none" marker-end="none" stroke-miterlimit="79.8403193612775"/>
     <path d="M 53.16,79.773 L 53.16,71.636 L 63.121,71.636 L 63.121,79.773 L 53.16,79.773 Z" stroke="none" fill="#ffffff" stroke-width="1.621" stroke-linejoin="miter" stroke-linecap="round" marker-start="none" marker-end="none" stroke-miterlimit="79.8403193612775"/>
     <path d="M 68.871,79.773 L 68.871,71.636 L 78.832,71.636 L 78.832,79.773 L 68.871,79.773 Z" stroke="none" fill="#ffffff" stroke-width="1.621" stroke-linejoin="miter" stroke-linecap="round" marker-start="none" marker-end="none" stroke-miterlimit="79.8403193612775"/>
     <path d="M 85.357,79.773 L 85.357,71.636 L 95.318,71.636 L 95.318,79.773 L 85.357,79.773 Z" stroke="none" fill="#ffffff" stroke-width="1.621" stroke-linejoin="miter" stroke-linecap="round" marker-start="none" marker-end="none" stroke-miterlimit="79.8403193612775"/>
     <path d="M 85.36,69.638 L 85.36,61.501 L 95.321,61.501 L 95.321,69.638 L 85.36,69.638 Z" stroke="none" fill="#ffffff" stroke-width="1.621" stroke-linejoin="miter" stroke-linecap="round" marker-start="none" marker-end="none" stroke-miterlimit="79.8403193612775"/>
    </g>
   </g>
  </g>
 </g>
</svg>
