<?xml version="1.0" standalone="no"?>
<!DOCTYPE svg PUBLIC "-//W3C//DTD SVG 1.1//EN" "http://www.w3.org/Graphics/SVG/1.1/DTD/svg11.dtd">
<!--Generator: Xara Designer (www.xara.com), SVG filter version: 6.2.0.0-->
<svg stroke-width="0.501" stroke-linejoin="bevel" fill-rule="evenodd" xmlns:xlink="http://www.w3.org/1999/xlink" xmlns="http://www.w3.org/2000/svg" version="1.1" overflow="visible" width="86.942pt" height="67.572pt" viewBox="0 0 86.942 67.572">
 <defs>
	</defs>
 <g id="Document" fill="none" stroke="black" font-family="Times New Roman" font-size="16" transform="scale(1 -1)">
  <g id="Spread" transform="translate(0 -67.572)">
   <g id="Layer 1">
    <path d="M 83.443,56.795 C 84.444,55.797 84.942,54.585 84.942,53.158 C 84.942,51.73 84.444,50.518 83.443,49.52 L 44.703,10.777 L 37.425,3.499 C 36.427,2.501 35.212,2 33.787,2 C 32.36,2 31.145,2.501 30.147,3.499 L 22.868,10.777 L 3.499,30.147 C 2.501,31.145 2,32.36 2,33.788 C 2,35.212 2.501,36.427 3.499,37.425 L 10.777,44.703 C 11.775,45.701 12.987,46.202 14.414,46.202 C 15.842,46.202 17.054,45.701 18.052,44.703 L 33.787,28.915 L 68.89,64.073 C 69.887,65.071 71.099,65.572 72.527,65.572 C 73.954,65.572 75.169,65.071 76.167,64.073 L 83.443,56.795 Z" stroke="#000000" fill="#ffffff" stroke-width="4" fill-rule="nonzero" stroke-linejoin="round" stroke-linecap="round" marker-start="none" marker-end="none" stroke-miterlimit="79.8403193612775"/>
   </g>
  </g>
 </g>
</svg>
