<?xml version="1.0" standalone="no"?>
<!DOCTYPE svg PUBLIC "-//W3C//DTD SVG 1.1//EN" "http://www.w3.org/Graphics/SVG/1.1/DTD/svg11.dtd">
<!--Generator: Xara Designer (www.xara.com), SVG filter version: 6.2.0.0-->
<svg stroke-width="0.501" stroke-linejoin="bevel" fill-rule="evenodd" xmlns:xlink="http://www.w3.org/1999/xlink" xmlns="http://www.w3.org/2000/svg" version="1.1" overflow="visible" width="100.939pt" height="100.94pt" viewBox="0 0 100.939 100.94">
 <defs>
	</defs>
 <g id="Document" fill="none" stroke="black" font-family="Times New Roman" font-size="16" transform="scale(1 -1)">
  <g id="Spread" transform="translate(0 -100.94)">
   <g id="Layer 1">
    <g id="Group" fill="#0288d1" stroke="none">
     <g id="Group_1" stroke-linejoin="round" stroke-linecap="round" fill-rule="nonzero" stroke-width="12.386" stroke-miterlimit="79.8403193612775">
      <path d="M 70.329,40.448 C 70.329,38.727 69.948,37.16 69.174,35.761 C 68.415,34.346 67.31,33.129 65.881,32.101 C 64.45,31.063 62.721,30.201 60.684,29.524 C 58.632,28.844 56.328,28.365 53.742,28.075 L 53.742,19.569 L 47.379,19.569 L 47.379,27.739 C 45.853,27.739 44.296,27.805 42.726,27.907 C 41.159,28.02 39.643,28.177 38.162,28.401 C 36.69,28.619 35.312,28.904 34.024,29.216 C 32.727,29.537 31.601,29.901 30.609,30.32 L 30.609,36.681 C 31.627,36.284 32.803,35.877 34.131,35.465 C 35.468,35.073 36.88,34.707 38.355,34.386 C 39.827,34.07 41.343,33.795 42.889,33.597 C 44.443,33.378 45.939,33.276 47.379,33.276 L 47.379,49.304 C 44.651,50.037 42.278,50.821 40.264,51.63 C 38.253,52.445 36.585,53.377 35.266,54.425 C 33.942,55.474 32.954,56.673 32.315,58.023 C 31.667,59.387 31.352,60.965 31.352,62.787 C 31.352,64.431 31.723,65.942 32.476,67.318 C 33.23,68.677 34.303,69.877 35.703,70.89 C 37.097,71.92 38.789,72.752 40.773,73.404 C 42.748,74.056 44.946,74.493 47.379,74.723 L 47.379,81.365 L 53.742,81.365 L 53.742,74.865 C 56.81,74.748 59.651,74.437 62.236,73.903 C 64.833,73.389 67.167,72.752 69.219,71.978 L 66.186,66.63 C 64.461,67.241 62.532,67.811 60.378,68.319 C 58.221,68.808 56.007,69.139 53.742,69.285 L 53.742,53.702 C 56.444,52.939 58.837,52.149 60.908,51.341 C 62.979,50.536 64.726,49.604 66.121,48.588 C 67.509,47.574 68.568,46.397 69.271,45.078 C 69.977,43.762 70.329,42.213 70.329,40.448 Z M 62.213,40.448 C 62.213,41.256 62.069,41.999 61.769,42.672 C 61.458,43.355 60.976,43.97 60.307,44.524 C 59.651,45.078 58.78,45.589 57.706,46.052 C 56.632,46.526 55.309,46.979 53.742,47.422 L 53.742,33.653 C 56.607,33.994 58.725,34.767 60.129,35.974 C 61.518,37.174 62.213,38.672 62.213,40.448 Z M 39.454,62.721 C 39.454,61.834 39.592,61.036 39.847,60.329 C 40.107,59.631 40.554,58.994 41.159,58.404 C 41.775,57.829 42.586,57.31 43.602,56.836 C 44.626,56.374 45.873,55.926 47.379,55.514 L 47.379,69.139 C 44.651,68.747 42.651,68.009 41.368,66.914 C 40.091,65.81 39.454,64.415 39.454,62.721 Z" marker-start="none" marker-end="none"/>
     </g>
     <path d="M 15.984,13.603 C -4.35,32.644 -5.435,64.601 13.602,84.958 C 32.639,105.3 64.607,106.367 84.948,87.336 C 105.299,68.3 106.371,36.337 87.33,15.99 C 68.304,-4.361 36.329,-5.427 15.984,13.603 Z M 81.811,21.153 C 97.999,38.452 97.088,65.631 79.785,81.816 C 62.492,97.996 35.307,97.089 19.122,79.795 C 2.938,62.49 3.857,35.313 21.149,19.122 C 38.446,2.943 65.635,3.851 81.811,21.153 Z" stroke-width="0.5" fill-rule="evenodd" marker-start="none" marker-end="none" stroke-miterlimit="79.8403193612775"/>
    </g>
   </g>
  </g>
 </g>
</svg>
