<?xml version="1.0" standalone="no"?>
<!DOCTYPE svg PUBLIC "-//W3C//DTD SVG 1.1//EN" "http://www.w3.org/Graphics/SVG/1.1/DTD/svg11.dtd">
<!--Generator: Xara Designer (www.xara.com), SVG filter version: 6.2.0.0-->
<svg stroke-width="0.501" stroke-linejoin="bevel" fill-rule="evenodd" xmlns:xlink="http://www.w3.org/1999/xlink" xmlns="http://www.w3.org/2000/svg" version="1.1" overflow="visible" width="132.2pt" height="132.2pt" viewBox="0 0 132.2 132.2">
 <defs>
	</defs>
 <g id="Document" fill="none" stroke="black" font-family="Times New Roman" font-size="16" transform="scale(1 -1)">
  <g id="Spread" transform="translate(0 -132.2)">
   <g id="Layer 1">
    <g id="Group">
     <path d="M 21.1,110.35 C 45.526,135.19 85.51,135.526 110.35,111.1 C 135.19,86.674 135.526,46.69 111.1,21.85 C 86.674,-2.99 46.69,-3.326 21.85,21.1 C -2.99,45.526 -3.326,85.51 21.1,110.35 Z" stroke="#0288d1" fill="#2eb2f6" stroke-width="6" stroke-linejoin="miter" marker-start="none" marker-end="none" stroke-miterlimit="79.8403193612775"/>
     <g id="Group_1" fill="#ffffff" stroke="none">
      <g id="Group_2" stroke-linejoin="round" stroke-linecap="round" fill-rule="nonzero" stroke-width="12.386" stroke-miterlimit="79.8403193612775">
       <path d="M 84.696,57.342 C 84.696,55.621 84.315,54.054 83.541,52.655 C 82.782,51.24 81.677,50.023 80.248,48.995 C 78.817,47.957 77.088,47.095 75.051,46.418 C 72.999,45.738 70.695,45.259 68.109,44.969 L 68.109,36.463 L 61.746,36.463 L 61.746,44.633 C 60.22,44.633 58.663,44.699 57.093,44.801 C 55.526,44.914 54.01,45.071 52.529,45.295 C 51.057,45.513 49.679,45.798 48.391,46.11 C 47.094,46.431 45.968,46.795 44.976,47.214 L 44.976,53.575 C 45.994,53.178 47.17,52.771 48.498,52.359 C 49.835,51.967 51.247,51.601 52.722,51.28 C 54.194,50.964 55.71,50.689 57.256,50.491 C 58.81,50.272 60.306,50.17 61.746,50.17 L 61.746,66.198 C 59.018,66.931 56.645,67.715 54.631,68.524 C 52.62,69.339 50.952,70.271 49.633,71.319 C 48.309,72.368 47.321,73.567 46.682,74.917 C 46.034,76.281 45.719,77.859 45.719,79.681 C 45.719,81.325 46.09,82.836 46.843,84.212 C 47.597,85.571 48.67,86.771 50.07,87.784 C 51.464,88.814 53.156,89.646 55.14,90.298 C 57.115,90.95 59.313,91.387 61.746,91.617 L 61.746,98.259 L 68.109,98.259 L 68.109,91.759 C 71.177,91.642 74.018,91.331 76.603,90.797 C 79.2,90.283 81.534,89.646 83.586,88.872 L 80.553,83.524 C 78.828,84.135 76.899,84.705 74.745,85.213 C 72.588,85.702 70.374,86.033 68.109,86.179 L 68.109,70.596 C 70.811,69.833 73.204,69.043 75.275,68.235 C 77.346,67.43 79.093,66.498 80.488,65.482 C 81.876,64.468 82.935,63.291 83.638,61.972 C 84.344,60.656 84.696,59.107 84.696,57.342 Z M 76.58,57.342 C 76.58,58.15 76.436,58.893 76.136,59.566 C 75.825,60.249 75.343,60.864 74.674,61.418 C 74.018,61.972 73.147,62.483 72.073,62.946 C 70.999,63.42 69.676,63.873 68.109,64.316 L 68.109,50.547 C 70.974,50.888 73.092,51.661 74.496,52.868 C 75.885,54.068 76.58,55.566 76.58,57.342 Z M 53.821,79.615 C 53.821,78.728 53.959,77.93 54.214,77.223 C 54.474,76.525 54.921,75.888 55.526,75.298 C 56.142,74.723 56.953,74.204 57.969,73.73 C 58.993,73.268 60.24,72.82 61.746,72.408 L 61.746,86.033 C 59.018,85.641 57.018,84.903 55.735,83.808 C 54.458,82.704 53.821,81.309 53.821,79.615 Z" marker-start="none" marker-end="none"/>
      </g>
      <path d="M 30.351,30.497 C 10.017,49.538 8.932,81.495 27.969,101.852 C 47.006,122.194 78.974,123.261 99.315,104.23 C 119.666,85.194 120.738,53.231 101.697,32.884 C 82.671,12.533 50.696,11.467 30.351,30.497 Z M 96.178,38.047 C 112.366,55.346 111.455,82.525 94.152,98.71 C 76.859,114.89 49.674,113.983 33.489,96.689 C 17.305,79.384 18.224,52.207 35.516,36.016 C 52.813,19.837 80.002,20.745 96.178,38.047 Z" stroke-width="0.5" fill-rule="evenodd" marker-start="none" marker-end="none" stroke-miterlimit="79.8403193612775"/>
     </g>
    </g>
   </g>
  </g>
 </g>
</svg>
