<?xml version="1.0" standalone="no"?>
<!DOCTYPE svg PUBLIC "-//W3C//DTD SVG 1.1//EN" "http://www.w3.org/Graphics/SVG/1.1/DTD/svg11.dtd">
<!--Generator: Xara Designer (www.xara.com), SVG filter version: 6.2.0.0-->
<svg stroke-width="0.501" stroke-linejoin="bevel" fill-rule="evenodd" xmlns:xlink="http://www.w3.org/1999/xlink" xmlns="http://www.w3.org/2000/svg" version="1.1" overflow="visible" width="253.753pt" height="235.106pt" viewBox="0 0 253.753 235.106">
 <defs>
	</defs>
 <g id="Document" fill="none" stroke="black" font-family="Times New Roman" font-size="16" transform="scale(1 -1)">
  <g id="Spread" transform="translate(0 -235.106)">
   <g id="Layer 1">
    <g id="Group">
     <path d="M 126.528,0.007 L 114.364,0.579 L 108.678,1.335 L 102.091,2.275 L 95.755,3.706 L 90.043,5.066 L 83.992,7.024 L 78.322,8.949 L 72.827,11.314 L 67.066,13.883 L 61.962,16.684 L 56.424,19.792 L 50.955,23.517 L 46.454,26.641 L 37.16,34.43 L 28.744,43.053 L 25.471,47.111 L 21.355,52.293 L 18.066,57.31 L 14.978,62.156 L 12.251,67.393 L 9.653,72.582 L 7.605,77.754 L 5.466,83.446 L 4.013,88.664 L 2.449,94.596 L 1.454,100.653 L 0.62,105.965 L 0.013,117.237 L 0,117.553 L 0.536,128.056 L 0.633,129.219 L 2.21,139.328 L 2.462,140.578 L 4.035,146.542 L 5.886,152.791 L 7.828,157.947 L 10.364,163.949 L 12.79,168.799 L 16.041,174.624 L 18.958,179.195 L 22.799,184.626 L 26.343,189.107 L 30.556,193.914 L 34.895,198.353 L 39.444,202.595 L 46.794,208.743 C 93.306,243.894 160.441,243.894 206.953,208.743 L 214.3,202.595 L 218.855,198.353 L 223.184,193.921 L 227.407,189.101 L 230.948,184.633 L 234.799,179.179 L 237.7,174.637 L 240.966,168.77 L 243.37,163.969 L 245.935,157.898 L 247.848,152.813 L 249.728,146.462 L 251.266,140.62 L 251.547,139.27 L 253.101,129.268 L 253.217,127.956 L 253.753,117.666 L 253.753,117.553 L 253.123,105.932 L 252.348,101.025 L 251.288,94.563 L 249.796,88.887 L 248.274,83.411 L 246.2,77.925 L 244.084,72.549 L 241.564,67.542 L 238.756,62.13 L 235.771,57.452 L 232.376,52.267 L 228.415,47.288 L 224.987,43.04 L 216.739,34.575 L 216.59,34.43 L 216.406,34.275 L 207.296,26.647 L 202.718,23.471 L 197.326,19.801 L 191.766,16.664 L 186.674,13.883 L 180.914,11.314 L 175.428,8.949 L 169.752,7.024 L 163.704,5.066 L 157.988,3.706 L 151.656,2.275 L 145.069,1.335 L 139.386,0.579 L 127.2,0.007 L 139.037,0.537 C 134.986,0.181 130.934,0 126.873,0 L 126.528,0.007 Z" stroke="none" marker-start="none" marker-end="none"/>
     <g id="ClipView">
      <path d="M 126.528,0.007 L 114.364,0.579 L 108.678,1.335 L 102.091,2.275 L 95.755,3.706 L 90.043,5.066 L 83.992,7.024 L 78.322,8.949 L 72.827,11.314 L 67.066,13.883 L 61.962,16.684 L 56.424,19.792 L 50.955,23.517 L 46.454,26.641 L 37.16,34.43 L 28.744,43.053 L 25.471,47.111 L 21.355,52.293 L 18.066,57.31 L 14.978,62.156 L 12.251,67.393 L 9.653,72.582 L 7.605,77.754 L 5.466,83.446 L 4.013,88.664 L 2.449,94.596 L 1.454,100.653 L 0.62,105.965 L 0.013,117.237 L 0,117.553 L 0.536,128.056 L 0.633,129.219 L 2.21,139.328 L 2.462,140.578 L 4.035,146.542 L 5.886,152.791 L 7.828,157.947 L 10.364,163.949 L 12.79,168.799 L 16.041,174.624 L 18.958,179.195 L 22.799,184.626 L 26.343,189.107 L 30.556,193.914 L 34.895,198.353 L 39.444,202.595 L 46.794,208.743 C 93.306,243.894 160.441,243.894 206.953,208.743 L 214.3,202.595 L 218.855,198.353 L 223.184,193.921 L 227.407,189.101 L 230.948,184.633 L 234.799,179.179 L 237.7,174.637 L 240.966,168.77 L 243.37,163.969 L 245.935,157.898 L 247.848,152.813 L 249.728,146.462 L 251.266,140.62 L 251.547,139.27 L 253.101,129.268 L 253.217,127.956 L 253.753,117.666 L 253.753,117.553 L 253.123,105.932 L 252.348,101.025 L 251.288,94.563 L 249.796,88.887 L 248.274,83.411 L 246.2,77.925 L 244.084,72.549 L 241.564,67.542 L 238.756,62.13 L 235.771,57.452 L 232.376,52.267 L 228.415,47.288 L 224.987,43.04 L 216.739,34.575 L 216.59,34.43 L 216.406,34.275 L 207.296,26.647 L 202.718,23.471 L 197.326,19.801 L 191.766,16.664 L 186.674,13.883 L 180.914,11.314 L 175.428,8.949 L 169.752,7.024 L 163.704,5.066 L 157.988,3.706 L 151.656,2.275 L 145.069,1.335 L 139.386,0.579 L 127.2,0.007 L 139.037,0.537 C 134.986,0.181 130.934,0 126.873,0 L 126.528,0.007 Z" fill="#69c15c" stroke="none" stroke-linejoin="miter" stroke-width="0" marker-start="none" marker-end="none" stroke-miterlimit="79.8403193612775"/>
      <clipPath id="ClipPath">
       <path d="M 126.528,0.007 L 114.364,0.579 L 108.678,1.335 L 102.091,2.275 L 95.755,3.706 L 90.043,5.066 L 83.992,7.024 L 78.322,8.949 L 72.827,11.314 L 67.066,13.883 L 61.962,16.684 L 56.424,19.792 L 50.955,23.517 L 46.454,26.641 L 37.16,34.43 L 28.744,43.053 L 25.471,47.111 L 21.355,52.293 L 18.066,57.31 L 14.978,62.156 L 12.251,67.393 L 9.653,72.582 L 7.605,77.754 L 5.466,83.446 L 4.013,88.664 L 2.449,94.596 L 1.454,100.653 L 0.62,105.965 L 0.013,117.237 L 0,117.553 L 0.536,128.056 L 0.633,129.219 L 2.21,139.328 L 2.462,140.578 L 4.035,146.542 L 5.886,152.791 L 7.828,157.947 L 10.364,163.949 L 12.79,168.799 L 16.041,174.624 L 18.958,179.195 L 22.799,184.626 L 26.343,189.107 L 30.556,193.914 L 34.895,198.353 L 39.444,202.595 L 46.794,208.743 C 93.306,243.894 160.441,243.894 206.953,208.743 L 214.3,202.595 L 218.855,198.353 L 223.184,193.921 L 227.407,189.101 L 230.948,184.633 L 234.799,179.179 L 237.7,174.637 L 240.966,168.77 L 243.37,163.969 L 245.935,157.898 L 247.848,152.813 L 249.728,146.462 L 251.266,140.62 L 251.547,139.27 L 253.101,129.268 L 253.217,127.956 L 253.753,117.666 L 253.753,117.553 L 253.123,105.932 L 252.348,101.025 L 251.288,94.563 L 249.796,88.887 L 248.274,83.411 L 246.2,77.925 L 244.084,72.549 L 241.564,67.542 L 238.756,62.13 L 235.771,57.452 L 232.376,52.267 L 228.415,47.288 L 224.987,43.04 L 216.739,34.575 L 216.59,34.43 L 216.406,34.275 L 207.296,26.647 L 202.718,23.471 L 197.326,19.801 L 191.766,16.664 L 186.674,13.883 L 180.914,11.314 L 175.428,8.949 L 169.752,7.024 L 163.704,5.066 L 157.988,3.706 L 151.656,2.275 L 145.069,1.335 L 139.386,0.579 L 127.2,0.007 L 139.037,0.537 C 134.986,0.181 130.934,0 126.873,0 L 126.528,0.007 Z"/>
      </clipPath>
      <g clip-path="url(#ClipPath)">
       <g id="Group_1">
        <path d="M 78.248,107.67 C 78.174,118.965 82.932,125.523 96.201,123.776 C 116.189,132.841 136.569,114.936 160.538,119.317 C 170.714,90.767 182.577,58.518 179.521,18.157 L 120.105,20.418 L 98.766,54.037 L 78.248,107.67 Z" stroke="none" fill="#005b8c" stroke-width="0" stroke-linejoin="miter" marker-start="none" marker-end="none" stroke-miterlimit="79.8403193612775"/>
        <path d="M 120.971,116.623 C 119.614,137.102 127.103,160.212 120.218,162.037 C 96.863,168.23 96.883,140.688 100.055,124.816 C 103.932,105.467 103.215,96.964 97.816,77.295 C 109.373,87.081 122.58,92.331 120.971,116.623 Z" stroke="none" stroke-linejoin="miter" stroke-width="0" fill="#e4a701" marker-start="none" marker-end="none" stroke-miterlimit="79.8403193612775"/>
        <g id="Group_2" stroke="none">
         <g id="ClipView_1">
          <path d="M 137.806,80.458 L 113.088,81.188 L 108,118.616 L 114.235,120.083 L 114.681,135.28 L 139.399,134.553 L 138.95,119.353 L 145.072,117.524 L 137.806,80.458 Z" fill="#ffbfa0" stroke-width="0" stroke-linejoin="miter" marker-start="none" marker-end="none" stroke-miterlimit="79.8403193612775"/>
          <clipPath id="ClipPath_1">
           <path d="M 137.806,80.458 L 113.088,81.188 L 108,118.616 L 114.235,120.083 L 114.681,135.28 L 139.399,134.553 L 138.95,119.353 L 145.072,117.524 L 137.806,80.458 Z"/>
          </clipPath>
          <g clip-path="url(#ClipPath_1)">
           <path d="M 109.524,131.766 C 119.908,127.918 130.801,126.044 138.95,119.353 L 138.95,119.353 L 151.204,134.512 L 131.282,140.606 L 109.252,140.723 L 109.524,131.766 Z" stroke-opacity="0.098039" fill="#000000" stroke-linecap="round" stroke-linejoin="round" stroke-width="0.75" marker-start="none" marker-end="none" stroke-miterlimit="79.8403193612775" fill-opacity="0.098039"/>
          </g>
         </g>
        </g>
        <path d="M 97.9,155.572 C 94.424,155.446 91.494,158.008 91.358,161.297 L 91.09,167.487 C 90.948,170.776 93.649,173.558 97.125,173.687 L 96.589,186.077 C 96.03,199.239 111.108,216.465 123.61,216.94 C 136.113,217.415 152.619,201.381 153.184,188.225 L 153.714,175.826 C 157.184,175.965 160.121,173.403 160.26,170.11 L 160.525,163.914 C 160.664,160.622 157.966,157.85 154.49,157.714 C 155.055,144.555 140,126.851 127.491,126.383 C 114.991,125.908 98.469,142.414 97.9,155.572 Z" stroke="none" stroke-linejoin="miter" stroke-width="0" fill="#ffbfa0" marker-start="none" marker-end="none" stroke-miterlimit="79.8403193612775"/>
        <path d="M 105.735,168.337 C 105.531,170.925 107.541,173.186 110.229,173.377 C 112.917,173.574 115.266,171.622 115.472,169.025 C 115.676,166.437 113.663,164.179 110.969,163.985 C 108.287,163.788 105.938,165.739 105.735,168.337 Z" stroke="none" fill="#3c2417" stroke-linejoin="miter" stroke-width="0" marker-start="none" marker-end="none" stroke-miterlimit="79.8403193612775"/>
        <path d="M 110.982,170.123 C 110.927,170.77 111.431,171.338 112.106,171.383 C 112.775,171.432 113.359,170.947 113.414,170.295 C 113.466,169.645 112.965,169.086 112.293,169.041 C 111.615,168.986 111.033,169.48 110.982,170.123 Z" stroke="none" stroke-linejoin="miter" stroke-width="0" fill="#ffffff" marker-start="none" marker-end="none" stroke-miterlimit="79.8403193612775"/>
        <path d="M 103.364,171.387 C 103.234,171.422 103.073,171.477 102.889,171.558 C 102.52,171.716 102.084,171.991 101.706,172.311 C 101.331,172.627 101.028,173.002 100.831,173.289 C 100.63,173.583 100.53,173.774 100.53,173.774 C 100.485,173.852 100.514,173.939 100.595,173.978 C 100.643,174.01 100.724,173.997 100.769,173.952 C 100.769,173.952 101.441,173.361 102.22,173.089 C 102.608,172.95 102.992,172.876 103.27,172.857 C 103.409,172.853 103.519,172.86 103.641,172.873 C 106.016,176.026 108.914,176.359 110.468,176.258 C 113.017,176.087 115.388,174.65 116.374,172.666 C 116.519,172.369 116.396,172.007 116.086,171.874 C 115.779,171.729 115.411,171.852 115.262,172.149 C 114.471,173.729 112.471,174.927 110.397,175.063 C 108.042,175.218 105.9,174.049 104.352,171.777 C 104.216,171.496 103.919,171.312 103.58,171.332 C 103.603,171.328 103.477,171.351 103.364,171.387 Z" stroke="none" stroke-linejoin="miter" stroke-width="0" fill="#b08203" marker-start="none" marker-end="none" stroke-miterlimit="79.8403193612775"/>
        <path d="M 136.614,169.503 C 136.411,172.091 138.417,174.352 141.108,174.549 C 143.796,174.74 146.141,172.795 146.345,170.201 C 146.558,167.603 144.542,165.348 141.848,165.151 C 139.166,164.964 136.818,166.906 136.614,169.503 Z" stroke="none" fill="#3c2417" stroke-linejoin="miter" stroke-width="0" marker-start="none" marker-end="none" stroke-miterlimit="79.8403193612775"/>
        <path d="M 141.858,171.296 C 141.806,171.939 142.31,172.508 142.985,172.556 C 143.647,172.598 144.245,172.113 144.287,171.474 C 144.339,170.818 143.838,170.262 143.169,170.211 C 142.494,170.162 141.909,170.647 141.858,171.296 Z" stroke="none" stroke-linejoin="miter" stroke-width="0" fill="#ffffff" marker-start="none" marker-end="none" stroke-miterlimit="79.8403193612775"/>
        <path d="M 135.393,173.383 C 136.201,175.438 138.443,177.047 140.966,177.405 C 142.504,177.632 145.431,177.518 148.064,174.559 C 148.183,174.556 148.293,174.556 148.435,174.572 C 148.707,174.608 149.098,174.711 149.466,174.873 C 150.225,175.202 150.832,175.855 150.832,175.855 C 150.874,175.9 150.946,175.913 151.004,175.89 C 151.081,175.858 151.114,175.771 151.081,175.693 C 151.081,175.693 151,175.49 150.823,175.186 C 150.655,174.882 150.39,174.495 150.038,174.139 C 149.695,173.793 149.278,173.493 148.923,173.302 C 148.749,173.212 148.584,173.144 148.464,173.092 C 148.358,173.05 148.235,173.021 148.251,173.018 C 147.922,172.983 147.602,173.144 147.447,173.409 C 145.712,175.554 143.476,176.559 141.144,176.229 C 139.079,175.942 137.196,174.598 136.54,172.957 C 136.42,172.647 136.062,172.495 135.742,172.614 C 135.422,172.731 135.267,173.076 135.393,173.383 Z" stroke="none" stroke-linejoin="miter" stroke-width="0" fill="#b08203" marker-start="none" marker-end="none" stroke-miterlimit="79.8403193612775"/>
        <path d="M 124.906,224.774 C 156.034,225.953 168.201,191.672 160.36,172.201 C 153.333,173.373 145.289,181.89 143.234,184.6 C 144.197,181.718 146.006,177.951 148.962,175.764 C 140.468,177.515 133.112,182.035 127.697,187.518 C 128.327,184.603 130.392,181.486 133.487,178.769 C 131.186,179.654 128.931,180.817 126.77,182.171 C 121.956,185.162 117.614,189.114 114.354,193.168 C 109.867,183.415 101.289,171.138 95.158,170.731 C 84.877,187.32 93.784,223.595 124.906,224.774 Z" stroke="none" stroke-linejoin="miter" stroke-width="0" fill="#e4a701" marker-start="none" marker-end="none" stroke-miterlimit="79.8403193612775"/>
        <path d="M 115.266,142.284 C 123.601,140.734 131.742,140.346 140.853,143.06 C 131.742,133.174 123.988,132.98 115.266,142.284 Z" stroke="none" stroke-linejoin="miter" stroke-width="0" fill="#ffffff" marker-start="none" marker-end="none" stroke-miterlimit="79.8403193612775"/>
        <path d="M 95.642,52.028 C 95.345,62.25 86.754,66.543 89.504,84.199 C 98.275,96.77 72.064,117.288 110.723,119.311 C 111.253,116.597 115.324,112.946 124.467,111.99 C 136.314,111.638 139.535,115.473 142.752,119.311 C 181.408,117.288 155.2,96.77 163.969,84.199 C 169.218,68.886 159.93,64.25 159.19,51.288 C 159.19,51.288 160.521,43.508 160.699,41.67 L 160.702,41.628 L 160.699,41.638 C 160.796,40.633 160.928,39.376 161.116,37.777 L 161.119,37.758 L 161.119,37.758 L 161.119,37.758 C 162.402,26.87 165.975,3.819 175.228,-23.613 L 131.319,-23.613 L 126.738,-7.13 L 122.157,-23.613 L 78.248,-23.613 C 91.177,14.719 95.642,52.028 95.642,52.028 Z" stroke="none" fill="#28b6f6" stroke-width="0.506" stroke-linejoin="miter" marker-start="none" marker-end="none" stroke-miterlimit="79.8403193612775"/>
        <g id="Group_3" stroke-linejoin="miter" stroke="none" fill="#28b6f6">
         <path d="M 210.623,64.14 C 209.942,65.571 205.024,72.624 204.201,74.084 C 196.033,88.535 172.213,111.418 159.617,115.734 L 159.436,103.503 L 153.54,90.354 C 167.555,82.193 172.675,75.945 178.817,66.873" stroke-width="0.506" stroke-miterlimit="79.8403193612775"/>
         <path d="M 210.384,64.925 L 192.421,59.452 C 179.902,51.168 177.563,37.428 161.213,25.723 C 160.967,18.218 162.117,10.332 166.682,6.032 C 162.285,-10.422 215.166,54.848 210.384,64.925 Z" stroke-width="0" marker-start="none" marker-end="none" stroke-miterlimit="79.8403193612775"/>
         <path d="M 178.106,67.916 C 184.219,59.213 194.266,52.68 205.083,54.477 C 209.942,58.147 211.893,61.642 210.384,64.925 C 205.39,72.627 195.607,82.193 189.178,85.23 L 178.106,67.916 Z" stroke-width="0" marker-start="none" marker-end="none" stroke-miterlimit="79.8403193612775"/>
        </g>
        <g id="Group_4" stroke-linejoin="miter" stroke="none" fill="#28b6f6">
         <path d="M 43.004,64.136 C 43.686,65.568 48.603,72.62 49.427,74.081 C 57.594,88.532 81.414,111.415 94.011,115.731 L 94.192,103.5 L 100.088,90.351 C 86.073,82.19 80.952,75.942 74.81,66.87" stroke-width="0.506" stroke-miterlimit="79.8403193612775"/>
         <path d="M 43.243,64.922 L 61.206,59.449 C 73.725,51.165 76.064,37.425 92.415,25.72 C 92.66,18.215 91.51,10.329 86.945,6.029 C 91.342,-10.425 38.462,54.845 43.243,64.922 Z" stroke-width="0" marker-start="none" marker-end="none" stroke-miterlimit="79.8403193612775"/>
         <path d="M 75.521,67.913 C 69.409,59.21 59.361,52.677 48.545,54.473 C 43.686,58.144 41.734,61.639 43.243,64.922 C 48.238,72.624 58.02,82.19 64.45,85.227 L 75.521,67.913 Z" stroke-width="0" marker-start="none" marker-end="none" stroke-miterlimit="79.8403193612775"/>
        </g>
        <g id="Group_5" stroke-miterlimit="79.8403193612775">
         <g id="Group_6">
          <g id="Group_7">
           <g id="Group_8">
            <path d="M 126.841,37.49 L 157.795,68.369 L 147.679,77.243 L 106.103,77.295 L 95.962,68.443 L 126.841,37.49 Z" fill="none" stroke="#ffffff" stroke-width="1.718" fill-rule="nonzero" stroke-linejoin="round" stroke-linecap="round" marker-start="none" marker-end="none" stroke-miterlimit="212.754491017964"/>
            <path d="M 116.978,51.64 L 116.978,72.481 L 122.586,72.481 L 122.586,65.125 L 125.193,65.125 L 130.931,72.481 L 139.189,72.246 L 129.326,62.379 L 139.189,52.205 L 130.931,51.966 L 125.193,59.323 L 122.586,59.323 L 122.586,51.64 L 116.978,51.64 Z" stroke="none" fill="#ffffff" stroke-width="0.016" stroke-linejoin="miter" marker-start="none" marker-end="none" stroke-miterlimit="212.754491017964"/>
           </g>
          </g>
         </g>
        </g>
        <g id="Group_9" stroke-linejoin="miter" stroke="none" stroke-width="0" stroke-miterlimit="79.8403193612775">
         <g id="Group_10">
          <path d="M 149.967,117.941 C 149.753,117.863 149.566,117.789 149.414,117.728 C 146.413,116.481 140.417,103.638 143.04,100.35 C 144.348,98.708 147.96,98.967 150.493,99.115 C 152.109,99.209 153.575,99.371 155.278,100.459 C 159.601,103.225 162.082,111.861 161.103,117.931 C 161.093,117.983 160.528,119.753 160.538,119.808 C 159.297,122.619 152.68,118.933 149.967,117.941 Z" fill="#005b8c" marker-start="none" marker-end="none"/>
          <path d="M 147.22,106.812 C 148.701,107.528 150.859,107.375 152.032,106.469 C 153.205,105.563 152.953,104.242 151.472,103.526 C 149.991,102.81 147.833,102.963 146.66,103.869 C 145.487,104.775 145.739,106.096 147.22,106.812 Z" fill="#ffffff" marker-start="none" marker-end="none"/>
         </g>
         <g id="Group_11">
          <path d="M 92.592,117.938 C 92.806,117.86 92.993,117.786 93.145,117.724 C 96.143,116.477 102.142,103.638 99.519,100.346 C 98.214,98.708 94.599,98.964 92.062,99.115 C 90.457,99.206 88.984,99.364 87.281,100.459 C 82.952,103.222 80.484,111.861 81.456,117.928 C 81.463,117.983 82.028,119.75 82.018,119.805 C 83.259,122.616 89.882,118.933 92.592,117.938 Z" fill="#005b8c" marker-start="none" marker-end="none"/>
          <path d="M 95.332,106.812 C 93.851,107.528 91.693,107.375 90.52,106.469 C 89.347,105.563 89.599,104.242 91.08,103.526 C 92.561,102.81 94.719,102.963 95.892,103.869 C 97.065,104.775 96.813,106.096 95.332,106.812 Z" fill="#ffffff" marker-start="none" marker-end="none"/>
         </g>
        </g>
        <path d="M 186.674,13.883 L 186.674,13.883" fill="none" stroke-width="0.5" stroke-linecap="round" stroke-linejoin="round" stroke-miterlimit="79.8403193612775"/>
       </g>
      </g>
     </g>
    </g>
   </g>
  </g>
 </g>
</svg>
