<?xml version="1.0" standalone="no"?>
<!DOCTYPE svg PUBLIC "-//W3C//DTD SVG 1.1//EN" "http://www.w3.org/Graphics/SVG/1.1/DTD/svg11.dtd">
<!--Generator: Xara Designer (www.xara.com), SVG filter version: 6.2.0.0-->
<svg stroke-width="0.501" stroke-linejoin="bevel" fill-rule="evenodd" xmlns:xlink="http://www.w3.org/1999/xlink" xmlns="http://www.w3.org/2000/svg" version="1.1" overflow="visible" width="23.55pt" height="41.333pt" viewBox="0 0 23.55 41.333">
 <defs>
	</defs>
 <g id="Document" fill="none" stroke="black" font-family="Times New Roman" font-size="16" transform="scale(1 -1)">
  <g id="Spread" transform="translate(0 -41.333)">
   <g id="Layer 1">
    <g id="Group" fill-rule="nonzero" stroke-linejoin="round" stroke-linecap="round" stroke="none" stroke-width="2.335" fill="#ffffff" stroke-miterlimit="79.8403193612775">
     <g id="Group_1">
      <g id="Group_2">
       <g id="Group_3">
        <g id="Group_4">
         <path d="M 9.225,16.023 C 9.225,17.44 9.418,18.643 9.802,19.634 C 10.186,20.626 10.682,21.496 11.289,22.245 C 11.896,22.993 12.533,23.681 13.201,24.308 C 13.868,24.935 14.506,25.562 15.113,26.19 C 15.72,26.817 16.216,27.535 16.599,28.344 C 16.984,29.153 17.177,30.084 17.177,31.136 C 17.177,31.986 17.035,32.704 16.751,33.291 C 16.469,33.878 16.074,34.363 15.567,34.747 C 15.062,35.132 14.476,35.415 13.808,35.597 C 13.14,35.779 12.442,35.87 11.714,35.87 C 10.621,35.87 9.6,35.688 8.649,35.324 C 7.698,34.96 6.818,34.413 6.009,33.686 C 5.604,33.159 5.331,32.765 5.189,32.502 C 5.048,32.238 4.997,31.945 5.037,31.622 L 4.673,31.136 L 4.248,31.501 L 0,34.656 C 0.931,36.032 1.972,37.216 3.126,38.207 C 4.279,39.198 5.594,39.967 7.071,40.513 C 8.548,41.059 10.217,41.333 12.078,41.333 C 14.384,41.333 16.397,40.888 18.117,39.997 C 19.837,39.107 21.172,37.903 22.123,36.386 C 23.074,34.869 23.55,33.179 23.55,31.318 C 23.55,29.821 23.347,28.537 22.942,27.464 C 22.537,26.392 22.012,25.482 21.365,24.733 C 20.716,23.985 20.039,23.307 19.331,22.7 C 18.623,22.093 17.955,21.476 17.329,20.849 C 16.701,20.221 16.185,19.534 15.781,18.785 C 15.375,18.036 15.174,17.116 15.174,16.023 L 15.174,13.049 L 9.225,13.049 L 9.225,16.023 Z M 12.321,0 C 11.026,0 9.933,0.445 9.043,1.335 C 8.153,2.225 7.708,3.298 7.708,4.552 C 7.708,5.807 8.153,6.879 9.043,7.769 C 9.933,8.659 11.026,9.104 12.321,9.104 C 13.575,9.104 14.647,8.659 15.537,7.769 C 16.428,6.879 16.873,5.807 16.873,4.552 C 16.873,3.298 16.428,2.225 15.537,1.335 C 14.647,0.445 13.575,0 12.321,0 Z" marker-start="none" marker-end="none"/>
        </g>
       </g>
      </g>
     </g>
    </g>
   </g>
  </g>
 </g>
</svg>
