<?xml version="1.0" standalone="no"?>
<!DOCTYPE svg PUBLIC "-//W3C//DTD SVG 1.1//EN" "http://www.w3.org/Graphics/SVG/1.1/DTD/svg11.dtd">
<!--Generator: Xara Designer (www.xara.com), SVG filter version: 6.2.0.0-->
<svg stroke-width="0.501" stroke-linejoin="bevel" fill-rule="evenodd" xmlns:xlink="http://www.w3.org/1999/xlink" xmlns="http://www.w3.org/2000/svg" version="1.1" overflow="visible" width="224.939pt" height="39.415pt" viewBox="0 0 224.939 39.415">
 <defs>
  <linearGradient id="LinearGradient" gradientUnits="userSpaceOnUse" x1="0" y1="0" x2="30.911" y2="-7.152" gradientTransform="translate(17.885 23.319)">
   <stop offset="0" stop-color="#1f7cfc"/>
   <stop offset="1" stop-color="#07b079"/>
  </linearGradient>
 </defs>
 <g id="Document" fill="none" stroke="black" font-family="Times New Roman" font-size="16" transform="scale(1 -1)">
  <g id="Spread" transform="translate(0 -39.415)">
   <g id="Layer 1">
    <g id="Group" stroke-linejoin="miter" stroke="none">
     <g id="Group_1">
      <g id="Group_2">
       <g id="Group_3">
        <g id="Group_4" stroke-width="0.025" stroke-miterlimit="79.8403193612775" fill="url(#LinearGradient)">
         <path d="M 29.342,0.287 L 0.285,29.417 C -0.114,29.819 -0.091,30.475 0.335,30.847 L 9.876,39.174 C 10.054,39.331 10.283,39.416 10.52,39.415 L 49.643,39.37 C 49.881,39.37 50.11,39.284 50.289,39.127 L 59.807,30.777 C 60.232,30.403 60.252,29.745 59.851,29.347 L 30.726,0.286 C 30.344,-0.097 29.724,-0.095 29.342,0.287 Z M 30.038,2.364 L 57.727,29.994 L 49.273,37.412 L 10.886,37.456 L 2.412,30.059 L 30.038,2.364 Z" marker-start="none" marker-end="none"/>
         <path d="M 20.754,14.298 L 20.754,33.908 L 26.029,33.908 L 26.029,26.986 L 28.481,26.986 L 33.885,33.908 L 41.652,33.686 L 32.37,24.403 L 41.652,14.828 L 33.885,14.605 L 28.481,21.528 L 26.029,21.528 L 26.029,14.298 L 20.754,14.298 Z" marker-start="none" marker-end="none"/>
        </g>
        <path d="M 108.843,23.064 C 108.626,24.735 107.202,25.986 105.518,25.986 C 103.807,25.986 102.374,24.7 102.186,23 L 100.533,7.962 C 100.533,7.962 100.262,4.896 105.668,4.896 C 111.078,4.896 110.807,7.962 110.807,7.962 L 108.843,23.064 Z" fill="#29b6f6" stroke-width="0.14" fill-rule="nonzero" marker-start="none" marker-end="none" stroke-miterlimit="79.8403193612775"/>
        <path d="M 105.668,28.193 C 107.772,28.193 109.475,29.899 109.475,32.003 C 109.475,34.104 107.772,35.809 105.668,35.809 C 103.567,35.809 101.86,34.104 101.86,32.003 C 101.86,29.899 103.567,28.193 105.668,28.193 Z" fill="#29b6f6" stroke-width="0.14" fill-rule="nonzero" marker-start="none" marker-end="none" stroke-miterlimit="79.8403193612775"/>
        <path d="M 121.046,22.659 C 120.87,24.021 119.706,25.04 118.333,25.04 C 116.936,25.04 115.765,23.992 115.613,22.605 L 114.261,10.327 C 114.261,10.327 114.041,7.824 118.454,7.824 C 122.868,7.824 122.647,10.327 122.647,10.327 L 121.046,22.659 Z" fill="#0288d1" stroke-width="0.14" fill-rule="nonzero" marker-start="none" marker-end="none" stroke-miterlimit="79.8403193612775"/>
        <path d="M 118.454,26.844 C 120.173,26.844 121.563,28.235 121.563,29.951 C 121.563,31.668 120.173,33.06 118.454,33.06 C 116.738,33.06 115.346,31.668 115.346,29.951 C 115.346,28.235 116.738,26.844 118.454,26.844 Z" fill="#0288d1" stroke-width="0.14" fill-rule="nonzero" marker-start="none" marker-end="none" stroke-miterlimit="79.8403193612775"/>
        <path d="M 85.606,22.615 L 93.627,30.021 L 93.875,30.31 C 94.039,30.5 94.211,30.789 94.389,31.172 C 94.566,31.555 94.657,31.929 94.657,32.283 C 94.657,32.998 94.389,33.621 93.855,34.157 C 93.317,34.687 92.696,34.958 91.982,34.958 C 91.16,34.958 90.405,34.613 89.719,33.929 L 76.762,21.793 L 76.762,32.077 C 76.762,32.901 76.485,33.585 75.939,34.134 C 75.39,34.682 74.704,34.958 73.88,34.958 C 73.056,34.958 72.372,34.682 71.822,34.134 C 71.276,33.585 71.001,32.901 71.001,32.077 L 71.001,8.629 C 71.001,7.777 71.255,7.085 71.762,6.552 C 72.271,6.015 72.975,5.746 73.88,5.746 C 74.786,5.746 75.493,6.015 75.999,6.552 C 76.508,7.085 76.762,7.777 76.762,8.629 L 76.762,14.593 L 81.49,18.911 L 91.16,6.777 L 91.407,6.529 C 91.571,6.365 91.838,6.193 92.208,6.015 C 92.579,5.836 92.983,5.746 93.425,5.746 C 94.218,5.746 94.863,6.007 95.354,6.529 C 95.85,7.052 96.097,7.683 96.097,8.42 C 96.097,9.108 95.822,9.794 95.274,10.482 L 85.606,22.615 Z" fill="#29b6f6" stroke-width="0.14" fill-rule="nonzero" marker-start="none" marker-end="none" stroke-miterlimit="79.8403193612775"/>
        <path d="M 144.515,22.175 L 129.704,22.175 C 128.992,22.175 128.402,21.942 127.935,21.476 C 127.47,21.009 127.235,20.42 127.235,19.709 C 127.235,18.995 127.47,18.406 127.935,17.937 C 128.402,17.47 128.992,17.238 129.704,17.238 L 144.515,17.238 C 145.23,17.238 145.818,17.47 146.285,17.937 C 146.749,18.406 146.985,18.995 146.985,19.709 C 146.985,20.42 146.749,21.009 146.285,21.476 C 145.818,21.942 145.23,22.175 144.515,22.175 Z" fill="#29b6f6" stroke-width="0.14" fill-rule="nonzero" marker-start="none" marker-end="none" stroke-miterlimit="79.8403193612775"/>
        <path d="M 187.504,34.723 C 186.819,34.723 186.215,34.512 185.697,34.087 C 185.172,33.661 184.817,33.118 184.625,32.461 L 178.784,12.714 L 178.536,12.714 L 173.517,31.228 C 172.857,33.558 171.514,34.723 169.485,34.723 C 167.483,34.723 166.154,33.558 165.493,31.228 L 160.475,12.714 L 160.229,12.714 L 154.385,32.461 C 154.195,33.118 153.838,33.661 153.316,34.087 C 152.796,34.512 152.193,34.723 151.506,34.723 C 150.684,34.723 149.998,34.45 149.45,33.9 C 148.901,33.353 148.626,32.667 148.626,31.844 C 148.626,31.294 148.762,30.609 149.039,29.785 L 155.416,8.599 C 156.183,6.13 157.691,4.896 159.942,4.896 C 161.12,4.896 162.1,5.239 162.882,5.926 C 163.663,6.611 164.207,7.503 164.509,8.599 L 169.402,25.879 L 169.609,25.879 L 174.547,8.599 C 174.848,7.503 175.381,6.611 176.151,5.926 C 176.919,5.239 177.891,4.896 179.072,4.896 C 181.32,4.896 182.829,6.13 183.596,8.599 L 189.974,29.785 L 190.097,30.114 C 190.15,30.336 190.214,30.616 190.283,30.96 C 190.351,31.302 190.384,31.596 190.384,31.844 C 190.384,32.667 190.11,33.353 189.562,33.9 C 189.013,34.45 188.328,34.723 187.504,34.723 Z" fill="#29b6f6" stroke-width="0.14" fill-rule="nonzero" marker-start="none" marker-end="none" stroke-miterlimit="79.8403193612775"/>
        <path d="M 196.965,26.906 C 196.248,26.906 195.626,26.639 195.091,26.103 C 194.557,25.57 194.288,24.945 194.288,24.234 L 194.288,8.186 C 194.288,7.474 194.557,6.851 195.091,6.316 C 195.626,5.781 196.248,5.515 196.965,5.515 C 197.676,5.515 198.3,5.781 198.835,6.316 C 199.37,6.851 199.638,7.474 199.638,8.186 L 199.638,24.234 C 199.638,24.945 199.37,25.57 198.835,26.103 C 198.3,26.639 197.676,26.906 196.965,26.906 Z" fill="#29b6f6" stroke-width="0.14" fill-rule="nonzero" marker-start="none" marker-end="none" stroke-miterlimit="79.8403193612775"/>
        <path d="M 196.965,35.341 C 196.058,35.341 195.317,35.064 194.741,34.517 C 194.164,33.968 193.877,33.283 193.877,32.459 C 193.877,31.639 194.164,30.952 194.741,30.404 C 195.317,29.854 196.058,29.581 196.965,29.581 C 197.869,29.581 198.608,29.854 199.186,30.404 C 199.759,30.952 200.048,31.639 200.048,32.459 C 200.048,33.283 199.759,33.968 199.186,34.517 C 198.608,35.064 197.869,35.341 196.965,35.341 Z" fill="#29b6f6" stroke-width="0.14" fill-rule="nonzero" marker-start="none" marker-end="none" stroke-miterlimit="79.8403193612775"/>
        <path d="M 223.909,10.245 L 217.944,17.649 L 223.496,22.382 L 223.785,22.628 C 223.949,22.792 224.114,23.046 224.279,23.39 C 224.445,23.732 224.526,24.081 224.526,24.44 C 224.526,25.067 224.284,25.636 223.807,26.145 C 223.324,26.653 222.745,26.906 222.058,26.906 C 221.232,26.906 220.481,26.566 219.796,25.879 L 210.95,18.061 L 210.95,32.667 C 210.95,33.378 210.682,34.002 210.148,34.538 C 209.615,35.073 208.989,35.341 208.274,35.341 C 207.563,35.341 206.938,35.073 206.404,34.538 C 205.869,34.002 205.6,33.378 205.6,32.667 L 205.6,8.186 C 205.6,7.474 205.869,6.851 206.404,6.316 C 206.938,5.781 207.563,5.515 208.274,5.515 C 208.989,5.515 209.615,5.781 210.148,6.316 C 210.682,6.851 210.95,7.474 210.95,8.186 L 210.95,11.479 L 214.241,14.359 L 220.413,6.541 L 220.658,6.295 C 220.824,6.13 221.077,5.959 221.42,5.781 C 221.763,5.603 222.114,5.515 222.47,5.515 C 223.181,5.515 223.772,5.746 224.237,6.213 C 224.705,6.68 224.939,7.269 224.939,7.981 C 224.939,8.667 224.593,9.421 223.909,10.245 Z" fill="#29b6f6" stroke-width="0.14" fill-rule="nonzero" marker-start="none" marker-end="none" stroke-miterlimit="79.8403193612775"/>
       </g>
      </g>
     </g>
    </g>
   </g>
  </g>
 </g>
</svg>
