<?xml version="1.0" standalone="no"?>
<!DOCTYPE svg PUBLIC "-//W3C//DTD SVG 1.1//EN" "http://www.w3.org/Graphics/SVG/1.1/DTD/svg11.dtd">
<!--Generator: Xara Designer (www.xara.com), SVG filter version: 6.2.0.0-->
<svg stroke-width="0.501" stroke-linejoin="bevel" fill-rule="evenodd" xmlns:xlink="http://www.w3.org/1999/xlink" xmlns="http://www.w3.org/2000/svg" version="1.1" overflow="visible" width="83.933pt" height="83.008pt" viewBox="0 0 83.933 83.008">
 <defs>
	</defs>
 <g id="Document" fill="none" stroke="black" font-family="Times New Roman" font-size="16" transform="scale(1 -1)">
  <g id="Spread" transform="translate(0 -83.008)">
   <g id="Layer 1">
    <g id="Group" stroke="none">
     <path d="M 0,64.063 C 11.733,63.268 23.871,65.983 32.629,72.143 C 37.148,75.323 40.257,79.061 41.966,83.008 C 43.676,79.061 46.785,75.323 51.304,72.143 C 60.062,65.983 72.2,63.268 83.933,64.063 C 78.246,33.474 63.327,4.523 41.966,0 C 20.606,4.523 5.686,33.474 0,64.063 Z" fill="#0288d1" stroke-width="0.5" stroke-linejoin="round" stroke-linecap="round" marker-start="none" marker-end="none" stroke-miterlimit="79.8403193612775"/>
     <g id="Group_1" stroke-linejoin="miter" stroke-width="0.042" fill="#ffffff" stroke-miterlimit="79.8403193612775">
      <path d="M 41.19,15.768 L 10.189,46.848 C 9.763,47.276 9.787,47.976 10.242,48.373 L 20.421,57.257 C 20.612,57.425 20.856,57.516 21.109,57.514 L 62.85,57.466 C 63.105,57.466 63.348,57.375 63.539,57.207 L 73.695,48.298 C 74.149,47.898 74.169,47.196 73.741,46.773 L 42.667,15.766 C 42.261,15.356 41.598,15.36 41.19,15.768 Z M 41.932,17.982 L 71.474,47.463 L 62.455,55.377 L 21.498,55.424 L 12.458,47.531 L 41.932,17.982 Z" marker-start="none" marker-end="none"/>
      <path d="M 32.027,30.717 L 32.027,51.638 L 37.656,51.638 L 37.656,44.254 L 40.272,44.254 L 46.038,51.638 L 54.324,51.401 L 44.42,41.497 L 54.324,31.281 L 46.038,31.043 L 40.272,38.429 L 37.656,38.429 L 37.656,30.717 L 32.027,30.717 Z" marker-start="none" marker-end="none"/>
     </g>
    </g>
   </g>
  </g>
 </g>
</svg>
