<?xml version="1.0" standalone="no"?>
<!DOCTYPE svg PUBLIC "-//W3C//DTD SVG 1.1//EN" "http://www.w3.org/Graphics/SVG/1.1/DTD/svg11.dtd">
<!--Generator: Xara Designer (www.xara.com), SVG filter version: 6.2.0.0-->
<svg stroke-width="0.501" stroke-linejoin="bevel" fill-rule="evenodd" xmlns:xlink="http://www.w3.org/1999/xlink" xmlns="http://www.w3.org/2000/svg" version="1.1" overflow="visible" width="132.2pt" height="132.2pt" viewBox="0 0 132.2 132.2">
 <defs>
	</defs>
 <g id="Document" fill="none" stroke="black" font-family="Times New Roman" font-size="16" transform="scale(1 -1)">
  <g id="Spread" transform="translate(0 -132.2)">
   <g id="Layer 1">
    <g id="Group" stroke-linejoin="miter" stroke-miterlimit="79.8403193612775">
     <path d="M 21.1,110.35 C 45.526,135.19 85.51,135.526 110.35,111.1 C 135.19,86.674 135.526,46.69 111.1,21.85 C 86.674,-2.99 46.69,-3.326 21.85,21.1 C -2.99,45.526 -3.326,85.51 21.1,110.35 Z" stroke="#0288d1" fill="#2eb2f6" stroke-width="6" marker-start="none" marker-end="none" stroke-miterlimit="2153.24750499002"/>
     <g id="Group_1" stroke="none" stroke-width="11.552" fill="#ffffff" stroke-miterlimit="2153.24750499002">
      <g id="Group_2">
       <g id="Group_3">
        <path d="M 73.176,60.893 L 69.282,72.638 L 46.834,95.091 L 38.974,87.231 L 61.428,64.781 Z M 28.565,105.504 C 26.39,103.33 26.39,99.82 28.565,97.641 L 34.342,91.857 L 42.206,99.722 L 36.424,105.504 C 34.249,107.674 30.726,107.674 28.565,105.504 Z M 92.463,94.028 L 61.494,94.028 L 65.862,89.657 L 92.463,89.657 L 92.463,41.601 L 44.405,41.601 L 44.405,68.207 L 40.037,72.571 L 40.037,41.601 C 40.037,39.194 41.993,37.238 44.405,37.238 L 92.463,37.238 C 94.871,37.238 96.831,39.194 96.831,41.601 L 96.831,89.657 C 96.831,92.076 94.871,94.028 92.463,94.028 Z" marker-start="none" marker-end="none"/>
       </g>
      </g>
     </g>
    </g>
   </g>
  </g>
 </g>
</svg>
