<?xml version="1.0" standalone="no"?>
<!DOCTYPE svg PUBLIC "-//W3C//DTD SVG 1.1//EN" "http://www.w3.org/Graphics/SVG/1.1/DTD/svg11.dtd">
<!--Generator: Xara Designer (www.xara.com), SVG filter version: 6.2.0.0-->
<svg stroke-width="0.501" stroke-linejoin="bevel" fill-rule="evenodd" xmlns:xlink="http://www.w3.org/1999/xlink" xmlns="http://www.w3.org/2000/svg" version="1.1" overflow="visible" width="107.822pt" height="107.817pt" viewBox="0 0 107.822 107.817">
 <defs>
	</defs>
 <g id="Document" fill="none" stroke="black" font-family="Times New Roman" font-size="16" transform="scale(1 -1)">
  <g id="Spread" transform="translate(0 -107.817)">
   <g id="Layer 1">
    <g id="Group" stroke-linejoin="miter" stroke="none" stroke-width="11.552" fill="#0288d1" stroke-miterlimit="79.8403193612775">
     <g id="Group_1">
      <g id="Group_2">
       <path d="M 71.333,36.489 L 65.327,54.606 L 30.698,89.242 L 18.573,77.118 L 53.21,42.488 Z M 2.516,105.307 C -0.839,101.952 -0.839,96.537 2.516,93.176 L 11.429,84.255 L 23.56,96.386 L 14.64,105.307 C 11.285,108.654 5.85,108.654 2.516,105.307 Z M 101.085,87.603 L 53.312,87.603 L 60.05,80.859 L 101.085,80.859 L 101.085,6.729 L 26.95,6.729 L 26.95,47.772 L 20.213,54.503 L 20.213,6.729 C 20.213,3.017 23.23,0 26.95,0 L 101.085,0 C 104.799,0 107.822,3.017 107.822,6.729 L 107.822,80.859 C 107.822,84.592 104.799,87.603 101.085,87.603 Z" marker-start="none" marker-end="none"/>
      </g>
     </g>
    </g>
   </g>
  </g>
 </g>
</svg>
