<?xml version="1.0" standalone="no"?>
<!DOCTYPE svg PUBLIC "-//W3C//DTD SVG 1.1//EN" "http://www.w3.org/Graphics/SVG/1.1/DTD/svg11.dtd">
<!--Generator: Xara Designer (www.xara.com), SVG filter version: 6.2.0.0-->
<svg stroke-width="0.501" stroke-linejoin="bevel" fill-rule="evenodd" xmlns:xlink="http://www.w3.org/1999/xlink" xmlns="http://www.w3.org/2000/svg" version="1.1" overflow="visible" width="351.957pt" height="86.456pt" viewBox="0 0 351.957 86.456">
 <defs>
  <linearGradient id="LinearGradient" gradientUnits="userSpaceOnUse" x1="0" y1="0" x2="1.527" y2="-12.007" gradientTransform="translate(320.415 36.15)">
   <stop offset="0" stop-color="#ffffff"/>
   <stop offset="1" stop-color="#000000"/>
  </linearGradient>
 </defs>
 <g id="Document" fill="none" stroke="black" font-family="Times New Roman" font-size="16" transform="scale(1 -1)">
  <g id="Spread" transform="translate(0 -86.456)">
   <g id="Layer 1">
    <g id="Group">
     <g id="Group_1" fill-rule="nonzero" stroke-linejoin="miter" stroke="none" stroke-width="0.249" stroke-miterlimit="79.8403193612775">
      <g id="Group_2">
       <g id="Group_3">
        <g id="Group_4">
         <path d="M 145.294,32.341 C 144.908,35.315 142.372,37.542 139.375,37.542 C 136.329,37.542 133.778,35.253 133.444,32.227 L 130.501,5.457 C 130.501,5.457 130.019,0 139.642,0 C 149.272,0 148.79,5.457 148.79,5.457 L 145.294,32.341 Z" fill="#29b6f6" marker-start="none" marker-end="none"/>
         <path d="M 139.642,41.471 C 143.387,41.471 146.419,44.507 146.419,48.253 C 146.419,51.993 143.387,55.028 139.642,55.028 C 135.902,55.028 132.863,51.993 132.863,48.253 C 132.863,44.507 135.902,41.471 139.642,41.471 Z" fill="#29b6f6" marker-start="none" marker-end="none"/>
         <path d="M 167.017,31.619 C 166.703,34.044 164.632,35.858 162.187,35.858 C 159.701,35.858 157.616,33.992 157.345,31.524 L 154.938,9.667 C 154.938,9.667 154.547,5.212 162.403,5.212 C 170.26,5.212 169.867,9.667 169.867,9.667 L 167.017,31.619 Z" fill="#0288d1" marker-start="none" marker-end="none"/>
         <path d="M 162.403,39.069 C 165.462,39.069 167.937,41.546 167.937,44.6 C 167.937,47.656 165.462,50.135 162.403,50.135 C 159.348,50.135 156.87,47.656 156.87,44.6 C 156.87,41.546 159.348,39.069 162.403,39.069 Z" fill="#0288d1" marker-start="none" marker-end="none"/>
         <path d="M 103.929,31.541 L 118.208,44.725 L 118.649,45.239 C 118.941,45.577 119.247,46.092 119.564,46.774 C 119.879,47.455 120.041,48.121 120.041,48.751 C 120.041,50.025 119.564,51.133 118.614,52.087 C 117.656,53.03 116.551,53.513 115.279,53.513 C 113.816,53.513 112.473,52.899 111.251,51.681 L 88.186,30.078 L 88.186,48.385 C 88.186,49.852 87.693,51.069 86.721,52.046 C 85.744,53.022 84.523,53.513 83.056,53.513 C 81.589,53.513 80.372,53.022 79.393,52.046 C 78.42,51.069 77.931,49.852 77.931,48.385 L 77.931,6.644 C 77.931,5.128 78.384,3.896 79.286,2.948 C 80.192,1.992 81.446,1.513 83.056,1.513 C 84.669,1.513 85.928,1.992 86.828,2.948 C 87.734,3.896 88.186,5.128 88.186,6.644 L 88.186,17.262 L 96.602,24.948 L 113.816,3.348 L 114.256,2.907 C 114.548,2.615 115.023,2.309 115.682,1.992 C 116.342,1.673 117.061,1.513 117.848,1.513 C 119.26,1.513 120.408,1.978 121.282,2.907 C 122.165,3.838 122.604,4.96 122.604,6.273 C 122.604,7.497 122.115,8.719 121.14,9.943 L 103.929,31.541 Z" fill="#29b6f6" marker-start="none" marker-end="none"/>
         <path d="M 208.794,30.759 L 182.429,30.759 C 181.161,30.759 180.111,30.343 179.28,29.514 C 178.452,28.682 178.034,27.634 178.034,26.368 C 178.034,25.097 178.452,24.049 179.28,23.214 C 180.111,22.383 181.161,21.97 182.429,21.97 L 208.794,21.97 C 210.066,21.97 211.113,22.383 211.945,23.214 C 212.77,24.049 213.191,25.097 213.191,26.368 C 213.191,27.634 212.77,28.682 211.945,29.514 C 211.113,30.343 210.066,30.759 208.794,30.759 Z" fill="#29b6f6" marker-start="none" marker-end="none"/>
         <path d="M 285.318,53.095 C 284.099,53.095 283.024,52.719 282.101,51.962 C 281.167,51.204 280.535,50.238 280.193,49.068 L 269.796,13.917 L 269.354,13.917 L 260.42,46.874 C 259.245,51.021 256.854,53.095 253.243,53.095 C 249.679,53.095 247.313,51.021 246.137,46.874 L 237.204,13.917 L 236.766,13.917 L 226.363,49.068 C 226.025,50.238 225.39,51.204 224.46,51.962 C 223.535,52.719 222.462,53.095 221.238,53.095 C 219.775,53.095 218.554,52.609 217.579,51.63 C 216.601,50.656 216.112,49.434 216.112,47.97 C 216.112,46.991 216.354,45.771 216.847,44.305 L 228.198,6.592 C 229.564,2.196 232.248,0 236.255,0 C 238.353,0 240.097,0.61 241.488,1.833 C 242.879,3.052 243.848,4.64 244.385,6.592 L 253.095,37.352 L 253.463,37.352 L 262.254,6.592 C 262.789,4.64 263.739,3.052 265.109,1.833 C 266.476,0.61 268.206,0 270.309,0 C 274.31,0 276.996,2.196 278.362,6.592 L 289.715,44.305 L 289.935,44.89 C 290.029,45.286 290.142,45.784 290.265,46.396 C 290.386,47.005 290.445,47.528 290.445,47.97 C 290.445,49.434 289.957,50.656 288.982,51.63 C 288.004,52.609 286.785,53.095 285.318,53.095 Z" fill="#29b6f6" marker-start="none" marker-end="none"/>
         <path d="M 302.16,39.179 C 300.884,39.179 299.776,38.705 298.824,37.75 C 297.874,36.802 297.395,35.689 297.395,34.423 L 297.395,5.857 C 297.395,4.588 297.874,3.48 298.824,2.527 C 299.776,1.575 300.884,1.102 302.16,1.102 C 303.426,1.102 304.536,1.575 305.489,2.527 C 306.441,3.48 306.918,4.588 306.918,5.857 L 306.918,34.423 C 306.918,35.689 306.441,36.802 305.489,37.75 C 304.536,38.705 303.426,39.179 302.16,39.179 Z" fill="#29b6f6" marker-start="none" marker-end="none"/>
         <path d="M 302.16,54.195 C 300.546,54.195 299.226,53.702 298.201,52.728 C 297.174,51.751 296.663,50.532 296.663,49.065 C 296.663,47.605 297.174,46.382 298.201,45.407 C 299.226,44.427 300.546,43.942 302.16,43.942 C 303.769,43.942 305.084,44.427 306.113,45.407 C 307.134,46.382 307.648,47.605 307.648,49.065 C 307.648,50.532 307.134,51.751 306.113,52.728 C 305.084,53.702 303.769,54.195 302.16,54.195 Z" fill="#29b6f6" marker-start="none" marker-end="none"/>
         <path d="M 350.123,9.522 L 339.505,22.701 L 349.387,31.127 L 349.903,31.564 C 350.194,31.856 350.488,32.308 350.782,32.921 C 351.077,33.53 351.222,34.151 351.222,34.79 C 351.222,35.906 350.79,36.919 349.942,37.825 C 349.082,38.729 348.051,39.179 346.829,39.179 C 345.358,39.179 344.02,38.575 342.802,37.352 L 327.055,23.435 L 327.055,49.434 C 327.055,50.701 326.577,51.812 325.627,52.765 C 324.678,53.718 323.564,54.195 322.291,54.195 C 321.025,54.195 319.913,53.718 318.963,52.765 C 318.01,51.812 317.531,50.701 317.531,49.434 L 317.531,5.857 C 317.531,4.588 318.01,3.48 318.963,2.527 C 319.913,1.575 321.025,1.102 322.291,1.102 C 323.564,1.102 324.678,1.575 325.627,2.527 C 326.577,3.48 327.055,4.588 327.055,5.857 L 327.055,11.718 L 332.913,16.844 L 343.9,2.928 L 344.336,2.49 C 344.631,2.196 345.081,1.892 345.692,1.575 C 346.303,1.258 346.928,1.102 347.561,1.102 C 348.827,1.102 349.879,1.513 350.707,2.344 C 351.54,3.175 351.957,4.224 351.957,5.491 C 351.957,6.713 351.341,8.055 350.123,9.522 Z" fill="#29b6f6" marker-start="none" marker-end="none"/>
        </g>
       </g>
      </g>
      <mask id="TranspMask">
       <rect x="-10%" y="-10%" width="120%" height="120%" fill="url(#LinearGradient)" stroke="none"/>
      </mask>
      <g id="Group_5" mask="url(#TranspMask)">
       <g id="Group_6">
        <g id="Group_7">
         <path d="M 145.294,32.341 C 144.908,35.315 142.372,37.542 139.375,37.542 C 136.329,37.542 133.778,35.253 133.444,32.227 L 130.501,5.457 C 130.501,5.457 130.019,0 139.642,0 C 149.272,0 148.79,5.457 148.79,5.457 L 145.294,32.341 Z" fill="#29b6f6" marker-start="none" marker-end="none"/>
         <path d="M 139.642,41.471 C 143.387,41.471 146.419,44.507 146.419,48.253 C 146.419,51.993 143.387,55.028 139.642,55.028 C 135.902,55.028 132.863,51.993 132.863,48.253 C 132.863,44.507 135.902,41.471 139.642,41.471 Z" fill="#29b6f6" marker-start="none" marker-end="none"/>
         <path d="M 167.017,31.619 C 166.703,34.044 164.632,35.858 162.187,35.858 C 159.701,35.858 157.616,33.992 157.345,31.524 L 154.938,9.667 C 154.938,9.667 154.547,5.212 162.403,5.212 C 170.26,5.212 169.867,9.667 169.867,9.667 L 167.017,31.619 Z" fill="#0288d1" marker-start="none" marker-end="none"/>
         <path d="M 162.403,39.069 C 165.462,39.069 167.937,41.546 167.937,44.6 C 167.937,47.656 165.462,50.135 162.403,50.135 C 159.348,50.135 156.87,47.656 156.87,44.6 C 156.87,41.546 159.348,39.069 162.403,39.069 Z" fill="#0288d1" marker-start="none" marker-end="none"/>
         <path d="M 103.929,31.541 L 118.208,44.725 L 118.649,45.239 C 118.941,45.577 119.247,46.092 119.564,46.774 C 119.879,47.455 120.041,48.121 120.041,48.751 C 120.041,50.025 119.564,51.133 118.614,52.087 C 117.656,53.03 116.551,53.513 115.279,53.513 C 113.816,53.513 112.473,52.899 111.251,51.681 L 88.186,30.078 L 88.186,48.385 C 88.186,49.852 87.693,51.069 86.721,52.046 C 85.744,53.022 84.523,53.513 83.056,53.513 C 81.589,53.513 80.372,53.022 79.393,52.046 C 78.42,51.069 77.931,49.852 77.931,48.385 L 77.931,6.644 C 77.931,5.128 78.384,3.896 79.286,2.948 C 80.192,1.992 81.446,1.513 83.056,1.513 C 84.669,1.513 85.928,1.992 86.828,2.948 C 87.734,3.896 88.186,5.128 88.186,6.644 L 88.186,17.262 L 96.602,24.948 L 113.816,3.348 L 114.256,2.907 C 114.548,2.615 115.023,2.309 115.682,1.992 C 116.342,1.673 117.061,1.513 117.848,1.513 C 119.26,1.513 120.408,1.978 121.282,2.907 C 122.165,3.838 122.604,4.96 122.604,6.273 C 122.604,7.497 122.115,8.719 121.14,9.943 L 103.929,31.541 Z" fill="#29b6f6" marker-start="none" marker-end="none"/>
         <path d="M 208.794,30.759 L 182.429,30.759 C 181.161,30.759 180.111,30.343 179.28,29.514 C 178.452,28.682 178.034,27.634 178.034,26.368 C 178.034,25.097 178.452,24.049 179.28,23.214 C 180.111,22.383 181.161,21.97 182.429,21.97 L 208.794,21.97 C 210.066,21.97 211.113,22.383 211.945,23.214 C 212.77,24.049 213.191,25.097 213.191,26.368 C 213.191,27.634 212.77,28.682 211.945,29.514 C 211.113,30.343 210.066,30.759 208.794,30.759 Z" fill="#29b6f6" marker-start="none" marker-end="none"/>
         <path d="M 285.318,53.095 C 284.099,53.095 283.024,52.719 282.101,51.962 C 281.167,51.204 280.535,50.238 280.193,49.068 L 269.796,13.917 L 269.354,13.917 L 260.42,46.874 C 259.245,51.021 256.854,53.095 253.243,53.095 C 249.679,53.095 247.313,51.021 246.137,46.874 L 237.204,13.917 L 236.766,13.917 L 226.363,49.068 C 226.025,50.238 225.39,51.204 224.46,51.962 C 223.535,52.719 222.462,53.095 221.238,53.095 C 219.775,53.095 218.554,52.609 217.579,51.63 C 216.601,50.656 216.112,49.434 216.112,47.97 C 216.112,46.991 216.354,45.771 216.847,44.305 L 228.198,6.592 C 229.564,2.196 232.248,0 236.255,0 C 238.353,0 240.097,0.61 241.488,1.833 C 242.879,3.052 243.848,4.64 244.385,6.592 L 253.095,37.352 L 253.463,37.352 L 262.254,6.592 C 262.789,4.64 263.739,3.052 265.109,1.833 C 266.476,0.61 268.206,0 270.309,0 C 274.31,0 276.996,2.196 278.362,6.592 L 289.715,44.305 L 289.935,44.89 C 290.029,45.286 290.142,45.784 290.265,46.396 C 290.386,47.005 290.445,47.528 290.445,47.97 C 290.445,49.434 289.957,50.656 288.982,51.63 C 288.004,52.609 286.785,53.095 285.318,53.095 Z" fill="#29b6f6" marker-start="none" marker-end="none"/>
         <path d="M 302.16,39.179 C 300.884,39.179 299.776,38.705 298.824,37.75 C 297.874,36.802 297.395,35.689 297.395,34.423 L 297.395,5.857 C 297.395,4.588 297.874,3.48 298.824,2.527 C 299.776,1.575 300.884,1.102 302.16,1.102 C 303.426,1.102 304.536,1.575 305.489,2.527 C 306.441,3.48 306.918,4.588 306.918,5.857 L 306.918,34.423 C 306.918,35.689 306.441,36.802 305.489,37.75 C 304.536,38.705 303.426,39.179 302.16,39.179 Z" fill="#29b6f6" marker-start="none" marker-end="none"/>
         <path d="M 302.16,54.195 C 300.546,54.195 299.226,53.702 298.201,52.728 C 297.174,51.751 296.663,50.532 296.663,49.065 C 296.663,47.605 297.174,46.382 298.201,45.407 C 299.226,44.427 300.546,43.942 302.16,43.942 C 303.769,43.942 305.084,44.427 306.113,45.407 C 307.134,46.382 307.648,47.605 307.648,49.065 C 307.648,50.532 307.134,51.751 306.113,52.728 C 305.084,53.702 303.769,54.195 302.16,54.195 Z" fill="#29b6f6" marker-start="none" marker-end="none"/>
         <path d="M 350.123,9.522 L 339.505,22.701 L 349.387,31.127 L 349.903,31.564 C 350.194,31.856 350.488,32.308 350.782,32.921 C 351.077,33.53 351.222,34.151 351.222,34.79 C 351.222,35.906 350.79,36.919 349.942,37.825 C 349.082,38.729 348.051,39.179 346.829,39.179 C 345.358,39.179 344.02,38.575 342.802,37.352 L 327.055,23.435 L 327.055,49.434 C 327.055,50.701 326.577,51.812 325.627,52.765 C 324.678,53.718 323.564,54.195 322.291,54.195 C 321.025,54.195 319.913,53.718 318.963,52.765 C 318.01,51.812 317.531,50.701 317.531,49.434 L 317.531,5.857 C 317.531,4.588 318.01,3.48 318.963,2.527 C 319.913,1.575 321.025,1.102 322.291,1.102 C 323.564,1.102 324.678,1.575 325.627,2.527 C 326.577,3.48 327.055,4.588 327.055,5.857 L 327.055,11.718 L 332.913,16.844 L 343.9,2.928 L 344.336,2.49 C 344.631,2.196 345.081,1.892 345.692,1.575 C 346.303,1.258 346.928,1.102 347.561,1.102 C 348.827,1.102 349.879,1.513 350.707,2.344 C 351.54,3.175 351.957,4.224 351.957,5.491 C 351.957,6.713 351.341,8.055 350.123,9.522 Z" fill="#29b6f6" marker-start="none" marker-end="none"/>
        </g>
       </g>
      </g>
     </g>
     <g id="Group_8">
      <path d="M 26.512,26.472 C 16.652,34.155 14.885,48.394 22.569,58.255 C 30.252,68.115 44.491,69.882 54.352,62.198 C 64.212,54.515 65.979,40.276 58.295,30.415 C 50.612,20.555 36.373,18.788 26.512,26.472 Z M 52.138,35.213 C 57.174,41.675 56.016,51.006 49.554,56.041 C 43.092,61.077 33.761,59.919 28.726,53.457 C 23.69,46.995 24.848,37.664 31.31,32.629 C 37.772,27.593 47.103,28.751 52.138,35.213 Z" stroke="#191919" fill="#81d2ff" stroke-width="0.773" stroke-linejoin="miter" marker-start="none" marker-end="none" stroke-miterlimit="79.8403193612775"/>
      <path d="M 15.588,37.515 L 15.588,6.038 C 15.588,3.148 17.935,0.801 20.825,0.801 L 60.038,0.801 C 62.928,0.801 65.275,3.148 65.275,6.038 L 65.275,37.515 C 65.275,40.405 62.928,42.752 60.038,42.752 L 20.825,42.752 C 17.935,42.752 15.588,40.405 15.588,37.515 Z" stroke="#191919" fill="#0288d1" stroke-width="1" stroke-linejoin="miter" marker-start="none" marker-end="none" stroke-miterlimit="79.8403193612775"/>
      <path d="M 64.866,62.919 L 78.182,75.347" fill="none" stroke="#01598b" stroke-width="0.862" stroke-linejoin="round" stroke-linecap="round" stroke-miterlimit="79.8403193612775"/>
      <path d="M 14.629,59.394 L 0.459,72.62" fill="none" stroke="#01598b" stroke-width="0.918" stroke-linejoin="round" stroke-linecap="round" stroke-miterlimit="79.8403193612775"/>
      <path d="M 40.231,85.909 L 40.231,70.909" fill="none" stroke="#01598b" stroke-width="1.093" stroke-linejoin="round" stroke-linecap="round" stroke-miterlimit="79.8403193612775"/>
      <path d="M 27.441,67.903 L 16.422,82.494" fill="none" stroke="#01598b" stroke-width="1.093" stroke-linejoin="round" stroke-linecap="round" stroke-miterlimit="79.8403193612775"/>
      <path d="M 54.209,67.903 L 65.228,82.494" fill="none" stroke="#01598b" stroke-width="1.093" stroke-linejoin="round" stroke-linecap="round" stroke-miterlimit="79.8403193612775"/>
     </g>
    </g>
   </g>
  </g>
 </g>
</svg>
