<?xml version="1.0" standalone="no"?>
<!DOCTYPE svg PUBLIC "-//W3C//DTD SVG 1.1//EN" "http://www.w3.org/Graphics/SVG/1.1/DTD/svg11.dtd">
<!--Generator: Xara Designer (www.xara.com), SVG filter version: 6.2.0.0-->
<svg stroke-width="0.501" stroke-linejoin="bevel" fill-rule="evenodd" xmlns:xlink="http://www.w3.org/1999/xlink" xmlns="http://www.w3.org/2000/svg" version="1.1" overflow="visible" width="40.828pt" height="49.96pt" viewBox="0 0 40.828 49.96">
 <defs>
	</defs>
 <g id="Document" fill="none" stroke="black" font-family="Times New Roman" font-size="16" transform="scale(1 -1)">
  <g id="Spread" transform="translate(0 -49.96)">
   <g id="Layer 1">
    <g id="Group">
     <g id="Group_1">
      <g id="Group_2">
       <g id="Group_3">
        <g id="Group_4">
         <g id="Group_5">
          <path d="M 15.775,19.58 L 15.444,10.913 L 20.51,4.33 L 26.019,11.246 L 25.757,19.58 L 15.775,19.58 Z" stroke="#012e42" fill="#ffffff" stroke-width="0.826" stroke-linejoin="miter" stroke-linecap="round" marker-start="none" marker-end="none" stroke-miterlimit="79.8403193612775"/>
          <g id="ClipView" stroke="none">
           <path d="M 15.775,19.58 L 15.444,10.913 L 20.51,4.33 L 26.019,11.246 L 25.757,19.58 L 15.775,19.58 Z" marker-start="none" marker-end="none"/>
           <clipPath id="ClipPath">
            <path d="M 15.775,19.58 L 15.444,10.913 L 20.51,4.33 L 26.019,11.246 L 25.757,19.58 L 15.775,19.58 Z"/>
           </clipPath>
           <g clip-path="url(#ClipPath)">
            <path d="M 19.666,20.491 L 24.871,9.592 L 31.345,14.094 L 33.206,16.978 L 27.946,20.772 L 19.666,20.491 Z" stroke-opacity="0.145098" fill="#7f7f7f" stroke-width="1.19" stroke-linejoin="miter" stroke-linecap="round" marker-start="none" marker-end="none" stroke-miterlimit="79.8403193612775" fill-opacity="0.145098"/>
           </g>
          </g>
         </g>
         <path d="M 19.297,48.353 C 13.991,45.179 9.347,40.806 8.686,34.749 C 7.23,45.175 13.767,48.172 19.297,48.353 Z" stroke="#28b6f6" fill="#ffffff" stroke-width="0.272" stroke-linejoin="round" stroke-linecap="round" marker-start="none" marker-end="none" stroke-miterlimit="79.8403193612775"/>
         <path d="M 25.991,29.826 C 26.581,29.826 27.06,30.305 27.06,30.895 C 27.06,31.486 26.581,31.965 25.991,31.965 C 25.4,31.965 24.922,31.486 24.922,30.895 C 24.922,30.305 25.4,29.826 25.991,29.826 Z" stroke="#28b6f6" fill="#012e42" stroke-width="0.106" stroke-linejoin="miter" marker-start="none" marker-end="none" stroke-miterlimit="79.8403193612775"/>
         <path d="M 15.297,29.826 C 15.886,29.826 16.366,30.305 16.366,30.895 C 16.366,31.486 15.886,31.965 15.297,31.965 C 14.705,31.965 14.227,31.486 14.227,30.895 C 14.227,30.305 14.705,29.826 15.297,29.826 Z" stroke="#28b6f6" fill="#012e42" stroke-width="0.106" stroke-linejoin="miter" marker-start="none" marker-end="none" stroke-miterlimit="79.8403193612775"/>
         <path d="M 17.785,22.475 C 18.682,22.052 19.644,21.837 20.644,21.837 C 21.621,21.837 22.564,22.044 23.448,22.449 C 23.984,22.696 24.219,23.331 23.972,23.868 C 23.725,24.404 23.091,24.639 22.554,24.393 C 21.952,24.117 21.31,23.977 20.644,23.977 C 19.962,23.977 19.307,24.122 18.697,24.409 C 18.162,24.661 17.525,24.432 17.274,23.898 C 17.022,23.364 17.25,22.727 17.785,22.475 Z" stroke="#28b6f6" fill="#012e42" stroke-width="0.106" stroke-linejoin="miter" marker-start="none" marker-end="none" stroke-miterlimit="79.8403193612775"/>
         <g id="Group_6">
          <path d="M 7.642,36.973 L 7.642,30.555 C 7.642,23.656 13.24,18.057 20.139,18.057 L 21.244,18.057 C 28.143,18.057 33.742,23.656 33.742,30.555 L 33.742,36.973 C 33.742,43.871 28.143,49.47 21.244,49.47 L 20.139,49.47 C 13.24,49.47 7.642,43.871 7.642,36.973 Z" stroke="#012e42" fill="#ffffff" stroke-width="0.979" stroke-linejoin="miter" stroke-linecap="round" marker-start="none" marker-end="none" stroke-miterlimit="79.8403193612775"/>
          <g id="ClipView_1">
           <path d="M 7.642,36.973 L 7.642,30.555 C 7.642,23.656 13.24,18.057 20.139,18.057 L 21.244,18.057 C 28.143,18.057 33.742,23.656 33.742,30.555 L 33.742,36.973 C 33.742,43.871 28.143,49.47 21.244,49.47 L 20.139,49.47 C 13.24,49.47 7.642,43.871 7.642,36.973 Z" stroke="none" marker-start="none" marker-end="none"/>
           <clipPath id="ClipPath_1">
            <path d="M 7.642,36.973 L 7.642,30.555 C 7.642,23.656 13.24,18.057 20.139,18.057 L 21.244,18.057 C 28.143,18.057 33.742,23.656 33.742,30.555 L 33.742,36.973 C 33.742,43.871 28.143,49.47 21.244,49.47 L 20.139,49.47 C 13.24,49.47 7.642,43.871 7.642,36.973 Z"/>
           </clipPath>
           <g clip-path="url(#ClipPath_1)">
            <g id="Group_7">
             <path d="M 7.934,33.559 L 6.959,34.145 L 6.959,38.06 C 6.959,44.585 12.255,49.881 18.779,49.881 L 22.604,49.881 C 29.128,49.881 34.424,44.585 34.424,38.06 L 34.424,34.768 L 33.49,33.834 L 30.101,38.597 C 23.32,33.181 17.049,33.435 11.232,38.734 L 7.934,33.559 Z" stroke="#012e42" fill="#012e42" stroke-width="0.99" stroke-linejoin="miter" stroke-linecap="round" marker-start="none" marker-end="none" stroke-miterlimit="79.8403193612775"/>
             <g id="ClipView_2" stroke="none">
              <path d="M 7.934,33.559 L 6.959,34.145 L 6.959,38.06 C 6.959,44.585 12.255,49.881 18.779,49.881 L 22.604,49.881 C 29.128,49.881 34.424,44.585 34.424,38.06 L 34.424,34.768 L 33.49,33.834 L 30.101,38.597 C 23.32,33.181 17.049,33.435 11.232,38.734 L 7.934,33.559 Z" marker-start="none" marker-end="none"/>
              <clipPath id="ClipPath_2">
               <path d="M 7.934,33.559 L 6.959,34.145 L 6.959,38.06 C 6.959,44.585 12.255,49.881 18.779,49.881 L 22.604,49.881 C 29.128,49.881 34.424,44.585 34.424,38.06 L 34.424,34.768 L 33.49,33.834 L 30.101,38.597 C 23.32,33.181 17.049,33.435 11.232,38.734 L 7.934,33.559 Z"/>
              </clipPath>
              <g clip-path="url(#ClipPath_2)">
               <path d="M 7.186,35.605 C 7.882,41.979 12.77,46.581 18.352,49.921 C 12.533,49.731 5.655,46.576 7.186,35.605 Z" fill="#ffffff" stroke-width="0.287" stroke-linejoin="round" stroke-linecap="round" marker-start="none" marker-end="none" stroke-miterlimit="79.8403193612775"/>
              </g>
             </g>
            </g>
           </g>
          </g>
         </g>
         <path d="M 26.142,17.104 C 37.263,17.843 41.467,11.482 40.451,0.244 L 0.27,0.271 C 1.145,11.895 6.84,17.604 15.565,16.923 C 15.358,12.469 18.476,12.036 20.875,12.063 C 23.305,12.09 26.019,14.094 26.142,17.104 Z" stroke="#012e42" fill="#28b6f6" stroke-width="0.487" stroke-linejoin="miter" marker-start="none" marker-end="none" stroke-miterlimit="79.8403193612775"/>
         <path d="M 14.099,16.414 C 14.223,9.76 26.299,8.588 27.666,16.516" fill="none" stroke="#000000" stroke-width="0.204" stroke-linejoin="round" stroke-linecap="round" stroke-miterlimit="79.8403193612775"/>
        </g>
       </g>
      </g>
     </g>
    </g>
   </g>
  </g>
 </g>
</svg>
