<?xml version="1.0" standalone="no"?>
<!DOCTYPE svg PUBLIC "-//W3C//DTD SVG 1.1//EN" "http://www.w3.org/Graphics/SVG/1.1/DTD/svg11.dtd">
<!--Generator: Xara Designer (www.xara.com), SVG filter version: 6.2.0.0-->
<svg stroke-width="0.501" stroke-linejoin="bevel" fill-rule="evenodd" xmlns:xlink="http://www.w3.org/1999/xlink" xmlns="http://www.w3.org/2000/svg" version="1.1" overflow="visible" width="102.1pt" height="102.1pt" viewBox="0 0 102.1 102.1">
 <defs>
	</defs>
 <g id="Document" fill="none" stroke="black" font-family="Times New Roman" font-size="16" transform="scale(1 -1)">
  <g id="Spread" transform="translate(0 -102.1)">
   <g id="Layer 1">
    <g id="ClipView">
     <path d="M 12.971,81.979 C 30.044,102.998 60.959,106.201 81.979,89.129 C 102.998,72.056 106.201,41.141 89.129,20.121 C 72.056,-0.898 41.141,-4.101 20.121,12.971 C -0.898,30.044 -4.101,60.959 12.971,81.979 Z" stroke="#0288d1" fill="#ffffff" stroke-width="4" stroke-linejoin="round" stroke-linecap="round" marker-start="none" marker-end="none" stroke-miterlimit="79.8403193612775"/>
     <clipPath id="ClipPath">
      <path d="M 12.971,81.979 C 30.044,102.998 60.959,106.201 81.979,89.129 C 102.998,72.056 106.201,41.141 89.129,20.121 C 72.056,-0.898 41.141,-4.101 20.121,12.971 C -0.898,30.044 -4.101,60.959 12.971,81.979 Z"/>
     </clipPath>
     <g clip-path="url(#ClipPath)">
      <g id="Group">
       <g id="Group_1">
        <path d="M 43.706,36.278 L 43.145,21.582 L 51.735,10.42 L 61.075,22.147 L 60.631,36.278 L 43.706,36.278 Z" stroke="#012e42" fill="#ffffff" stroke-width="1.547" stroke-linejoin="miter" stroke-linecap="round" marker-start="none" marker-end="none" stroke-miterlimit="79.8403193612775"/>
        <g id="ClipView_1" stroke="none">
         <path d="M 43.706,36.278 L 43.145,21.582 L 51.735,10.42 L 61.075,22.147 L 60.631,36.278 L 43.706,36.278 Z" marker-start="none" marker-end="none"/>
         <clipPath id="ClipPath_1">
          <path d="M 43.706,36.278 L 43.145,21.582 L 51.735,10.42 L 61.075,22.147 L 60.631,36.278 L 43.706,36.278 Z"/>
         </clipPath>
         <g clip-path="url(#ClipPath_1)">
          <path d="M 50.304,37.822 L 59.129,19.342 L 70.106,26.976 L 73.261,31.865 L 64.343,38.299 L 50.304,37.822 Z" stroke-opacity="0.145098" fill="#7f7f7f" stroke-width="2.228" stroke-linejoin="miter" stroke-linecap="round" marker-start="none" marker-end="none" stroke-miterlimit="79.8403193612775" fill-opacity="0.145098"/>
         </g>
        </g>
       </g>
       <path d="M 49.678,85.063 C 40.681,79.682 32.807,72.267 31.686,61.997 C 29.218,79.675 40.302,84.757 49.678,85.063 Z" stroke="#28b6f6" fill="#ffffff" stroke-width="0.509" stroke-linejoin="round" stroke-linecap="round" marker-start="none" marker-end="none" stroke-miterlimit="79.8403193612775"/>
       <path d="M 61.028,53.65 C 62.029,53.65 62.841,54.462 62.841,55.463 C 62.841,56.465 62.029,57.276 61.028,57.276 C 60.026,57.276 59.216,56.465 59.216,55.463 C 59.216,54.462 60.026,53.65 61.028,53.65 Z" stroke="#28b6f6" fill="#012e42" stroke-width="0.198" stroke-linejoin="miter" marker-start="none" marker-end="none" stroke-miterlimit="79.8403193612775"/>
       <path d="M 42.896,53.65 C 43.895,53.65 44.708,54.462 44.708,55.463 C 44.708,56.465 43.895,57.276 42.896,57.276 C 41.892,57.276 41.082,56.465 41.082,55.463 C 41.082,54.462 41.892,53.65 42.896,53.65 Z" stroke="#28b6f6" fill="#012e42" stroke-width="0.198" stroke-linejoin="miter" marker-start="none" marker-end="none" stroke-miterlimit="79.8403193612775"/>
       <path d="M 47.114,41.186 C 48.635,40.469 50.266,40.104 51.962,40.104 C 53.619,40.104 55.218,40.455 56.716,41.142 C 57.625,41.56 58.024,42.638 57.604,43.548 C 57.186,44.457 56.111,44.855 55.2,44.438 C 54.18,43.97 53.091,43.732 51.962,43.732 C 50.805,43.732 49.695,43.979 48.66,44.465 C 47.753,44.893 46.674,44.504 46.248,43.599 C 45.821,42.693 46.207,41.613 47.114,41.186 Z" stroke="#28b6f6" fill="#012e42" stroke-width="0.198" stroke-linejoin="miter" marker-start="none" marker-end="none" stroke-miterlimit="79.8403193612775"/>
       <g id="Group_2">
        <path d="M 29.916,65.768 L 29.916,54.886 C 29.916,43.188 39.408,33.695 51.106,33.695 L 52.979,33.695 C 64.677,33.695 74.17,43.188 74.17,54.886 L 74.17,65.768 C 74.17,77.464 64.677,86.957 52.979,86.957 L 51.106,86.957 C 39.408,86.957 29.916,77.464 29.916,65.768 Z" stroke="#012e42" fill="#ffffff" stroke-width="1.833" stroke-linejoin="miter" stroke-linecap="round" marker-start="none" marker-end="none" stroke-miterlimit="79.8403193612775"/>
        <g id="ClipView_2">
         <path d="M 29.916,65.768 L 29.916,54.886 C 29.916,43.188 39.408,33.695 51.106,33.695 L 52.979,33.695 C 64.677,33.695 74.17,43.188 74.17,54.886 L 74.17,65.768 C 74.17,77.464 64.677,86.957 52.979,86.957 L 51.106,86.957 C 39.408,86.957 29.916,77.464 29.916,65.768 Z" stroke="none" marker-start="none" marker-end="none"/>
         <clipPath id="ClipPath_2">
          <path d="M 29.916,65.768 L 29.916,54.886 C 29.916,43.188 39.408,33.695 51.106,33.695 L 52.979,33.695 C 64.677,33.695 74.17,43.188 74.17,54.886 L 74.17,65.768 C 74.17,77.464 64.677,86.957 52.979,86.957 L 51.106,86.957 C 39.408,86.957 29.916,77.464 29.916,65.768 Z"/>
         </clipPath>
         <g clip-path="url(#ClipPath_2)">
          <g id="Group_3">
           <path d="M 30.411,59.979 L 28.758,60.973 L 28.758,67.611 C 28.758,78.675 37.737,87.654 48.8,87.654 L 55.285,87.654 C 66.347,87.654 75.327,78.675 75.327,67.611 L 75.327,62.029 L 73.742,60.446 L 67.997,68.522 C 56.499,59.338 45.866,59.769 36.003,68.754 L 30.411,59.979 Z" stroke="#012e42" fill="#012e42" stroke-width="1.854" stroke-linejoin="miter" stroke-linecap="round" marker-start="none" marker-end="none" stroke-miterlimit="79.8403193612775"/>
           <g id="ClipView_3" stroke="none">
            <path d="M 30.411,59.979 L 28.758,60.973 L 28.758,67.611 C 28.758,78.675 37.737,87.654 48.8,87.654 L 55.285,87.654 C 66.347,87.654 75.327,78.675 75.327,67.611 L 75.327,62.029 L 73.742,60.446 L 67.997,68.522 C 56.499,59.338 45.866,59.769 36.003,68.754 L 30.411,59.979 Z" marker-start="none" marker-end="none"/>
            <clipPath id="ClipPath_3">
             <path d="M 30.411,59.979 L 28.758,60.973 L 28.758,67.611 C 28.758,78.675 37.737,87.654 48.8,87.654 L 55.285,87.654 C 66.347,87.654 75.327,78.675 75.327,67.611 L 75.327,62.029 L 73.742,60.446 L 67.997,68.522 C 56.499,59.338 45.866,59.769 36.003,68.754 L 30.411,59.979 Z"/>
            </clipPath>
            <g clip-path="url(#ClipPath_3)">
             <path d="M 29.143,63.448 C 30.324,74.256 38.612,82.059 48.075,87.722 C 38.209,87.4 26.547,82.051 29.143,63.448 Z" fill="#ffffff" stroke-width="0.537" stroke-linejoin="round" stroke-linecap="round" marker-start="none" marker-end="none" stroke-miterlimit="79.8403193612775"/>
            </g>
           </g>
          </g>
         </g>
        </g>
       </g>
       <path d="M 61.284,32.079 C 80.14,33.332 87.268,22.547 85.546,3.492 L 17.417,3.538 C 18.9,23.247 28.556,32.927 43.349,31.772 C 42.999,24.22 48.285,23.486 52.354,23.531 C 56.473,23.578 61.075,26.976 61.284,32.079 Z" stroke="#012e42" fill="#28b6f6" stroke-width="0.912" stroke-linejoin="miter" marker-start="none" marker-end="none" stroke-miterlimit="79.8403193612775"/>
       <path d="M 40.865,30.909 C 41.074,19.627 61.55,17.64 63.868,31.082" fill="none" stroke="#000000" stroke-width="0.382" stroke-linejoin="round" stroke-linecap="round" stroke-miterlimit="79.8403193612775"/>
      </g>
     </g>
    </g>
   </g>
  </g>
 </g>
</svg>
